<svg xmlns="http://www.w3.org/2000/svg" xmlns:osb="http://www.openswatchbook.org/uri/2009/osb" xmlns:svg="http://www.w3.org/2000/svg" id="svg8" width="727.92" height="188.588" version="1.1" viewBox="0 0 192.595 49.897"><defs id="defs2"><marker style="overflow:visible" id="Arrow2Lend" orient="auto" refX="0" refY="0"><path style="fill:#000;fill-opacity:1;fill-rule:evenodd;stroke:#000;stroke-width:.625;stroke-linejoin:round;stroke-opacity:1" id="path953" d="M 8.7185878,4.0337352 -2.2072895,0.01601326 8.7185884,-4.0017078 c -1.7454984,2.3720609 -1.7354408,5.6174519 -6e-7,8.035443 z" transform="matrix(-1.1,0,0,-1.1,-1.1,0)"/></marker><marker style="overflow:visible" id="Arrow1Mstart" orient="auto" refX="0" refY="0"><path style="fill:#000;fill-opacity:1;fill-rule:evenodd;stroke:#000;stroke-width:1pt;stroke-opacity:1" id="path938" d="M 0,0 5,-5 -12.5,0 5,5 Z" transform="matrix(0.4,0,0,0.4,4,0)"/></marker><marker style="overflow:visible" id="Arrow1Lend" orient="auto" refX="0" refY="0"><path style="fill:#000;fill-opacity:1;fill-rule:evenodd;stroke:#000;stroke-width:1pt;stroke-opacity:1" id="path935" d="M 0,0 5,-5 -12.5,0 5,5 Z" transform="matrix(-0.8,0,0,-0.8,-10,0)"/></marker><linearGradient id="linearGradient837" osb:paint="solid"><stop id="stop835" offset="0" style="stop-color:#c8b7b7;stop-opacity:1"/></linearGradient></defs><metadata id="metadata5"/><g id="layer1" transform="translate(-7.324486,-104.87757)"><path style="display:inline;opacity:1;fill:#c8b7b7;fill-opacity:1;fill-rule:evenodd;stroke:#000;stroke-width:1.8897638;stroke-miterlimit:4;stroke-dasharray:none;stroke-opacity:1" id="path10" d="m 93.572266,445.04883 c -21.86703,-1e-5 -39.593763,17.72672 -39.59375,39.59375 -1.3e-5,21.86703 17.72672,39.59376 39.59375,39.59375 13.161194,-3.5e-4 25.461944,-6.5405 32.822264,-17.45117 H 278.0332 c 7.3607,10.91124 19.66233,17.45147 32.82422,17.45117 21.86703,1e-5 39.59376,-17.72672 39.59375,-39.59375 1e-5,-21.86703 -17.72672,-39.59376 -39.59375,-39.59375 -13.1612,3.5e-4 -25.46195,6.5405 -32.82226,17.45117 H 126.39453 c -7.36032,-10.91067 -19.66107,-17.45082 -32.822264,-17.45117 z" transform="scale(0.26458333)"/><text id="text873" x="22.49" y="144.263" xml:space="preserve" style="font-style:normal;font-variant:normal;font-weight:400;font-stretch:normal;font-size:6.35px;line-height:1.25;font-family:sans-serif;-inkscape-font-specification:'sans-serif, Normal';font-variant-ligatures:normal;font-variant-caps:normal;font-variant-numeric:normal;font-variant-east-asian:normal;fill:#000;fill-opacity:1;stroke:none;stroke-width:.264583"><tspan style="font-style:normal;font-variant:normal;font-weight:400;font-stretch:normal;font-size:6.35px;font-family:sans-serif;-inkscape-font-specification:'sans-serif, Normal';font-variant-ligatures:normal;font-variant-caps:normal;font-variant-numeric:normal;font-variant-east-asian:normal;stroke-width:.264583" id="tspan871" x="22.49" y="144.263">u</tspan></text><text id="text877" x="79.828" y="144.311" xml:space="preserve" style="font-style:normal;font-variant:normal;font-weight:400;font-stretch:normal;font-size:6.35px;line-height:1.25;font-family:sans-serif;-inkscape-font-specification:'sans-serif, Normal';font-variant-ligatures:normal;font-variant-caps:normal;font-variant-numeric:normal;font-variant-east-asian:normal;fill:#000;fill-opacity:1;stroke:none;stroke-width:.264583"><tspan style="font-style:normal;font-variant:normal;font-weight:400;font-stretch:normal;font-size:6.35px;font-family:sans-serif;-inkscape-font-specification:'sans-serif, Normal';font-variant-ligatures:normal;font-variant-caps:normal;font-variant-numeric:normal;font-variant-east-asian:normal;stroke-width:.264583" id="tspan875" x="79.828" y="144.311">v</tspan></text><text id="text893" x="54.122" y="117.064" xml:space="preserve" style="font-style:normal;font-variant:normal;font-weight:400;font-stretch:normal;font-size:6.35px;line-height:1.25;font-family:sans-serif;-inkscape-font-specification:'sans-serif, Normal';font-variant-ligatures:normal;font-variant-caps:normal;font-variant-numeric:normal;font-variant-east-asian:normal;fill:#000;fill-opacity:1;stroke:none;stroke-width:.264583"><tspan style="font-style:normal;font-variant:normal;font-weight:400;font-stretch:normal;font-size:6.35px;font-family:sans-serif;-inkscape-font-specification:'sans-serif, Normal';font-variant-ligatures:normal;font-variant-caps:normal;font-variant-numeric:normal;font-variant-east-asian:normal;stroke-width:.264583" id="tspan891" x="54.122" y="117.064">e</tspan></text><text style="font-style:normal;font-variant:normal;font-weight:400;font-stretch:normal;font-size:6.35px;line-height:1.25;font-family:sans-serif;-inkscape-font-specification:'sans-serif, Normal';font-variant-ligatures:normal;font-variant-caps:normal;font-variant-numeric:normal;font-variant-east-asian:normal;fill:#000;fill-opacity:1;stroke:none;stroke-width:.264583" id="text893-3" x="160.118" y="117.529" xml:space="preserve"><tspan id="tspan891-0" x="160.118" y="117.529" style="font-style:normal;font-variant:normal;font-weight:400;font-stretch:normal;font-size:6.35px;font-family:sans-serif;-inkscape-font-specification:'sans-serif, Normal';font-variant-ligatures:normal;font-variant-caps:normal;font-variant-numeric:normal;font-variant-east-asian:normal;stroke-width:.264583">e</tspan></text><text style="font-style:normal;font-variant:normal;font-weight:400;font-stretch:normal;font-size:6.35px;line-height:1.25;font-family:sans-serif;-inkscape-font-specification:'sans-serif, Normal';font-variant-ligatures:normal;font-variant-caps:normal;font-variant-numeric:normal;font-variant-east-asian:normal;fill:#000;fill-opacity:1;stroke:none;stroke-width:.264583" id="text877-9" x="185.824" y="144.776" xml:space="preserve"><tspan id="tspan875-3" x="185.824" y="144.776" style="font-style:normal;font-variant:normal;font-weight:400;font-stretch:normal;font-size:6.35px;font-family:sans-serif;-inkscape-font-specification:'sans-serif, Normal';font-variant-ligatures:normal;font-variant-caps:normal;font-variant-numeric:normal;font-variant-east-asian:normal;stroke-width:.264583">v</tspan></text><text style="font-style:normal;font-variant:normal;font-weight:400;font-stretch:normal;font-size:6.35px;line-height:1.25;font-family:sans-serif;-inkscape-font-specification:'sans-serif, Normal';font-variant-ligatures:normal;font-variant-caps:normal;font-variant-numeric:normal;font-variant-east-asian:normal;fill:#000;fill-opacity:1;stroke:none;stroke-width:.264583" id="text873-3" x="128.485" y="144.728" xml:space="preserve"><tspan id="tspan871-4" x="128.485" y="144.728" style="font-style:normal;font-variant:normal;font-weight:400;font-stretch:normal;font-size:6.35px;font-family:sans-serif;-inkscape-font-specification:'sans-serif, Normal';font-variant-ligatures:normal;font-variant-caps:normal;font-variant-numeric:normal;font-variant-east-asian:normal;stroke-width:.264583">u</tspan></text><path id="path10-8" d="m 130.75309,118.21715 c -5.78565,0 -10.47585,4.6902 -10.47584,10.47585 -10e-6,5.78565 4.69019,10.47585 10.47584,10.47584 3.48223,-9e-5 6.73681,-1.7305 8.68423,-4.61729 h 40.12107 c 1.94751,2.88694 5.20232,4.61737 8.68474,4.61729 5.78565,1e-5 10.47585,-4.69019 10.47584,-10.47584 10e-6,-5.78565 -4.69019,-10.47585 -10.47584,-10.47585 -3.48224,9e-5 -6.73681,1.73051 -8.68422,4.61729 h -40.12159 c -1.94742,-2.88678 -5.202,-4.6172 -8.68423,-4.61729 z" style="fill:#c8b7b7;fill-opacity:1;fill-rule:evenodd;stroke:#000;stroke-width:.5;stroke-miterlimit:4;stroke-dasharray:none;stroke-opacity:1"/></g><g id="layer2" transform="translate(-7.324486,-104.87757)"><path id="path887" d="M 8.4189896,145.79552 27.662395,126.15121 h 54.565312 l 5.42061,22.45064" style="fill:none;stroke:#f20000;stroke-width:.5;stroke-linecap:butt;stroke-linejoin:miter;stroke-opacity:1;stroke-miterlimit:4;stroke-dasharray:none"/><path id="path889" d="m 17.907058,109.1796 8.552626,22.04974 H 79.14874 l 4.27631,-22.31701" style="fill:none;stroke:#00f;stroke-width:.5;stroke-linecap:butt;stroke-linejoin:miter;stroke-opacity:1;stroke-miterlimit:4;stroke-dasharray:none"/><path id="path930" d="M 95.949758,128.48288 H 115.99497" style="fill:none;stroke:#000;stroke-width:.8;stroke-linecap:butt;stroke-linejoin:miter;stroke-miterlimit:4;stroke-dasharray:none;stroke-dashoffset:.5085;stroke-opacity:1;marker-end:url(#Arrow2Lend)"/><path style="fill:none;stroke:#f20000;stroke-width:.5;stroke-linecap:butt;stroke-linejoin:miter;stroke-opacity:1;stroke-miterlimit:4;stroke-dasharray:none" id="path887-5" d="m 115.4835,150.93739 19.24341,-19.64431 h 54.56531 l 5.42061,22.45064"/><path style="fill:none;stroke:#00f;stroke-width:.5;stroke-linecap:butt;stroke-linejoin:miter;stroke-opacity:1;stroke-miterlimit:4;stroke-dasharray:none" id="path889-7" d="m 125.64511,106.16974 8.55262,22.04974 h 52.68906 l 4.27631,-22.31701"/></g></svg>