<svg xmlns="http://www.w3.org/2000/svg" xmlns:svg="http://www.w3.org/2000/svg" id="svg8" width="421.845" height="327.998" version="1.1" viewBox="0 0 111.613 86.783"><defs id="defs2"><marker id="Arrow2Send" orient="auto" refX="0" refY="0" style="overflow:visible"><path id="path973" d="M 8.7185878,4.0337352 -2.2072895,0.01601326 8.7185884,-4.0017078 c -1.7454984,2.3720609 -1.7354408,5.6174519 -6e-7,8.035443 z" transform="matrix(-0.3,0,0,-0.3,0.69,0)" style="fill:#000;fill-opacity:1;fill-rule:evenodd;stroke:#000;stroke-width:.625;stroke-linejoin:round;stroke-opacity:1"/></marker><marker style="overflow:visible" id="marker2042" orient="auto" refX="0" refY="0"><path style="fill:#00b600;fill-opacity:1;fill-rule:evenodd;stroke:#00b600;stroke-width:1pt;stroke-opacity:1" id="path2040" d="M 0,0 5,-5 -12.5,0 5,5 Z" transform="matrix(-0.2,0,0,-0.2,-1.2,0)"/></marker><marker id="Arrow1Send" orient="auto" refX="0" refY="0" style="overflow:visible"><path id="path955" d="M 0,0 5,-5 -12.5,0 5,5 Z" transform="matrix(-0.2,0,0,-0.2,-1.2,0)" style="fill:red;fill-opacity:1;fill-rule:evenodd;stroke:red;stroke-width:1pt;stroke-opacity:1"/></marker><marker id="Arrow1Mend" orient="auto" refX="0" refY="0" style="overflow:visible"><path id="path949" d="M 0,0 5,-5 -12.5,0 5,5 Z" transform="matrix(-0.4,0,0,-0.4,-4,0)" style="fill:#00b600;fill-opacity:1;fill-rule:evenodd;stroke:#00b600;stroke-width:1pt;stroke-opacity:1"/></marker><marker id="DotL" orient="auto" refX="0" refY="0" style="overflow:visible"><path id="path1001" d="m -2.5,-1 c 0,2.76 -2.24,5 -5,5 -2.76,0 -5,-2.24 -5,-5 0,-2.76 2.24,-5 5,-5 2.76,0 5,2.24 5,5 z" transform="matrix(0.8,0,0,0.8,5.92,0.8)" style="fill:#c8b7b7;fill-opacity:1;fill-rule:evenodd;stroke:#c8b7b7;stroke-width:1pt;stroke-opacity:1"/></marker></defs><metadata id="metadata5"/><g id="layer1" transform="translate(-12.488216,-63.752846)"><circle style="fill:#c8b7b7;fill-opacity:1;stroke:#c8b7b7;stroke-width:1;stroke-linecap:round;stroke-linejoin:miter;stroke-miterlimit:4;stroke-dasharray:none;stroke-opacity:1;paint-order:normal" id="path1896" cx="109.424" cy="82.115" r="6.331"/><circle id="path1896-7" cx="38.459" cy="128.228" r="6.331" style="fill:#c8b7b7;fill-opacity:1;stroke:#c8b7b7;stroke-width:1;stroke-linecap:round;stroke-linejoin:miter;stroke-miterlimit:4;stroke-dasharray:none;stroke-opacity:1;paint-order:normal"/><circle id="path1896-1" cx="63.689" cy="91.092" r="6.331" style="fill:#c8b7b7;fill-opacity:1;stroke:#c8b7b7;stroke-width:1;stroke-linecap:round;stroke-linejoin:miter;stroke-miterlimit:4;stroke-dasharray:none;stroke-opacity:1;paint-order:normal"/><path style="fill:none;stroke:#c8b7b7;stroke-width:6;stroke-linecap:butt;stroke-linejoin:miter;stroke-miterlimit:4;stroke-dasharray:none;stroke-opacity:1" id="path1966" d="M 109.4241,82.115334 63.688986,91.092268 38.459079,128.22842"/><path style="fill:none;stroke:#000;stroke-width:1;stroke-linecap:butt;stroke-linejoin:miter;stroke-miterlimit:4;stroke-dasharray:none;stroke-opacity:1" id="path1978" d="m 106.77827,81.075893 15.9695,-15.969494"/><path id="path2790" d="M 62.082589,90.052828 106.77827,81.075893" style="fill:none;stroke:#f0f;stroke-width:1;stroke-linecap:butt;stroke-linejoin:miter;stroke-miterlimit:4;stroke-dasharray:none;stroke-opacity:1"/><path id="path1976" d="M 37.325149,126.62202 62.082589,90.052828" style="fill:none;stroke:#0a0aff;stroke-width:1;stroke-linecap:butt;stroke-linejoin:miter;stroke-miterlimit:4;stroke-dasharray:none;stroke-opacity:1"/><path style="fill:none;stroke:#000;stroke-width:1;stroke-linecap:butt;stroke-linejoin:miter;stroke-miterlimit:4;stroke-dasharray:none;stroke-opacity:1" id="path1970" d="m 13.701637,137.77232 23.623512,-11.1503"/><path style="fill:none;stroke:red;stroke-width:1;stroke-linecap:butt;stroke-linejoin:miter;stroke-miterlimit:4;stroke-dasharray:none;stroke-opacity:1;marker-end:url(#Arrow1Send)" id="path1986" d="M 64.673853,92.202613 108.63969,83.38272"/><path style="fill:none;stroke:#00b600;stroke-width:1;stroke-linecap:butt;stroke-linejoin:miter;stroke-miterlimit:4;stroke-dasharray:none;stroke-opacity:1;marker-end:url(#marker2042)" id="path1984" d="M 40.218691,128.81854 64.673853,92.202613"/><path style="fill:none;stroke:#000;stroke-width:1;stroke-linecap:butt;stroke-linejoin:miter;stroke-miterlimit:4;stroke-dasharray:none;stroke-opacity:1;marker-end:url(#Arrow2Send)" id="path1980" d="m 35.942378,149.3983 0.267269,-0.93545 4.009044,-19.64431"/></g></svg>