<svg xmlns="http://www.w3.org/2000/svg" xmlns:svg="http://www.w3.org/2000/svg" id="svg8" width="450.582" height="352.14" version="1.1" viewBox="0 0 119.216 93.17"><defs id="defs2"><marker style="overflow:visible" id="marker1193" orient="auto" refX="0" refY="0"><path style="fill:#00b600;fill-opacity:1;fill-rule:evenodd;stroke:#00b600;stroke-width:.625;stroke-linejoin:round;stroke-opacity:1" id="path1191" d="M 8.7185878,4.0337352 -2.2072895,0.01601326 8.7185884,-4.0017078 c -1.7454984,2.3720609 -1.7354408,5.6174519 -6e-7,8.035443 z" transform="matrix(-0.3,0,0,-0.3,0.69,0)"/></marker><marker id="marker1135" orient="auto" refX="0" refY="0" style="overflow:visible"><path id="path1133" d="M 8.7185878,4.0337352 -2.2072895,0.01601326 8.7185884,-4.0017078 c -1.7454984,2.3720609 -1.7354408,5.6174519 -6e-7,8.035443 z" transform="matrix(-0.3,0,0,-0.3,0.69,0)" style="fill:#0a0aff;fill-opacity:1;fill-rule:evenodd;stroke:#0a0aff;stroke-width:.625;stroke-linejoin:round;stroke-opacity:1"/></marker><marker style="overflow:visible" id="marker987" orient="auto" refX="0" refY="0"><path style="fill:red;fill-opacity:1;fill-rule:evenodd;stroke:red;stroke-width:.625;stroke-linejoin:round;stroke-opacity:1" id="path985" d="M 8.7185878,4.0337352 -2.2072895,0.01601326 8.7185884,-4.0017078 c -1.7454984,2.3720609 -1.7354408,5.6174519 -6e-7,8.035443 z" transform="matrix(-0.3,0,0,-0.3,0.69,0)"/></marker><marker id="marker917" orient="auto" refX="0" refY="0" style="overflow:visible"><path id="path915" d="M 8.7185878,4.0337352 -2.2072895,0.01601326 8.7185884,-4.0017078 c -1.7454984,2.3720609 -1.7354408,5.6174519 -6e-7,8.035443 z" transform="matrix(-0.3,0,0,-0.3,0.69,0)" style="fill:#f0f;fill-opacity:1;fill-rule:evenodd;stroke:#f0f;stroke-width:.625;stroke-linejoin:round;stroke-opacity:1"/></marker><marker id="marker2042" orient="auto" refX="0" refY="0" style="overflow:visible"><path id="path2040" d="M 0,0 5,-5 -12.5,0 5,5 Z" transform="matrix(-0.2,0,0,-0.2,-1.2,0)" style="fill:#00b600;fill-opacity:1;fill-rule:evenodd;stroke:#00b600;stroke-width:1pt;stroke-opacity:1"/></marker><marker style="overflow:visible" id="Arrow1Mend" orient="auto" refX="0" refY="0"><path style="fill:#00b600;fill-opacity:1;fill-rule:evenodd;stroke:#00b600;stroke-width:1pt;stroke-opacity:1" id="path949" d="M 0,0 5,-5 -12.5,0 5,5 Z" transform="matrix(-0.4,0,0,-0.4,-4,0)"/></marker><marker style="overflow:visible" id="DotL" orient="auto" refX="0" refY="0"><path style="fill:#c8b7b7;fill-opacity:1;fill-rule:evenodd;stroke:#c8b7b7;stroke-width:1pt;stroke-opacity:1" id="path1001" d="m -2.5,-1 c 0,2.76 -2.24,5 -5,5 -2.76,0 -5,-2.24 -5,-5 0,-2.76 2.24,-5 5,-5 2.76,0 5,2.24 5,5 z" transform="matrix(0.8,0,0,0.8,5.92,0.8)"/></marker></defs><metadata id="metadata5"/><g id="layer1" transform="translate(-4.8849094,-63.752846)"><circle id="path1896" cx="109.424" cy="82.115" r="6.331" style="fill:#c8b7b7;fill-opacity:1;stroke:#c8b7b7;stroke-width:1;stroke-linecap:round;stroke-linejoin:miter;stroke-miterlimit:4;stroke-dasharray:none;stroke-opacity:1;paint-order:normal"/><circle style="fill:#c8b7b7;fill-opacity:1;stroke:#c8b7b7;stroke-width:1;stroke-linecap:round;stroke-linejoin:miter;stroke-miterlimit:4;stroke-dasharray:none;stroke-opacity:1;paint-order:normal" id="path1896-7" cx="34.985" cy="129.832" r="6.331"/><path id="path1273" d="M 40.417881,87.539833 C 29.459831,84.599869 21.57538,93.152494 23.980805,100.5024 c 2.405426,7.34992 35.680481,3.47451 40.224065,12.02713 4.543581,8.55263 -14.29892,5.87993 -19.510677,9.75534 -5.211755,3.87541 -6.613658,8.53819 -6.613658,8.53819" style="fill:none;stroke:#000;stroke-width:1;stroke-linecap:butt;stroke-linejoin:miter;stroke-miterlimit:4;stroke-dasharray:none;stroke-dashoffset:0;stroke-opacity:1"/><path id="path1290" d="M 39.883343,83.129886 C 23.980805,80.858095 20.105397,94.756109 20.372667,99.834231 c 0.267269,5.078119 6.949008,6.815369 9.888972,7.349909 2.939965,0.53454 32.859176,1.52737 31.270534,7.61718 -0.801808,3.07361 -10.958051,0.26728 -17.105251,5.21176 -6.147197,4.94449 -10.808537,8.52656 -10.808537,8.52656" style="fill:none;stroke:#000;stroke-width:1;stroke-linecap:butt;stroke-linejoin:miter;stroke-miterlimit:4;stroke-dasharray:1,1;stroke-dashoffset:0;stroke-opacity:1"/><circle style="fill:#c8b7b7;fill-opacity:1;stroke:#c8b7b7;stroke-width:1;stroke-linecap:round;stroke-linejoin:miter;stroke-miterlimit:4;stroke-dasharray:none;stroke-opacity:1;paint-order:normal" id="path1896-1" cx="63.689" cy="91.092" r="6.331"/><path id="path1966" d="M 109.4241,82.115334 63.688986,91.092268" style="fill:none;stroke:#c8b7b7;stroke-width:6;stroke-linecap:butt;stroke-linejoin:miter;stroke-miterlimit:4;stroke-dasharray:none;stroke-opacity:1"/><path id="path1978" d="m 106.77827,81.075893 15.9695,-15.969494" style="fill:none;stroke:#000;stroke-width:1;stroke-linecap:butt;stroke-linejoin:miter;stroke-miterlimit:4;stroke-dasharray:none;stroke-opacity:1"/><path style="fill:none;stroke:#f0f;stroke-width:1;stroke-linecap:butt;stroke-linejoin:miter;stroke-miterlimit:4;stroke-dasharray:none;stroke-opacity:1;marker-end:url(#marker917)" id="path2790" d="M 62.082589,90.052828 106.77827,81.075893"/><path style="fill:none;stroke:#0a0aff;stroke-width:1;stroke-linecap:butt;stroke-linejoin:miter;stroke-miterlimit:4;stroke-dasharray:1,1;stroke-dashoffset:0;stroke-opacity:1;marker-end:url(#marker1135)" id="path1976" d="M 6.1882497,149.47356 33.618385,128.53964"/><path id="path1986" d="M 60.397539,93.271691 108.63969,83.38272" style="fill:none;stroke:red;stroke-width:1;stroke-linecap:butt;stroke-linejoin:miter;stroke-miterlimit:4;stroke-dasharray:none;stroke-opacity:1;marker-end:url(#marker987)"/><path id="path1984" d="M 51.97855,155.67913 38.080535,130.82306" style="fill:none;stroke:#00b600;stroke-width:1;stroke-linecap:butt;stroke-linejoin:miter;stroke-miterlimit:4;stroke-dasharray:none;stroke-opacity:1;marker-end:url(#marker1193)"/><path id="path1261" d="M 62.082589,90.052828 39.883343,83.129886" style="fill:none;stroke:#000;stroke-width:1;stroke-linecap:butt;stroke-linejoin:miter;stroke-miterlimit:4;stroke-dasharray:1,1;stroke-dashoffset:0;stroke-opacity:1"/><path id="path1263" d="M 60.397539,93.271691 40.417882,87.539833" style="fill:none;stroke:#000;stroke-width:1;stroke-linecap:butt;stroke-linejoin:miter;stroke-miterlimit:4;stroke-dasharray:none;stroke-dashoffset:0;stroke-opacity:1"/></g></svg>