<svg xmlns="http://www.w3.org/2000/svg" xmlns:xlink="http://www.w3.org/1999/xlink" id="Layer_1" width="487.3" height="286.6" x="0" style="enable-background:new 0 0 487.3 286.6" y="0" version="1.1" viewBox="0 0 487.3 286.6" xml:space="preserve"><style type="text/css">.st0,.st1{fill:none;stroke:#000;stroke-miterlimit:10}.st1{stroke-width:2}.st2{fill-rule:evenodd;clip-rule:evenodd;fill-opacity:4.705882e-02}.st3,.st4{fill:none;stroke:#000;stroke-linecap:round;stroke-linejoin:round;stroke-miterlimit:10}.st4{stroke-width:2}.st5{fill:#f03}.st6,.st7{fill:#e80f2e;stroke:#000;stroke-width:.5;stroke-linecap:round;stroke-linejoin:round;stroke-miterlimit:10}.st7{fill:#f03}.st8{fill:#0c0}.st10,.st9{stroke:#000;stroke-width:.5;stroke-miterlimit:10}.st9{fill:#78bf5a;stroke-linecap:round;stroke-linejoin:round}.st10{fill:#f03}.st11{fill:#09f}.st12{fill:#5e7cea;stroke:#000;stroke-width:.5;stroke-linecap:round;stroke-linejoin:round;stroke-miterlimit:10}</style><path d="M125.3,286.6" class="st0"/><g><g><line x1="125.3" x2="125.3" y1="7.2" y2="286.6" class="st1"/><g><polygon points="120.8 10.5 125.3 8.6 129.7 10.5 125.3 0"/></g></g></g><path d="M125.3,0" class="st0"/><path d="M482.3,264.7" class="st0"/><g><g><line x1="0" x2="480.2" y1="264.7" y2="264.7" class="st1"/><g><polygon points="476.8 269.1 478.7 264.7 476.8 260.2 487.3 264.7"/></g></g></g><path d="M2.5,264.7" class="st0"/><path d="M125.3,264.7v2.8" class="st0"/><path d="M363.8,264.7v2.8" class="st0"/><path d="M122.5,73.9h2.8" class="st0"/><path d="M122.5,26.1h2.8" class="st0"/><path d="M125.3,264.7h238.5V26.1H125.3V264.7z" class="st2"/><path d="M125.3,264.7h238.5" class="st3"/><path d="M363.8,264.7V26.1" class="st4"/><path d="M363.8,26.1H125.3" class="st4"/><path d="M125.3,26.1v238.5" class="st3"/><path d="M128.1,264.7c0,1.5-1.2,2.8-2.8,2.8c-1.5,0-2.8-1.2-2.8-2.8c0-1.5,1.2-2.8,2.8-2.8	C126.8,261.9,128.1,263.1,128.1,264.7z" class="st5"/><path d="M129.3,264.7c0,2.2-1.8,4-4,4c-2.2,0-4-1.8-4-4c0-2.2,1.8-4,4-4C127.5,260.7,129.3,262.4,129.3,264.7z" class="st6"/><path d="M366.6,264.7c0,1.5-1.2,2.8-2.8,2.8s-2.8-1.2-2.8-2.8c0-1.5,1.2-2.8,2.8-2.8S366.6,263.1,366.6,264.7z" class="st5"/><path d="M367.8,264.7c0,2.2-1.8,4-4,4c-2.2,0-4-1.8-4-4c0-2.2,1.8-4,4-4C366,260.7,367.8,262.4,367.8,264.7z" class="st7"/><path d="M366.6,26.1c0,1.5-1.2,2.8-2.8,2.8s-2.8-1.2-2.8-2.8c0-1.5,1.2-2.8,2.8-2.8S366.6,24.6,366.6,26.1z" class="st5"/><path d="M367.8,26.1c0,2.2-1.8,4-4,4c-2.2,0-4-1.8-4-4c0-2.2,1.8-4,4-4C366,22.1,367.8,23.9,367.8,26.1z" class="st7"/><path d="M128.1,26.1c0,1.5-1.2,2.8-2.8,2.8c-1.5,0-2.8-1.2-2.8-2.8c0-1.5,1.2-2.8,2.8-2.8	C126.8,23.4,128.1,24.6,128.1,26.1z" class="st5"/><path d="M129.3,26.1c0,2.2-1.8,4-4,4c-2.2,0-4-1.8-4-4c0-2.2,1.8-4,4-4C127.5,22.1,129.3,23.9,129.3,26.1z" class="st6"/><path d="M247.1,144.8c0,1.5-1.2,2.8-2.8,2.8c-1.5,0-2.8-1.2-2.8-2.8c0-1.5,1.2-2.8,2.8-2.8	C245.9,142.1,247.1,143.3,247.1,144.8z" class="st8"/><path d="M248.4,144.8c0,2.2-1.8,4-4,4c-2.2,0-4-1.8-4-4c0-2.2,1.8-4,4-4C246.6,140.8,248.4,142.6,248.4,144.8z" class="st9"/><path d="M175.8,73.8c0,1.5-1.2,2.8-2.8,2.8c-1.5,0-2.8-1.2-2.8-2.8s1.2-2.8,2.8-2.8C174.5,71.1,175.8,72.3,175.8,73.8z" class="st8"/><path d="M177,73.8c0,2.2-1.8,4-4,4c-2.2,0-4-1.8-4-4c0-2.2,1.8-4,4-4C175.2,69.8,177,71.6,177,73.8z" class="st9"/><path d="M175.8,217c0,1.5-1.2,2.8-2.8,2.8c-1.5,0-2.8-1.2-2.8-2.8c0-1.5,1.2-2.8,2.8-2.8	C174.5,214.2,175.8,215.4,175.8,217z" class="st8"/><path d="M177,217c0,2.2-1.8,4-4,4c-2.2,0-4-1.8-4-4c0-2.2,1.8-4,4-4C175.2,213,177,214.7,177,217z" class="st9"/><path d="M318.9,217c0,1.5-1.2,2.8-2.8,2.8c-1.5,0-2.8-1.2-2.8-2.8c0-1.5,1.2-2.8,2.8-2.8	C317.7,214.2,318.9,215.4,318.9,217z" class="st8"/><path d="M320.1,217c0,2.2-1.8,4-4,4c-2.2,0-4-1.8-4-4c0-2.2,1.8-4,4-4C318.3,213,320.1,214.7,320.1,217z" class="st9"/><path d="M318.9,73.8c0,1.5-1.2,2.8-2.8,2.8c-1.5,0-2.8-1.2-2.8-2.8s1.2-2.8,2.8-2.8C317.7,71.1,318.9,72.3,318.9,73.8z" class="st8"/><path d="M320.1,73.8c0,2.2-1.8,4-4,4c-2.2,0-4-1.8-4-4c0-2.2,1.8-4,4-4C318.3,69.8,320.1,71.6,320.1,73.8z" class="st9"/><path d="M247.1,26.1c0,1.5-1.2,2.8-2.8,2.8c-1.5,0-2.8-1.2-2.8-2.8c0-1.5,1.2-2.8,2.8-2.8	C245.9,23.4,247.1,24.6,247.1,26.1z" class="st10"/><path d="M248.4,26.1c0,2.2-1.8,4-4,4c-2.2,0-4-1.8-4-4c0-2.2,1.8-4,4-4C246.6,22.1,248.4,23.9,248.4,26.1z" class="st7"/><path d="M248.1,264.7c0,1.5-1.2,2.8-2.8,2.8c-1.5,0-2.8-1.2-2.8-2.8c0-1.5,1.2-2.8,2.8-2.8	C246.9,261.9,248.1,263.1,248.1,264.7z" class="st5"/><path d="M249.4,264.7c0,2.2-1.8,4-4,4c-2.2,0-4-1.8-4-4c0-2.2,1.8-4,4-4C247.6,260.7,249.4,262.4,249.4,264.7z" class="st7"/><path d="M366.6,73.8c0,1.5-1.2,2.8-2.8,2.8s-2.8-1.2-2.8-2.8s1.2-2.8,2.8-2.8S366.6,72.3,366.6,73.8z" class="st5"/><path d="M367.8,73.8c0,2.2-1.8,4-4,4c-2.2,0-4-1.8-4-4c0-2.2,1.8-4,4-4C366,69.8,367.8,71.6,367.8,73.8z" class="st7"/><path d="M128.1,73.8c0,1.5-1.2,2.8-2.8,2.8c-1.5,0-2.8-1.2-2.8-2.8s1.2-2.8,2.8-2.8C126.8,71.1,128.1,72.3,128.1,73.8z" class="st5"/><path d="M129.3,73.8c0,2.2-1.8,4-4,4c-2.2,0-4-1.8-4-4c0-2.2,1.8-4,4-4C127.5,69.8,129.3,71.6,129.3,73.8z" class="st6"/><path d="M8,145.2c0,1.5-1.2,2.8-2.8,2.8s-2.8-1.2-2.8-2.8c0-1.5,1.2-2.8,2.8-2.8S8,143.7,8,145.2z" class="st11"/><path d="M9.3,145.2c0,2.2-1.8,4-4,4s-4-1.8-4-4c0-2.2,1.8-4,4-4S9.3,143,9.3,145.2z" class="st12"/><path d="M485.1,145.2c0,1.5-1.2,2.8-2.8,2.8c-1.5,0-2.8-1.2-2.8-2.8c0-1.5,1.2-2.8,2.8-2.8	C483.8,142.4,485.1,143.7,485.1,145.2z" class="st11"/><path d="M486.3,145.2c0,2.2-1.8,4-4,4c-2.2,0-4-1.8-4-4c0-2.2,1.8-4,4-4C484.5,141.2,486.3,143,486.3,145.2z" class="st12"/><g><g><path d="M133,249.1l-1.6-0.3v-0.6h4v0.6l-2,0.3H133z M133.5,248.2l2.6,6.8l-0.7,0.9l2.7-7.6h0.9l-3,8h-0.7l-3.4-8H133.5z M138.1,249.1l-1.7-0.3v-0.6h3.2v0.6l-1.2,0.3H138.1z"/><path d="M144.8,255.3c0,2.8-1.1,3.7-2.3,3.7c-1.2,0-2.3-1-2.3-3.7c0-2.8,1.1-3.8,2.3-3.8C143.6,251.5,144.8,252.5,144.8,255.3z M142.5,258.5c0.7,0,1.3-0.7,1.3-3.2c0-2.6-0.6-3.3-1.3-3.3c-0.7,0-1.3,0.6-1.3,3.3C141.2,257.9,141.8,258.5,142.5,258.5z"/></g></g><g><g><path d="M345,249.1l-1.6-0.3v-0.6h4v0.6l-2,0.3H345z M345.5,248.2l2.6,6.8l-0.7,0.9l2.7-7.6h0.9l-3,8h-0.7l-3.4-8H345.5z M350.1,249.1l-1.7-0.3v-0.6h3.2v0.6l-1.2,0.3H350.1z"/><path d="M356.7,258.5v0.4h-4.1v-0.4l1.6-0.3h0.9L356.7,258.5z M355,251.6l0.2,0.1l0,1.6v3.2c0,0.8,0,1.6,0,2.3h-1 c0-0.8,0-1.6,0-2.3v-4l-1.5,0.1v-0.4L355,251.6z"/></g></g><g><g><path d="M345,36.2l-1.6-0.3v-0.6h4v0.6l-2,0.3H345z M345.5,35.3l2.6,6.8l-0.7,0.9l2.7-7.6h0.9l-3,8h-0.7l-3.4-8H345.5z M350.1,36.2l-1.7-0.3v-0.6h3.2v0.6l-1.2,0.3H350.1z"/><path d="M352.3,45.3c0.6-0.6,1.2-1.2,1.6-1.7c1.1-1.2,1.6-2.1,1.6-3c0-0.9-0.5-1.5-1.3-1.5c-0.3,0-0.7,0.1-1.1,0.2l0.6-0.4l-0.3,1 c-0.1,0.5-0.3,0.7-0.6,0.7c-0.2,0-0.4-0.1-0.6-0.4c0.1-1.2,1.1-1.7,2.2-1.7c1.4,0,2,0.8,2,1.9c0,1-0.5,1.7-2.2,3.4 c-0.4,0.4-0.9,0.9-1.4,1.4l-0.1-0.2h4.1V46h-4.5V45.3z"/></g></g><g><g><path d="M133,36.2l-1.6-0.3v-0.6h4v0.6l-2,0.3H133z M133.5,35.3l2.6,6.8l-0.7,0.9l2.7-7.6h0.9l-3,8h-0.7l-3.4-8H133.5z M138.1,36.2l-1.7-0.3v-0.6h3.2v0.6l-1.2,0.3H138.1z"/><path d="M142,41.9c1,0,1.6-0.5,1.6-1.5c0-0.8-0.5-1.3-1.4-1.3c-0.2,0-0.6,0-0.9,0.2l0.5-0.3l-0.2,0.8c-0.1,0.5-0.3,0.7-0.6,0.7 c-0.2,0-0.5-0.1-0.6-0.4c0.2-0.9,1-1.4,2.1-1.4c1.3,0,2.1,0.7,2.1,1.7c0,0.9-0.7,1.7-1.9,1.9v-0.2c1.4,0.1,2.1,0.8,2.1,1.9 c0,1.2-1,2.1-2.5,2.1c-1.1,0-1.9-0.5-2.1-1.6c0.1-0.2,0.3-0.4,0.6-0.4c0.4,0,0.5,0.2,0.6,0.8l0.2,0.8l-0.4-0.4 c0.4,0.2,0.7,0.2,1,0.2c1.1,0,1.7-0.6,1.7-1.6c0-1-0.6-1.6-1.7-1.6h-0.5v-0.6H142z"/></g></g></svg>