<svg xmlns="http://www.w3.org/2000/svg" xmlns:xlink="http://www.w3.org/1999/xlink" id="Layer_1" width="801" height="174.1" x="0" y="0" version="1.1" viewBox="0 0 801 174.1" xml:space="preserve" style="enable-background:new 0 0 801 174.1"><style type="text/css">.st0{stroke:#b62025}.st0,.st1,.st2,.st3{fill:none;stroke-width:1.5;stroke-miterlimit:10}.st1{stroke:#000}.st2{stroke:#384d9f}.st3{stroke:#157b3e}</style><g><path d="M0.5,173.6h173.1 M173.6,173.6l-8-65.1 M165.7,108.5l30.4-4.4 M196.1,104.1l-22.4-38.7 M173.6,65.4l13.2-21.3 M186.9,44.1V0.9 M186.9,0.9L87.1,22.1 M87.1,22.1L0.5,0.5 M0.5,0.5l7.9,151.3 M8.4,151.8l-7.9,21.9" class="st0"/></g><line x1="205.1" x2="378.2" y1="173.3" y2="173.3" class="st1"/><line x1="374.2" x2="374.2" y1="173.6" y2="108" class="st1"/><line x1="370.1" x2="400.8" y1="106" y2="106" class="st1"/><line x1="389.4" x2="389.4" y1="106.9" y2="62.1" class="st2"/><line x1="384.8" x2="384.8" y1="67" y2="41.9" class="st2"/><line x1="391.4" x2="391.4" y1="43.8" y2=".6" class="st2"/><line x1="392.5" x2="290.5" y1="12.8" y2="12.8" class="st2"/><line x1="293" x2="203.7" y1="7.8" y2="7.8" class="st2"/><line x1="210.6" x2="210.6" y1=".1" y2="151.6" class="st2"/><line x1="207.4" x2="207.4" y1="150.8" y2="174" class="st2"/><line x1="409" x2="582.2" y1="173.3" y2="173.3" class="st1"/><line x1="578.2" x2="578.2" y1="173.6" y2="108" class="st1"/><line x1="574" x2="604.8" y1="106" y2="106" class="st1"/><line x1="593.6" x2="593.6" y1="106.9" y2=".6" class="st1"/><line x1="596.5" x2="407.7" y1="11.1" y2="11.1" class="st1"/><line x1="413" x2="413" y1=".1" y2="174" class="st1"/><g><path d="M619.9,168.2h165.2 M785.1,168.2v-67.3 M785.1,100.9h15.4 M800.5,100.9V6 M800.5,6H619.9 M619.9,6v162.2" class="st3"/></g></svg>