<svg xmlns="http://www.w3.org/2000/svg" xmlns:xlink="http://www.w3.org/1999/xlink" id="Layer_1" width="499.3" height="231.7" x="0" y="0" version="1.1" viewBox="0 0 499.3 231.7" xml:space="preserve" style="enable-background:new 0 0 499.3 231.7"><style type="text/css">.st0,.st1,.st2,.st3{fill:none;stroke-miterlimit:10}.st0{stroke:#000;stroke-width:2}.st1{stroke:#b62227}.st2{stroke:#157d3f}.st3{stroke:#384d9f;stroke-width:.75}</style><g><g><line x1="1" x2="230.4" y1="230.7" y2="230.7" class="st0"/><line x1="230.4" x2="230.4" y1="230.7" y2="1.3" class="st0"/><line x1="230.4" x2="1" y1="1.3" y2="1.3" class="st0"/><line x1="1" x2="1" y1="1.3" y2="230.7" class="st0"/><line x1="58.4" x2="173.1" y1="173.4" y2="173.4" class="st0"/><line x1="173.1" x2="173.1" y1="173.4" y2="58.6" class="st0"/><line x1="173.1" x2="58.4" y1="58.6" y2="58.6" class="st0"/><line x1="58.4" x2="58.4" y1="58.6" y2="173.4" class="st0"/></g><path d="M115.7,230.1l114.7-114.7 M115.7,230.1L1,115.4 M115.7,230.1v-57.4 M115.7,230.1l57.4-114.7 M115.7,230.1 L58.4,115.4 M230.4,115.4L115.7,0.7 M230.4,115.4h-57.4 M115.7,0.7L1,115.4 M115.7,0.7l57.4,114.7 M115.7,0.7v57.4 M1,115.4 l114.7-57.4 M1,115.4h57.4 M115.7,172.8l57.4-57.4 M115.7,172.8V58.1 M115.7,172.8l-57.4-57.4 M173.1,115.4l-57.4-57.4 M115.7,58.1 l-57.4,57.4" class="st1"/></g><g><path d="M383.6,230.4l114.7-114.7 M383.6,230.4V1 M383.6,230.4L268.9,115.7 M498.3,115.7L383.6,1 M383.6,1L268.9,115.7" class="st2"/><g><line x1="268.9" x2="498.3" y1="230.4" y2="230.4" class="st0"/><line x1="498.3" x2="498.3" y1="230.4" y2="1" class="st0"/><line x1="498.3" x2="268.9" y1="1" y2="1" class="st0"/><line x1="268.9" x2="268.9" y1="1" y2="230.4" class="st0"/><g><line x1="326.2" x2="440.9" y1="173.5" y2="173.5" class="st0"/><line x1="440.9" x2="440.9" y1="173.5" y2="58.8" class="st0"/><line x1="440.9" x2="326.2" y1="58.8" y2="58.8" class="st0"/><line x1="326.2" x2="326.2" y1="58.8" y2="173.5" class="st0"/></g></g><path d="M383.6,173.2l57.4-57.4 M383.6,173.2V58.5 M383.6,173.2l-57.4-57.4 M440.9,115.9l-57.4-57.4 M383.6,58.5 l-57.4,57.4" class="st3"/></g></svg>