<svg xmlns="http://www.w3.org/2000/svg" xmlns:xlink="http://www.w3.org/1999/xlink" id="Layer_1" width="901" height="228.3" x="0" y="0" version="1.1" viewBox="0 0 901 228.3" xml:space="preserve" style="enable-background:new 0 0 901 228.3"><style type="text/css">.st0,.st1{stroke-width:2}.st0{fill:none;stroke:#b62025;stroke-linecap:round;stroke-linejoin:round;stroke-miterlimit:10}.st1{stroke:#157b3e}.st1,.st2,.st3,.st4,.st5,.st6,.st7,.st8,.st9{fill:none;stroke-linecap:round;stroke-linejoin:round;stroke-miterlimit:10}.st2{stroke:#384a9f;stroke-width:2}.st3{stroke:#000}.st4{stroke:#b62126}.st4,.st5,.st6,.st7,.st8,.st9{stroke-width:2}.st5{stroke:#384c9f}.st6{stroke:#157c3e}.st7{stroke:#b62227}.st8{stroke:#157d3f}.st9{stroke:#384d9f}</style><g><g><line x1="253.1" x2="253.1" y1="214.7" y2="110.8" class="st0"/><line x1="218.5" x2="218.5" y1="214.7" y2="110.8" class="st0"/><line x1="183.8" x2="177.3" y1="214.7" y2="111.2" class="st0"/><line x1="149.2" x2="80" y1="214.7" y2="214.7" class="st1"/><line x1="114.6" x2="10.7" y1="180.1" y2="180.1" class="st1"/><line x1="114.6" x2="45.3" y1="145.5" y2="41.6" class="st2"/><line x1="80" x2="149.2" y1="7" y2="110.8" class="st2"/></g><rect width="266.7" height="227.3" x=".5" y=".5" class="st3"/></g><g><g><line x1="639.5" x2="639.5" y1="145.5" y2="41.6" class="st4"/><line x1="570.2" x2="573.7" y1="41.6" y2="145.5" class="st4"/><line x1="639.5" x2="466.4" y1="214.7" y2="214.7" class="st4"/><line x1="535.6" x2="535.6" y1="180.1" y2="145.5" class="st4"/><line x1="535.6" x2="466.4" y1="110.8" y2="110.8" class="st4"/><line x1="466.4" x2="362.5" y1="41.6" y2="7" class="st5"/><line x1="431.7" x2="362.5" y1="110.8" y2="187" class="st6"/><line x1="293.2" x2="362.5" y1="76.2" y2="145.5" class="st6"/></g><rect width="367.1" height="227.3" x="284.5" y=".5" class="st3"/></g><g><g><line x1="712.7" x2="816.5" y1="214.7" y2="214.7" class="st7"/><line x1="851.2" x2="885.8" y1="214.7" y2="214.7" class="st7"/><line x1="678" x2="781.9" y1="145.5" y2="145.5" class="st8"/><line x1="816.5" x2="851.2" y1="142" y2="142" class="st8"/><line x1="781.9" x2="851.2" y1="148.9" y2="148.9" class="st8"/><line x1="712.7" x2="747.3" y1="110.8" y2="76.2" class="st9"/><line x1="816.5" x2="781.9" y1="7" y2="41.6" class="st9"/></g><rect width="233" height="227.3" x="667.5" y=".5" class="st3"/></g></svg>