<svg xmlns="http://www.w3.org/2000/svg" xmlns:xlink="http://www.w3.org/1999/xlink" id="Layer_1" width="656.71" height="301.5" x="0" style="enable-background:new 0 0 656.71 301.5" y="0" version="1.1" viewBox="0 0 656.71 301.5" xml:space="preserve"><style type="text/css">.st0,.st1{stroke-miterlimit:10}.st0{fill:none;stroke:#b70909;stroke-width:1.5;stroke-linecap:round;stroke-linejoin:round}.st1{stroke:#f9c316}.st1,.st2,.st3{fill:none;stroke-width:1.5;stroke-linecap:round;stroke-linejoin:round}.st2{stroke:#0d7a0a;stroke-miterlimit:10}.st3{stroke:#000}</style><g><line x1="261.43" x2="271.14" y1="300.33" y2="242.98" class="st0"/><line x1="271.14" x2="263.87" y1="242.98" y2="222.16" class="st0"/><line x1="263.87" x2="274.19" y1="222.16" y2="170.89" class="st0"/><line x1="274.19" x2="246.91" y1="170.89" y2="92.2" class="st1"/><line x1="246.91" x2="216.62" y1="92.2" y2="99.24" class="st0"/><line x1="216.62" x2="211.45" y1="99.24" y2="93.81" class="st0"/><line x1="211.45" x2="231.93" y1="93.81" y2="53.2" class="st0"/><line x1="231.93" x2="205.3" y1="53.2" y2="42.33" class="st0"/><line x1="205.3" x2="144.48" y1="42.33" y2="161.34" class="st0"/><line x1="144.48" x2="135.07" y1="161.34" y2="166.61" class="st0"/><line x1="135.07" x2="132.61" y1="166.61" y2="158.59" class="st0"/><line x1="132.61" x2="196.49" y1="158.59" y2="38.14" class="st0"/><line x1="196.49" x2="189.88" y1="38.14" y2="29.65" class="st0"/><line x1="189.88" x2="130.15" y1="29.65" y2=".75" class="st0"/><line x1="130.15" x2="76.5" y1=".75" y2="105.16" class="st0"/><line x1="76.5" x2="60.93" y1="105.16" y2="114.82" class="st0"/><line x1="60.93" x2="65.04" y1="114.82" y2="124.96" class="st0"/><line x1="65.04" x2="37.69" y1="124.96" y2="120.33" class="st0"/><line x1="37.69" x2=".75" y1="120.33" y2="191.42" class="st0"/><line x1=".75" x2="118.59" y1="191.42" y2="253.72" class="st1"/><line x1="118.59" x2="149.17" y1="253.72" y2="194.98" class="st0"/><line x1="149.17" x2="160.26" y1="194.98" y2="190.32" class="st0"/><line x1="160.26" x2="198.42" y1="190.32" y2="123.61" class="st0"/><line x1="198.42" x2="220.08" y1="123.61" y2="183.99" class="st0"/><line x1="220.08" x2="214.97" y1="183.99" y2="223.26" class="st0"/><line x1="214.97" x2="180.7" y1="223.26" y2="223.01" class="st0"/><line x1="180.7" x2="170.66" y1="223.01" y2="285.85" class="st1"/><line x1="170.66" x2="215.58" y1="285.85" y2="300.75" class="st0"/><line x1="215.58" x2="261.43" y1="300.75" y2="300.33" class="st0"/></g><g><path d="M644.29,300.75l9.71-69.43 M654,231.32l-7.01-0.98 M646.99,230.34l8.98-64.18 M655.96,166.15l-26.71-75.74 M629.25,90.42l-30.05,10.6 M599.2,101.02l-3.42-9.69 M595.78,91.33l19.08-36.67 M614.85,54.66l-24.98-12.99 M589.88,41.66 l-63.68,122.4 M526.2,164.07l-9.43-4.91 M516.77,159.16l64.51-123.99 M581.28,35.17L515.12,0.75 M515.12,0.75l-62.84,120.78 M452.28,121.53l-4.2-2.19 M448.08,119.34l-3.56,6.85 M444.51,126.19l-19.5-10.14 M425.01,116.05l-38.72,74.43 M386.29,190.48 L503.4,251.4 M503.4,251.4l32.15-61.79 M535.55,189.61l8,4.16 M543.54,193.77l37.93-72.91 M581.48,120.86l22.1,62.64 M603.57,183.5 l-5.63,40.28 M597.94,223.78l-33.71-4.71 M564.23,219.06l-9.67,69.14 M554.56,288.2l89.73,12.55" class="st2"/></g><g><g><line x1="302.66" x2="363.13" y1="131.72" y2="131.72" class="st3"/><g><polygon points="360.18 135.61 361.83 131.72 360.18 127.83 369.4 131.72"/></g></g></g></svg>