<svg xmlns="http://www.w3.org/2000/svg" xmlns:xlink="http://www.w3.org/1999/xlink" id="Layer_1" width="447.2" height="148.8" x="0" style="enable-background:new 0 0 447.2 148.8" y="0" version="1.1" viewBox="0 0 447.2 148.8" xml:space="preserve"><style type="text/css">.st0{stroke:#157c3e}.st0,.st1,.st2{fill:none;stroke-width:1.5;stroke-miterlimit:10}.st1{stroke:#b62126}.st2{stroke:#020202}.st3{fill:#020202}</style><g><path d="M299.7,146.9l73.6-2.4 M373.5,144.4l73.6-2.4 M442.2,148.4l-4.9-148 M358.8,4.4L432.4,2 M285,6.9l73.6-2.4 M294.9,148.4l-4.9-148" class="st0"/></g><g><path d="M15.5,148.1h73.7 M89.2,140.7h73.7 M162.8,148.1L148.1,0.8 M148.1,0.8H74.4 M74.4,8.1H0.7 M0.7,0.8l14.7,147.3" class="st1"/></g><g><g><line x1="192.5" x2="249.2" y1="74.5" y2="74.5" class="st2"/><g><polygon points="246.2 78.3 247.9 74.5 246.2 70.6 255.4 74.5" class="st3"/></g></g></g></svg>