<svg xmlns="http://www.w3.org/2000/svg" xmlns:xlink="http://www.w3.org/1999/xlink" id="Layer_1" width="110.9" height="121.5" x="0" style="enable-background:new 0 0 110.9 121.5" y="0" version="1.1" viewBox="0 0 110.9 121.5" xml:space="preserve"><style type="text/css">.st0{stroke:#b70909}.st0,.st1,.st2{fill:none;stroke-width:1.5;stroke-linecap:round;stroke-linejoin:round;stroke-miterlimit:10}.st1{stroke:#0d7a0a}.st2{stroke:#f9c316}</style><g><line x1="105" x2="108.9" y1="120.6" y2="97.6" class="st0"/><line x1="108.9" x2="106" y1="97.6" y2="89.3" class="st0"/><line x1="106" x2="110.1" y1="89.3" y2="68.8" class="st0"/><line x1="110.1" x2="99.2" y1="68.8" y2="37.3" class="st0"/><line x1="99.2" x2="87.1" y1="37.3" y2="40.1" class="st0"/><line x1="87.1" x2="85" y1="40.1" y2="38" class="st0"/><line x1="85" x2="93.2" y1="38" y2="21.7" class="st0"/><line x1="93.2" x2="82.6" y1="21.7" y2="17.4" class="st0"/><line x1="82.6" x2="58.2" y1="17.4" y2="65" class="st0"/><line x1="58.2" x2="54.5" y1="65" y2="67.1" class="st0"/><line x1="54.5" x2="53.5" y1="67.1" y2="63.9" class="st0"/><line x1="53.5" x2="79" y1="63.9" y2="15.7" class="st0"/><line x1="79" x2="76.4" y1="15.7" y2="12.3" class="st0"/><line x1="76.4" x2="52.5" y1="12.3" y2=".8" class="st0"/><line x1="52.5" x2="31" y1=".8" y2="42.5" class="st0"/><line x1="31" x2="24.8" y1="42.5" y2="46.4" class="st0"/><line x1="24.8" x2="26.5" y1="46.4" y2="50.4" class="st0"/><line x1="26.5" x2="15.5" y1="50.4" y2="48.6" class="st0"/><line x1="15.5" x2=".8" y1="48.6" y2="77" class="st0"/><line x1=".8" x2="47.9" y1="77" y2="101.9" class="st0"/><line x1="47.9" x2="60.1" y1="101.9" y2="78.4" class="st0"/><line x1="60.1" x2="64.6" y1="78.4" y2="76.6" class="st0"/><line x1="64.6" x2="79.8" y1="76.6" y2="49.9" class="st0"/><line x1="79.8" x2="88.5" y1="49.9" y2="74" class="st0"/><line x1="88.5" x2="86.4" y1="74" y2="89.8" class="st0"/><line x1="86.4" x2="72.7" y1="89.8" y2="89.7" class="st0"/><line x1="72.7" x2="68.7" y1="89.7" y2="114.8" class="st0"/><line x1="68.7" x2="86.7" y1="114.8" y2="120.8" class="st0"/><line x1="86.7" x2="105" y1="120.8" y2="120.6" class="st0"/></g><g><line x1="104.7" x2="108.6" y1="120.8" y2="93" class="st1"/><line x1="108.6" x2="105.8" y1="93" y2="92.6" class="st1"/><line x1="105.8" x2="109.4" y1="92.6" y2="66.9" class="st1"/><line x1="109.4" x2="98.7" y1="66.9" y2="36.6" class="st2"/><line x1="98.7" x2="86.7" y1="36.6" y2="40.9" class="st1"/><line x1="86.7" x2="85.3" y1="40.9" y2="37" class="st1"/><line x1="85.3" x2="92.9" y1="37" y2="22.3" class="st1"/><line x1="92.9" x2="82.9" y1="22.3" y2="17.1" class="st1"/><line x1="82.9" x2="57.5" y1="17.1" y2="66.1" class="st1"/><line x1="57.5" x2="53.7" y1="66.1" y2="64.1" class="st1"/><line x1="53.7" x2="79.5" y1="64.1" y2="14.5" class="st1"/><line x1="79.5" x2="53" y1="14.5" y2=".8" class="st1"/><line x1="53" x2="27.9" y1=".8" y2="49.1" class="st1"/><line x1="27.9" x2="26.2" y1="49.1" y2="48.2" class="st1"/><line x1="26.2" x2="24.8" y1="48.2" y2="50.9" class="st1"/><line x1="24.8" x2="17" y1="50.9" y2="46.9" class="st1"/><line x1="17" x2="1.5" y1="46.9" y2="76.6" class="st1"/><line x1="1.5" x2="48.3" y1="76.6" y2="101" class="st2"/><line x1="48.3" x2="61.2" y1="101" y2="76.3" class="st1"/><line x1="61.2" x2="64.4" y1="76.3" y2="78" class="st1"/><line x1="64.4" x2="79.6" y1="78" y2="48.8" class="st1"/><line x1="79.6" x2="88.4" y1="48.8" y2="73.8" class="st1"/><line x1="88.4" x2="86.2" y1="73.8" y2="90" class="st1"/><line x1="86.2" x2="72.7" y1="90" y2="88.1" class="st1"/><line x1="72.7" x2="68.8" y1="88.1" y2="115.7" class="st2"/><line x1="68.8" x2="104.7" y1="115.7" y2="120.8" class="st1"/></g></svg>