<svg xmlns="http://www.w3.org/2000/svg" xmlns:xlink="http://www.w3.org/1999/xlink" id="Layer_1" width="492.3" height="231" x="0" style="enable-background:new 0 0 492.3 231" y="0" version="1.1" viewBox="0 0 492.3 231" xml:space="preserve"><style type="text/css">.st0,.st1{stroke-width:2}.st0{fill:none;stroke:#b62126;stroke-miterlimit:10}.st1{stroke:#384c9f}.st1,.st2,.st3{fill:none;stroke-miterlimit:10}.st2{stroke:#000;stroke-width:2}.st3{stroke:#157c3e}.st3,.st4,.st5{stroke-width:2}.st4{fill:none;stroke:#b62227;stroke-miterlimit:10}.st5{stroke:#384d9f}.st5,.st6,.st7{fill:none;stroke-miterlimit:10}.st6{stroke:#157d3f;stroke-width:2}.st7{stroke:#000}</style><line x1="10.3" x2="166.7" y1="220.8" y2="220.8" class="st0"/><line x1="114.6" x2="218.8" y1="210.4" y2="210.4" class="st0"/><line x1="62.4" x2="114.6" y1="168.7" y2="116.5" class="st1"/><line x1="10.3" x2="62.4" y1="116.5" y2="64.4" class="st2"/><line x1="114.6" x2="10.3" y1="64.4" y2="12.3" class="st2"/><line x1="166.7" x2="218.8" y1="64.4" y2="12.3" class="st1"/><line x1="166.7" x2="166.7" y1="168.7" y2="95.7" class="st3"/><line x1="177.1" x2="177.1" y1="147.8" y2="116.5" class="st3"/><line x1="271.4" x2="479.9" y1="219.2" y2="219.2" class="st4"/><line x1="323.5" x2="479.9" y1="170.3" y2="13.9" class="st5"/><line x1="271.4" x2="323.5" y1="118.1" y2="66" class="st2"/><line x1="375.6" x2="271.4" y1="66" y2="13.9" class="st2"/><line x1="429.4" x2="429.4" y1="170.3" y2="97.3" class="st6"/><rect width="230" height="230" x=".5" y=".5" class="st7"/><rect width="230" height="230" x="261.8" y=".5" class="st7"/></svg>