<svg xmlns="http://www.w3.org/2000/svg" xmlns:xlink="http://www.w3.org/1999/xlink" width="665pt" height="215pt" viewBox="-5406 444 10547 3401"><g fill="none"><defs><clipPath id="cp0"><path d="M -5406,444 H 5141 V 3845 H -5406 z M 2908,2380 3064,2507 2868,2556 3089,2524 3094,2503z" clip-rule="evenodd"/></clipPath></defs><polyline stroke="#000" stroke-linejoin="round" stroke-width="15" points="1512 2159 3081 2511" clip-path="url(#cp0)"/><polyline stroke="#000" stroke-miterlimit="8" stroke-width="15" points="2908 2380 3064 2507 2868 2556"/><defs><clipPath id="cp1"><path d="M -5406,444 H 5141 V 3845 H -5406 z M 1599,1960 1512,2141 1419,1962 1502,2170 1523,2169z" clip-rule="evenodd"/></clipPath></defs><polyline stroke="#000" stroke-linejoin="round" stroke-width="15" points="1490 574 1512 2159" clip-path="url(#cp1)"/><polyline stroke="#000" stroke-miterlimit="8" stroke-width="15" points="1599 1960 1512 2141 1419 1962"/><defs><clipPath id="cp2"><path d="M -5406,444 H 5141 V 3845 H -5406 z M 1618,2483 1463,2354 1659,2307 1438,2337 1433,2358z" clip-rule="evenodd"/></clipPath></defs><polyline stroke="#000" stroke-linejoin="round" stroke-width="15" points="3019 2717 1446 2350" clip-path="url(#cp2)"/><polyline stroke="#000" stroke-miterlimit="8" stroke-width="15" points="1618 2483 1463 2354 1659 2307"/><defs><clipPath id="cp3"><path d="M -5406,444 H 5141 V 3845 H -5406 z M 1191,797 1276,615 1371,793 1286,586 1265,587z" clip-rule="evenodd"/></clipPath></defs><polyline stroke="#000" stroke-linejoin="round" stroke-width="15" points="1314 2189 1276 597" clip-path="url(#cp3)"/><polyline stroke="#000" stroke-miterlimit="8" stroke-width="15" points="1191 797 1276 615 1371 793"/><defs><clipPath id="cp4"><path d="M -5406,444 H 5141 V 3845 H -5406 z M 762,3092 568,3146 641,2958 540,3157 554,3173z" clip-rule="evenodd"/></clipPath></defs><polyline stroke="#000" stroke-linejoin="round" stroke-width="15" points="1446 2350 555 3158" clip-path="url(#cp4)"/><polyline stroke="#000" stroke-miterlimit="8" stroke-width="15" points="762 3092 568 3146 641 2958"/><defs><clipPath id="cp5"><path d="M -5406,444 H 5141 V 3845 H -5406 z M 1105,2250 1301,2201 1223,2386 1329,2190 1315,2174z" clip-rule="evenodd"/></clipPath></defs><polyline stroke="#000" stroke-linejoin="round" stroke-width="15" points="402 2975 1314 2189" clip-path="url(#cp5)"/><polyline stroke="#000" stroke-miterlimit="8" stroke-width="15" points="1105 2250 1301 2201 1223 2386"/><defs><clipPath id="cp6"><path d="M -5406,444 H 5141 V 3845 H -5406 z M 3078,1034 3178,860 3257,1045 3190,832 3169,831z" clip-rule="evenodd"/></clipPath></defs><polyline stroke="#000" stroke-linejoin="round" stroke-width="15" points="3081 2511 3179 842" clip-path="url(#cp6)"/><polyline stroke="#000" stroke-miterlimit="8" stroke-width="15" points="3078 1034 3178 860 3257 1045"/><defs><clipPath id="cp7"><path d="M -5406,444 H 5141 V 3845 H -5406 z M 1671,694 1508,577 1699,516 1481,562 1478,583z" clip-rule="evenodd"/></clipPath></defs><polyline stroke="#000" stroke-linejoin="round" stroke-width="15" points="3179 842 1490 574" clip-path="url(#cp7)"/><polyline stroke="#000" stroke-miterlimit="8" stroke-width="15" points="1671 694 1508 577 1699 516"/><defs><clipPath id="cp8"><path d="M -5406,444 H 5141 V 3845 H -5406 z M 3330,2318 3178,2579 3061,2301 3157,2631 3193,2633z" clip-rule="evenodd"/></clipPath></defs><polyline stroke="#000" stroke-linejoin="round" stroke-width="30" points="3283 921 3176 2614" clip-path="url(#cp8)"/><polyline stroke="#000" stroke-miterlimit="8" stroke-width="30" points="3330 2318 3178 2579 3061 2301"/><defs><clipPath id="cp9"><path d="M -5406,444 H 5141 V 3845 H -5406 z M 2948,614 3112,730 2921,792 3139,745 3142,724z" clip-rule="evenodd"/></clipPath></defs><polyline stroke="#000" stroke-linejoin="round" stroke-width="15" points="1413 466 3130 733" clip-path="url(#cp9)"/><polyline stroke="#000" stroke-miterlimit="8" stroke-width="15" points="2948 614 3112 730 2921 792"/><defs><clipPath id="cp10"><path d="M -5406,444 H 5141 V 3845 H -5406 z M 3687,2485 3582,2657 3507,2471 3570,2685 3591,2686z" clip-rule="evenodd"/></clipPath></defs><polyline stroke="#000" stroke-linejoin="round" stroke-width="15" points="3718 978 3581 2675" clip-path="url(#cp10)"/><polyline stroke="#000" stroke-miterlimit="8" stroke-width="15" points="3687 2485 3582 2657 3507 2471"/><defs><clipPath id="cp11"><path d="M -5406,444 H 5141 V 3845 H -5406 z M 3369,1281 3523,1021 3638,1301 3545,969 3509,967z" clip-rule="evenodd"/></clipPath></defs><polyline stroke="#000" stroke-linejoin="round" stroke-width="30" points="3399 2692 3526 986" clip-path="url(#cp11)"/><polyline stroke="#000" stroke-miterlimit="8" stroke-width="30" points="3369 1281 3523 1021 3638 1301"/><defs><clipPath id="cp12"><path d="M -5406,444 H 5141 V 3845 H -5406 z M 2827,2818 3008,2731 2969,2929 3034,2715 3017,2702z" clip-rule="evenodd"/></clipPath></defs><polyline stroke="#000" stroke-linejoin="round" stroke-width="15" points="2303 3643 3019 2717" clip-path="url(#cp12)"/><polyline stroke="#000" stroke-miterlimit="8" stroke-width="15" points="2827 2818 3008 2731 2969 2929"/><defs><clipPath id="cp13"><path d="M -5406,444 H 5141 V 3845 H -5406 z M 497,1174 296,1190 404,1020 267,1195 277,1213z" clip-rule="evenodd"/></clipPath></defs><polyline stroke="#000" stroke-linejoin="round" stroke-width="15" points="1276 597 281 1199" clip-path="url(#cp13)"/><polyline stroke="#000" stroke-miterlimit="8" stroke-width="15" points="497 1174 296 1190 404 1020"/><defs><clipPath id="cp14"><path d="M -5406,444 H 5141 V 3845 H -5406 z M 2767,3375 2497,3509 2552,3212 2450,3540 2478,3562z" clip-rule="evenodd"/></clipPath></defs><polyline stroke="#000" stroke-linejoin="round" stroke-width="30" points="3176 2614 2475 3537" clip-path="url(#cp14)"/><polyline stroke="#000" stroke-miterlimit="8" stroke-width="30" points="2767 3375 2497 3509 2552 3212"/><defs><clipPath id="cp15"><path d="M -5406,444 H 5141 V 3845 H -5406 z M 3128,3711 2952,3808 2980,3609 2927,3826 2945,3838z" clip-rule="evenodd"/></clipPath></defs><polyline stroke="#000" stroke-linejoin="round" stroke-width="15" points="3599 2865 2942 3823" clip-path="url(#cp15)"/><polyline stroke="#000" stroke-miterlimit="8" stroke-width="15" points="3128 3711 2952 3808 2980 3609"/><defs><clipPath id="cp16"><path d="M -5406,444 H 5141 V 3845 H -5406 z M 1197,491 1398,475 1290,645 1427,470 1417,452z" clip-rule="evenodd"/></clipPath></defs><polyline stroke="#000" stroke-linejoin="round" stroke-width="15" points="426 1058 1413 466" clip-path="url(#cp16)"/><polyline stroke="#000" stroke-miterlimit="8" stroke-width="15" points="1197 491 1398 475 1290 645"/><defs><clipPath id="cp17"><path d="M -5406,444 H 5141 V 3845 H -5406 z M 3112,2863 3378,2721 3332,3019 3424,2688 3395,2667z" clip-rule="evenodd"/></clipPath></defs><polyline stroke="#000" stroke-linejoin="round" stroke-width="30" points="2728 3634 3399 2692" clip-path="url(#cp17)"/><polyline stroke="#000" stroke-miterlimit="8" stroke-width="30" points="3112 2863 3378 2721 3332 3019"/><defs><clipPath id="cp18"><path d="M -5406,444 H 5141 V 3845 H -5406 z M 2136,3503 2286,3638 2088,3677 2310,3656 2316,3636z" clip-rule="evenodd"/></clipPath></defs><polyline stroke="#000" stroke-linejoin="round" stroke-width="15" points="555 3158 2303 3643" clip-path="url(#cp18)"/><polyline stroke="#000" stroke-miterlimit="8" stroke-width="15" points="2136 3503 2286 3638 2088 3677"/><defs><clipPath id="cp19"><path d="M -5406,444 H 5141 V 3845 H -5406 z M 4881,2533 5064,2616 4888,2713 5093,2625 5092,2604z" clip-rule="evenodd"/></clipPath></defs><polyline stroke="#000" stroke-linejoin="round" stroke-width="15" points="3581 2675 5082 2615" clip-path="url(#cp19)"/><polyline stroke="#000" stroke-miterlimit="8" stroke-width="15" points="4881 2533 5064 2616 4888 2713"/><defs><clipPath id="cp20"><path d="M -5406,444 H 5141 V 3845 H -5406 z M 3799,2950 3617,2865 3795,2771 3588,2855 3589,2876z" clip-rule="evenodd"/></clipPath></defs><polyline stroke="#000" stroke-linejoin="round" stroke-width="15" points="5099 2831 3599 2865" clip-path="url(#cp20)"/><polyline stroke="#000" stroke-miterlimit="8" stroke-width="15" points="3799 2950 3617 2865 3795 2771"/><defs><clipPath id="cp21"><path d="M -5406,444 H 5141 V 3845 H -5406 z M 478,2772 401,2957 299,2784 392,2986 413,2985z" clip-rule="evenodd"/></clipPath></defs><polyline stroke="#000" stroke-linejoin="round" stroke-width="15" points="281 1199 402 2975" clip-path="url(#cp21)"/><polyline stroke="#000" stroke-miterlimit="8" stroke-width="15" points="478 2772 401 2957 299 2784"/><defs><clipPath id="cp22"><path d="M -5406,444 H 5141 V 3845 H -5406 z M 620,3234 470,3100 668,3061 446,3082 440,3102z" clip-rule="evenodd"/></clipPath></defs><polyline stroke="#000" stroke-linejoin="round" stroke-width="15" points="2233 3585 453 3095" clip-path="url(#cp22)"/><polyline stroke="#000" stroke-miterlimit="8" stroke-width="15" points="620 3234 470 3100 668 3061"/><defs><clipPath id="cp23"><path d="M -5406,444 H 5141 V 3845 H -5406 z M 258,1496 336,1311 438,1484 345,1282 324,1283z" clip-rule="evenodd"/></clipPath></defs><polyline stroke="#000" stroke-linejoin="round" stroke-width="15" points="453 3095 335 1293" clip-path="url(#cp23)"/><polyline stroke="#000" stroke-miterlimit="8" stroke-width="15" points="258 1496 336 1311 438 1484"/><defs><clipPath id="cp24"><path d="M -5406,444 H 5141 V 3845 H -5406 z M 3775,1188 3729,992 3914,1072 3719,963 3703,977z" clip-rule="evenodd"/></clipPath></defs><polyline stroke="#000" stroke-linejoin="round" stroke-width="15" points="5082 2615 3718 978" clip-path="url(#cp24)"/><polyline stroke="#000" stroke-miterlimit="8" stroke-width="15" points="3775 1188 3729 992 3914 1072"/><defs><clipPath id="cp25"><path d="M -5406,444 H 5141 V 3845 H -5406 z M 5061,2335 5108,2531 4923,2451 5118,2560 5134,2546z" clip-rule="evenodd"/></clipPath></defs><polyline stroke="#000" stroke-linejoin="round" stroke-width="15" points="3737 890 5119 2545" clip-path="url(#cp25)"/><polyline stroke="#000" stroke-miterlimit="8" stroke-width="15" points="5061 2335 5108 2531 4923 2451"/><defs><clipPath id="cp26"><path d="M -5406,444 H 5141 V 3845 H -5406 z M 2969,1035 3257,946 3156,1230 3308,922 3284,896z" clip-rule="evenodd"/></clipPath></defs><polyline stroke="#000" stroke-linejoin="round" stroke-width="30" points="2535 1639 3283 921" clip-path="url(#cp26)"/><polyline stroke="#000" stroke-miterlimit="8" stroke-width="30" points="2969 1035 3257 946 3156 1230"/><defs><clipPath id="cp27"><path d="M -5406,444 H 5141 V 3845 H -5406 z M 2563,1356 2368,1408 2443,1221 2340,1419 2354,1435z" clip-rule="evenodd"/></clipPath></defs><polyline stroke="#000" stroke-linejoin="round" stroke-width="15" points="3130 733 2355 1420" clip-path="url(#cp27)"/><polyline stroke="#000" stroke-miterlimit="8" stroke-width="15" points="2563 1356 2368 1408 2443 1221"/><defs><clipPath id="cp28"><path d="M -5406,444 H 5141 V 3845 H -5406 z M 3124,1595 2839,1694 2930,1407 2789,1720 2814,1745z" clip-rule="evenodd"/></clipPath></defs><polyline stroke="#000" stroke-linejoin="round" stroke-width="30" points="3526 986 2814 1720" clip-path="url(#cp28)"/><polyline stroke="#000" stroke-miterlimit="8" stroke-width="30" points="3124 1595 2839 1694 2930 1407"/><defs><clipPath id="cp29"><path d="M -5406,444 H 5141 V 3845 H -5406 z M 4882,2832 5083,2838 4957,2995 5113,2836 5104,2817z" clip-rule="evenodd"/></clipPath></defs><polyline stroke="#000" stroke-linejoin="round" stroke-width="15" points="2942 3823 5099 2831" clip-path="url(#cp29)"/><polyline stroke="#000" stroke-miterlimit="8" stroke-width="15" points="4882 2832 5083 2838 4957 2995"/><polyline stroke="gray" stroke-width="15" points="-4123 2163 -3932 2604"/><polyline stroke="gray" stroke-width="15" points="-3281 1365 -2770 1372"/><polyline stroke="gray" stroke-width="15" points="-2993 2774 -2508 2577"/><defs><clipPath id="cp30"><path d="M -5406,444 H 5141 V 3845 H -5406 z M -4991,2195 -5133,2403 -5214,2164 -5158,2453 -5123,2458z" clip-rule="evenodd"/></clipPath></defs><polyline stroke="#000" stroke-width="30" points="-4908 772 -5138 2438" clip-path="url(#cp30)"/><polyline stroke="#000" stroke-miterlimit="8" stroke-width="30" points="-4991 2195 -5133 2403 -5214 2164"/><defs><clipPath id="cp31"><path d="M -5406,444 H 5141 V 3845 H -5406 z M -4655,901 -4873,774 -4641,676 -4925,753 -4927,789z" clip-rule="evenodd"/></clipPath></defs><polyline stroke="#000" stroke-width="30" points="-3223 880 -4908 772" clip-path="url(#cp31)"/><polyline stroke="#000" stroke-miterlimit="8" stroke-width="30" points="-4655 901 -4873 774 -4641 676"/><defs><clipPath id="cp32"><path d="M -5406,444 H 5141 V 3845 H -5406 z M -3411,1995 -3169,2062 -3368,2215 -3113,2069 -3120,2034z" clip-rule="evenodd"/></clipPath></defs><polyline stroke="#000" stroke-width="30" points="-5125 2444 -3134 2055" clip-path="url(#cp32)"/><polyline stroke="#000" stroke-miterlimit="8" stroke-width="30" points="-3411 1995 -3169 2062 -3368 2215"/><defs><clipPath id="cp33"><path d="M -5406,444 H 5141 V 3845 H -5406 z M -4695,2737 -4937,2667 -4736,2516 -4993,2660 -4986,2695z" clip-rule="evenodd"/></clipPath></defs><polyline stroke="#000" stroke-width="30" points="-3089 2323 -4972 2674" clip-path="url(#cp33)"/><polyline stroke="#000" stroke-miterlimit="8" stroke-width="30" points="-4695 2737 -4937 2667 -4736 2516"/><defs><clipPath id="cp34"><path d="M -5406,444 H 5141 V 3845 H -5406 z M -2823,3346 -2650,3530 -2900,3557 -2606,3565 -2594,3531z" clip-rule="evenodd"/></clipPath></defs><polyline stroke="#000" stroke-width="30" points="-4972 2674 -2617 3542" clip-path="url(#cp34)"/><polyline stroke="#000" stroke-miterlimit="8" stroke-width="30" points="-2823 3346 -2650 3530 -2900 3557"/><defs><clipPath id="cp35"><path d="M -5406,444 H 5141 V 3845 H -5406 z M -3095,2607 -3076,2356 -2887,2522 -3079,2300 -3112,2313z" clip-rule="evenodd"/></clipPath></defs><polyline stroke="#000" stroke-width="30" points="-2591 3548 -3089 2323" clip-path="url(#cp35)"/><polyline stroke="#000" stroke-miterlimit="8" stroke-width="30" points="-3095 2607 -3076 2356 -2887 2522"/><defs><clipPath id="cp36"><path d="M -5406,444 H 5141 V 3845 H -5406 z M -2306,3182 -2335,3432 -2518,3259 -2334,3488 -2300,3476z" clip-rule="evenodd"/></clipPath></defs><polyline stroke="#000" stroke-width="30" points="-2840 2042 -2323 3465" clip-path="url(#cp36)"/><polyline stroke="#000" stroke-miterlimit="8" stroke-width="30" points="-2306 3182 -2335 3432 -2518 3259"/><defs><clipPath id="cp37"><path d="M -5406,444 H 5141 V 3845 H -5406 z M -2759,1770 -2844,2007 -2982,1796 -2856,2062 -2820,2058z" clip-rule="evenodd"/></clipPath></defs><polyline stroke="#000" stroke-width="30" points="-2974 899 -2840 2042" clip-path="url(#cp37)"/><polyline stroke="#000" stroke-miterlimit="8" stroke-width="30" points="-2759 1770 -2844 2007 -2982 1796"/><defs><clipPath id="cp38"><path d="M -5406,444 H 5141 V 3845 H -5406 z M -3315,1148 -3220,915 -3091,1131 -3206,861 -3242,863z" clip-rule="evenodd"/></clipPath></defs><polyline stroke="#000" stroke-width="30" points="-3134 2055 -3223 880" clip-path="url(#cp38)"/><polyline stroke="#000" stroke-miterlimit="8" stroke-width="30" points="-3315 1148 -3220 915 -3091 1131"/><defs><clipPath id="cp39"><path d="M -5406,444 H 5141 V 3845 H -5406 z M -2735,1024 -2952,896 -2719,800 -3004,874 -3006,910z" clip-rule="evenodd"/></clipPath></defs><polyline stroke="#000" stroke-width="30" points="-2017 963 -2987 893" clip-path="url(#cp39)"/><polyline stroke="#000" stroke-miterlimit="8" stroke-width="30" points="-2735 1024 -2952 896 -2719 800"/><defs><clipPath id="cp40"><path d="M -5406,444 H 5141 V 3845 H -5406 z M -2020,1247 -2003,996 -1813,1160 -2007,939 -2041,953z" clip-rule="evenodd"/></clipPath></defs><polyline stroke="#000" stroke-width="30" points="-1455 2304 -2017 963" clip-path="url(#cp40)"/><polyline stroke="#000" stroke-miterlimit="8" stroke-width="30" points="-2020 1247 -2003 996 -1813 1160"/><defs><clipPath id="cp41"><path d="M -5406,444 H 5141 V 3845 H -5406 z M -1700,2447 -1476,2333 -1519,2580 -1430,2300 -1459,2279z" clip-rule="evenodd"/></clipPath></defs><polyline stroke="#000" stroke-width="30" points="-2311 3465 -1455 2304" clip-path="url(#cp41)"/><polyline stroke="#000" stroke-miterlimit="8" stroke-width="30" points="-1700 2447 -1476 2333 -1519 2580"/><defs><clipPath id="cp42"><path d="M -5406,444 H 5141 V 3845 H -5406 z M 3535,969 3725,903 3664,1095 3752,890 3737,875z" clip-rule="evenodd"/></clipPath></defs><polyline stroke="#000" stroke-linejoin="round" stroke-width="15" points="3036 1614 3737 890" clip-path="url(#cp42)"/><polyline stroke="#000" stroke-miterlimit="8" stroke-width="15" points="3535 969 3725 903 3664 1095"/><defs><clipPath id="cp43"><path d="M -5406,444 H 5141 V 3845 H -5406 z M 3072,3751 2871,3745 2997,3587 2841,3747 2850,3766z" clip-rule="evenodd"/></clipPath></defs><polyline stroke="#000" stroke-linejoin="round" stroke-width="15" points="5043 2743 2855 3752" clip-path="url(#cp43)"/><polyline stroke="#000" stroke-miterlimit="8" stroke-width="15" points="3072 3751 2871 3745 2997 3587"/><defs><clipPath id="cp44"><path d="M -5406,444 H 5141 V 3845 H -5406 z M 2390,1940 2534,1675 2660,1949 2554,1622 2518,1620z" clip-rule="evenodd"/></clipPath></defs><polyline stroke="#000" stroke-linejoin="round" stroke-width="30" points="2475 3537 2535 1639" clip-path="url(#cp44)"/><polyline stroke="#000" stroke-miterlimit="8" stroke-width="30" points="2390 1940 2534 1675 2660 1949"/><defs><clipPath id="cp45"><path d="M -5406,444 H 5141 V 3845 H -5406 z M 604,1183 443,1061 637,1006 418,1046 414,1066z" clip-rule="evenodd"/></clipPath></defs><polyline stroke="#000" stroke-linejoin="round" stroke-width="15" points="2355 1420 426 1058" clip-path="url(#cp45)"/><polyline stroke="#000" stroke-miterlimit="8" stroke-width="15" points="604 1183 443 1061 637 1006"/><defs><clipPath id="cp46"><path d="M -5406,444 H 5141 V 3845 H -5406 z M 2327,3389 2233,3567 2147,3386 2222,3595 2243,3596z" clip-rule="evenodd"/></clipPath></defs><polyline stroke="#000" stroke-linejoin="round" stroke-width="15" points="2270 1678 2233 3585" clip-path="url(#cp46)"/><polyline stroke="#000" stroke-miterlimit="8" stroke-width="15" points="2327 3389 2233 3567 2147 3386"/><defs><clipPath id="cp47"><path d="M -5406,444 H 5141 V 3845 H -5406 z M 2877,3335 2730,3598 2607,3323 2709,3651 2745,3653z" clip-rule="evenodd"/></clipPath></defs><polyline stroke="#000" stroke-linejoin="round" stroke-width="30" points="2814 1720 2728 3634" clip-path="url(#cp47)"/><polyline stroke="#000" stroke-miterlimit="8" stroke-width="30" points="2877 3335 2730 3598 2607 3323"/><defs><clipPath id="cp48"><path d="M -5406,444 H 5141 V 3845 H -5406 z M 2094,1551 2253,1675 2058,1728 2278,1690 2282,1670z" clip-rule="evenodd"/></clipPath></defs><polyline stroke="#000" stroke-linejoin="round" stroke-width="15" points="335 1293 2270 1678" clip-path="url(#cp48)"/><polyline stroke="#000" stroke-miterlimit="8" stroke-width="15" points="2094 1551 2253 1675 2058 1728"/><defs><clipPath id="cp49"><path d="M -5406,444 H 5141 V 3845 H -5406 z M 2849,2012 2947,1837 3028,2021 2959,1809 2938,1808z" clip-rule="evenodd"/></clipPath></defs><polyline stroke="#000" stroke-linejoin="round" stroke-width="15" points="2855 3752 2948 1819" clip-path="url(#cp49)"/><polyline stroke="#000" stroke-miterlimit="8" stroke-width="15" points="2849 2012 2947 1837 3028 2021"/><defs><clipPath id="cp50"><path d="M -5406,444 H 5141 V 3845 H -5406 z M 3180,1777 3052,1621 3253,1613 3031,1600 3022,1619z" clip-rule="evenodd"/></clipPath></defs><polyline stroke="#000" stroke-linejoin="round" stroke-width="15" points="5119 2545 3036 1614" clip-path="url(#cp50)"/><polyline stroke="#000" stroke-miterlimit="8" stroke-width="15" points="3180 1777 3052 1621 3253 1613"/><defs><clipPath id="cp51"><path d="M -5406,444 H 5141 V 3845 H -5406 z M 4898,2581 5027,2736 4826,2746 5048,2757 5057,2738z" clip-rule="evenodd"/></clipPath></defs><polyline stroke="#000" stroke-linejoin="round" stroke-width="15" points="2948 1819 5043 2743" clip-path="url(#cp51)"/><polyline stroke="#000" stroke-miterlimit="8" stroke-width="15" points="4898 2581 5027 2736 4826 2746"/><polyline stroke="red" stroke-width="8" points="2117 570 1926 854"/><polyline stroke="red" stroke-width="8" points="1714 1300 1824 1062"/><polyline stroke="red" stroke-width="8" points="2216 970 2770 1066"/><polyline stroke="red" stroke-width="8" points="1597 938 1057 691"/><polyline stroke="red" stroke-width="8" points="3049 2038 2957 1588"/><polyline stroke="red" stroke-width="8" points="3433 1202 3863 1605"/><polyline stroke="red" stroke-width="8" points="4010 2053 3958 1818"/><polyline stroke="red" stroke-width="8" points="4090 1610 4160 1392"/><polyline stroke="red" stroke-width="8" points="3048 2794 3041 2258"/><polyline stroke="red" stroke-width="8" points="3372 2253 3429 2410"/><polyline stroke="red" stroke-width="8" points="3224 1866 3143 2045"/><polyline stroke="red" stroke-width="8" points="2902 2046 2608 1577"/><polyline stroke="red" stroke-width="8" points="2512 2332 2895 2135"/><polyline stroke="red" stroke-width="8" points="3258 2890 3261 2255"/><polyline stroke="red" stroke-width="8" points="2789 2380 2901 2249"/><rect width="866" height="240" x="-4476" y="1359" stroke="#000" stroke-width="15"/><rect width="353" height="242" x="-5384" y="2575" stroke="#000" stroke-width="15"/><rect width="343" height="230" x="-3265" y="542" stroke="#000" stroke-width="15"/><rect width="870" height="247" x="-3987" y="2690" stroke="#000" stroke-width="15"/><rect width="362" height="243" x="-2546" y="3569" stroke="#000" stroke-width="15"/><rect width="669" height="245" x="-2634" y="1816" stroke="#000" stroke-width="15"/><polyline stroke="red" stroke-width="8" points="-4955 2419 -5140 2580"/><polyline stroke="red" stroke-width="8" points="-4594 2600 -4907 2504 -5072 2608"/><polyline stroke="red" stroke-width="8" points="-3197 1148 -3088 969 -3114 784"/><polyline stroke="red" stroke-width="8" points="-2962 1018 -3047 961 -3062 786"/><polyline stroke="red" stroke-width="8" points="-2674 3305 -2536 3405 -2489 3557"/><polyline stroke="red" stroke-width="8" points="-2471 3105 -2514 3274 -2416 3562"/><polyline stroke="red" stroke-width="8" points="-4089 830 -4089 1360"/><polyline stroke="red" stroke-width="8" points="-3610 1483 -3187 1449"/><polyline stroke="red" stroke-width="8" points="-4106 1599 -4000 2226"/><polyline stroke="red" stroke-width="8" points="-5017 1582 -4482 1500"/><polyline stroke="red" stroke-width="8" points="-3785 2456 -3610 2676"/><polyline stroke="red" stroke-width="8" points="-3814 3109 -3653 2946"/><polyline stroke="red" stroke-width="8" points="-3102 2885 -2892 2837"/><polyline stroke="red" stroke-width="8" points="-2395 944 -2236 1801"/><polyline stroke="red" stroke-width="8" points="-1957 1862 -1720 1674"/><polyline stroke="red" stroke-width="8" points="-2159 2066 -1836 2807"/><polyline stroke="red" stroke-width="8" points="-2679 2480 -2366 2070"/><polyline stroke="red" stroke-width="8" points="-2908 1478 -2479 1797"/><text x="-4439" y="1555" fill="#000" font-family="Times" font-size="168" font-style="normal" font-weight="normal" text-anchor="start" xml:space="preserve">#808080</text><text x="-5347" y="2771" fill="#000" font-family="Times" font-size="168" font-style="normal" font-weight="normal" text-anchor="start" xml:space="preserve">4.5</text><text x="-3228" y="738" fill="#000" font-family="Times" font-size="168" font-style="normal" font-weight="normal" text-anchor="start" xml:space="preserve">2.6</text><text x="-3950" y="2886" fill="#000" font-family="Times" font-size="168" font-style="normal" font-weight="normal" text-anchor="start" xml:space="preserve">#dddddd</text><text x="-2509" y="3765" fill="#000" font-family="Times" font-size="168" font-style="normal" font-weight="normal" text-anchor="start" xml:space="preserve">4.9</text><text x="-2597" y="2012" fill="#000" font-family="Times" font-size="168" font-style="normal" font-weight="normal" text-anchor="start" xml:space="preserve">#ffffff</text><text x="3506" y="1706" fill="#000" font-family="Times" font-size="192" font-style="normal" font-weight="normal" text-anchor="start" xml:space="preserve">8</text><text x="2633" y="2170" fill="#000" font-family="Times" font-size="192" font-style="normal" font-weight="normal" text-anchor="start" xml:space="preserve">6</text><text x="3178" y="3224" fill="#000" font-family="Times" font-size="192" font-style="normal" font-weight="normal" text-anchor="start" xml:space="preserve">7</text><text x="3305" y="1079" fill="#000" font-family="Times" font-size="192" font-style="normal" font-weight="normal" text-anchor="start" xml:space="preserve">5</text><text x="2370" y="2259" fill="#000" font-family="Times" font-size="192" font-style="normal" font-weight="normal" text-anchor="start" xml:space="preserve">4</text><text x="2704" y="1361" fill="#000" font-family="Times" font-size="192" font-style="normal" font-weight="normal" text-anchor="start" xml:space="preserve">1</text><text x="3275" y="1617" fill="#000" font-family="Times" font-size="192" font-style="normal" font-weight="normal" text-anchor="start" xml:space="preserve">2</text><text x="2915" y="3149" fill="#000" font-family="Times" font-size="168" font-style="normal" font-weight="normal" text-anchor="start" xml:space="preserve">3</text><polyline stroke="#9f9f9f" stroke-width="8" points="4274 2603 4281 2876"/><polyline stroke="#9f9f9f" stroke-width="8" points="3896 3223 3999 3393"/><polyline stroke="#9f9f9f" stroke-width="8" points="2756 2568 2919 2623"/><polyline stroke="#9f9f9f" stroke-width="8" points="3942 1994 3814 2248"/><polyline stroke="#9f9f9f" stroke-width="8" points="3421 1893 3674 1944"/><polyline stroke="#9f9f9f" stroke-width="8" points="3026 3141 3372 3260"/><polyline stroke="#9f9f9f" stroke-width="8" points="3169 1328 3322 1320"/><polyline stroke="#9f9f9f" stroke-width="15" points="4298 1730 4417 1653"/><polyline stroke="#9f9f9f" stroke-width="8" points="1619 1269 1469 1570"/><polyline stroke="#9f9f9f" stroke-width="8" points="822 2555 1084 2726"/><polyline stroke="#9f9f9f" stroke-width="8" points="2191 2269 2131 2555"/><polyline stroke="#9f9f9f" stroke-width="8" points="2620 3170 2763 3170"/><polyline stroke="#9f9f9f" stroke-width="8" points="1476 3344 1303 3389"/><polyline stroke="#9f9f9f" stroke-width="8" points="2161 560 2244 733"/><polyline stroke="#9f9f9f" stroke-width="8" points="2770 1019 2982 1282"/><polyline stroke="#9f9f9f" stroke-width="8" points="1009 695 1009 733 1009 770"/><polyline stroke="#9f9f9f" stroke-width="8" points="302 2057 339 2072 363 2111 400 2126"/><polyline stroke="#9f9f9f" stroke-width="8" points="1265 1352 1490 1290"/><polyline stroke="#9f9f9f" stroke-width="8" points="2227 2484 2560 2494"/><polyline stroke="#9f9f9f" stroke-width="8" points="4028 3239"/><polyline stroke="#9f9f9f" stroke-width="8" points="3071 1764 3260 1786"/><rect width="726" height="228" x="3705" y="1606" fill="#fff" stroke="#000" stroke-width="15"/><rect width="710" height="213" x="2816" y="2043" fill="#fff" stroke="#000" stroke-width="15"/><rect width="664" height="213" x="1556" y="857" fill="#fff" stroke="#000" stroke-width="15"/><text x="3728" y="1790" fill="#000" font-family="Times" font-size="144" font-style="normal" font-weight="bold" text-anchor="start" xml:space="preserve">#82a0ff</text><text x="2846" y="2219" fill="#000" font-family="Times" font-size="144" font-style="normal" font-weight="bold" text-anchor="start" xml:space="preserve">#00ff00</text><text x="1578" y="1034" fill="#000" font-family="Times" font-size="144" font-style="normal" font-weight="bold" text-anchor="start" xml:space="preserve">#ff0000</text><polyline stroke="#00f" stroke-width="30" points="2917 1258 3180 1348"/><polyline stroke="#00f" stroke-width="30" points="2517 2567 2783 2588"/><polyline stroke="#00f" stroke-width="30" points="2930 2923 3151 3041"/><polyline stroke="#00f" stroke-width="30" points="3238 1855 3462 1892"/></g></svg>