<svg xmlns="http://www.w3.org/2000/svg" xmlns:xlink="http://www.w3.org/1999/xlink" width="1036pt" height="259pt" viewBox="-10795 -772 16446 4110"><g fill="none"><polyline fill="gray" stroke="#000" stroke-linejoin="round" stroke-width="15" points="4052 -130 3751 871 2815 1812 2908 943 4052 -130"/><polyline fill="#fff" stroke="#000" stroke-linejoin="round" stroke-width="15" points="-1540 3316 -1408 2136 -2924 742 -3478 1612 -1540 3316"/><polyline fill="#ddd" stroke="#000" stroke-linejoin="round" stroke-width="15" points="1565 -52 1732 941 615 1895 140 1040 1565 -52"/><polyline fill="gray" stroke="#000" stroke-linejoin="round" stroke-width="15" points="4985 1731 4084 2832 2815 1812 3751 871 4985 1731"/><polyline fill="#fff" stroke="#000" stroke-linejoin="round" stroke-width="15" points="-2924 742 -4435 1036 -5357 1945 -3478 1612 -2924 742"/><polyline fill="#ddd" stroke="#000" stroke-linejoin="round" stroke-width="15" points="2815 1812 1703 2930 615 1895 1732 941 2815 1812"/><polyline fill="gray" stroke="#000" stroke-linejoin="round" stroke-width="15" points="5629 848 4985 1731 3751 871 4052 -130 5629 848"/><polyline fill="#ddd" stroke="#000" stroke-linejoin="round" stroke-width="15" points="2908 943 2815 1812 1732 941 1565 -52 2908 943"/><polyline fill="gray" stroke="#000" stroke-linejoin="round" stroke-width="15" points="5629 848 4985 1731 4084 2832 4549 2158 5629 848"/><polyline fill="#ddd" stroke="#000" stroke-linejoin="round" stroke-width="15" points="2908 943 2815 1812 1703 2930 1487 2277 2908 943"/><polyline fill="#ddd" stroke="#000" stroke-linejoin="round" stroke-width="15" points="-1300 2054 -2825 643 -2836 -750 -1300 2054"/><polyline fill="#ddd" stroke="#000" stroke-linejoin="round" stroke-width="15" points="-2836 -750 -1300 2054 -1406 3226 -3456 -205 -2836 -750"/><polyline fill="gray" stroke="#000" stroke-linejoin="round" stroke-width="8" points="-8966 316 -8900 1306 -10579 1632 -10395 228 -8966 320"/><polyline fill="#fff" stroke="#000" stroke-linejoin="round" stroke-width="8" points="-8234 2463 -7512 1489 -7966 451 -8631 1385 -8234 2467"/><polyline fill="#fff" stroke="#000" stroke-linejoin="round" stroke-width="15" points="-1540 3316 -5357 1945 -3478 1612 -1540 3316"/><polyline fill="#ddd" stroke="#000" stroke-linejoin="round" stroke-width="15" points="-1406 3226 -1300 2054 -1406 3226"/><polyline fill="gray" stroke="#000" stroke-linejoin="round" stroke-width="15" points="2908 943 4549 2158 4084 2832 2815 1812 2908 943"/><polyline fill="#ddd" stroke="#000" stroke-linejoin="round" stroke-width="15" points="140 1040 1487 2277 1703 2930 615 1895 140 1040"/><polyline fill="gray" stroke="#000" stroke-linejoin="round" stroke-width="15" points="4549 2158 5629 848 4052 -130 2908 943 4549 2158"/><polyline fill="#ddd" stroke="#000" stroke-linejoin="round" stroke-width="15" points="1487 2277 2908 943 1565 -52 140 1040 1487 2277"/><circle cx="-8787" cy="1403" r="108" fill="#000" stroke="#000" stroke-width="8"/><circle cx="-8286" cy="2677" r="108" fill="#000" stroke="#000" stroke-width="8"/><circle cx="-7366" cy="1446" r="108" fill="#000" stroke="#000" stroke-width="8"/><circle cx="-7881" cy="289" r="108" fill="#000" stroke="#000" stroke-width="8"/><circle cx="-8882" cy="211" r="108" fill="#000" stroke="#000" stroke-width="8"/><circle cx="-10494" cy="122" r="108" fill="#000" stroke="#000" stroke-width="8"/><circle cx="-10679" cy="1757" r="108" fill="#000" stroke="#000" stroke-width="8"/><polyline stroke="#000" stroke-width="60" points="-8787 1253 -8878 378"/><polyline stroke="#000" stroke-width="60" points="-8351 2505 -8721 1538"/><polyline stroke="#000" stroke-width="60" points="-10497 1720 -8938 1423"/><polyline stroke="#000" stroke-width="60" points="-10331 128 -9064 207"/><polyline stroke="#000" stroke-width="60" points="-8703 1259 -8044 342"/><polyline stroke="#000" stroke-width="60" points="-7817 419 -7444 1324"/><polyline stroke="#000" stroke-width="60" points="-7421 1595 -8145 2569"/><polyline stroke="#000" stroke-width="60" points="-10512 273 -10695 1572"/><polyline fill="#ddd" stroke="#000" stroke-linejoin="round" stroke-width="15" points="-3358 1498 -3456 -205 -1406 3226 -3358 1498"/><polygon fill="gray" stroke="#000" stroke-width="15" points="-5406 1844 -4501 974 -4899 -403 -5769 105"/><polyline stroke="#000" stroke-dasharray="30 30" stroke-width="15" points="616 1888 1739 937 2817 1812"/><polyline stroke="#000" stroke-dasharray="30 30" stroke-width="15" points="1731 946 1566 -60"/><polyline stroke="#000" stroke-dasharray="30 30" stroke-width="15" points="2810 1818 3751 872 4922 1689"/><polyline stroke="#000" stroke-dasharray="30 30" stroke-width="15" points="4051 -124 3747 889"/></g></svg>