<svg xmlns="http://www.w3.org/2000/svg" xmlns:xlink="http://www.w3.org/1999/xlink" width="683pt" height="206pt" viewBox="-5493 592 10834 3266"><g fill="none"><polyline stroke="#5a5a5a" stroke-linejoin="round" stroke-width="8" points="-4401 2297 -3663 2469"/><polyline stroke="#5a5a5a" stroke-linejoin="round" stroke-width="8" points="-4401 2297 -3663 2469"/><polyline stroke="#5a5a5a" stroke-linejoin="round" stroke-width="8" points="-4401 2297 -4419 1551"/><polyline stroke="#5a5a5a" stroke-linejoin="round" stroke-width="8" points="-4401 2297 -4419 1551"/><defs><clipPath id="cp0"><path d="M -5493,592 H 5341 V 3858 H -5493 z M 2370,2390 2526,2517 2330,2565 2551,2534 2556,2513z" clip-rule="evenodd"/></clipPath></defs><polyline stroke="#000" stroke-linejoin="round" stroke-width="15" points="1146 2207 2543 2521" clip-path="url(#cp0)"/><polyline stroke="#000" stroke-miterlimit="8" stroke-width="15" points="2370 2390 2526 2517 2330 2565"/><polyline stroke="#5a5a5a" stroke-linejoin="round" stroke-width="8" points="-4401 2297 -4820 2666"/><polyline stroke="#5a5a5a" stroke-linejoin="round" stroke-width="8" points="-4401 2297 -4820 2666"/><defs><clipPath id="cp1"><path d="M -5493,592 H 5341 V 3858 H -5493 z M 1233,2008 1146,2189 1053,2010 1136,2218 1157,2217z" clip-rule="evenodd"/></clipPath></defs><polyline stroke="#000" stroke-linejoin="round" stroke-width="15" points="1127 795 1146 2207" clip-path="url(#cp1)"/><polyline stroke="#000" stroke-miterlimit="8" stroke-width="15" points="1233 2008 1146 2189 1053 2010"/><defs><clipPath id="cp2"><path d="M -5493,592 H 5341 V 3858 H -5493 z M 2405,818 2569,934 2378,996 2596,949 2599,928z" clip-rule="evenodd"/></clipPath></defs><polyline stroke="#000" stroke-linejoin="round" stroke-width="15" points="1058 700 2587 937" clip-path="url(#cp2)"/><polyline stroke="#000" stroke-miterlimit="8" stroke-width="15" points="2405 818 2569 934 2378 996"/><defs><clipPath id="cp3"><path d="M -5493,592 H 5341 V 3858 H -5493 z M 851,1016 936,834 1031,1012 946,805 925,806z" clip-rule="evenodd"/></clipPath></defs><polyline stroke="#000" stroke-linejoin="round" stroke-width="15" points="970 2234 936 816" clip-path="url(#cp3)"/><polyline stroke="#000" stroke-miterlimit="8" stroke-width="15" points="851 1016 936 834 1031 1012"/><polyline stroke="#5a5a5a" stroke-linejoin="round" stroke-width="8" points="-2859 2656 -3663 2469"/><polyline stroke="#5a5a5a" stroke-linejoin="round" stroke-width="8" points="-2859 2656 -3663 2469"/><polyline stroke="#5a5a5a" stroke-linejoin="round" stroke-width="8" points="-4438 731 -4419 1551"/><polyline stroke="#5a5a5a" stroke-linejoin="round" stroke-width="8" points="-4438 731 -4419 1551"/><defs><clipPath id="cp4"><path d="M -5493,592 H 5341 V 3858 H -5493 z M 1259,2510 1104,2381 1300,2334 1079,2364 1074,2385z" clip-rule="evenodd"/></clipPath></defs><polyline stroke="#000" stroke-linejoin="round" stroke-width="15" points="2488 2704 1087 2377" clip-path="url(#cp4)"/><polyline stroke="#000" stroke-miterlimit="8" stroke-width="15" points="1259 2510 1104 2381 1300 2334"/><polyline fill="#dfdfdf" stroke="#5a5a5a" stroke-linejoin="round" stroke-width="8" points="-4401 2297 -2859 2656 -2731 975 -4438 731 -4401 2297"/><defs><clipPath id="cp5"><path d="M -5493,592 H 5341 V 3858 H -5493 z M 761,2295 957,2246 879,2431 985,2235 971,2219z" clip-rule="evenodd"/></clipPath></defs><polyline stroke="#000" stroke-linejoin="round" stroke-width="15" points="158 2934 970 2234" clip-path="url(#cp5)"/><polyline stroke="#000" stroke-miterlimit="8" stroke-width="15" points="761 2295 957 2246 879 2431"/><defs><clipPath id="cp6"><path d="M -5493,592 H 5341 V 3858 H -5493 z M 842,724 1043,709 934,879 1072,704 1062,686z" clip-rule="evenodd"/></clipPath></defs><polyline stroke="#000" stroke-linejoin="round" stroke-width="15" points="179 1226 1058 700" clip-path="url(#cp6)"/><polyline stroke="#000" stroke-miterlimit="8" stroke-width="15" points="842 724 1043 709 934 879"/><polyline stroke="#5a5a5a" stroke-linejoin="round" stroke-width="8" points="-2859 2656 -2798 1859"/><polyline stroke="#5a5a5a" stroke-linejoin="round" stroke-width="8" points="-2859 2656 -2798 1859"/><polyline stroke="#5a5a5a" stroke-linejoin="round" stroke-width="8" points="-2859 2656 -2798 1859"/><polyline stroke="#5a5a5a" stroke-linejoin="round" stroke-width="8" points="-2859 2656 -2798 1859"/><polyline stroke="#5a5a5a" stroke-linejoin="round" stroke-width="8" points="-4438 731 -3625 848"/><polyline stroke="#5a5a5a" stroke-linejoin="round" stroke-width="8" points="-4438 731 -3625 848"/><defs><clipPath id="cp7"><path d="M -5493,592 H 5341 V 3858 H -5493 z M 2529,1226 2629,1052 2708,1237 2641,1024 2620,1023z" clip-rule="evenodd"/></clipPath></defs><polyline stroke="#000" stroke-linejoin="round" stroke-width="15" points="2543 2521 2630 1034" clip-path="url(#cp7)"/><polyline stroke="#000" stroke-miterlimit="8" stroke-width="15" points="2529 1226 2629 1052 2708 1237"/><defs><clipPath id="cp8"><path d="M -5493,592 H 5341 V 3858 H -5493 z M 501,3031 307,3085 380,2897 279,3096 293,3112z" clip-rule="evenodd"/></clipPath></defs><polyline stroke="#000" stroke-linejoin="round" stroke-width="15" points="1087 2377 294 3097" clip-path="url(#cp8)"/><polyline stroke="#000" stroke-miterlimit="8" stroke-width="15" points="501 3031 307 3085 380 2897"/><defs><clipPath id="cp9"><path d="M -5493,592 H 5341 V 3858 H -5493 z M 1308,915 1145,798 1336,737 1118,783 1115,804z" clip-rule="evenodd"/></clipPath></defs><polyline stroke="#000" stroke-linejoin="round" stroke-width="15" points="2630 1034 1127 795" clip-path="url(#cp9)"/><polyline stroke="#000" stroke-miterlimit="8" stroke-width="15" points="1308 915 1145 798 1336 737"/><polyline stroke="#5a5a5a" stroke-linejoin="round" stroke-width="8" points="-2859 2656 -3164 3097"/><polyline stroke="#5a5a5a" stroke-linejoin="round" stroke-width="8" points="-2859 2656 -3164 3097"/><polyline stroke="#5a5a5a" stroke-linejoin="round" stroke-width="8" points="-2859 2656 -3164 3097"/><polyline stroke="#5a5a5a" stroke-linejoin="round" stroke-width="8" points="-2859 2656 -3164 3097"/><defs><clipPath id="cp10"><path d="M -5493,592 H 5341 V 3858 H -5493 z M 370,3180 220,3046 418,3007 196,3028 190,3048z" clip-rule="evenodd"/></clipPath></defs><polyline stroke="#000" stroke-linejoin="round" stroke-width="15" points="1788 3478 203 3041" clip-path="url(#cp10)"/><polyline stroke="#000" stroke-miterlimit="8" stroke-width="15" points="370 3180 220 3046 418 3007"/><polyline stroke="#5a5a5a" stroke-linejoin="round" stroke-width="8" points="-5323 3109 -4820 2666"/><polyline stroke="#5a5a5a" stroke-linejoin="round" stroke-width="8" points="-5323 3109 -4820 2666"/><defs><clipPath id="cp11"><path d="M -5493,592 H 5341 V 3858 H -5493 z M 3567,3724 3391,3821 3419,3622 3366,3839 3384,3851z" clip-rule="evenodd"/></clipPath></defs><polyline stroke="#000" stroke-linejoin="round" stroke-width="15" points="3966 2982 3381 3836" clip-path="url(#cp11)"/><polyline stroke="#000" stroke-miterlimit="8" stroke-width="15" points="3567 3724 3391 3821 3419 3622"/><defs><clipPath id="cp12"><path d="M -5493,592 H 5341 V 3858 H -5493 z M 4055,2623 3951,2795 3876,2609 3939,2823 3960,2824z" clip-rule="evenodd"/></clipPath></defs><polyline stroke="#000" stroke-linejoin="round" stroke-width="15" points="4071 1301 3950 2813" clip-path="url(#cp12)"/><polyline stroke="#000" stroke-miterlimit="8" stroke-width="15" points="4055 2623 3951 2795 3876 2609"/><defs><clipPath id="cp13"><path d="M -5493,592 H 5341 V 3858 H -5493 z M 21,1639 99,1454 201,1627 108,1425 87,1426z" clip-rule="evenodd"/></clipPath></defs><polyline stroke="#000" stroke-linejoin="round" stroke-width="15" points="203 3041 98 1436" clip-path="url(#cp13)"/><polyline stroke="#000" stroke-miterlimit="8" stroke-width="15" points="21 1639 99 1454 201 1627"/><defs><clipPath id="cp14"><path d="M -5493,592 H 5341 V 3858 H -5493 z M 1882,3282 1788,3460 1702,3279 1777,3488 1798,3489z" clip-rule="evenodd"/></clipPath></defs><polyline stroke="#000" stroke-linejoin="round" stroke-width="15" points="1821 1779 1788 3478" clip-path="url(#cp14)"/><polyline stroke="#000" stroke-miterlimit="8" stroke-width="15" points="1882 3282 1788 3460 1702 3279"/><defs><clipPath id="cp15"><path d="M -5493,592 H 5341 V 3858 H -5493 z M 5261,2487 5308,2683 5123,2603 5318,2712 5334,2698z" clip-rule="evenodd"/></clipPath></defs><polyline stroke="#000" stroke-linejoin="round" stroke-width="15" points="4089 1223 5319 2697" clip-path="url(#cp15)"/><polyline stroke="#000" stroke-miterlimit="8" stroke-width="15" points="5261 2487 5308 2683 5123 2603"/><polyline stroke="#5a5a5a" stroke-linejoin="round" stroke-width="8" points="-2859 2656 -2184 2642"/><polyline stroke="#5a5a5a" stroke-linejoin="round" stroke-width="8" points="-2859 2656 -2184 2642"/><polyline fill="#dfdfdf" stroke="#5a5a5a" stroke-linejoin="round" stroke-width="8" points="-2859 2656 -3538 3636 -5323 3109 -4401 2297 -2859 2656"/><polyline stroke="#5a5a5a" stroke-linejoin="round" stroke-width="8" points="-4438 731 -4907 982"/><polyline stroke="#5a5a5a" stroke-linejoin="round" stroke-width="8" points="-4438 731 -4907 982"/><defs><clipPath id="cp16"><path d="M -5493,592 H 5341 V 3858 H -5493 z M 2782,2316 2630,2577 2512,2299 2609,2629 2645,2631z" clip-rule="evenodd"/></clipPath></defs><polyline stroke="#000" stroke-linejoin="round" stroke-width="30" points="2723 1105 2628 2612" clip-path="url(#cp16)"/><polyline stroke="#000" stroke-miterlimit="8" stroke-width="30" points="2782 2316 2630 2577 2512 2299"/><polyline fill="#dfdfdf" stroke="#5a5a5a" stroke-linejoin="round" stroke-width="8" points="-5323 3109 -5481 1290 -4438 731 -4401 2297 -5323 3109"/><defs><clipPath id="cp17"><path d="M -5493,592 H 5341 V 3858 H -5493 z M 4166,3068 3984,2982 4162,2888 3955,2972 3956,2993z" clip-rule="evenodd"/></clipPath></defs><polyline stroke="#000" stroke-linejoin="round" stroke-width="15" points="5302 2952 3966 2982" clip-path="url(#cp17)"/><polyline stroke="#000" stroke-miterlimit="8" stroke-width="15" points="4166 3068 3984 2982 4162 2888"/><defs><clipPath id="cp18"><path d="M -5493,592 H 5341 V 3858 H -5493 z M 3744,1603 3898,1343 4013,1623 3920,1291 3884,1289z" clip-rule="evenodd"/></clipPath></defs><polyline stroke="#000" stroke-linejoin="round" stroke-width="30" points="3787 2828 3901 1308" clip-path="url(#cp18)"/><polyline stroke="#000" stroke-miterlimit="8" stroke-width="30" points="3744 1603 3898 1343 4013 1623"/><polyline stroke="#5a5a5a" stroke-linejoin="round" stroke-width="8" points="-2731 975 -2798 1859"/><polyline stroke="#5a5a5a" stroke-linejoin="round" stroke-width="8" points="-2731 975 -2798 1859"/><polyline stroke="#5a5a5a" stroke-linejoin="round" stroke-width="8" points="-2731 975 -2798 1859"/><polyline stroke="#5a5a5a" stroke-linejoin="round" stroke-width="8" points="-2731 975 -2798 1859"/><polyline stroke="#5a5a5a" stroke-linejoin="round" stroke-width="8" points="-2731 975 -3625 848"/><polyline stroke="#5a5a5a" stroke-linejoin="round" stroke-width="8" points="-2731 975 -3625 848"/><defs><clipPath id="cp19"><path d="M -5493,592 H 5341 V 3858 H -5493 z M 3887,1302 4077,1236 4016,1428 4104,1223 4089,1208z" clip-rule="evenodd"/></clipPath></defs><polyline stroke="#000" stroke-linejoin="round" stroke-width="15" points="3464 1868 4089 1223" clip-path="url(#cp19)"/><polyline stroke="#000" stroke-miterlimit="8" stroke-width="15" points="3887 1302 4077 1236 4016 1428"/><defs><clipPath id="cp20"><path d="M -5493,592 H 5341 V 3858 H -5493 z M 3521,3771 3320,3765 3446,3607 3290,3767 3299,3786z" clip-rule="evenodd"/></clipPath></defs><polyline stroke="#000" stroke-linejoin="round" stroke-width="15" points="5252 2873 3304 3772" clip-path="url(#cp20)"/><polyline stroke="#000" stroke-miterlimit="8" stroke-width="15" points="3521 3771 3320 3765 3446 3607"/><defs><clipPath id="cp21"><path d="M -5493,592 H 5341 V 3858 H -5493 z M 266,1327 65,1343 173,1173 36,1348 46,1366z" clip-rule="evenodd"/></clipPath></defs><polyline stroke="#000" stroke-linejoin="round" stroke-width="15" points="936 816 50 1352" clip-path="url(#cp21)"/><polyline stroke="#000" stroke-miterlimit="8" stroke-width="15" points="266 1327 65 1343 173 1173"/><defs><clipPath id="cp22"><path d="M -5493,592 H 5341 V 3858 H -5493 z M 2295,3273 2025,3407 2080,3110 1978,3438 2006,3460z" clip-rule="evenodd"/></clipPath></defs><polyline stroke="#000" stroke-linejoin="round" stroke-width="30" points="2628 2612 2003 3435" clip-path="url(#cp22)"/><polyline stroke="#000" stroke-miterlimit="8" stroke-width="30" points="2295 3273 2025 3407 2080 3110"/><defs><clipPath id="cp23"><path d="M -5493,592 H 5341 V 3858 H -5493 z M 2105,1486 1910,1538 1985,1351 1882,1549 1896,1565z" clip-rule="evenodd"/></clipPath></defs><polyline stroke="#000" stroke-linejoin="round" stroke-width="15" points="2587 937 1897 1550" clip-path="url(#cp23)"/><polyline stroke="#000" stroke-miterlimit="8" stroke-width="15" points="2105 1486 1910 1538 1985 1351"/><defs><clipPath id="cp24"><path d="M -5493,592 H 5341 V 3858 H -5493 z M 5085,2677 5268,2760 5092,2857 5297,2769 5296,2748z" clip-rule="evenodd"/></clipPath></defs><polyline stroke="#000" stroke-linejoin="round" stroke-width="15" points="3950 2813 5286 2759" clip-path="url(#cp24)"/><polyline stroke="#000" stroke-miterlimit="8" stroke-width="15" points="5085 2677 5268 2760 5092 2857"/><polyline fill="#fff" stroke="#5a5a5a" stroke-linejoin="round" stroke-width="8" points="-1323 2624 -2859 2656 -2731 975 -1323 2624"/><defs><clipPath id="cp25"><path d="M -5493,592 H 5341 V 3858 H -5493 z M 3500,2999 3766,2857 3720,3155 3812,2824 3783,2803z" clip-rule="evenodd"/></clipPath></defs><polyline stroke="#000" stroke-linejoin="round" stroke-width="30" points="3190 3667 3787 2828" clip-path="url(#cp25)"/><polyline stroke="#000" stroke-miterlimit="8" stroke-width="30" points="3500 2999 3766 2857 3720 3155"/><polyline stroke="#5a5a5a" stroke-linejoin="round" stroke-width="8" points="-5323 3109 -4476 3359"/><polyline stroke="#5a5a5a" stroke-linejoin="round" stroke-width="8" points="-5323 3109 -4476 3359"/><defs><clipPath id="cp26"><path d="M -5493,592 H 5341 V 3858 H -5493 z M 2296,2806 2477,2718 2438,2916 2503,2702 2486,2689z" clip-rule="evenodd"/></clipPath></defs><polyline stroke="#000" stroke-linejoin="round" stroke-width="15" points="1850 3530 2488 2704" clip-path="url(#cp26)"/><polyline stroke="#000" stroke-miterlimit="8" stroke-width="15" points="2296 2806 2477 2718 2438 2916"/><polyline stroke="#5a5a5a" stroke-linejoin="round" stroke-width="8" points="-5323 3109 -5397 2252"/><polyline stroke="#5a5a5a" stroke-linejoin="round" stroke-width="8" points="-5323 3109 -5397 2252"/><polyline stroke="#5a5a5a" stroke-linejoin="round" stroke-width="8" points="-2731 975 -2076 1743"/><polyline stroke="#5a5a5a" stroke-linejoin="round" stroke-width="8" points="-2731 975 -2076 1743"/><defs><clipPath id="cp27"><path d="M -5493,592 H 5341 V 3858 H -5493 z M 234,2731 157,2916 55,2743 148,2945 169,2944z" clip-rule="evenodd"/></clipPath></defs><polyline stroke="#000" stroke-linejoin="round" stroke-width="15" points="50 1352 158 2934" clip-path="url(#cp27)"/><polyline stroke="#000" stroke-miterlimit="8" stroke-width="15" points="234 2731 157 2916 55 2743"/><defs><clipPath id="cp28"><path d="M -5493,592 H 5341 V 3858 H -5493 z M 3287,2243 3385,2068 3466,2252 3397,2040 3376,2039z" clip-rule="evenodd"/></clipPath></defs><polyline stroke="#000" stroke-linejoin="round" stroke-width="15" points="3304 3772 3386 2050" clip-path="url(#cp28)"/><polyline stroke="#000" stroke-miterlimit="8" stroke-width="15" points="3287 2243 3385 2068 3466 2252"/><polyline stroke="#5a5a5a" stroke-linejoin="round" stroke-width="8" points="-3538 3636 -3164 3097"/><polyline stroke="#5a5a5a" stroke-linejoin="round" stroke-width="8" points="-3538 3636 -3164 3097"/><polyline stroke="#5a5a5a" stroke-linejoin="round" stroke-width="8" points="-3538 3636 -3164 3097"/><polyline stroke="#5a5a5a" stroke-linejoin="round" stroke-width="8" points="-3538 3636 -3164 3097"/><polyline fill="#fff" stroke="#5a5a5a" stroke-linejoin="round" stroke-width="8" points="-3538 3636 -2859 2656 -1323 2624 -3538 3636"/><polyline stroke="#5a5a5a" stroke-linejoin="round" stroke-width="8" points="-2731 975 -3059 1281"/><polyline stroke="#5a5a5a" stroke-linejoin="round" stroke-width="8" points="-2731 975 -3059 1281"/><polyline stroke="#5a5a5a" stroke-linejoin="round" stroke-width="8" points="-2731 975 -3059 1281"/><polyline stroke="#5a5a5a" stroke-linejoin="round" stroke-width="8" points="-2731 975 -3059 1281"/><polyline stroke="#5a5a5a" stroke-linejoin="round" stroke-width="8" points="-5481 1290 -4907 982"/><polyline stroke="#5a5a5a" stroke-linejoin="round" stroke-width="8" points="-5481 1290 -4907 982"/><defs><clipPath id="cp29"><path d="M -5493,592 H 5341 V 3858 H -5493 z M 357,1351 196,1229 390,1174 171,1214 167,1234z" clip-rule="evenodd"/></clipPath></defs><polyline stroke="#000" stroke-linejoin="round" stroke-width="15" points="1897 1550 179 1226" clip-path="url(#cp29)"/><polyline stroke="#000" stroke-miterlimit="8" stroke-width="15" points="357 1351 196 1229 390 1174"/><defs><clipPath id="cp30"><path d="M -5493,592 H 5341 V 3858 H -5493 z M 1684,3390 1833,3525 1635,3564 1857,3543 1863,3523z" clip-rule="evenodd"/></clipPath></defs><polyline stroke="#000" stroke-linejoin="round" stroke-width="15" points="294 3097 1850 3530" clip-path="url(#cp30)"/><polyline stroke="#000" stroke-miterlimit="8" stroke-width="15" points="1684 3390 1833 3525 1635 3564"/><defs><clipPath id="cp31"><path d="M -5493,592 H 5341 V 3858 H -5493 z M 1645,1652 1804,1776 1609,1829 1829,1791 1833,1771z" clip-rule="evenodd"/></clipPath></defs><polyline stroke="#000" stroke-linejoin="round" stroke-width="15" points="98 1436 1821 1779" clip-path="url(#cp31)"/><polyline stroke="#000" stroke-miterlimit="8" stroke-width="15" points="1645 1652 1804 1776 1609 1829"/><defs><clipPath id="cp32"><path d="M -5493,592 H 5341 V 3858 H -5493 z M 5107,2711 5236,2866 5035,2876 5257,2887 5266,2868z" clip-rule="evenodd"/></clipPath></defs><polyline stroke="#000" stroke-linejoin="round" stroke-width="15" points="3386 2050 5252 2873" clip-path="url(#cp32)"/><polyline stroke="#000" stroke-miterlimit="8" stroke-width="15" points="5107 2711 5236 2866 5035 2876"/><defs><clipPath id="cp33"><path d="M -5493,592 H 5341 V 3858 H -5493 z M 5085,2953 5286,2959 5160,3116 5316,2957 5307,2938z" clip-rule="evenodd"/></clipPath></defs><polyline stroke="#000" stroke-linejoin="round" stroke-width="15" points="3381 3836 5302 2952" clip-path="url(#cp33)"/><polyline stroke="#000" stroke-miterlimit="8" stroke-width="15" points="5085 2953 5286 2959 5160 3116"/><defs><clipPath id="cp34"><path d="M -5493,592 H 5341 V 3858 H -5493 z M 3608,2031 3480,1875 3681,1867 3459,1854 3450,1873z" clip-rule="evenodd"/></clipPath></defs><polyline stroke="#000" stroke-linejoin="round" stroke-width="15" points="5319 2697 3464 1868" clip-path="url(#cp34)"/><polyline stroke="#000" stroke-miterlimit="8" stroke-width="15" points="3608 2031 3480 1875 3681 1867"/><defs><clipPath id="cp35"><path d="M -5493,592 H 5341 V 3858 H -5493 z M 4128,1511 4082,1315 4267,1395 4072,1286 4056,1300z" clip-rule="evenodd"/></clipPath></defs><polyline stroke="#000" stroke-linejoin="round" stroke-width="15" points="5286 2759 4071 1301" clip-path="url(#cp35)"/><polyline stroke="#000" stroke-miterlimit="8" stroke-width="15" points="4128 1511 4082 1315 4267 1395"/><polyline fill="#fff" stroke="#5a5a5a" stroke-linejoin="round" stroke-width="8" points="-3538 3636 -2859 2656 -2731 975 -3470 1664 -3538 3636"/><polyline fill="#dfdfdf" stroke="#5a5a5a" stroke-linejoin="round" stroke-width="8" points="-3538 3636 -3470 1664 -2731 975 -2859 2656 -3538 3636"/><polyline fill="#dfdfdf" stroke="#5a5a5a" stroke-linejoin="round" stroke-width="8" points="-3470 1664 -2731 975 -4438 731 -5481 1290 -3470 1664"/><polyline stroke="#5a5a5a" stroke-linejoin="round" stroke-width="8" points="-3538 3636 -4476 3359"/><polyline stroke="#5a5a5a" stroke-linejoin="round" stroke-width="8" points="-3538 3636 -4476 3359"/><polyline stroke="#5a5a5a" stroke-linejoin="round" stroke-width="8" points="-1323 2624 -2184 2642"/><polyline stroke="#5a5a5a" stroke-linejoin="round" stroke-width="8" points="-1323 2624 -2184 2642"/><polyline stroke="#5a5a5a" stroke-linejoin="round" stroke-width="8" points="-5481 1290 -5397 2252"/><polyline stroke="#5a5a5a" stroke-linejoin="round" stroke-width="8" points="-5481 1290 -5397 2252"/><text x="3012" y="1343" fill="#343434" font-family="Times,Symbol" font-size="288" font-style="normal" font-weight="normal" text-anchor="start" xml:space="preserve">β</text><text x="3189" y="1491" fill="#343434" font-family="Times" font-size="240" font-style="italic" font-weight="normal" text-anchor="start" xml:space="preserve">3</text><polyline stroke="#5a5a5a" stroke-linejoin="round" stroke-width="8" points="-1323 2624 -2076 1743"/><polyline stroke="#5a5a5a" stroke-linejoin="round" stroke-width="8" points="-1323 2624 -2076 1743"/><defs><clipPath id="cp36"><path d="M -5493,592 H 5341 V 3858 H -5493 z M 2409,1219 2697,1130 2596,1414 2748,1106 2724,1080z" clip-rule="evenodd"/></clipPath></defs><polyline stroke="#000" stroke-linejoin="round" stroke-width="30" points="2057 1744 2723 1105" clip-path="url(#cp36)"/><polyline stroke="#000" stroke-miterlimit="8" stroke-width="30" points="2409 1219 2697 1130 2596 1414"/><polyline stroke="#5a5a5a" stroke-linejoin="round" stroke-width="8" points="-3538 3636 -2453 3141"/><polyline stroke="#5a5a5a" stroke-linejoin="round" stroke-width="8" points="-3538 3636 -2453 3141"/><polyline fill="#dfdfdf" stroke="#5a5a5a" stroke-linejoin="round" stroke-width="8" points="-3538 3636 -3470 1664 -5481 1290 -5323 3109 -3538 3636"/><defs><clipPath id="cp37"><path d="M -5493,592 H 5341 V 3858 H -5493 z M 3577,1837 3292,1936 3383,1649 3242,1962 3267,1987z" clip-rule="evenodd"/></clipPath></defs><polyline stroke="#000" stroke-linejoin="round" stroke-width="30" points="3901 1308 3267 1962" clip-path="url(#cp37)"/><polyline stroke="#000" stroke-miterlimit="8" stroke-width="30" points="3577 1837 3292 1936 3383 1649"/><polyline fill="#fff" stroke="#5a5a5a" stroke-linejoin="round" stroke-width="8" points="-1323 2624 -3470 1664 -2731 975 -1323 2624"/><polyline stroke="#5a5a5a" stroke-linejoin="round" stroke-width="8" points="-3538 3636 -3506 2713"/><polyline stroke="#5a5a5a" stroke-linejoin="round" stroke-width="8" points="-3538 3636 -3506 2713"/><polyline stroke="#5a5a5a" stroke-linejoin="round" stroke-width="8" points="-1323 2624 -2453 3141"/><polyline stroke="#5a5a5a" stroke-linejoin="round" stroke-width="8" points="-1323 2624 -2453 3141"/><polyline stroke="#5a5a5a" stroke-linejoin="round" stroke-width="8" points="-3538 3636 -3506 2713"/><polyline stroke="#5a5a5a" stroke-linejoin="round" stroke-width="8" points="-3538 3636 -3506 2713"/><polyline stroke="#00f" stroke-width="30" points="2674 1888 3838 2113"/><polyline stroke="#00f" stroke-width="30" points="2400 2919 3542 3176"/><polyline stroke="#5a5a5a" stroke-linejoin="round" stroke-width="8" points="-5481 1290 -4534 1466"/><polyline stroke="#5a5a5a" stroke-linejoin="round" stroke-width="8" points="-5481 1290 -4534 1466"/><defs><clipPath id="cp38"><path d="M -5493,592 H 5341 V 3858 H -5493 z M 1912,2045 2056,1780 2182,2054 2076,1727 2040,1725z" clip-rule="evenodd"/></clipPath></defs><polyline stroke="#000" stroke-linejoin="round" stroke-width="30" points="2003 3435 2057 1744" clip-path="url(#cp38)"/><polyline stroke="#000" stroke-miterlimit="8" stroke-width="30" points="1912 2045 2056 1780 2182 2054"/><polyline fill="#fff" stroke="#5a5a5a" stroke-linejoin="round" stroke-width="8" points="-3470 1664 -3538 3636 -1323 2624 -3470 1664"/><defs><clipPath id="cp39"><path d="M -5493,592 H 5341 V 3858 H -5493 z M 3339,3368 3192,3631 3069,3356 3171,3684 3207,3686z" clip-rule="evenodd"/></clipPath></defs><polyline stroke="#000" stroke-linejoin="round" stroke-width="30" points="3267 1962 3190 3667" clip-path="url(#cp39)"/><polyline stroke="#000" stroke-miterlimit="8" stroke-width="30" points="3339 3368 3192 3631 3069 3356"/><polyline stroke="#5a5a5a" stroke-linejoin="round" stroke-width="8" points="-1323 2624 -2350 2165"/><polyline stroke="#5a5a5a" stroke-linejoin="round" stroke-width="8" points="-1323 2624 -2350 2165"/><polyline stroke="#5a5a5a" stroke-linejoin="round" stroke-width="8" points="-3470 1664 -3059 1281"/><polyline stroke="#5a5a5a" stroke-linejoin="round" stroke-width="8" points="-3470 1664 -3059 1281"/><polyline stroke="#5a5a5a" stroke-linejoin="round" stroke-width="8" points="-3470 1664 -3059 1281"/><polyline stroke="#5a5a5a" stroke-linejoin="round" stroke-width="8" points="-3470 1664 -3059 1281"/><polyline stroke="#5a5a5a" stroke-linejoin="round" stroke-width="8" points="-3470 1664 -3506 2713"/><polyline stroke="#5a5a5a" stroke-linejoin="round" stroke-width="8" points="-3470 1664 -3506 2713"/><polyline stroke="#5a5a5a" stroke-linejoin="round" stroke-width="8" points="-3470 1664 -3506 2713"/><polyline stroke="#5a5a5a" stroke-linejoin="round" stroke-width="8" points="-3470 1664 -3506 2713"/><polyline stroke="#5a5a5a" stroke-linejoin="round" stroke-width="8" points="-3470 1664 -4534 1466"/><polyline stroke="#5a5a5a" stroke-linejoin="round" stroke-width="8" points="-3470 1664 -4534 1466"/><polyline stroke="#5a5a5a" stroke-linejoin="round" stroke-width="8" points="-3470 1664 -2350 2165"/><polyline stroke="#5a5a5a" stroke-linejoin="round" stroke-width="8" points="-3470 1664 -2350 2165"/><polyline stroke="#5a5a5a" stroke-dasharray="10 10" stroke-width="8" points="-2863 2652 -1326 2626"/><polyline stroke="#5a5a5a" stroke-dasharray="10 10" stroke-width="8" points="-5330 3114 -4400 2297 -2858 2658"/><polyline stroke="#5a5a5a" stroke-dasharray="10 10" stroke-width="8" points="-4434 732 -4403 2300"/><polyline stroke="#5a5a5a" stroke-dasharray="10 10" stroke-width="8" points="-3530 3627 -2853 2654 -2736 970"/><circle cx="-3475" cy="1664" r="94" fill="#000" stroke="#000" stroke-width="45"/><polyline stroke="#5a5a5a" stroke-dasharray="40 40" stroke-width="8" points="-2935 1196 -3481 2320"/><polyline stroke="#5a5a5a" stroke-dasharray="40 40" stroke-width="8" points="-3240 1485 -3482 1972"/><polyline stroke="#5a5a5a" stroke-dasharray="40 40" stroke-width="8" points="-2803 1944 -3529 3406"/><polyline stroke="#5a5a5a" stroke-dasharray="40 40" stroke-width="8" points="-2831 2346 -3284 3283"/><polyline stroke="#5a5a5a" stroke-dasharray="40 40" stroke-width="8" points="-2734 1107 -3493 2694"/><polyline stroke="#5a5a5a" stroke-dasharray="40 40" stroke-width="8" points="-2770 1550 -3509 3056"/><text x="1841" y="787" fill="#000" font-family="Times" font-size="192" font-style="normal" font-weight="normal" text-anchor="start" xml:space="preserve">13</text><text x="1220" y="1382" fill="#000" font-family="Times" font-size="192" font-style="normal" font-weight="normal" text-anchor="start" xml:space="preserve">11</text><text x="2312" y="1687" fill="#000" font-family="Times" font-size="192" font-style="normal" font-weight="normal" text-anchor="start" xml:space="preserve">1</text><text x="2694" y="2189" fill="#000" font-family="Times" font-size="192" font-style="normal" font-weight="normal" text-anchor="start" xml:space="preserve">2</text><text x="2333" y="3189" fill="#000" font-family="Times" font-size="192" font-style="normal" font-weight="normal" text-anchor="start" xml:space="preserve">3</text><text x="1514" y="2929" fill="#000" font-family="Times" font-size="192" font-style="normal" font-weight="normal" text-anchor="start" xml:space="preserve">14</text><text x="3598" y="1496" fill="#000" font-family="Times" font-size="192" font-style="normal" font-weight="normal" text-anchor="start" xml:space="preserve">5</text><text x="3674" y="1822" fill="#000" font-family="Times" font-size="192" font-style="normal" font-weight="normal" text-anchor="start" xml:space="preserve">9</text><text x="3074" y="2663" fill="#000" font-family="Times" font-size="192" font-style="normal" font-weight="normal" text-anchor="start" xml:space="preserve">6</text><text x="3647" y="2503" fill="#000" font-family="Times" font-size="192" font-style="normal" font-weight="normal" text-anchor="start" xml:space="preserve">8</text><text x="3458" y="3105" fill="#000" font-family="Times" font-size="192" font-style="normal" font-weight="normal" text-anchor="start" xml:space="preserve">7</text><text x="4174" y="2719" fill="#000" font-family="Times" font-size="192" font-style="normal" font-weight="normal" text-anchor="start" xml:space="preserve">15</text><text x="2074" y="2870" fill="#000" font-family="Times" font-size="192" font-style="normal" font-weight="normal" text-anchor="start" xml:space="preserve">4</text><text x="2018" y="1207" fill="#000" font-family="Times" font-size="192" font-style="normal" font-weight="normal" text-anchor="start" xml:space="preserve">10</text><text x="314" y="972" fill="#000" font-family="Times" font-size="192" font-style="normal" font-weight="normal" text-anchor="start" xml:space="preserve">12</text><text x="-3679" y="1564" fill="#000" font-family="Times" font-size="240" font-style="normal" font-weight="normal" text-anchor="start" xml:space="preserve">v</text><text x="-4455" y="2115" fill="#000" font-family="Times" font-size="240" font-style="normal" font-weight="normal" text-anchor="start" xml:space="preserve">vol1</text><text x="-4162" y="1275" fill="#000" font-family="Times" font-size="240" font-style="normal" font-weight="normal" text-anchor="start" xml:space="preserve">f1</text><text x="-2655" y="2520" fill="#000" font-family="Times" font-size="240" font-style="normal" font-weight="normal" text-anchor="start" xml:space="preserve">vol2</text><polyline stroke="#9f9f9f" stroke-width="8" points="531 2560 765 2713"/><polyline stroke="#9f9f9f" stroke-width="8" points="1751 2305 1697 2560"/><polyline stroke="#9f9f9f" stroke-width="8" points="2133 3108 2260 3108"/><polyline stroke="#9f9f9f" stroke-width="8" points="1114 3263 960 3303"/><polyline stroke="#9f9f9f" stroke-width="8" points="1724 783 1798 937"/><polyline stroke="#9f9f9f" stroke-width="8" points="2267 1192 2455 1426"/><polyline stroke="#9f9f9f" stroke-width="8" points="698 903 698 937 698 970"/><polyline stroke="#9f9f9f" stroke-width="8" points="69 2117 102 2130 122 2164 156 2178"/><polyline stroke="#9f9f9f" stroke-width="8" points="926 1488 1127 1433"/><polyline stroke="#9f9f9f" stroke-width="8" points="1783 2497 2079 2506"/><polyline stroke="#9f9f9f" stroke-width="8" points="2254 2546 2361 2606"/><polyline stroke="#9f9f9f" stroke-width="8" points="2535 1856 2702 1875"/><polyline stroke="#9f9f9f" stroke-width="8" points="3122 2841 3431 2947"/><polyline stroke="#9f9f9f" stroke-width="8" points="3611 1591 3744 1561"/><polyline stroke="#9f9f9f" stroke-width="8" points="4406 2208 4260 2494"/><polyline stroke="#9f9f9f" stroke-width="8" points="4555 2756 4561 2999"/><polyline stroke="#9f9f9f" stroke-width="8" points="3489 3277 3714 3329"/><polyline stroke="#9f9f9f" stroke-width="8" points="4190 3319 4282 3471"/><polyline stroke="#9f9f9f" stroke-width="8" points="4602 2014 4730 1928"/><polyline stroke="#9f9f9f" stroke-width="8" points="1242 1415 1108 1683"/><circle cx="-3148" cy="2133" r="170" fill="#fff" stroke="#000" stroke-dasharray="40 40" stroke-width="8"/><polyline stroke="#00f" stroke-width="30" points="2038 2514 3220 2759"/><polyline stroke="#00f" stroke-width="30" points="2396 1412 3626 1600"/><polyline stroke="#000" stroke-width="45" points="-3467 1666 -2736 980"/><text x="-3273" y="1299" fill="#000" font-family="Times" font-size="240" font-style="normal" font-weight="normal" text-anchor="start" xml:space="preserve">e</text><text x="-3282" y="2228" fill="#000" font-family="Times" font-size="240" font-style="normal" font-weight="normal" text-anchor="start" xml:space="preserve">f2</text></g></svg>