<svg xmlns="http://www.w3.org/2000/svg" xmlns:xlink="http://www.w3.org/1999/xlink" width="613pt" height="341pt" viewBox="-1 -282 9724 5412"><g fill="none"><defs><clipPath id="cp0"><path d="M -1,-282 H 9723 V 5130 H -1 z M 9080,2623 9292,2756 9058,2846 9307,2764 9308,2751z" clip-rule="evenodd"/></clipPath></defs><polyline stroke="#000" stroke-linejoin="round" stroke-width="8" points="7216 2555 9301 2757" clip-path="url(#cp0)"/><polyline stroke="#000" stroke-miterlimit="8" stroke-width="8" points="9080 2623 9292 2756 9058 2846"/><defs><clipPath id="cp1"><path d="M -1,-282 H 9723 V 5130 H -1 z M 2819,2591 3031,2724 2797,2814 3046,2732 3047,2719z" clip-rule="evenodd"/></clipPath></defs><polyline stroke="#000" stroke-linejoin="round" stroke-width="8" points="948 2523 3040 2725" clip-path="url(#cp1)"/><polyline stroke="#000" stroke-miterlimit="8" stroke-width="8" points="2819 2591 3031 2724 2797 2814"/><polyline stroke="#9f9f9f" stroke-linejoin="round" stroke-width="8" points="1948 2900 1983 2623"/><polyline stroke="#9f9f9f" stroke-linejoin="round" stroke-width="8" points="8278 2882 8246 2655"/><defs><clipPath id="cp2"><path d="M -1,-282 H 9723 V 5130 H -1 z M 1129,2932 917,2798 1151,2708 902,2790 901,2803z" clip-rule="evenodd"/></clipPath></defs><polyline stroke="#535353" stroke-linejoin="round" stroke-width="8" points="3008 3004 908 2797" clip-path="url(#cp2)"/><polyline stroke="#535353" stroke-miterlimit="8" stroke-width="8" points="1129 2932 917 2798 1151 2708"/><defs><clipPath id="cp3"><path d="M -1,-282 H 9723 V 5130 H -1 z M 7459,2915 7247,2781 7481,2691 7232,2773 7231,2786z" clip-rule="evenodd"/></clipPath></defs><polyline stroke="#535353" stroke-linejoin="round" stroke-width="8" points="9338 2987 7238 2780" clip-path="url(#cp3)"/><polyline stroke="#535353" stroke-miterlimit="8" stroke-width="8" points="7459 2915 7247 2781 7481 2691"/><defs><clipPath id="cp4"><path d="M -1,-282 H 9723 V 5130 H -1 z M 7321,2318 7216,2546 7097,2325 7209,2562 7223,2562z" clip-rule="evenodd"/></clipPath></defs><polyline stroke="#000" stroke-linejoin="round" stroke-width="8" points="7156 635 7216 2555" clip-path="url(#cp4)"/><polyline stroke="#000" stroke-miterlimit="8" stroke-width="8" points="7321 2318 7216 2546 7097 2325"/><defs><clipPath id="cp5"><path d="M -1,-282 H 9723 V 5130 H -1 z M 1054,2287 948,2514 829,2293 931,2542 967,2540z" clip-rule="evenodd"/></clipPath></defs><polyline stroke="#000" stroke-linejoin="round" stroke-width="30" points="893 593 948 2523" clip-path="url(#cp5)"/><polyline stroke="#000" stroke-miterlimit="8" stroke-width="8" points="1054 2287 948 2514 829 2293"/><polyline stroke="#9f9f9f" stroke-linejoin="round" stroke-width="8" points="671 1668 920 1590"/><polyline stroke="#9f9f9f" stroke-linejoin="round" stroke-width="8" points="7001 1650 7186 1628"/><defs><clipPath id="cp6"><path d="M -1,-282 H 9723 V 5130 H -1 z M 530,902 634,674 755,894 640,658 627,659z" clip-rule="evenodd"/></clipPath></defs><polyline stroke="#535353" stroke-linejoin="round" stroke-width="8" points="706 2605 634 665" clip-path="url(#cp6)"/><polyline stroke="#535353" stroke-miterlimit="8" stroke-width="8" points="530 902 634 674 755 894"/><defs><clipPath id="cp7"><path d="M -1,-282 H 9723 V 5130 H -1 z M 6860,885 6964,657 7085,877 6970,641 6957,642z" clip-rule="evenodd"/></clipPath></defs><polyline stroke="#535353" stroke-linejoin="round" stroke-width="8" points="7036 2588 6964 648" clip-path="url(#cp7)"/><polyline stroke="#535353" stroke-miterlimit="8" stroke-width="8" points="6860 885 6964 657 7085 877"/><polyline stroke="#9f9f9f" stroke-linejoin="round" stroke-width="8" points="8391 1610 8253 1722"/><defs><clipPath id="cp8"><path d="M -1,-282 H 9723 V 5130 H -1 z M 3007,995 3130,776 3231,1005 3149,750 3113,748z" clip-rule="evenodd"/></clipPath></defs><polyline stroke="#000" stroke-linejoin="round" stroke-width="30" points="3040 2725 3130 767" clip-path="url(#cp8)"/><polyline stroke="#000" stroke-miterlimit="8" stroke-width="8" points="3007 995 3130 776 3231 1005"/><defs><clipPath id="cp9"><path d="M -1,-282 H 9723 V 5130 H -1 z M 9414,918 9538,699 9639,929 9545,684 9532,683z" clip-rule="evenodd"/></clipPath></defs><polyline stroke="#000" stroke-linejoin="round" stroke-width="8" points="9441 2655 9538 690" clip-path="url(#cp9)"/><polyline stroke="#000" stroke-miterlimit="8" stroke-width="8" points="9414 918 9538 699 9639 929"/><polyline stroke="#9f9f9f" stroke-linejoin="round" stroke-width="8" points="3272 1897 3085 1780"/><polyline stroke="#9f9f9f" stroke-linejoin="round" stroke-width="8" points="653 3376 439 3176"/><polyline stroke="#9f9f9f" stroke-linejoin="round" stroke-width="8" points="9488 1705 9603 1880"/><polyline stroke="#9f9f9f" stroke-linejoin="round" stroke-width="8" points="6984 3358 6769 3159"/><defs><clipPath id="cp10"><path d="M -1,-282 H 9723 V 5130 H -1 z M 609,3752 416,3912 404,3661 403,3923 415,3929z" clip-rule="evenodd"/></clipPath></defs><polyline stroke="#535353" stroke-linejoin="round" stroke-width="8" points="908 2797 412 3920" clip-path="url(#cp10)"/><polyline stroke="#535353" stroke-miterlimit="8" stroke-width="8" points="609 3752 416 3912 404 3661"/><defs><clipPath id="cp11"><path d="M -1,-282 H 9723 V 5130 H -1 z M 6894,3839 6701,3999 6688,3748 6688,4010 6700,4016z" clip-rule="evenodd"/></clipPath></defs><polyline stroke="#535353" stroke-linejoin="round" stroke-width="8" points="7238 2780 6697 4007" clip-path="url(#cp11)"/><polyline stroke="#535353" stroke-miterlimit="8" stroke-width="8" points="6894 3839 6701 3999 6688 3748"/><defs><clipPath id="cp12"><path d="M -1,-282 H 9723 V 5130 H -1 z M 505,2769 702,2613 708,2864 715,2602 703,2596z" clip-rule="evenodd"/></clipPath></defs><polyline stroke="#535353" stroke-linejoin="round" stroke-width="8" points="137 3817 706 2605" clip-path="url(#cp12)"/><polyline stroke="#535353" stroke-miterlimit="8" stroke-width="8" points="505 2769 702 2613 708 2864"/><defs><clipPath id="cp13"><path d="M -1,-282 H 9723 V 5130 H -1 z M 3347,2625 3223,2843 3123,2613 3216,2858 3229,2859z" clip-rule="evenodd"/></clipPath></defs><polyline stroke="#535353" stroke-linejoin="round" stroke-width="8" points="3327 877 3223 2852" clip-path="url(#cp13)"/><polyline stroke="#535353" stroke-miterlimit="8" stroke-width="8" points="3347 2625 3223 2843 3123 2613"/><defs><clipPath id="cp14"><path d="M -1,-282 H 9723 V 5130 H -1 z M 6835,2752 7032,2596 7039,2847 7045,2585 7033,2579z" clip-rule="evenodd"/></clipPath></defs><polyline stroke="#535353" stroke-linejoin="round" stroke-width="8" points="6468 3800 7036 2588" clip-path="url(#cp14)"/><polyline stroke="#535353" stroke-miterlimit="8" stroke-width="8" points="6835 2752 7032 2596 7039 2847"/><defs><clipPath id="cp15"><path d="M -1,-282 H 9723 V 5130 H -1 z M 9677,2608 9553,2826 9453,2596 9546,2841 9559,2842z" clip-rule="evenodd"/></clipPath></defs><polyline stroke="#535353" stroke-linejoin="round" stroke-width="8" points="9658 860 9553 2835" clip-path="url(#cp15)"/><polyline stroke="#535353" stroke-miterlimit="8" stroke-width="8" points="9677 2608 9553 2826 9453 2596"/><defs><clipPath id="cp16"><path d="M -1,-282 H 9723 V 5130 H -1 z M 1117,723 902,594 1134,499 887,586 886,599z" clip-rule="evenodd"/></clipPath></defs><polyline stroke="#000" stroke-linejoin="round" stroke-width="8" points="3130 767 893 593" clip-path="url(#cp16)"/><polyline stroke="#000" stroke-miterlimit="8" stroke-width="8" points="1117 723 902 594 1134 499"/><defs><clipPath id="cp17"><path d="M -1,-282 H 9723 V 5130 H -1 z M 7515,645 7300,516 7532,421 7285,508 7284,521z" clip-rule="evenodd"/></clipPath></defs><polyline stroke="#000" stroke-linejoin="round" stroke-width="8" points="9538 690 7291 515" clip-path="url(#cp17)"/><polyline stroke="#000" stroke-miterlimit="8" stroke-width="8" points="7515 645 7300 516 7532 421"/><defs><clipPath id="cp18"><path d="M -1,-282 H 9723 V 5130 H -1 z M 2847,3207 3006,3013 3066,3256 3016,2999 3003,2996z" clip-rule="evenodd"/></clipPath></defs><polyline stroke="#535353" stroke-linejoin="round" stroke-width="8" points="2746 4164 3008 3004" clip-path="url(#cp18)"/><polyline stroke="#535353" stroke-miterlimit="8" stroke-width="8" points="2847 3207 3006 3013 3066 3256"/><defs><clipPath id="cp19"><path d="M -1,-282 H 9723 V 5130 H -1 z M 9177,3190 9336,2996 9396,3239 9346,2982 9333,2979z" clip-rule="evenodd"/></clipPath></defs><polyline stroke="#535353" stroke-linejoin="round" stroke-width="8" points="9049 4271 9338 2987" clip-path="url(#cp19)"/><polyline stroke="#535353" stroke-miterlimit="8" stroke-width="8" points="9177 3190 9336 2996 9396 3239"/><polyline stroke="#9f9f9f" stroke-linejoin="round" stroke-width="8" points="1963 568 2000 680"/><polyline stroke="#9f9f9f" stroke-linejoin="round" stroke-width="8" points="3098 3451 2873 3610"/><polyline stroke="#9f9f9f" stroke-linejoin="round" stroke-width="8" points="9204 3593 9428 3433"/><polyline stroke="#9f9f9f" stroke-linejoin="round" stroke-width="8" points="8401 600 8293 550"/><defs><clipPath id="cp20"><path d="M -1,-282 H 9723 V 5130 H -1 z M 3115,3923 2960,4120 2896,3878 2950,4134 2963,4137z" clip-rule="evenodd"/></clipPath></defs><polyline stroke="#535353" stroke-linejoin="round" stroke-width="8" points="3223 2852 2958 4129" clip-path="url(#cp20)"/><polyline stroke="#535353" stroke-miterlimit="8" stroke-width="8" points="3115 3923 2960 4120 2896 3878"/><defs><clipPath id="cp21"><path d="M -1,-282 H 9723 V 5130 H -1 z M 9446,3906 9291,4103 9226,3861 9281,4117 9294,4120z" clip-rule="evenodd"/></clipPath></defs><polyline stroke="#535353" stroke-linejoin="round" stroke-width="8" points="9553 2835 9289 4112" clip-path="url(#cp21)"/><polyline stroke="#535353" stroke-miterlimit="8" stroke-width="8" points="9446 3906 9291 4103 9226 3861"/><defs><clipPath id="cp22"><path d="M -1,-282 H 9723 V 5130 H -1 z M 9222,509 9437,637 9205,732 9452,645 9453,632z" clip-rule="evenodd"/></clipPath></defs><polyline stroke="#535353" stroke-linejoin="round" stroke-width="8" points="7166 466 9446 638" clip-path="url(#cp22)"/><polyline stroke="#535353" stroke-miterlimit="8" stroke-width="8" points="9222 509 9437 637 9205 732"/><defs><clipPath id="cp23"><path d="M -1,-282 H 9723 V 5130 H -1 z M 2891,526 3106,654 2874,749 3121,662 3122,649z" clip-rule="evenodd"/></clipPath></defs><polyline stroke="#535353" stroke-linejoin="round" stroke-width="8" points="836 483 3115 655" clip-path="url(#cp23)"/><polyline stroke="#535353" stroke-miterlimit="8" stroke-width="8" points="2891 526 3106 654 2874 749"/><defs><clipPath id="cp24"><path d="M -1,-282 H 9723 V 5130 H -1 z M 8830,4133 9040,4270 8805,4357 9055,4278 9056,4265z" clip-rule="evenodd"/></clipPath></defs><polyline stroke="#535353" stroke-linejoin="round" stroke-width="8" points="6697 4007 9049 4271" clip-path="url(#cp24)"/><polyline stroke="#535353" stroke-miterlimit="8" stroke-width="8" points="8830 4133 9040 4270 8805 4357"/><defs><clipPath id="cp25"><path d="M -1,-282 H 9723 V 5130 H -1 z M 2555,4026 2765,4163 2530,4250 2780,4171 2781,4158z" clip-rule="evenodd"/></clipPath></defs><polyline stroke="#535353" stroke-linejoin="round" stroke-width="8" points="422 3900 2774 4164" clip-path="url(#cp25)"/><polyline stroke="#535353" stroke-miterlimit="8" stroke-width="8" points="2555 4026 2765 4163 2530 4250"/><polyline stroke="#9f9f9f" stroke-linejoin="round" stroke-width="8" points="7737 4142 7859 4139"/><defs><clipPath id="cp26"><path d="M -1,-282 H 9723 V 5130 H -1 z M 6559,1552 6348,1687 6366,1437 6334,1697 6345,1704z" clip-rule="evenodd"/></clipPath></defs><polyline stroke="#535353" stroke-linejoin="round" stroke-width="8" points="6964 648 6343 1695" clip-path="url(#cp26)"/><polyline stroke="#535353" stroke-miterlimit="8" stroke-width="8" points="6559 1552 6348 1687 6366 1437"/><polyline stroke="#9f9f9f" stroke-linejoin="round" stroke-width="8" points="6887 949 6672 1139"/><defs><clipPath id="cp27"><path d="M -1,-282 H 9723 V 5130 H -1 z M 228,1570 17,1705 35,1455 3,1715 14,1722z" clip-rule="evenodd"/></clipPath></defs><polyline stroke="#535353" stroke-linejoin="round" stroke-width="8" points="634 665 12 1713" clip-path="url(#cp27)"/><polyline stroke="#535353" stroke-miterlimit="8" stroke-width="8" points="228 1570 17 1705 35 1455"/><polyline stroke="#9f9f9f" stroke-linejoin="round" stroke-width="8" points="556 967 342 1156"/><polyline stroke="#9f9f9f" stroke-linejoin="round" stroke-width="8" points="1484 4104 1624 4052"/><defs><clipPath id="cp28"><path d="M -1,-282 H 9723 V 5130 H -1 z M 6779,4147 6569,4010 6805,3924 6554,4002 6553,4015z" clip-rule="evenodd"/></clipPath></defs><polyline stroke="#000" stroke-linejoin="round" stroke-width="8" points="9109 4299 6560 4009" clip-path="url(#cp28)"/><polyline stroke="#000" stroke-miterlimit="8" stroke-width="8" points="6779 4147 6569 4010 6805 3924"/><defs><clipPath id="cp29"><path d="M -1,-282 H 9723 V 5130 H -1 z M 6952,611 7162,474 7146,724 7175,464 7164,457z" clip-rule="evenodd"/></clipPath></defs><polyline stroke="#535353" stroke-linejoin="round" stroke-width="8" points="6567 1498 7166 466" clip-path="url(#cp29)"/><polyline stroke="#535353" stroke-miterlimit="8" stroke-width="8" points="6952 611 7162 474 7146 724"/><defs><clipPath id="cp30"><path d="M -1,-282 H 9723 V 5130 H -1 z M 622,629 832,491 816,741 845,481 834,474z" clip-rule="evenodd"/></clipPath></defs><polyline stroke="#535353" stroke-linejoin="round" stroke-width="8" points="237 1516 836 483" clip-path="url(#cp30)"/><polyline stroke="#535353" stroke-miterlimit="8" stroke-width="8" points="622 629 832 491 816 741"/><defs><clipPath id="cp31"><path d="M -1,-282 H 9723 V 5130 H -1 z M 518,4110 308,3973 543,3886 293,3965 292,3978z" clip-rule="evenodd"/></clipPath></defs><polyline stroke="#000" stroke-linejoin="round" stroke-width="8" points="2696 4241 299 3972" clip-path="url(#cp31)"/><polyline stroke="#000" stroke-miterlimit="8" stroke-width="8" points="518 4110 308 3973 543 3886"/><defs><clipPath id="cp32"><path d="M -1,-282 H 9723 V 5130 H -1 z M 6566,3560 6467,3791 6342,3574 6462,3807 6475,3806z" clip-rule="evenodd"/></clipPath></defs><polyline stroke="#535353" stroke-linejoin="round" stroke-width="8" points="6343 1695 6468 3800" clip-path="url(#cp32)"/><polyline stroke="#535353" stroke-miterlimit="8" stroke-width="8" points="6566 3560 6467 3791 6342 3574"/><defs><clipPath id="cp33"><path d="M -1,-282 H 9723 V 5130 H -1 z M 235,3577 136,3808 11,3591 131,3824 144,3823z" clip-rule="evenodd"/></clipPath></defs><polyline stroke="#535353" stroke-linejoin="round" stroke-width="8" points="12 1713 137 3817" clip-path="url(#cp33)"/><polyline stroke="#535353" stroke-miterlimit="8" stroke-width="8" points="235 3577 136 3808 11 3591"/><polyline stroke="#9f9f9f" stroke-linejoin="round" stroke-width="8" points="9531 1378 9306 1146"/><polyline stroke="#9f9f9f" stroke-linejoin="round" stroke-width="8" points="6500 2994 6408 2787"/><polyline stroke="#9f9f9f" stroke-linejoin="round" stroke-width="8" points="3200 1396 2976 1164"/><defs><clipPath id="cp34"><path d="M -1,-282 H 9723 V 5130 H -1 z M 9493,1060 9656,869 9711,1113 9666,855 9653,852z" clip-rule="evenodd"/></clipPath></defs><polyline stroke="#535353" stroke-linejoin="round" stroke-width="8" points="9386 1969 9658 860" clip-path="url(#cp34)"/><polyline stroke="#535353" stroke-miterlimit="8" stroke-width="8" points="9493 1060 9656 869 9711 1113"/><defs><clipPath id="cp35"><path d="M -1,-282 H 9723 V 5130 H -1 z M 3162,1077 3325,886 3380,1130 3335,872 3322,869z" clip-rule="evenodd"/></clipPath></defs><polyline stroke="#535353" stroke-linejoin="round" stroke-width="8" points="3055 1987 3327 877" clip-path="url(#cp35)"/><polyline stroke="#535353" stroke-miterlimit="8" stroke-width="8" points="3162 1077 3325 886 3380 1130"/><polyline stroke="#9f9f9f" stroke-linejoin="round" stroke-width="8" points="244 2952 77 2805"/><defs><clipPath id="cp36"><path d="M -1,-282 H 9723 V 5130 H -1 z M 9315,1530 9146,1716 9098,1470 9136,1730 9149,1733z" clip-rule="evenodd"/></clipPath></defs><polyline stroke="#535353" stroke-linejoin="round" stroke-width="8" points="9446 638 9144 1725" clip-path="url(#cp36)"/><polyline stroke="#535353" stroke-miterlimit="8" stroke-width="8" points="9315 1530 9146 1716 9098 1470"/><defs><clipPath id="cp37"><path d="M -1,-282 H 9723 V 5130 H -1 z M 6339,2136 6439,1906 6564,2124 6444,1890 6431,1891z" clip-rule="evenodd"/></clipPath></defs><polyline stroke="#000" stroke-linejoin="round" stroke-width="8" points="6560 4009 6438 1897" clip-path="url(#cp37)"/><polyline stroke="#000" stroke-miterlimit="8" stroke-width="8" points="6339 2136 6439 1906 6564 2124"/><defs><clipPath id="cp38"><path d="M -1,-282 H 9723 V 5130 H -1 z M 2984,1547 2816,1733 2768,1487 2806,1747 2819,1750z" clip-rule="evenodd"/></clipPath></defs><polyline stroke="#535353" stroke-linejoin="round" stroke-width="8" points="3115 655 2814 1742" clip-path="url(#cp38)"/><polyline stroke="#535353" stroke-miterlimit="8" stroke-width="8" points="2984 1547 2816 1733 2768 1487"/><defs><clipPath id="cp39"><path d="M -1,-282 H 9723 V 5130 H -1 z M 83,2089 182,1859 307,2077 188,1843 175,1844z" clip-rule="evenodd"/></clipPath></defs><polyline stroke="#000" stroke-linejoin="round" stroke-width="8" points="299 3972 182 1850" clip-path="url(#cp39)"/><polyline stroke="#000" stroke-miterlimit="8" stroke-width="8" points="83 2089 182 1859 307 2077"/><defs><clipPath id="cp40"><path d="M -1,-282 H 9723 V 5130 H -1 z M 7246,851 7181,660 7373,723 7156,610 7131,635z" clip-rule="evenodd"/></clipPath></defs><polyline stroke="#000" stroke-linejoin="round" stroke-width="30" points="9301 2757 7156 635" clip-path="url(#cp40)"/><polyline stroke="#000" stroke-miterlimit="8" stroke-width="30" points="7246 851 7181 660 7373 723"/><defs><clipPath id="cp41"><path d="M -1,-282 H 9723 V 5130 H -1 z M 9364,2452 9428,2642 9237,2579 9441,2670 9456,2655z" clip-rule="evenodd"/></clipPath></defs><polyline stroke="#000" stroke-linejoin="round" stroke-width="15" points="7291 515 9441 2655" clip-path="url(#cp41)"/><polyline stroke="#000" stroke-miterlimit="8" stroke-width="15" points="9364 2452 9428 2642 9237 2579"/><defs><clipPath id="cp42"><path d="M -1,-282 H 9723 V 5130 H -1 z M 6683,1981 6616,1792 6808,1851 6589,1742 6565,1768z" clip-rule="evenodd"/></clipPath></defs><polyline stroke="#000" stroke-linejoin="round" stroke-width="30" points="7947 3319 8054 3171 6590 1767" clip-path="url(#cp42)"/><polyline stroke="#000" stroke-miterlimit="8" stroke-width="30" points="6683 1981 6616 1792 6808 1851"/><defs><clipPath id="cp43"><path d="M -1,-282 H 9723 V 5130 H -1 z M 7877,3138 7946,3327 7754,3268 7959,3354 7974,3339z" clip-rule="evenodd"/></clipPath></defs><polyline stroke="#000" stroke-linejoin="round" stroke-width="15" points="6438 1897 7959 3339" clip-path="url(#cp43)"/><polyline stroke="#000" stroke-miterlimit="8" stroke-width="15" points="7877 3138 7946 3327 7754 3268"/><polyline stroke="#9f9f9f" stroke-linejoin="round" stroke-width="8" points="7216 2648 7373 2528"/><defs><clipPath id="cp44"><path d="M -1,-282 H 9723 V 5130 H -1 z M 9263,2197 9386,1978 9488,2207 9393,1963 9380,1962z" clip-rule="evenodd"/></clipPath></defs><polyline stroke="#535353" stroke-linejoin="round" stroke-width="8" points="9289 4112 9386 1969" clip-path="url(#cp44)"/><polyline stroke="#535353" stroke-miterlimit="8" stroke-width="8" points="9263 2197 9386 1978 9488 2207"/><defs><clipPath id="cp45"><path d="M -1,-282 H 9723 V 5130 H -1 z M 2932,2215 3055,1996 3157,2225 3062,1981 3049,1980z" clip-rule="evenodd"/></clipPath></defs><polyline stroke="#535353" stroke-linejoin="round" stroke-width="8" points="2958 4129 3055 1987" clip-path="url(#cp45)"/><polyline stroke="#535353" stroke-miterlimit="8" stroke-width="8" points="2932 2215 3055 1996 3157 2225"/><polyline stroke="#9f9f9f" stroke-linejoin="round" stroke-width="8" points="9336 3082 9146 3127"/><polyline stroke="#9f9f9f" stroke-linejoin="round" stroke-width="8" points="3006 3099 2734 3204"/><defs><clipPath id="cp46"><path d="M -1,-282 H 9723 V 5130 H -1 z M 2817,4012 2696,4232 2592,4004 2689,4248 2703,4248z" clip-rule="evenodd"/></clipPath></defs><polyline stroke="#000" stroke-linejoin="round" stroke-width="8" points="2774 2084 2696 4241" clip-path="url(#cp46)"/><polyline stroke="#000" stroke-miterlimit="8" stroke-width="8" points="2817 4012 2696 4232 2592 4004"/><defs><clipPath id="cp47"><path d="M -1,-282 H 9723 V 5130 H -1 z M 9229,4082 9109,4302 9005,4074 9102,4318 9116,4318z" clip-rule="evenodd"/></clipPath></defs><polyline stroke="#000" stroke-linejoin="round" stroke-width="8" points="9191 2002 9109 4311" clip-path="url(#cp47)"/><polyline stroke="#000" stroke-miterlimit="8" stroke-width="8" points="9229 4082 9109 4302 9005 4074"/><defs><clipPath id="cp48"><path d="M -1,-282 H 9723 V 5130 H -1 z M 6790,1630 6576,1499 6809,1407 6561,1491 6560,1504z" clip-rule="evenodd"/></clipPath></defs><polyline stroke="#535353" stroke-linejoin="round" stroke-width="8" points="9144 1725 6567 1498" clip-path="url(#cp48)"/><polyline stroke="#535353" stroke-miterlimit="8" stroke-width="8" points="6790 1630 6576 1499 6809 1407"/><defs><clipPath id="cp49"><path d="M -1,-282 H 9723 V 5130 H -1 z M 460,1648 246,1517 479,1425 231,1509 230,1522z" clip-rule="evenodd"/></clipPath></defs><polyline stroke="#535353" stroke-linejoin="round" stroke-width="8" points="2814 1742 237 1516" clip-path="url(#cp49)"/><polyline stroke="#535353" stroke-miterlimit="8" stroke-width="8" points="460 1648 246 1517 479 1425"/><polyline stroke="#9f9f9f" stroke-linejoin="round" stroke-width="8" points="7874 1882 7839 1610"/><polyline stroke="#9f9f9f" stroke-linejoin="round" stroke-width="8" points="1462 1964 1509 1628"/><defs><clipPath id="cp50"><path d="M -1,-282 H 9723 V 5130 H -1 z M 2552,1951 2765,2083 2531,2175 2790,2104 2794,2068z" clip-rule="evenodd"/></clipPath></defs><polyline stroke="#000" stroke-linejoin="round" stroke-width="30" points="182 1850 2774 2084" clip-path="url(#cp50)"/><polyline stroke="#000" stroke-miterlimit="8" stroke-width="8" points="2552 1951 2765 2083 2531 2175"/><defs><clipPath id="cp51"><path d="M -1,-282 H 9723 V 5130 H -1 z M 8969,1869 9182,2001 8948,2093 9197,2009 9198,1996z" clip-rule="evenodd"/></clipPath></defs><polyline stroke="#000" stroke-linejoin="round" stroke-width="8" points="6590 1767 9191 2002" clip-path="url(#cp51)"/><polyline stroke="#000" stroke-miterlimit="8" stroke-width="8" points="8969 1869 9182 2001 8948 2093"/><defs><clipPath id="cp52"><path d="M -1,-282 H 9723 V 5130 H -1 z M 6344,404 6387,566 6283,697 6698,640 6702,620z" clip-rule="evenodd"/></clipPath></defs><path stroke="#000" stroke-width="15" d="M 3539,800 A 5627 5627 0 0 1 6690 628" clip-path="url(#cp52)"/><polygon stroke="#000" stroke-miterlimit="8" stroke-width="8" points="6283 697 6680 626 6344 404 6387 566 6283 697"/><defs><clipPath id="cp53"><path d="M -1,-282 H 9723 V 5130 H -1 z M 3534,4291 3530,4124 3662,4021 3245,3978 3236,3997z" clip-rule="evenodd"/></clipPath></defs><path stroke="#000" stroke-width="15" d="M 6373,3885 A 3129 3129 0 0 1 3250 3992" clip-path="url(#cp53)"/><polygon stroke="#000" stroke-miterlimit="8" stroke-width="8" points="3662 4021 3259 3996 3534 4291 3530 4124 3662 4021"/><text x="3981" y="4690" fill="#000" font-family="Times" font-size="216" font-style="normal" font-weight="normal" text-anchor="start" xml:space="preserve">cm.remove_cell&lt;1&gt;(d4)</text><text x="4175" y="5034" fill="#000" font-family="Times" font-size="216" font-style="normal" font-weight="normal" text-anchor="start" xml:space="preserve">cm.remove_cell&lt;1&gt;(d5)</text><text x="2597" y="301" fill="#000" font-family="Times" font-size="216" font-style="normal" font-weight="normal" text-anchor="start" xml:space="preserve">d5=cm.insert_cell_1_in_cell_2(d2,d3)</text><text x="2262" y="-51" fill="#000" font-family="Times" font-size="216" font-style="normal" font-weight="normal" text-anchor="start" xml:space="preserve">d4=cm.insert_dangling_cell_1_in_cell_2(d1)</text><text x="7380" y="2475" fill="#000" font-family="Times" font-size="240" font-style="normal" font-weight="normal" text-anchor="start" xml:space="preserve">d4</text><text x="948" y="1276" fill="#000" font-family="Times" font-size="240" font-style="normal" font-weight="normal" text-anchor="start" xml:space="preserve">d2</text><text x="1635" y="2295" fill="#000" font-family="Times" font-size="240" font-style="normal" font-weight="normal" text-anchor="start" xml:space="preserve">d1</text><text x="2655" y="1260" fill="#000" font-family="Times" font-size="240" font-style="normal" font-weight="normal" text-anchor="start" xml:space="preserve">d3</text><text x="7335" y="1395" fill="#000" font-family="Times" font-size="240" font-style="normal" font-weight="normal" text-anchor="start" xml:space="preserve">d5</text></g></svg>