<svg xmlns="http://www.w3.org/2000/svg" xmlns:xlink="http://www.w3.org/1999/xlink" width="944" height="278pt" viewBox="-265 -39 11237 4405"><g fill="none"><defs><clipPath id="cp0"><path d="M -265,-39 H 10972 V 4366 H -265 z M 2690,2411 2807,2507 2660,2544 2821,2517 2824,2504z" clip-rule="evenodd"/></clipPath></defs><polyline stroke="#5e5e5e" stroke-linejoin="round" stroke-width="8" points="1096 2123 2816 2509" clip-path="url(#cp0)"/><polyline stroke="#5e5e5e" stroke-miterlimit="8" stroke-width="8" points="2690 2411 2807 2507 2660 2544"/><defs><clipPath id="cp1"><path d="M -265,-39 H 10972 V 4366 H -265 z M 8636,2568 8753,2664 8606,2700 8767,2674 8770,2661z" clip-rule="evenodd"/></clipPath></defs><polyline stroke="#5e5e5e" stroke-linejoin="round" stroke-width="8" points="7043 2279 8762 2666" clip-path="url(#cp1)"/><polyline stroke="#5e5e5e" stroke-miterlimit="8" stroke-width="8" points="8636 2568 8753 2664 8606 2700"/><defs><clipPath id="cp2"><path d="M -265,-39 H 10972 V 4366 H -265 z M 1162,1978 1096,2114 1026,1979 1089,2130 1103,2130z" clip-rule="evenodd"/></clipPath></defs><polyline stroke="#5e5e5e" stroke-linejoin="round" stroke-width="8" points="1072 385 1096 2123" clip-path="url(#cp2)"/><polyline stroke="#5e5e5e" stroke-miterlimit="8" stroke-width="8" points="1162 1978 1096 2114 1026 1979"/><defs><clipPath id="cp3"><path d="M -265,-39 H 10972 V 4366 H -265 z M 7109,2133 7043,2270 6973,2135 7036,2286 7050,2286z" clip-rule="evenodd"/></clipPath></defs><polyline stroke="#5e5e5e" stroke-linejoin="round" stroke-width="8" points="7018 542 7043 2279" clip-path="url(#cp3)"/><polyline stroke="#5e5e5e" stroke-miterlimit="8" stroke-width="8" points="7109 2133 7043 2270 6973 2135"/><defs><clipPath id="cp4"><path d="M -265,-39 H 10972 V 4366 H -265 z M 1149,2432 1033,2335 1180,2300 1019,2325 1016,2338z" clip-rule="evenodd"/></clipPath></defs><polyline stroke="#5e5e5e" stroke-linejoin="round" stroke-width="8" points="2748 2735 1024 2333" clip-path="url(#cp4)"/><polyline stroke="#5e5e5e" stroke-miterlimit="8" stroke-width="8" points="1149 2432 1033 2335 1180 2300"/><defs><clipPath id="cp5"><path d="M -265,-39 H 10972 V 4366 H -265 z M 7095,2589 6979,2492 7126,2457 6965,2482 6962,2495z" clip-rule="evenodd"/></clipPath></defs><polyline stroke="#5e5e5e" stroke-linejoin="round" stroke-width="8" points="8694 2892 6970 2490" clip-path="url(#cp5)"/><polyline stroke="#5e5e5e" stroke-miterlimit="8" stroke-width="8" points="7095 2589 6979 2492 7126 2457"/><defs><clipPath id="cp6"><path d="M -265,-39 H 10972 V 4366 H -265 z M 773,557 837,420 908,554 844,404 830,404z" clip-rule="evenodd"/></clipPath></defs><polyline stroke="#5e5e5e" stroke-linejoin="round" stroke-width="8" points="879 2156 837 411" clip-path="url(#cp6)"/><polyline stroke="#5e5e5e" stroke-miterlimit="8" stroke-width="8" points="773 557 837 420 908 554"/><defs><clipPath id="cp7"><path d="M -265,-39 H 10972 V 4366 H -265 z M 6719,714 6783,577 6854,711 6790,561 6776,561z" clip-rule="evenodd"/></clipPath></defs><polyline stroke="#5e5e5e" stroke-linejoin="round" stroke-width="8" points="6826 2313 6783 568" clip-path="url(#cp7)"/><polyline stroke="#5e5e5e" stroke-miterlimit="8" stroke-width="8" points="6719 714 6783 577 6854 711"/><defs><clipPath id="cp8"><path d="M -265,-39 H 10972 V 4366 H -265 z M 200,3172 54,3213 109,3072 37,3219 47,3229z" clip-rule="evenodd"/></clipPath></defs><polyline stroke="#5e5e5e" stroke-linejoin="round" stroke-width="8" points="1024 2333 47 3219" clip-path="url(#cp8)"/><polyline stroke="#5e5e5e" stroke-miterlimit="8" stroke-width="8" points="200 3172 54 3213 109 3072"/><defs><clipPath id="cp9"><path d="M -265,-39 H 10972 V 4366 H -265 z M 6146,3328 6000,3369 6055,3228 5983,3375 5993,3385z" clip-rule="evenodd"/></clipPath></defs><polyline stroke="#5e5e5e" stroke-linejoin="round" stroke-width="8" points="6970 2490 5993 3375" clip-path="url(#cp9)"/><polyline stroke="#5e5e5e" stroke-miterlimit="8" stroke-width="8" points="6146 3328 6000 3369 6055 3228"/><defs><clipPath id="cp10"><path d="M -265,-39 H 10972 V 4366 H -265 z M 725,2199 872,2162 814,2302 889,2157 880,2146z" clip-rule="evenodd"/></clipPath></defs><polyline stroke="#5e5e5e" stroke-linejoin="round" stroke-width="8" points="-121 3018 879 2156" clip-path="url(#cp10)"/><polyline stroke="#5e5e5e" stroke-miterlimit="8" stroke-width="8" points="725 2199 872 2162 814 2302"/><defs><clipPath id="cp11"><path d="M -265,-39 H 10972 V 4366 H -265 z M 6672,2356 6819,2319 6761,2459 6836,2314 6827,2303z" clip-rule="evenodd"/></clipPath></defs><polyline stroke="#5e5e5e" stroke-linejoin="round" stroke-width="8" points="5827 3175 6826 2313" clip-path="url(#cp11)"/><polyline stroke="#5e5e5e" stroke-miterlimit="8" stroke-width="8" points="6672 2356 6819 2319 6761 2459"/><defs><clipPath id="cp12"><path d="M -265,-39 H 10972 V 4366 H -265 z M 2846,819 2921,688 2981,827 2929,673 2916,672z" clip-rule="evenodd"/></clipPath></defs><polyline stroke="#5e5e5e" stroke-linejoin="round" stroke-width="8" points="2816 2509 2922 679" clip-path="url(#cp12)"/><polyline stroke="#5e5e5e" stroke-miterlimit="8" stroke-width="8" points="2846 819 2921 688 2981 827"/><defs><clipPath id="cp13"><path d="M -265,-39 H 10972 V 4366 H -265 z M 8793,975 8868,844 8928,983 8876,829 8863,828z" clip-rule="evenodd"/></clipPath></defs><polyline stroke="#5e5e5e" stroke-linejoin="round" stroke-width="8" points="8762 2666 8869 835" clip-path="url(#cp13)"/><polyline stroke="#5e5e5e" stroke-miterlimit="8" stroke-width="8" points="8793 975 8868 844 8928 983"/><defs><clipPath id="cp14"><path d="M -265,-39 H 10972 V 4366 H -265 z M 1204,475 1081,386 1225,341 1066,377 1064,391z" clip-rule="evenodd"/></clipPath></defs><polyline stroke="#5e5e5e" stroke-linejoin="round" stroke-width="8" points="2922 679 1072 385" clip-path="url(#cp14)"/><polyline stroke="#5e5e5e" stroke-miterlimit="8" stroke-width="8" points="1204 475 1081 386 1225 341"/><defs><clipPath id="cp15"><path d="M -265,-39 H 10972 V 4366 H -265 z M 7150,632 7027,543 7171,498 7012,534 7010,548z" clip-rule="evenodd"/></clipPath></defs><polyline stroke="#5e5e5e" stroke-linejoin="round" stroke-width="8" points="8869 835 7018 542" clip-path="url(#cp15)"/><polyline stroke="#5e5e5e" stroke-miterlimit="8" stroke-width="8" points="7150 632 7027 543 7171 498"/><defs><clipPath id="cp16"><path d="M -265,-39 H 10972 V 4366 H -265 z M 2997,2482 2921,2613 2861,2473 2913,2628 2926,2629z" clip-rule="evenodd"/></clipPath></defs><polyline stroke="#5e5e5e" stroke-linejoin="round" stroke-width="8" points="3037 766 2920 2622" clip-path="url(#cp16)"/><polyline stroke="#5e5e5e" stroke-miterlimit="8" stroke-width="8" points="2997 2482 2921 2613 2861 2473"/><defs><clipPath id="cp17"><path d="M -265,-39 H 10972 V 4366 H -265 z M 8943,2639 8867,2770 8807,2630 8859,2785 8872,2786z" clip-rule="evenodd"/></clipPath></defs><polyline stroke="#5e5e5e" stroke-linejoin="round" stroke-width="8" points="8984 923 8866 2779" clip-path="url(#cp17)"/><polyline stroke="#5e5e5e" stroke-miterlimit="8" stroke-width="8" points="8943 2639 8867 2770 8807 2630"/><defs><clipPath id="cp18"><path d="M -265,-39 H 10972 V 4366 H -265 z M 2738,471 2861,559 2717,605 2876,568 2878,554z" clip-rule="evenodd"/></clipPath></defs><polyline stroke="#5e5e5e" stroke-linejoin="round" stroke-width="8" points="987 268 2870 560" clip-path="url(#cp18)"/><polyline stroke="#5e5e5e" stroke-miterlimit="8" stroke-width="8" points="2738 471 2861 559 2717 605"/><defs><clipPath id="cp19"><path d="M -265,-39 H 10972 V 4366 H -265 z M 8685,628 8808,716 8664,762 8823,725 8825,711z" clip-rule="evenodd"/></clipPath></defs><polyline stroke="#5e5e5e" stroke-linejoin="round" stroke-width="8" points="6934 424 8817 717" clip-path="url(#cp19)"/><polyline stroke="#5e5e5e" stroke-miterlimit="8" stroke-width="8" points="8685 628 8808 716 8664 762"/><defs><clipPath id="cp20"><path d="M -265,-39 H 10972 V 4366 H -265 z M 3407,2525 3329,2655 3272,2514 3321,2670 3334,2671z" clip-rule="evenodd"/></clipPath></defs><polyline stroke="#5e5e5e" stroke-linejoin="round" stroke-width="8" points="3478 803 3328 2664" clip-path="url(#cp20)"/><polyline stroke="#5e5e5e" stroke-miterlimit="8" stroke-width="8" points="3407 2525 3329 2655 3272 2514"/><defs><clipPath id="cp21"><path d="M -265,-39 H 10972 V 4366 H -265 z M 9354,2682 9276,2812 9219,2671 9268,2827 9281,2828z" clip-rule="evenodd"/></clipPath></defs><polyline stroke="#5e5e5e" stroke-linejoin="round" stroke-width="8" points="9424 959 9275 2821" clip-path="url(#cp21)"/><polyline stroke="#5e5e5e" stroke-miterlimit="8" stroke-width="8" points="9354 2682 9276 2812 9219 2671"/><defs><clipPath id="cp22"><path d="M -265,-39 H 10972 V 4366 H -265 z M 3190,950 3267,820 3325,960 3275,805 3262,804z" clip-rule="evenodd"/></clipPath></defs><polyline stroke="#5e5e5e" stroke-linejoin="round" stroke-width="8" points="3128 2682 3268 811" clip-path="url(#cp22)"/><polyline stroke="#5e5e5e" stroke-miterlimit="8" stroke-width="8" points="3190 950 3267 820 3325 960"/><defs><clipPath id="cp23"><path d="M -265,-39 H 10972 V 4366 H -265 z M 9136,1107 9213,977 9271,1117 9221,962 9208,961z" clip-rule="evenodd"/></clipPath></defs><polyline stroke="#5e5e5e" stroke-linejoin="round" stroke-width="8" points="9075 2839 9214 968" clip-path="url(#cp23)"/><polyline stroke="#5e5e5e" stroke-miterlimit="8" stroke-width="8" points="9136 1107 9213 977 9271 1117"/><defs><clipPath id="cp24"><path d="M -265,-39 H 10972 V 4366 H -265 z M 2606,2808 2743,2742 2713,2891 2757,2734 2747,2726z" clip-rule="evenodd"/></clipPath></defs><polyline stroke="#5e5e5e" stroke-linejoin="round" stroke-width="8" points="1963 3751 2748 2735" clip-path="url(#cp24)"/><polyline stroke="#5e5e5e" stroke-miterlimit="8" stroke-width="8" points="2606 2808 2743 2742 2713 2891"/><defs><clipPath id="cp25"><path d="M -265,-39 H 10972 V 4366 H -265 z M 8552,2965 8689,2899 8659,3048 8703,2891 8693,2883z" clip-rule="evenodd"/></clipPath></defs><polyline stroke="#5e5e5e" stroke-linejoin="round" stroke-width="8" points="7909 3908 8694 2892" clip-path="url(#cp25)"/><polyline stroke="#5e5e5e" stroke-miterlimit="8" stroke-width="8" points="8552 2965 8689 2899 8659 3048"/><defs><clipPath id="cp26"><path d="M -265,-39 H 10972 V 4366 H -265 z M -94,1053 -245,1065 -164,937 -262,1068 -255,1079z" clip-rule="evenodd"/></clipPath></defs><polyline stroke="#5e5e5e" stroke-linejoin="round" stroke-width="8" points="837 411 -253 1070" clip-path="url(#cp26)"/><polyline stroke="#5e5e5e" stroke-miterlimit="8" stroke-width="8" points="-94 1053 -245 1065 -164 937"/><defs><clipPath id="cp27"><path d="M -265,-39 H 10972 V 4366 H -265 z M 5852,1210 5701,1222 5782,1094 5684,1225 5691,1236z" clip-rule="evenodd"/></clipPath></defs><polyline stroke="#5e5e5e" stroke-linejoin="round" stroke-width="8" points="6783 568 5693 1227" clip-path="url(#cp27)"/><polyline stroke="#5e5e5e" stroke-miterlimit="8" stroke-width="8" points="5852 1210 5701 1222 5782 1094"/><defs><clipPath id="cp28"><path d="M -265,-39 H 10972 V 4366 H -265 z M 2292,3561 2156,3628 2184,3479 2142,3636 2152,3644z" clip-rule="evenodd"/></clipPath></defs><polyline stroke="#5e5e5e" stroke-linejoin="round" stroke-width="8" points="2920 2622 2151 3635" clip-path="url(#cp28)"/><polyline stroke="#5e5e5e" stroke-miterlimit="8" stroke-width="8" points="2292 3561 2156 3628 2184 3479"/><defs><clipPath id="cp29"><path d="M -265,-39 H 10972 V 4366 H -265 z M 8239,3718 8103,3785 8131,3636 8089,3793 8099,3801z" clip-rule="evenodd"/></clipPath></defs><polyline stroke="#5e5e5e" stroke-linejoin="round" stroke-width="8" points="8866 2779 8098 3792" clip-path="url(#cp29)"/><polyline stroke="#5e5e5e" stroke-miterlimit="8" stroke-width="8" points="8239 3718 8103 3785 8131 3636"/><defs><clipPath id="cp30"><path d="M -265,-39 H 10972 V 4366 H -265 z M 828,284 979,273 898,400 996,270 989,259z" clip-rule="evenodd"/></clipPath></defs><polyline stroke="#5e5e5e" stroke-linejoin="round" stroke-width="8" points="-95 916 987 268" clip-path="url(#cp30)"/><polyline stroke="#5e5e5e" stroke-miterlimit="8" stroke-width="8" points="828 284 979 273 898 400"/><defs><clipPath id="cp31"><path d="M -265,-39 H 10972 V 4366 H -265 z M 2766,3842 2633,3916 2654,3765 2619,3925 2630,3932z" clip-rule="evenodd"/></clipPath></defs><polyline stroke="#5e5e5e" stroke-linejoin="round" stroke-width="8" points="3348 2872 2628 3923" clip-path="url(#cp31)"/><polyline stroke="#5e5e5e" stroke-miterlimit="8" stroke-width="8" points="2766 3842 2633 3916 2654 3765"/><defs><clipPath id="cp32"><path d="M -265,-39 H 10972 V 4366 H -265 z M 6775,440 6926,429 6845,556 6943,426 6936,415z" clip-rule="evenodd"/></clipPath></defs><polyline stroke="#5e5e5e" stroke-linejoin="round" stroke-width="8" points="5851 1073 6934 424" clip-path="url(#cp32)"/><polyline stroke="#5e5e5e" stroke-miterlimit="8" stroke-width="8" points="6775 440 6926 429 6845 556"/><defs><clipPath id="cp33"><path d="M -265,-39 H 10972 V 4366 H -265 z M 8712,3999 8579,4073 8600,3922 8565,4082 8576,4089z" clip-rule="evenodd"/></clipPath></defs><polyline stroke="#5e5e5e" stroke-linejoin="round" stroke-width="8" points="9295 3029 8574 4080" clip-path="url(#cp33)"/><polyline stroke="#5e5e5e" stroke-miterlimit="8" stroke-width="8" points="8712 3999 8579 4073 8600 3922"/><defs><clipPath id="cp34"><path d="M -265,-39 H 10972 V 4366 H -265 z M 2989,2760 3123,2689 3099,2839 3137,2680 3126,2673z" clip-rule="evenodd"/></clipPath></defs><polyline stroke="#5e5e5e" stroke-linejoin="round" stroke-width="8" points="2393 3715 3128 2682" clip-path="url(#cp34)"/><polyline stroke="#5e5e5e" stroke-miterlimit="8" stroke-width="8" points="2989 2760 3123 2689 3099 2839"/><defs><clipPath id="cp35"><path d="M -265,-39 H 10972 V 4366 H -265 z M 8936,2917 9070,2846 9046,2996 9084,2837 9073,2830z" clip-rule="evenodd"/></clipPath></defs><polyline stroke="#5e5e5e" stroke-linejoin="round" stroke-width="8" points="8339 3872 9075 2839" clip-path="url(#cp35)"/><polyline stroke="#5e5e5e" stroke-miterlimit="8" stroke-width="8" points="8936 2917 9070 2846 9046 2996"/><defs><clipPath id="cp36"><path d="M -265,-39 H 10972 V 4366 H -265 z M 1842,3647 1954,3749 1806,3778 1968,3759 1971,3746z" clip-rule="evenodd"/></clipPath></defs><polyline stroke="#5e5e5e" stroke-linejoin="round" stroke-width="8" points="47 3219 1963 3751" clip-path="url(#cp36)"/><polyline stroke="#5e5e5e" stroke-miterlimit="8" stroke-width="8" points="1842 3647 1954 3749 1806 3778"/><defs><clipPath id="cp37"><path d="M -265,-39 H 10972 V 4366 H -265 z M 7788,3804 7900,3906 7752,3935 7914,3916 7917,3903z" clip-rule="evenodd"/></clipPath></defs><polyline stroke="#5e5e5e" stroke-linejoin="round" stroke-width="8" points="5993 3375 7909 3908" clip-path="url(#cp37)"/><polyline stroke="#5e5e5e" stroke-miterlimit="8" stroke-width="8" points="7788 3804 7900 3906 7752 3935"/><defs><clipPath id="cp38"><path d="M -265,-39 H 10972 V 4366 H -265 z M 4825,2536 4963,2598 4830,2672 4979,2604 4978,2591z" clip-rule="evenodd"/></clipPath></defs><polyline stroke="#5e5e5e" stroke-linejoin="round" stroke-width="8" points="3328 2664 4972 2598" clip-path="url(#cp38)"/><polyline stroke="#5e5e5e" stroke-miterlimit="8" stroke-width="8" points="4825 2536 4963 2598 4830 2672"/><defs><clipPath id="cp39"><path d="M -265,-39 H 10972 V 4366 H -265 z M 10773,2692 10911,2754 10778,2828 10927,2760 10926,2747z" clip-rule="evenodd"/></clipPath></defs><polyline stroke="#5e5e5e" stroke-linejoin="round" stroke-width="8" points="9275 2821 10920 2754" clip-path="url(#cp39)"/><polyline stroke="#5e5e5e" stroke-miterlimit="8" stroke-width="8" points="10773 2692 10911 2754 10778 2828"/><defs><clipPath id="cp40"><path d="M -265,-39 H 10972 V 4366 H -265 z M 3494,2937 3357,2872 3491,2801 3341,2865 3341,2879z" clip-rule="evenodd"/></clipPath></defs><polyline stroke="#5e5e5e" stroke-linejoin="round" stroke-width="8" points="4993 2835 3348 2872" clip-path="url(#cp40)"/><polyline stroke="#5e5e5e" stroke-miterlimit="8" stroke-width="8" points="3494 2937 3357 2872 3491 2801"/><defs><clipPath id="cp41"><path d="M -265,-39 H 10972 V 4366 H -265 z M 9441,3094 9304,3029 9438,2958 9288,3022 9288,3036z" clip-rule="evenodd"/></clipPath></defs><polyline stroke="#5e5e5e" stroke-linejoin="round" stroke-width="8" points="10939 2992 9295 3029" clip-path="url(#cp41)"/><polyline stroke="#5e5e5e" stroke-miterlimit="8" stroke-width="8" points="9441 3094 9304 3029 9438 2958"/><defs><clipPath id="cp42"><path d="M -265,-39 H 10972 V 4366 H -265 z M -63,2869 -122,3009 -198,2878 -127,3025 -114,3024z" clip-rule="evenodd"/></clipPath></defs><polyline stroke="#5e5e5e" stroke-linejoin="round" stroke-width="8" points="-253 1070 -121 3018" clip-path="url(#cp42)"/><polyline stroke="#5e5e5e" stroke-miterlimit="8" stroke-width="8" points="-63 2869 -122 3009 -198 2878"/><defs><clipPath id="cp43"><path d="M -265,-39 H 10972 V 4366 H -265 z M 5885,3026 5826,3166 5749,3035 5821,3182 5834,3181z" clip-rule="evenodd"/></clipPath></defs><polyline stroke="#5e5e5e" stroke-linejoin="round" stroke-width="8" points="5693 1227 5827 3175" clip-path="url(#cp43)"/><polyline stroke="#5e5e5e" stroke-miterlimit="8" stroke-width="8" points="5885 3026 5826 3166 5749 3035"/><defs><clipPath id="cp44"><path d="M -265,-39 H 10972 V 4366 H -265 z M 56,3254 -56,3152 92,3123 -70,3142 -73,3155z" clip-rule="evenodd"/></clipPath></defs><polyline stroke="#5e5e5e" stroke-linejoin="round" stroke-width="8" points="1885 3688 -65 3150" clip-path="url(#cp44)"/><polyline stroke="#5e5e5e" stroke-miterlimit="8" stroke-width="8" points="56 3254 -56 3152 92 3123"/><defs><clipPath id="cp45"><path d="M -265,-39 H 10972 V 4366 H -265 z M 6002,3410 5890,3308 6038,3279 5876,3298 5873,3311z" clip-rule="evenodd"/></clipPath></defs><polyline stroke="#5e5e5e" stroke-linejoin="round" stroke-width="8" points="7833 3845 5881 3306" clip-path="url(#cp45)"/><polyline stroke="#5e5e5e" stroke-miterlimit="8" stroke-width="8" points="6002 3410 5890 3308 6038 3279"/><defs><clipPath id="cp46"><path d="M -265,-39 H 10972 V 4366 H -265 z M -253,1323 -194,1183 -118,1314 -189,1167 -202,1168z" clip-rule="evenodd"/></clipPath></defs><polyline stroke="#5e5e5e" stroke-linejoin="round" stroke-width="8" points="-65 3150 -195 1174" clip-path="url(#cp46)"/><polyline stroke="#5e5e5e" stroke-miterlimit="8" stroke-width="8" points="-253 1323 -194 1183 -118 1314"/><defs><clipPath id="cp47"><path d="M -265,-39 H 10972 V 4366 H -265 z M 5694,1479 5753,1339 5829,1470 5758,1323 5745,1324z" clip-rule="evenodd"/></clipPath></defs><polyline stroke="#5e5e5e" stroke-linejoin="round" stroke-width="8" points="5881 3306 5752 1330" clip-path="url(#cp47)"/><polyline stroke="#5e5e5e" stroke-miterlimit="8" stroke-width="8" points="5694 1479 5753 1339 5829 1470"/><defs><clipPath id="cp48"><path d="M -265,-39 H 10972 V 4366 H -265 z M 3518,958 3484,810 3623,871 3479,793 3468,802z" clip-rule="evenodd"/></clipPath></defs><polyline stroke="#5e5e5e" stroke-linejoin="round" stroke-width="8" points="4972 2598 3478 803" clip-path="url(#cp48)"/><polyline stroke="#5e5e5e" stroke-miterlimit="8" stroke-width="8" points="3518 958 3484 810 3623 871"/><defs><clipPath id="cp49"><path d="M -265,-39 H 10972 V 4366 H -265 z M 9464,1113 9430,966 9569,1027 9425,949 9414,958z" clip-rule="evenodd"/></clipPath></defs><polyline stroke="#5e5e5e" stroke-linejoin="round" stroke-width="8" points="10920 2754 9424 959" clip-path="url(#cp49)"/><polyline stroke="#5e5e5e" stroke-miterlimit="8" stroke-width="8" points="9464 1113 9430 966 9569 1027"/><defs><clipPath id="cp50"><path d="M -265,-39 H 10972 V 4366 H -265 z M 4972,2367 5007,2514 4868,2453 5012,2531 5023,2522z" clip-rule="evenodd"/></clipPath></defs><polyline stroke="#5e5e5e" stroke-linejoin="round" stroke-width="8" points="3498 706 5013 2521" clip-path="url(#cp50)"/><polyline stroke="#5e5e5e" stroke-miterlimit="8" stroke-width="8" points="4972 2367 5007 2514 4868 2453"/><defs><clipPath id="cp51"><path d="M -265,-39 H 10972 V 4366 H -265 z M 10919,2524 10954,2671 10815,2610 10959,2688 10970,2679z" clip-rule="evenodd"/></clipPath></defs><polyline stroke="#5e5e5e" stroke-linejoin="round" stroke-width="8" points="9445 863 10960 2678" clip-path="url(#cp51)"/><polyline stroke="#5e5e5e" stroke-miterlimit="8" stroke-width="8" points="10919 2524 10954 2671 10815 2610"/><defs><clipPath id="cp52"><path d="M -265,-39 H 10972 V 4366 H -265 z M 2886,817 3031,772 2980,915 3052,766 3037,751z" clip-rule="evenodd"/></clipPath></defs><polyline stroke="#000" stroke-linejoin="round" stroke-width="15" points="2217 1553 3037 766" clip-path="url(#cp52)"/><polyline stroke="#000" stroke-miterlimit="8" stroke-width="8" points="2886 817 3031 772 2980 915"/><defs><clipPath id="cp53"><path d="M -265,-39 H 10972 V 4366 H -265 z M 8470,1323 8615,1278 8564,1421 8636,1272 8621,1257z" clip-rule="evenodd"/></clipPath></defs><polyline stroke="#000" stroke-linejoin="round" stroke-width="15" points="8164 1710 8621 1272" clip-path="url(#cp53)"/><polyline stroke="#000" stroke-miterlimit="8" stroke-width="8" points="8470 1323 8615 1278 8564 1421"/><defs><clipPath id="cp54"><path d="M -265,-39 H 10972 V 4366 H -265 z M 8827,980 8972,935 8921,1078 8993,929 8978,914z" clip-rule="evenodd"/></clipPath></defs><polyline stroke="#000" stroke-linejoin="round" stroke-width="15" points="8618 1275 8978 929" clip-path="url(#cp54)"/><polyline stroke="#000" stroke-miterlimit="8" stroke-width="8" points="8827 980 8972 935 8921 1078"/><defs><clipPath id="cp55"><path d="M -265,-39 H 10972 V 4366 H -265 z M 2173,1268 2027,1307 2083,1166 1984,1311 2018,1349z" clip-rule="evenodd"/></clipPath></defs><polyline stroke="#000" stroke-linejoin="round" stroke-width="45" points="2870 560 2020 1313" clip-path="url(#cp55)"/><polyline stroke="#000" stroke-miterlimit="8" stroke-width="8" points="2173 1268 2027 1307 2083 1166"/><defs><clipPath id="cp56"><path d="M -265,-39 H 10972 V 4366 H -265 z M 8120,1425 7974,1464 8031,1324 7931,1468 7965,1506z" clip-rule="evenodd"/></clipPath></defs><polyline stroke="#000" stroke-linejoin="round" stroke-width="45" points="8443 1051 7967 1470" clip-path="url(#cp56)"/><polyline stroke="#000" stroke-miterlimit="8" stroke-width="8" points="8120 1425 7974 1464 8031 1324"/><defs><clipPath id="cp57"><path d="M -265,-39 H 10972 V 4366 H -265 z M 8596,1006 8450,1045 8507,904 8428,1050 8442,1066z" clip-rule="evenodd"/></clipPath></defs><polyline stroke="#000" stroke-linejoin="round" stroke-width="15" points="8817 721 8443 1051" clip-path="url(#cp57)"/><polyline stroke="#000" stroke-miterlimit="8" stroke-width="8" points="8596 1006 8450 1045 8507 904"/><defs><clipPath id="cp58"><path d="M -265,-39 H 10972 V 4366 H -265 z M 2636,1559 2493,1610 2539,1465 2472,1616 2487,1631z" clip-rule="evenodd"/></clipPath></defs><polyline stroke="#000" stroke-linejoin="round" stroke-width="15" points="3268 811 2487 1616" clip-path="url(#cp58)"/><polyline stroke="#000" stroke-miterlimit="8" stroke-width="8" points="2636 1559 2493 1610 2539 1465"/><defs><clipPath id="cp59"><path d="M -265,-39 H 10972 V 4366 H -265 z M 8583,1717 8440,1767 8486,1622 8419,1773 8434,1788z" clip-rule="evenodd"/></clipPath></defs><polyline stroke="#000" stroke-linejoin="round" stroke-width="15" points="8848 1348 8434 1773" clip-path="url(#cp59)"/><polyline stroke="#000" stroke-miterlimit="8" stroke-width="8" points="8583 1717 8440 1767 8486 1622"/><defs><clipPath id="cp60"><path d="M -265,-39 H 10972 V 4366 H -265 z M 8995,1294 8852,1345 8897,1200 8831,1351 8846,1366z" clip-rule="evenodd"/></clipPath></defs><polyline stroke="#000" stroke-linejoin="round" stroke-width="15" points="9199 983 8846 1351" clip-path="url(#cp60)"/><polyline stroke="#000" stroke-miterlimit="8" stroke-width="8" points="8995 1294 8852 1345 8897 1200"/><defs><clipPath id="cp61"><path d="M -265,-39 H 10972 V 4366 H -265 z M 4833,2834 4985,2839 4890,2957 5002,2838 4996,2826z" clip-rule="evenodd"/></clipPath></defs><polyline stroke="#5e5e5e" stroke-linejoin="round" stroke-width="8" points="2628 3923 4993 2835" clip-path="url(#cp61)"/><polyline stroke="#5e5e5e" stroke-miterlimit="8" stroke-width="8" points="4833 2834 4985 2839 4890 2957"/><defs><clipPath id="cp62"><path d="M -265,-39 H 10972 V 4366 H -265 z M 10779,2991 10931,2996 10836,3114 10948,2995 10942,2983z" clip-rule="evenodd"/></clipPath></defs><polyline stroke="#5e5e5e" stroke-linejoin="round" stroke-width="8" points="8574 4080 10939 2992" clip-path="url(#cp62)"/><polyline stroke="#5e5e5e" stroke-miterlimit="8" stroke-width="8" points="10779 2991 10931 2996 10836 3114"/><defs><clipPath id="cp63"><path d="M -265,-39 H 10972 V 4366 H -265 z M 3349,763 3492,712 3446,857 3513,706 3498,691z" clip-rule="evenodd"/></clipPath></defs><polyline stroke="#000" stroke-linejoin="round" stroke-width="15" points="2730 1500 3498 706" clip-path="url(#cp63)"/><polyline stroke="#000" stroke-miterlimit="8" stroke-width="8" points="3349 763 3492 712 3446 857"/><defs><clipPath id="cp64"><path d="M -265,-39 H 10972 V 4366 H -265 z M 9296,920 9439,869 9393,1014 9460,863 9445,848z" clip-rule="evenodd"/></clipPath></defs><polyline stroke="#000" stroke-linejoin="round" stroke-width="15" points="9046 1276 9445 863" clip-path="url(#cp64)"/><polyline stroke="#000" stroke-miterlimit="8" stroke-width="8" points="9296 920 9439 869 9393 1014"/><defs><clipPath id="cp65"><path d="M -265,-39 H 10972 V 4366 H -265 z M 8895,1331 9039,1281 8993,1426 9060,1275 9045,1260z" clip-rule="evenodd"/></clipPath></defs><polyline stroke="#000" stroke-linejoin="round" stroke-width="15" points="8683 1646 9045 1275" clip-path="url(#cp65)"/><polyline stroke="#000" stroke-miterlimit="8" stroke-width="8" points="8895 1331 9039 1281 8993 1426"/><defs><clipPath id="cp66"><path d="M -265,-39 H 10972 V 4366 H -265 z M 2692,3846 2540,3841 2635,3723 2523,3842 2529,3854z" clip-rule="evenodd"/></clipPath></defs><polyline stroke="#5e5e5e" stroke-linejoin="round" stroke-width="8" points="4930 2738 2532 3845" clip-path="url(#cp66)"/><polyline stroke="#5e5e5e" stroke-miterlimit="8" stroke-width="8" points="2692 3846 2540 3841 2635 3723"/><defs><clipPath id="cp67"><path d="M -265,-39 H 10972 V 4366 H -265 z M 8639,4003 8487,3998 8582,3880 8470,3999 8476,4011z" clip-rule="evenodd"/></clipPath></defs><polyline stroke="#5e5e5e" stroke-linejoin="round" stroke-width="8" points="10878 2895 8479 4002" clip-path="url(#cp67)"/><polyline stroke="#5e5e5e" stroke-miterlimit="8" stroke-width="8" points="8639 4003 8487 3998 8582 3880"/><defs><clipPath id="cp68"><path d="M -265,-39 H 10972 V 4366 H -265 z M 2145,1695 2217,1562 2280,1700 2224,1546 2210,1546z" clip-rule="evenodd"/></clipPath></defs><polyline stroke="#5e5e5e" stroke-linejoin="round" stroke-width="8" points="2151 3635 2217 1553" clip-path="url(#cp68)"/><polyline stroke="#5e5e5e" stroke-miterlimit="8" stroke-width="8" points="2145 1695 2217 1562 2280 1700"/><defs><clipPath id="cp69"><path d="M -265,-39 H 10972 V 4366 H -265 z M 8092,1852 8164,1719 8227,1857 8171,1703 8157,1703z" clip-rule="evenodd"/></clipPath></defs><polyline stroke="#5e5e5e" stroke-linejoin="round" stroke-width="8" points="8098 3792 8164 1710" clip-path="url(#cp69)"/><polyline stroke="#5e5e5e" stroke-miterlimit="8" stroke-width="8" points="8092 1852 8164 1719 8227 1857"/><defs><clipPath id="cp70"><path d="M -265,-39 H 10972 V 4366 H -265 z M 35,1009 -86,918 60,876 -100,908 -103,921z" clip-rule="evenodd"/></clipPath></defs><polyline stroke="#5e5e5e" stroke-linejoin="round" stroke-width="8" points="2020 1313 -95 916" clip-path="url(#cp70)"/><polyline stroke="#5e5e5e" stroke-miterlimit="8" stroke-width="8" points="35 1009 -86 918 60 876"/><defs><clipPath id="cp71"><path d="M -265,-39 H 10972 V 4366 H -265 z M 5981,1166 5860,1075 6006,1033 5846,1065 5843,1078z" clip-rule="evenodd"/></clipPath></defs><polyline stroke="#5e5e5e" stroke-linejoin="round" stroke-width="8" points="7967 1470 5851 1073" clip-path="url(#cp71)"/><polyline stroke="#5e5e5e" stroke-miterlimit="8" stroke-width="8" points="5981 1166 5860 1075 6006 1033"/><defs><clipPath id="cp72"><path d="M -265,-39 H 10972 V 4366 H -265 z M 1956,3545 1885,3679 1820,3542 1878,3695 1892,3695z" clip-rule="evenodd"/></clipPath></defs><polyline stroke="#5e5e5e" stroke-linejoin="round" stroke-width="8" points="1926 1596 1885 3688" clip-path="url(#cp72)"/><polyline stroke="#5e5e5e" stroke-miterlimit="8" stroke-width="8" points="1956 3545 1885 3679 1820 3542"/><defs><clipPath id="cp73"><path d="M -265,-39 H 10972 V 4366 H -265 z M 7904,3702 7833,3836 7768,3699 7826,3852 7840,3852z" clip-rule="evenodd"/></clipPath></defs><polyline stroke="#5e5e5e" stroke-linejoin="round" stroke-width="8" points="7873 1752 7833 3845" clip-path="url(#cp73)"/><polyline stroke="#5e5e5e" stroke-miterlimit="8" stroke-width="8" points="7904 3702 7833 3836 7768 3699"/><defs><clipPath id="cp74"><path d="M -265,-39 H 10972 V 4366 H -265 z M 2467,3574 2393,3706 2332,3568 2386,3721 2399,3722z" clip-rule="evenodd"/></clipPath></defs><polyline stroke="#5e5e5e" stroke-linejoin="round" stroke-width="8" points="2487 1616 2393 3715" clip-path="url(#cp74)"/><polyline stroke="#5e5e5e" stroke-miterlimit="8" stroke-width="8" points="2467 3574 2393 3706 2332 3568"/><defs><clipPath id="cp75"><path d="M -265,-39 H 10972 V 4366 H -265 z M 8413,3731 8339,3863 8278,3725 8332,3878 8345,3879z" clip-rule="evenodd"/></clipPath></defs><polyline stroke="#5e5e5e" stroke-linejoin="round" stroke-width="8" points="8434 1773 8339 3872" clip-path="url(#cp75)"/><polyline stroke="#5e5e5e" stroke-miterlimit="8" stroke-width="8" points="8413 3731 8339 3863 8278 3725"/><defs><clipPath id="cp76"><path d="M -265,-39 H 10972 V 4366 H -265 z M 1797,1501 1917,1594 1771,1634 1931,1604 1934,1591z" clip-rule="evenodd"/></clipPath></defs><polyline stroke="#5e5e5e" stroke-linejoin="round" stroke-width="8" points="-195 1174 1926 1596" clip-path="url(#cp76)"/><polyline stroke="#5e5e5e" stroke-miterlimit="8" stroke-width="8" points="1797 1501 1917 1594 1771 1634"/><defs><clipPath id="cp77"><path d="M -265,-39 H 10972 V 4366 H -265 z M 7744,1657 7864,1750 7718,1790 7878,1760 7881,1747z" clip-rule="evenodd"/></clipPath></defs><polyline stroke="#5e5e5e" stroke-linejoin="round" stroke-width="8" points="5752 1330 7873 1752" clip-path="url(#cp77)"/><polyline stroke="#5e5e5e" stroke-miterlimit="8" stroke-width="8" points="7744 1657 7864 1750 7718 1790"/><defs><clipPath id="cp78"><path d="M -265,-39 H 10972 V 4366 H -265 z M 2558,1866 2633,1734 2694,1873 2640,1719 2627,1718z" clip-rule="evenodd"/></clipPath></defs><polyline stroke="#5e5e5e" stroke-linejoin="round" stroke-width="8" points="2532 3845 2633 1725" clip-path="url(#cp78)"/><polyline stroke="#5e5e5e" stroke-miterlimit="8" stroke-width="8" points="2558 1866 2633 1734 2694 1873"/><defs><clipPath id="cp79"><path d="M -265,-39 H 10972 V 4366 H -265 z M 8505,2023 8580,1891 8641,2030 8587,1876 8574,1875z" clip-rule="evenodd"/></clipPath></defs><polyline stroke="#5e5e5e" stroke-linejoin="round" stroke-width="8" points="8479 4002 8580 1882" clip-path="url(#cp79)"/><polyline stroke="#5e5e5e" stroke-miterlimit="8" stroke-width="8" points="8505 2023 8580 1891 8641 2030"/><defs><clipPath id="cp80"><path d="M -265,-39 H 10972 V 4366 H -265 z M 2834,1621 2738,1504 2890,1497 2727,1491 2721,1503z" clip-rule="evenodd"/></clipPath></defs><polyline stroke="#5e5e5e" stroke-linejoin="round" stroke-width="8" points="5013 2521 2730 1500" clip-path="url(#cp80)"/><polyline stroke="#5e5e5e" stroke-miterlimit="8" stroke-width="8" points="2834 1621 2738 1504 2890 1497"/><defs><clipPath id="cp81"><path d="M -265,-39 H 10972 V 4366 H -265 z M 8780,1778 8684,1661 8836,1654 8673,1648 8667,1660z" clip-rule="evenodd"/></clipPath></defs><polyline stroke="#5e5e5e" stroke-linejoin="round" stroke-width="8" points="10960 2678 8676 1657" clip-path="url(#cp81)"/><polyline stroke="#5e5e5e" stroke-miterlimit="8" stroke-width="8" points="8780 1778 8684 1661 8836 1654"/><defs><clipPath id="cp82"><path d="M -265,-39 H 10972 V 4366 H -265 z M 4825,2618 4922,2734 4770,2742 4933,2747 4939,2735z" clip-rule="evenodd"/></clipPath></defs><polyline stroke="#5e5e5e" stroke-linejoin="round" stroke-width="8" points="2633 1725 4930 2738" clip-path="url(#cp82)"/><polyline stroke="#5e5e5e" stroke-miterlimit="8" stroke-width="8" points="4825 2618 4922 2734 4770 2742"/><defs><clipPath id="cp83"><path d="M -265,-39 H 10972 V 4366 H -265 z M 10773,2775 10870,2891 10718,2899 10881,2904 10887,2892z" clip-rule="evenodd"/></clipPath></defs><polyline stroke="#5e5e5e" stroke-linejoin="round" stroke-width="8" points="8580 1882 10878 2895" clip-path="url(#cp83)"/><polyline stroke="#5e5e5e" stroke-miterlimit="8" stroke-width="8" points="10773 2775 10870 2891 10718 2899"/><defs><clipPath id="cp84"><path d="M -265,-39 H 10972 V 4366 H -265 z M 3777,3836 3782,3735 3865,3678 3610,3629 3600,3647z" clip-rule="evenodd"/></clipPath></defs><path stroke="#000" stroke-width="15" d="M 6474,3631 A 2756 2756 0 0 1 3614 3643" clip-path="url(#cp84)"/><polygon stroke="#000" stroke-miterlimit="8" stroke-width="8" points="3865 3678 3623 3648 3777 3836 3782 3735 3865 3678"/><defs><clipPath id="cp85"><path d="M -265,-39 H 10972 V 4366 H -265 z M 6088,502 6079,602 5993,655 6245,717 6256,700z" clip-rule="evenodd"/></clipPath></defs><path stroke="#000" stroke-width="15" d="M 3622,672 A 2385 2385 0 0 1 6242 703" clip-path="url(#cp85)"/><polygon stroke="#000" stroke-miterlimit="8" stroke-width="8" points="5993 655 6233 698 6088 502 6079 602 5993 655"/><text x="2083" y="860" fill="#000" font-family="Times" font-size="180" font-style="normal" font-weight="normal" text-anchor="start" xml:space="preserve">d1</text><text x="7792" y="1226" fill="#000" font-family="Times" font-size="180" font-style="normal" font-weight="normal" text-anchor="start" xml:space="preserve">d2</text><text x="3825" y="4275" fill="#000" font-family="Times" font-size="216" font-style="normal" font-weight="normal" text-anchor="start" xml:space="preserve">cm.remove_cell&lt;0&gt;(d2)</text><text x="3105" y="180" fill="#000" font-family="Times" font-size="216" font-style="normal" font-weight="normal" text-anchor="start" xml:space="preserve">d2=cm.insert_cell_0_in_cell_1(d1)</text><polyline stroke="#9f9f9f" stroke-width="8" points="3075 3191"/><polyline stroke="#9f9f9f" stroke-width="8" points="4088 2584 4096 2884"/><polyline stroke="#9f9f9f" stroke-width="8" points="3673 3264 3786 3451"/><polyline stroke="#9f9f9f" stroke-width="8" points="2424 2547 2602 2607"/><polyline stroke="#9f9f9f" stroke-width="8" points="3723 1916 3583 2195"/><polyline stroke="#9f9f9f" stroke-width="8" points="4114 1627 4245 1542"/><polyline stroke="#9f9f9f" stroke-width="8" points="3152 1806 3429 1862"/><polyline stroke="#9f9f9f" stroke-width="8" points="2719 3175 3100 3305"/><polyline stroke="#9f9f9f" stroke-width="8" points="2876 1186 3044 1178"/><polyline stroke="#9f9f9f" stroke-width="8" points="1214 1148 1050 1478"/><polyline stroke="#9f9f9f" stroke-width="8" points="339 2557 627 2746"/><polyline stroke="#9f9f9f" stroke-width="8" points="1840 2244 1774 2557"/><polyline stroke="#9f9f9f" stroke-width="8" points="2311 3232 2468 3232"/><polyline stroke="#9f9f9f" stroke-width="8" points="1057 3422 867 3472"/><polyline stroke="#9f9f9f" stroke-width="8" points="1807 370 1897 560"/><polyline stroke="#9f9f9f" stroke-width="8" points="2475 874 2707 1161"/><polyline stroke="#9f9f9f" stroke-width="8" points="545 517 545 560 545 601"/><polyline stroke="#9f9f9f" stroke-width="8" points="-230 2012 -190 2028 -165 2070 -124 2087"/><polyline stroke="#9f9f9f" stroke-width="8" points="825 1238 1072 1170"/><polyline stroke="#9f9f9f" stroke-width="8" points="1880 2480 2244 2491"/><polyline stroke="#9f9f9f" stroke-width="8" points="2805 1690 3012 1714"/><polyline stroke="#9f9f9f" stroke-width="8" points="9022 3348"/><polyline stroke="#9f9f9f" stroke-width="8" points="10035 2741 10043 3041"/><polyline stroke="#9f9f9f" stroke-width="8" points="9621 3421 9733 3608"/><polyline stroke="#9f9f9f" stroke-width="8" points="8371 2704 8548 2764"/><polyline stroke="#9f9f9f" stroke-width="8" points="9670 2073 9530 2352"/><polyline stroke="#9f9f9f" stroke-width="8" points="10060 1784 10191 1699"/><polyline stroke="#9f9f9f" stroke-width="8" points="9098 1963 9376 2019"/><polyline stroke="#9f9f9f" stroke-width="8" points="8666 3332 9046 3461"/><polyline stroke="#9f9f9f" stroke-width="8" points="8823 1343 8990 1335"/><polyline stroke="#9f9f9f" stroke-width="8" points="7160 1305 6996 1635"/><polyline stroke="#9f9f9f" stroke-width="8" points="6285 2714 6573 2902"/><polyline stroke="#9f9f9f" stroke-width="8" points="7787 2401 7721 2714"/><polyline stroke="#9f9f9f" stroke-width="8" points="8257 3389 8414 3389"/><polyline stroke="#9f9f9f" stroke-width="8" points="7003 3579 6813 3629"/><polyline stroke="#9f9f9f" stroke-width="8" points="7754 527 7844 717"/><polyline stroke="#9f9f9f" stroke-width="8" points="6491 674 6491 717 6491 757"/><polyline stroke="#9f9f9f" stroke-width="8" points="5716 2169 5757 2185 5783 2227 5823 2244"/><polyline stroke="#9f9f9f" stroke-width="8" points="6771 1395 7018 1327"/><polyline stroke="#9f9f9f" stroke-width="8" points="7826 2637 8191 2648"/><polyline stroke="#9f9f9f" stroke-width="8" points="8752 1847 8959 1871"/><polyline stroke="#9f9f9f" stroke-width="8" points="8222 1205 8454 1493"/><polyline stroke="#9f9f9f" stroke-width="8" points="8601 850 8833 1138"/></g></svg>