<svg xmlns="http://www.w3.org/2000/svg" xmlns:xlink="http://www.w3.org/1999/xlink" width="756" height="304" viewBox="3588 5001 8996 3606"><g fill="none"><polyline stroke="#000" stroke-width="8" points="8767 8032 11121 8032"/><polyline stroke="#000" stroke-width="8" points="8767 8442 11121 8442"/><rect width="2354" height="972" x="8767" y="7623" stroke="#000" stroke-width="8"/><polyline stroke="#000" stroke-width="8" points="4112 5372 8358 5372"/><polyline stroke="#000" stroke-width="8" points="4112 5986 8358 5986"/><rect width="4246" height="1177" x="4112" y="5013" stroke="#000" stroke-width="8"/><polyline stroke="#000" stroke-width="8" points="3600 7623 7539 7623"/><polyline stroke="#000" stroke-width="8" points="3600 8288 7539 8288"/><rect width="3939" height="1330" x="3600" y="7214" stroke="#000" stroke-width="8"/><polyline stroke="#000" stroke-dasharray="60 60" stroke-width="15" points="8870 7623 8870 5832 8153 5832"/><polyline stroke="#000" stroke-width="15" points="7949 8186 8767 8186"/><polyline fill="#000" stroke="#000" stroke-width="8" points="7538 8183 7770 8083 7962 8175 7759 8283"/><polyline stroke="#000" stroke-dasharray="60 60" stroke-width="15" points="7020 7056 7020 6177"/><text x="8870" y="8339" fill="#000" font-family="Times" font-size="168" font-style="normal" font-weight="bold" text-anchor="start" xml:space="preserve">- Info info</text><text x="8921" y="7981" fill="#000" font-family="Times" font-size="216" font-style="normal" font-weight="bold" text-anchor="start" xml:space="preserve">Cell_attribute</text><text x="4163" y="5883" fill="#000" font-family="Times" font-size="168" font-style="normal" font-weight="bold" text-anchor="start" xml:space="preserve">+ Types Dart_wrapper&lt;Map&gt;::Attributes</text><text x="4163" y="5627" fill="#000" font-family="Times" font-size="168" font-style="normal" font-weight="bold" text-anchor="start" xml:space="preserve">+ Type Dart_wrapper&lt;Map&gt;::Dart_info</text><text x="4674" y="5269" fill="#000" font-family="Times" font-size="216" font-style="italic" font-weight="bold" text-anchor="start" xml:space="preserve">GenericMapItems</text><text x="3907" y="7521" fill="#000" font-family="Times" font-size="216" font-style="normal" font-weight="bold" text-anchor="start" xml:space="preserve">Combinatorial_map</text><text x="3702" y="7879" fill="#000" font-family="Times" font-size="168" font-style="normal" font-weight="bold" text-anchor="start" xml:space="preserve">+ typedef Items::Dart_info Dart_info</text><text x="3702" y="8135" fill="#000" font-family="Times" font-size="168" font-style="normal" font-weight="bold" text-anchor="start" xml:space="preserve">+ typedef Items::Attributes Attributes</text><text x="7591" y="8442" fill="#000" font-family="Times" font-size="168" font-style="normal" font-weight="normal" text-anchor="start" xml:space="preserve">0..*</text><text x="8639" y="8136" fill="#000" font-family="Times" font-size="168" font-style="normal" font-weight="normal" text-anchor="start" xml:space="preserve">1</text><rect width="2506" height="307" x="9842" y="7418" fill="#fff" stroke="#000" stroke-dasharray="40 40" stroke-width="8"/><rect width="1177" height="307" x="6618" y="7009" fill="#fff" stroke="#000" stroke-dasharray="40 40" stroke-width="8"/><text x="9893" y="7623" fill="#000" font-family="Times" font-size="132" font-style="italic" font-weight="normal" text-anchor="start" xml:space="preserve">Map,Info_,Tag,OnMerge,OnSplit</text><text x="6670" y="7214" fill="#000" font-family="Times" font-size="132" font-style="italic" font-weight="normal" text-anchor="start" xml:space="preserve">d, Items, Alloc</text></g></svg>