<svg xmlns="http://www.w3.org/2000/svg" xmlns:xlink="http://www.w3.org/1999/xlink" width="628pt" height="268" viewBox="-3621 -35 9958 3180"><g fill="none"><defs><clipPath id="cp0"><path d="M -3621,-35 H 6337 V 3145 H -3621 z M 2192,1740 2362,1847 2174,1920 2389,1860 2391,1840z" clip-rule="evenodd"/></clipPath></defs><polyline stroke="#505050" stroke-linejoin="round" stroke-width="15" points="716 1688 2380 1849" clip-path="url(#cp0)"/><polyline stroke="#505050" stroke-miterlimit="8" stroke-width="15" points="2192 1740 2362 1847 2174 1920"/><defs><clipPath id="cp1"><path d="M -3621,-35 H 6337 V 3145 H -3621 z M -1429,1641 -1259,1747 -1446,1820 -1232,1760 -1230,1740z" clip-rule="evenodd"/></clipPath></defs><polyline stroke="#505050" stroke-linejoin="round" stroke-width="15" points="-2865 1593 -1241 1749" clip-path="url(#cp1)"/><polyline stroke="#505050" stroke-miterlimit="8" stroke-width="15" points="-1429 1641 -1259 1747 -1446 1820"/><polyline stroke="#9f9f9f" stroke-linejoin="round" stroke-width="15" points="-2088 1885 -2061 1670"/><polyline stroke="#9f9f9f" stroke-linejoin="round" stroke-width="15" points="1564 1948 1538 1767"/><defs><clipPath id="cp2"><path d="M -3621,-35 H 6337 V 3145 H -3621 z M -2707,1915 -2877,1808 -2689,1736 -2904,1795 -2906,1815z" clip-rule="evenodd"/></clipPath></defs><polyline stroke="#505050" stroke-linejoin="round" stroke-width="15" points="-1266 1966 -2895 1806" clip-path="url(#cp2)"/><polyline stroke="#505050" stroke-miterlimit="8" stroke-width="15" points="-2707 1915 -2877 1808 -2689 1736"/><defs><clipPath id="cp3"><path d="M -3621,-35 H 6337 V 3145 H -3621 z M 922,1976 752,1869 940,1797 725,1856 723,1876z" clip-rule="evenodd"/></clipPath></defs><polyline stroke="#505050" stroke-linejoin="round" stroke-width="15" points="2410 2032 734 1867" clip-path="url(#cp3)"/><polyline stroke="#505050" stroke-miterlimit="8" stroke-width="15" points="922 1976 752 1869 940 1797"/><defs><clipPath id="cp4"><path d="M -3621,-35 H 6337 V 3145 H -3621 z M 4860,1516 5057,1556 4907,1690 5087,1558 5081,1538z" clip-rule="evenodd"/></clipPath></defs><polyline stroke="#505050" stroke-linejoin="round" stroke-width="15" points="3820 1891 5074 1551" clip-path="url(#cp4)"/><polyline stroke="#505050" stroke-miterlimit="8" stroke-width="15" points="4860 1516 5057 1556 4907 1690"/><polyline stroke="#9f9f9f" stroke-linejoin="round" stroke-width="15" points="4554 1847 4463 1717"/><defs><clipPath id="cp5"><path d="M -3621,-35 H 6337 V 3145 H -3621 z M 4128,2059 3930,2020 4080,1885 3900,2018 3906,2038z" clip-rule="evenodd"/></clipPath></defs><polyline stroke="#505050" stroke-linejoin="round" stroke-width="15" points="5167 1677 3913 2025" clip-path="url(#cp5)"/><polyline stroke="#505050" stroke-miterlimit="8" stroke-width="15" points="4128 2059 3930 2020 4080 1885"/><defs><clipPath id="cp6"><path d="M -3621,-35 H 6337 V 3145 H -3621 z M 800,1487 715,1670 620,1493 706,1699 727,1698z" clip-rule="evenodd"/></clipPath></defs><polyline stroke="#505050" stroke-linejoin="round" stroke-width="15" points="668 156 716 1688" clip-path="url(#cp6)"/><polyline stroke="#505050" stroke-miterlimit="8" stroke-width="15" points="800 1487 715 1670 620 1493"/><defs><clipPath id="cp7"><path d="M -3621,-35 H 6337 V 3145 H -3621 z M -2739,1284 -2866,1557 -3009,1291 -2890,1619 -2839,1618z" clip-rule="evenodd"/></clipPath></defs><polyline stroke="#000" stroke-linejoin="round" stroke-width="45" points="-2907 95 -2865 1593" clip-path="url(#cp7)"/><polyline stroke="#000" stroke-miterlimit="8" stroke-width="30" points="-2739 1284 -2866 1557 -3009 1291"/><polyline stroke="#9f9f9f" stroke-linejoin="round" stroke-width="15" points="-3079 929 -2886 869"/><polyline stroke="#9f9f9f" stroke-linejoin="round" stroke-width="15" points="545 966 692 948"/><defs><clipPath id="cp8"><path d="M -3621,-35 H 6337 V 3145 H -3621 z M 5252,352 5347,175 5431,357 5358,147 5337,146z" clip-rule="evenodd"/></clipPath></defs><polyline stroke="#505050" stroke-linejoin="round" stroke-width="15" points="5314 1345 5347 157" clip-path="url(#cp8)"/><polyline stroke="#505050" stroke-miterlimit="8" stroke-width="15" points="5252 352 5347 175 5431 357"/><polyline stroke="#9f9f9f" stroke-linejoin="round" stroke-width="15" points="5467 858 5330 777"/><defs><clipPath id="cp9"><path d="M -3621,-35 H 6337 V 3145 H -3621 z M 5543,1231 5447,1407 5363,1224 5435,1435 5456,1436z" clip-rule="evenodd"/></clipPath></defs><polyline stroke="#505050" stroke-linejoin="round" stroke-width="15" points="5490 239 5446 1425" clip-path="url(#cp9)"/><polyline stroke="#505050" stroke-miterlimit="8" stroke-width="15" points="5543 1231 5447 1407 5363 1224"/><defs><clipPath id="cp10"><path d="M -3621,-35 H 6337 V 3145 H -3621 z M -3191,352 -3107,169 -3011,345 -3098,140 -3119,141z" clip-rule="evenodd"/></clipPath></defs><polyline stroke="#505050" stroke-linejoin="round" stroke-width="15" points="-3052 1657 -3108 151" clip-path="url(#cp10)"/><polyline stroke="#505050" stroke-miterlimit="8" stroke-width="15" points="-3191 352 -3107 169 -3011 345"/><defs><clipPath id="cp11"><path d="M -3621,-35 H 6337 V 3145 H -3621 z M 790,467 693,181 980,275 668,131 643,156z" clip-rule="evenodd"/></clipPath></defs><polyline stroke="#000" stroke-linejoin="round" stroke-width="30" points="2380 1849 668 156" clip-path="url(#cp11)"/><polyline stroke="#000" stroke-miterlimit="8" stroke-width="30" points="790 467 693 181 980 275"/><defs><clipPath id="cp12"><path d="M -3621,-35 H 6337 V 3145 H -3621 z M 432,367 516,184 612,360 525,155 504,156z" clip-rule="evenodd"/></clipPath></defs><polyline stroke="#505050" stroke-linejoin="round" stroke-width="15" points="573 1714 515 166" clip-path="url(#cp12)"/><polyline stroke="#505050" stroke-miterlimit="8" stroke-width="15" points="432 367 516 184 612 360"/><polyline stroke="#9f9f9f" stroke-linejoin="round" stroke-width="15" points="1653 934 1544 1023"/><defs><clipPath id="cp13"><path d="M -3621,-35 H 6337 V 3145 H -3621 z M 5221,1888 5178,1691 5361,1775 5169,1662 5152,1675z" clip-rule="evenodd"/></clipPath></defs><polyline stroke="#505050" stroke-linejoin="round" stroke-width="15" points="5817 2485 5167 1677" clip-path="url(#cp13)"/><polyline stroke="#505050" stroke-miterlimit="8" stroke-width="15" points="5221 1888 5178 1691 5361 1775"/><polyline stroke="#9f9f9f" stroke-linejoin="round" stroke-width="15" points="5474 2058 5479 1954"/><defs><clipPath id="cp14"><path d="M -3621,-35 H 6337 V 3145 H -3621 z M 2414,1564 2478,1754 2287,1691 2491,1782 2506,1767z" clip-rule="evenodd"/></clipPath></defs><polyline stroke="#505050" stroke-linejoin="round" stroke-width="15" points="776 61 2491 1767" clip-path="url(#cp14)"/><polyline stroke="#505050" stroke-miterlimit="8" stroke-width="15" points="2414 1564 2478 1754 2287 1691"/><polyline stroke="#9f9f9f" stroke-linejoin="round" stroke-width="15" points="5767 1798 5647 1832"/><defs><clipPath id="cp15"><path d="M -3621,-35 H 6337 V 3145 H -3621 z M 6063,2003 6112,2199 5927,2121 6123,2227 6139,2213z" clip-rule="evenodd"/></clipPath></defs><polyline stroke="#505050" stroke-linejoin="round" stroke-width="15" points="5446 1425 6124 2212" clip-path="url(#cp15)"/><polyline stroke="#505050" stroke-miterlimit="8" stroke-width="15" points="6063 2003 6112 2199 5927 2121"/><defs><clipPath id="cp16"><path d="M -3621,-35 H 6337 V 3145 H -3621 z M 5771,2168 5815,2364 5631,2282 5825,2393 5841,2379z" clip-rule="evenodd"/></clipPath></defs><polyline stroke="#505050" stroke-linejoin="round" stroke-width="15" points="5169 1574 5826 2378" clip-path="url(#cp16)"/><polyline stroke="#505050" stroke-miterlimit="8" stroke-width="15" points="5771 2168 5815 2364 5631 2282"/><defs><clipPath id="cp17"><path d="M -3621,-35 H 6337 V 3145 H -3621 z M -1270,423 -1172,248 -1090,432 -1160,220 -1181,219z" clip-rule="evenodd"/></clipPath></defs><polyline stroke="#505050" stroke-linejoin="round" stroke-width="15" points="-1241 1749 -1171 230" clip-path="url(#cp17)"/><polyline stroke="#505050" stroke-miterlimit="8" stroke-width="15" points="-1270 423 -1172 248 -1090 432"/><defs><clipPath id="cp18"><path d="M -3621,-35 H 6337 V 3145 H -3621 z M 5390,1666 5342,1471 5527,1550 5332,1442 5316,1456z" clip-rule="evenodd"/></clipPath></defs><polyline stroke="#505050" stroke-linejoin="round" stroke-width="15" points="6000 2251 5331 1457" clip-path="url(#cp18)"/><polyline stroke="#505050" stroke-miterlimit="8" stroke-width="15" points="5390 1666 5342 1471 5527 1550"/><defs><clipPath id="cp19"><path d="M -3621,-35 H 6337 V 3145 H -3621 z M 3839,876 3735,704 3935,724 3717,680 3706,697z" clip-rule="evenodd"/></clipPath></defs><polyline stroke="#505050" stroke-linejoin="round" stroke-width="15" points="5074 1551 3720 694" clip-path="url(#cp19)"/><polyline stroke="#505050" stroke-miterlimit="8" stroke-width="15" points="3839 876 3735 704 3935 724"/><polyline stroke="#9f9f9f" stroke-linejoin="round" stroke-width="15" points="4537 1173 4444 1153"/><defs><clipPath id="cp20"><path d="M -3621,-35 H 6337 V 3145 H -3621 z M 2469,393 2568,218 2649,402 2580,190 2559,189z" clip-rule="evenodd"/></clipPath></defs><polyline stroke="#505050" stroke-linejoin="round" stroke-width="15" points="2491 1767 2569 200" clip-path="url(#cp20)"/><polyline stroke="#505050" stroke-miterlimit="8" stroke-width="15" points="2469 393 2568 218 2649 402"/><polyline stroke="#9f9f9f" stroke-linejoin="round" stroke-width="15" points="-1061 1107 -1206 1016"/><polyline stroke="#9f9f9f" stroke-linejoin="round" stroke-width="15" points="4693 931 4706 1047"/><defs><clipPath id="cp21"><path d="M -3621,-35 H 6337 V 3145 H -3621 z M 5199,1161 5299,1335 5099,1310 5317,1360 5329,1342z" clip-rule="evenodd"/></clipPath></defs><polyline stroke="#505050" stroke-linejoin="round" stroke-width="15" points="3977 456 5314 1345" clip-path="url(#cp21)"/><polyline stroke="#505050" stroke-miterlimit="8" stroke-width="15" points="5199 1161 5299 1335 5099 1310"/><polyline stroke="#9f9f9f" stroke-linejoin="round" stroke-width="15" points="-3093 2255 -3259 2100"/><polyline stroke="#9f9f9f" stroke-linejoin="round" stroke-width="15" points="2529 1009 2620 1149"/><polyline stroke="#9f9f9f" stroke-linejoin="round" stroke-width="15" points="531 2328 360 2169"/><defs><clipPath id="cp22"><path d="M -3621,-35 H 6337 V 3145 H -3621 z M -3153,2613 -3308,2742 -3318,2541 -3329,2763 -3310,2772z" clip-rule="evenodd"/></clipPath></defs><polyline stroke="#505050" stroke-linejoin="round" stroke-width="15" points="-2895 1806 -3315 2758" clip-path="url(#cp22)"/><polyline stroke="#505050" stroke-miterlimit="8" stroke-width="15" points="-3153 2613 -3308 2742 -3318 2541"/><defs><clipPath id="cp23"><path d="M -3621,-35 H 6337 V 3145 H -3621 z M 464,2700 309,2829 300,2628 288,2850 307,2859z" clip-rule="evenodd"/></clipPath></defs><polyline stroke="#505050" stroke-linejoin="round" stroke-width="15" points="734 1867 302 2845" clip-path="url(#cp23)"/><polyline stroke="#505050" stroke-miterlimit="8" stroke-width="15" points="464 2700 309 2829 300 2628"/><defs><clipPath id="cp24"><path d="M -3621,-35 H 6337 V 3145 H -3621 z M 5050,1392 5154,1564 4954,1544 5172,1588 5183,1571z" clip-rule="evenodd"/></clipPath></defs><polyline stroke="#505050" stroke-linejoin="round" stroke-width="15" points="3810 711 5169 1574" clip-path="url(#cp24)"/><polyline stroke="#505050" stroke-miterlimit="8" stroke-width="15" points="5050 1392 5154 1564 4954 1544"/><defs><clipPath id="cp25"><path d="M -3621,-35 H 6337 V 3145 H -3621 z M -3218,1798 -3060,1673 -3055,1874 -3038,1652 -3057,1643z" clip-rule="evenodd"/></clipPath></defs><polyline stroke="#505050" stroke-linejoin="round" stroke-width="15" points="-3494 2597 -3052 1657" clip-path="url(#cp25)"/><polyline stroke="#505050" stroke-miterlimit="8" stroke-width="15" points="-3218 1798 -3060 1673 -3055 1874"/><defs><clipPath id="cp26"><path d="M -3621,-35 H 6337 V 3145 H -3621 z M -999,1655 -1098,1830 -1178,1646 -1110,1858 -1089,1859z" clip-rule="evenodd"/></clipPath></defs><polyline stroke="#505050" stroke-linejoin="round" stroke-width="15" points="-1018 315 -1099 1848" clip-path="url(#cp26)"/><polyline stroke="#505050" stroke-miterlimit="8" stroke-width="15" points="-999 1655 -1098 1830 -1178 1646"/><defs><clipPath id="cp27"><path d="M -3621,-35 H 6337 V 3145 H -3621 z M 4099,760 3998,586 4198,609 3980,561 3968,579z" clip-rule="evenodd"/></clipPath></defs><polyline stroke="#505050" stroke-linejoin="round" stroke-width="15" points="5331 1457 3983 576" clip-path="url(#cp27)"/><polyline stroke="#505050" stroke-miterlimit="8" stroke-width="15" points="4099 760 3998 586 4198 609"/><defs><clipPath id="cp28"><path d="M -3621,-35 H 6337 V 3145 H -3621 z M 2681,1718 2582,1893 2502,1709 2570,1921 2591,1922z" clip-rule="evenodd"/></clipPath></defs><polyline stroke="#505050" stroke-linejoin="round" stroke-width="15" points="2664 335 2581 1911" clip-path="url(#cp28)"/><polyline stroke="#505050" stroke-miterlimit="8" stroke-width="15" points="2681 1718 2582 1893 2502 1709"/><defs><clipPath id="cp29"><path d="M -3621,-35 H 6337 V 3145 H -3621 z M 407,1855 565,1730 570,1931 587,1709 568,1700z" clip-rule="evenodd"/></clipPath></defs><polyline stroke="#505050" stroke-linejoin="round" stroke-width="15" points="119 2680 573 1714" clip-path="url(#cp29)"/><polyline stroke="#505050" stroke-miterlimit="8" stroke-width="15" points="407 1855 565 1730 570 1931"/><defs><clipPath id="cp30"><path d="M -3621,-35 H 6337 V 3145 H -3621 z M 3893,1686 3819,1873 3714,1701 3810,1902 3831,1901z" clip-rule="evenodd"/></clipPath></defs><polyline stroke="#505050" stroke-linejoin="round" stroke-width="15" points="3720 694 3820 1891" clip-path="url(#cp30)"/><polyline stroke="#505050" stroke-miterlimit="8" stroke-width="15" points="3893 1686 3819 1873 3714 1701"/><defs><clipPath id="cp31"><path d="M -3621,-35 H 6337 V 3145 H -3621 z M -2717,200 -2889,96 -2703,21 -2917,84 -2918,105z" clip-rule="evenodd"/></clipPath></defs><polyline stroke="#505050" stroke-linejoin="round" stroke-width="15" points="-1171 230 -2907 95" clip-path="url(#cp31)"/><polyline stroke="#505050" stroke-miterlimit="8" stroke-width="15" points="-2717 200 -2889 96 -2703 21"/><polyline stroke="#9f9f9f" stroke-linejoin="round" stroke-width="15" points="3726 1377 3773 1320"/><defs><clipPath id="cp32"><path d="M -3621,-35 H 6337 V 3145 H -3621 z M 966,166 794,62 980,-13 766,50 765,71z" clip-rule="evenodd"/></clipPath></defs><polyline stroke="#505050" stroke-linejoin="round" stroke-width="15" points="2569 200 776 61" clip-path="url(#cp32)"/><polyline stroke="#505050" stroke-miterlimit="8" stroke-width="15" points="966 166 794 62 980 -13"/><defs><clipPath id="cp33"><path d="M -3621,-35 H 6337 V 3145 H -3621 z M -1397,2139 -1270,1983 -1222,2179 -1253,1958 -1274,1953z" clip-rule="evenodd"/></clipPath></defs><polyline stroke="#505050" stroke-linejoin="round" stroke-width="15" points="-1490 2963 -1266 1966" clip-path="url(#cp33)"/><polyline stroke="#505050" stroke-miterlimit="8" stroke-width="15" points="-1397 2139 -1270 1983 -1222 2179"/><defs><clipPath id="cp34"><path d="M -3621,-35 H 6337 V 3145 H -3621 z M 2211,2300 2402,2067 2474,2360 2432,2018 2396,2010z" clip-rule="evenodd"/></clipPath></defs><polyline stroke="#000" stroke-linejoin="round" stroke-width="30" points="2179 3056 2410 2032" clip-path="url(#cp34)"/><polyline stroke="#000" stroke-miterlimit="8" stroke-width="30" points="2211 2300 2402 2067 2474 2360"/><polyline stroke="#9f9f9f" stroke-linejoin="round" stroke-width="15" points="-2077 75 -2048 163"/><polyline stroke="#9f9f9f" stroke-linejoin="round" stroke-width="15" points="-1196 2313 -1370 2436"/><polyline stroke="#9f9f9f" stroke-linejoin="round" stroke-width="15" points="2302 2515 2481 2388"/><polyline stroke="#9f9f9f" stroke-linejoin="round" stroke-width="15" points="1661 128 1576 88"/><defs><clipPath id="cp35"><path d="M -3621,-35 H 6337 V 3145 H -3621 z M 4422,2706 4437,2907 4268,2798 4442,2936 4460,2926z" clip-rule="evenodd"/></clipPath></defs><polyline stroke="#505050" stroke-linejoin="round" stroke-width="15" points="3913 2025 4446 2922" clip-path="url(#cp35)"/><polyline stroke="#505050" stroke-miterlimit="8" stroke-width="15" points="4422 2706 4437 2907 4268 2798"/><defs><clipPath id="cp36"><path d="M -3621,-35 H 6337 V 3145 H -3621 z M 3599,948 3673,761 3778,932 3681,732 3660,733z" clip-rule="evenodd"/></clipPath></defs><polyline stroke="#505050" stroke-linejoin="round" stroke-width="15" points="3777 1955 3671 743" clip-path="url(#cp36)"/><polyline stroke="#505050" stroke-miterlimit="8" stroke-width="15" points="3599 948 3673 761 3778 932"/><polyline stroke="#9f9f9f" stroke-linejoin="round" stroke-width="15" points="4163 2448 4024 2379"/><defs><clipPath id="cp37"><path d="M -3621,-35 H 6337 V 3145 H -3621 z M 4189,502 3994,452 4151,326 3965,448 3969,468z" clip-rule="evenodd"/></clipPath></defs><polyline stroke="#505050" stroke-linejoin="round" stroke-width="15" points="5347 157 3977 456" clip-path="url(#cp37)"/><polyline stroke="#505050" stroke-miterlimit="8" stroke-width="15" points="4189 502 3994 452 4151 326"/><defs><clipPath id="cp38"><path d="M -3621,-35 H 6337 V 3145 H -3621 z M -1177,2664 -1301,2822 -1353,2627 -1317,2847 -1297,2851z" clip-rule="evenodd"/></clipPath></defs><polyline stroke="#505050" stroke-linejoin="round" stroke-width="15" points="-1099 1848 -1305 2839" clip-path="url(#cp38)"/><polyline stroke="#505050" stroke-miterlimit="8" stroke-width="15" points="-1177 2664 -1301 2822 -1353 2627"/><defs><clipPath id="cp39"><path d="M -3621,-35 H 6337 V 3145 H -3621 z M 2498,2754 2374,2912 2322,2717 2358,2937 2378,2941z" clip-rule="evenodd"/></clipPath></defs><polyline stroke="#505050" stroke-linejoin="round" stroke-width="15" points="2581 1911 2370 2929" clip-path="url(#cp39)"/><polyline stroke="#505050" stroke-miterlimit="8" stroke-width="15" points="2498 2754 2374 2912 2322 2717"/><defs><clipPath id="cp40"><path d="M -3621,-35 H 6337 V 3145 H -3621 z M -1373,38 -1201,142 -1387,218 -1173,154 -1172,133z" clip-rule="evenodd"/></clipPath></defs><polyline stroke="#505050" stroke-linejoin="round" stroke-width="15" points="-2952 10 -1183 143" clip-path="url(#cp40)"/><polyline stroke="#505050" stroke-miterlimit="8" stroke-width="15" points="-1373 38 -1201 142 -1387 218"/><defs><clipPath id="cp41"><path d="M -3621,-35 H 6337 V 3145 H -3621 z M 2305,53 2477,157 2291,233 2505,169 2506,148z" clip-rule="evenodd"/></clipPath></defs><polyline stroke="#505050" stroke-linejoin="round" stroke-width="15" points="676 21 2495 158" clip-path="url(#cp41)"/><polyline stroke="#505050" stroke-miterlimit="8" stroke-width="15" points="2305 53 2477 157 2291 233"/><defs><clipPath id="cp42"><path d="M -3621,-35 H 6337 V 3145 H -3621 z M 3799,2171 3786,1970 3954,2081 3781,1941 3763,1951z" clip-rule="evenodd"/></clipPath></defs><polyline stroke="#505050" stroke-linejoin="round" stroke-width="15" points="4301 2856 3777 1955" clip-path="url(#cp42)"/><polyline stroke="#505050" stroke-miterlimit="8" stroke-width="15" points="3799 2171 3786 1970 3954 2081"/><polyline stroke="#9f9f9f" stroke-linejoin="round" stroke-width="15" points="4691 290 4680 303"/><defs><clipPath id="cp43"><path d="M -3621,-35 H 6337 V 3145 H -3621 z M 5158,97 5353,147 5196,273 5382,151 5378,131z" clip-rule="evenodd"/></clipPath></defs><polyline stroke="#505050" stroke-linejoin="round" stroke-width="15" points="3974 447 5370 143" clip-path="url(#cp43)"/><polyline stroke="#505050" stroke-miterlimit="8" stroke-width="15" points="5158 97 5353 147 5196 273"/><defs><clipPath id="cp44"><path d="M -3621,-35 H 6337 V 3145 H -3621 z M 5601,2459 5800,2490 5656,2631 5830,2492 5824,2472z" clip-rule="evenodd"/></clipPath></defs><polyline stroke="#505050" stroke-linejoin="round" stroke-width="15" points="4446 2922 5817 2485" clip-path="url(#cp44)"/><polyline stroke="#505050" stroke-miterlimit="8" stroke-width="15" points="5601 2459 5800 2490 5656 2631"/><polyline stroke="#9f9f9f" stroke-linejoin="round" stroke-width="15" points="5171 2732 5150 2698"/><defs><clipPath id="cp45"><path d="M -3621,-35 H 6337 V 3145 H -3621 z M 5572,440 5503,251 5695,310 5490,224 5475,239z" clip-rule="evenodd"/></clipPath></defs><polyline stroke="#505050" stroke-linejoin="round" stroke-width="15" points="6244 954 5490 239" clip-path="url(#cp45)"/><polyline stroke="#505050" stroke-miterlimit="8" stroke-width="15" points="5572 440 5503 251 5695 310"/><defs><clipPath id="cp46"><path d="M -3621,-35 H 6337 V 3145 H -3621 z M 4670,2986 4471,2956 4615,2815 4441,2954 4447,2974z" clip-rule="evenodd"/></clipPath></defs><polyline stroke="#505050" stroke-linejoin="round" stroke-width="15" points="5851 2514 4454 2961" clip-path="url(#cp46)"/><polyline stroke="#505050" stroke-miterlimit="8" stroke-width="15" points="4670 2986 4471 2956 4615 2815"/><polyline stroke="#9f9f9f" stroke-linejoin="round" stroke-width="15" points="5721 477 5844 574"/><defs><clipPath id="cp47"><path d="M -3621,-35 H 6337 V 3145 H -3621 z M 1993,2944 2161,3054 1972,3123 2188,3068 2191,3047z" clip-rule="evenodd"/></clipPath></defs><polyline stroke="#505050" stroke-linejoin="round" stroke-width="15" points="302 2845 2179 3056" clip-path="url(#cp47)"/><polyline stroke="#505050" stroke-miterlimit="8" stroke-width="15" points="1993 2944 2161 3054 1972 3123"/><defs><clipPath id="cp48"><path d="M -3621,-35 H 6337 V 3145 H -3621 z M -1677,2851 -1508,2961 -1697,3030 -1481,2975 -1478,2954z" clip-rule="evenodd"/></clipPath></defs><polyline stroke="#505050" stroke-linejoin="round" stroke-width="15" points="-3315 2758 -1490 2963" clip-path="url(#cp48)"/><polyline stroke="#505050" stroke-miterlimit="8" stroke-width="15" points="-1677 2851 -1508 2961 -1697 3030"/><defs><clipPath id="cp49"><path d="M -3621,-35 H 6337 V 3145 H -3621 z M 6136,1142 6242,972 6315,1159 6255,945 6235,943z" clip-rule="evenodd"/></clipPath></defs><polyline stroke="#505050" stroke-linejoin="round" stroke-width="15" points="6124 2212 6244 954" clip-path="url(#cp49)"/><polyline stroke="#505050" stroke-miterlimit="8" stroke-width="15" points="6136 1142 6242 972 6315 1159"/><defs><clipPath id="cp50"><path d="M -3621,-35 H 6337 V 3145 H -3621 z M 6038,654 6106,843 5914,784 6119,870 6134,855z" clip-rule="evenodd"/></clipPath></defs><polyline stroke="#505050" stroke-linejoin="round" stroke-width="15" points="5370 143 6119 855" clip-path="url(#cp50)"/><polyline stroke="#505050" stroke-miterlimit="8" stroke-width="15" points="6038 654 6106 843 5914 784"/><polyline stroke="#9f9f9f" stroke-linejoin="round" stroke-width="15" points="1132 2953 1230 2951"/><defs><clipPath id="cp51"><path d="M -3621,-35 H 6337 V 3145 H -3621 z M 292,808 38,971 60,670 -5,1008 26,1027z" clip-rule="evenodd"/></clipPath></defs><polyline stroke="#000" stroke-linejoin="round" stroke-width="30" points="515 166 20 1002" clip-path="url(#cp51)"/><polyline stroke="#000" stroke-miterlimit="8" stroke-width="30" points="292 808 38 971 60 670"/><polyline stroke="#9f9f9f" stroke-linejoin="round" stroke-width="15" points="454 407 282 558"/><defs><clipPath id="cp52"><path d="M -3621,-35 H 6337 V 3145 H -3621 z M -3412,840 -3581,949 -3567,748 -3604,968 -3586,978z" clip-rule="evenodd"/></clipPath></defs><polyline stroke="#505050" stroke-linejoin="round" stroke-width="15" points="-3108 151 -3590 964" clip-path="url(#cp52)"/><polyline stroke="#505050" stroke-miterlimit="8" stroke-width="15" points="-3412 840 -3581 949 -3567 748"/><polyline stroke="#9f9f9f" stroke-linejoin="round" stroke-width="15" points="-3168 385 -3335 532"/><polyline stroke="#9f9f9f" stroke-linejoin="round" stroke-width="15" points="6176 1681 6181 1614"/><polyline stroke="#9f9f9f" stroke-linejoin="round" stroke-width="15" points="-2448 2820 -2414 2860"/><defs><clipPath id="cp53"><path d="M -3621,-35 H 6337 V 3145 H -3621 z M 380,2958 211,2849 400,2780 184,2835 181,2856z" clip-rule="evenodd"/></clipPath></defs><polyline stroke="#505050" stroke-linejoin="round" stroke-width="15" points="2097 3060 193 2847" clip-path="url(#cp53)"/><polyline stroke="#505050" stroke-miterlimit="8" stroke-width="15" points="380 2958 211 2849 400 2780"/><defs><clipPath id="cp54"><path d="M -3621,-35 H 6337 V 3145 H -3621 z M 499,147 667,36 655,237 690,17 672,7z" clip-rule="evenodd"/></clipPath></defs><polyline stroke="#505050" stroke-linejoin="round" stroke-width="15" points="199 844 676 21" clip-path="url(#cp54)"/><polyline stroke="#505050" stroke-miterlimit="8" stroke-width="15" points="499 147 667 36 655 237"/><defs><clipPath id="cp55"><path d="M -3621,-35 H 6337 V 3145 H -3621 z M -3129,136 -2961,25 -2973,226 -2938,6 -2956,-4z" clip-rule="evenodd"/></clipPath></defs><polyline stroke="#505050" stroke-linejoin="round" stroke-width="15" points="-3416 811 -2952 10" clip-path="url(#cp55)"/><polyline stroke="#505050" stroke-miterlimit="8" stroke-width="15" points="-3129 136 -2961 25 -2973 226"/><defs><clipPath id="cp56"><path d="M -3621,-35 H 6337 V 3145 H -3621 z M 6225,2098 6119,2268 6046,2081 6106,2295 6126,2297z" clip-rule="evenodd"/></clipPath></defs><polyline stroke="#505050" stroke-linejoin="round" stroke-width="15" points="6239 1011 6117 2286" clip-path="url(#cp56)"/><polyline stroke="#505050" stroke-miterlimit="8" stroke-width="15" points="6225 2098 6119 2268 6046 2081"/><defs><clipPath id="cp57"><path d="M -3621,-35 H 6337 V 3145 H -3621 z M -3182,2829 -3350,2719 -3161,2650 -3377,2705 -3380,2726z" clip-rule="evenodd"/></clipPath></defs><polyline stroke="#505050" stroke-linejoin="round" stroke-width="15" points="-1508 2926 -3368 2717" clip-path="url(#cp57)"/><polyline stroke="#505050" stroke-miterlimit="8" stroke-width="15" points="-3182 2829 -3350 2719 -3161 2650"/><defs><clipPath id="cp58"><path d="M -3621,-35 H 6337 V 3145 H -3621 z M 197,2477 118,2662 18,2488 109,2691 130,2690z" clip-rule="evenodd"/></clipPath></defs><polyline stroke="#505050" stroke-linejoin="round" stroke-width="15" points="20 1002 119 2680" clip-path="url(#cp58)"/><polyline stroke="#505050" stroke-miterlimit="8" stroke-width="15" points="197 2477 118 2662 18 2488"/><polyline stroke="#9f9f9f" stroke-linejoin="round" stroke-width="15" points="5187 2132 5166 1989"/><defs><clipPath id="cp59"><path d="M -3621,-35 H 6337 V 3145 H -3621 z M -3416,2394 -3495,2579 -3595,2405 -3504,2608 -3483,2607z" clip-rule="evenodd"/></clipPath></defs><polyline stroke="#505050" stroke-linejoin="round" stroke-width="15" points="-3590 964 -3494 2597" clip-path="url(#cp59)"/><polyline stroke="#505050" stroke-miterlimit="8" stroke-width="15" points="-3416 2394 -3495 2579 -3595 2405"/><defs><clipPath id="cp60"><path d="M -3621,-35 H 6337 V 3145 H -3621 z M 4588,1805 4424,1552 4725,1573 4384,1499 4358,1543z" clip-rule="evenodd"/></clipPath></defs><polyline stroke="#000" stroke-linejoin="round" stroke-width="45" points="5826 2378 4393 1534" clip-path="url(#cp60)"/><polyline stroke="#000" stroke-miterlimit="8" stroke-width="30" points="4588 1805 4424 1552 4725 1573"/><polyline stroke="#9f9f9f" stroke-linejoin="round" stroke-width="15" points="2563 749 2384 564"/><polyline stroke="#9f9f9f" stroke-linejoin="round" stroke-width="15" points="145 2038 72 1873"/><defs><clipPath id="cp61"><path d="M -3621,-35 H 6337 V 3145 H -3621 z M 5878,2071 5985,2242 5784,2225 6003,2265 6014,2248z" clip-rule="evenodd"/></clipPath></defs><polyline stroke="#505050" stroke-linejoin="round" stroke-width="15" points="4581 1385 6000 2251" clip-path="url(#cp61)"/><polyline stroke="#505050" stroke-miterlimit="8" stroke-width="15" points="5878 2071 5985 2242 5784 2225"/><polyline stroke="#9f9f9f" stroke-linejoin="round" stroke-width="15" points="5464 1887 5347 1854"/><polyline stroke="#9f9f9f" stroke-linejoin="round" stroke-width="15" points="-1117 718 -1291 538"/><defs><clipPath id="cp62"><path d="M -3621,-35 H 6337 V 3145 H -3621 z M 2529,506 2660,352 2704,549 2677,327 2656,322z" clip-rule="evenodd"/></clipPath></defs><polyline stroke="#505050" stroke-linejoin="round" stroke-width="15" points="2447 1220 2664 335" clip-path="url(#cp62)"/><polyline stroke="#505050" stroke-miterlimit="8" stroke-width="15" points="2529 506 2660 352 2704 549"/><defs><clipPath id="cp63"><path d="M -3621,-35 H 6337 V 3145 H -3621 z M -1152,486 -1022,332 -978,529 -1005,307 -1026,302z" clip-rule="evenodd"/></clipPath></defs><polyline stroke="#505050" stroke-linejoin="round" stroke-width="15" points="-1229 1177 -1018 315" clip-path="url(#cp63)"/><polyline stroke="#505050" stroke-miterlimit="8" stroke-width="15" points="-1152 486 -1022 332 -978 529"/><polyline stroke="#9f9f9f" stroke-linejoin="round" stroke-width="15" points="-3410 1926 -3540 1811"/><defs><clipPath id="cp64"><path d="M -3621,-35 H 6337 V 3145 H -3621 z M 2394,859 2259,1008 2220,810 2241,1032 2261,1038z" clip-rule="evenodd"/></clipPath></defs><polyline stroke="#505050" stroke-linejoin="round" stroke-width="15" points="2495 158 2254 1025" clip-path="url(#cp64)"/><polyline stroke="#505050" stroke-miterlimit="8" stroke-width="15" points="2394 859 2259 1008 2220 810"/><defs><clipPath id="cp65"><path d="M -3621,-35 H 6337 V 3145 H -3621 z M 5724,2337 5836,2505 5635,2493 5855,2528 5865,2510z" clip-rule="evenodd"/></clipPath></defs><polyline stroke="#505050" stroke-linejoin="round" stroke-width="15" points="4407 1684 5851 2514" clip-path="url(#cp65)"/><polyline stroke="#505050" stroke-miterlimit="8" stroke-width="15" points="5724 2337 5836 2505 5635 2493"/><defs><clipPath id="cp66"><path d="M -3621,-35 H 6337 V 3145 H -3621 z M 17,1366 96,1181 196,1355 105,1152 84,1153z" clip-rule="evenodd"/></clipPath></defs><polyline stroke="#505050" stroke-linejoin="round" stroke-width="15" points="193 2847 95 1163" clip-path="url(#cp66)"/><polyline stroke="#505050" stroke-miterlimit="8" stroke-width="15" points="17 1366 96 1181 196 1355"/><defs><clipPath id="cp67"><path d="M -3621,-35 H 6337 V 3145 H -3621 z M -1277,820 -1412,970 -1451,772 -1430,994 -1410,1000z" clip-rule="evenodd"/></clipPath></defs><polyline stroke="#505050" stroke-linejoin="round" stroke-width="15" points="-1183 143 -1417 987" clip-path="url(#cp67)"/><polyline stroke="#505050" stroke-miterlimit="8" stroke-width="15" points="-1277 820 -1412 970 -1451 772"/><polyline stroke="#9f9f9f" stroke-linejoin="round" stroke-width="15" points="4083 1095 3936 1133"/><defs><clipPath id="cp68"><path d="M -3621,-35 H 6337 V 3145 H -3621 z M 3851,924 3820,726 3998,820 3812,696 3795,709z" clip-rule="evenodd"/></clipPath></defs><polyline stroke="#505050" stroke-linejoin="round" stroke-width="15" points="4393 1534 3810 711" clip-path="url(#cp68)"/><polyline stroke="#505050" stroke-miterlimit="8" stroke-width="15" points="3851 924 3820 726 3998 820"/><defs><clipPath id="cp69"><path d="M -3621,-35 H 6337 V 3145 H -3621 z M 4819,1595 4712,1424 4913,1442 4694,1401 4683,1418z" clip-rule="evenodd"/></clipPath></defs><polyline stroke="#505050" stroke-linejoin="round" stroke-width="15" points="6117 2286 4697 1415" clip-path="url(#cp69)"/><polyline stroke="#505050" stroke-miterlimit="8" stroke-width="15" points="4819 1595 4712 1424 4913 1442"/><defs><clipPath id="cp70"><path d="M -3621,-35 H 6337 V 3145 H -3621 z M 4536,1172 4570,1371 4391,1279 4579,1400 4596,1387z" clip-rule="evenodd"/></clipPath></defs><polyline stroke="#505050" stroke-linejoin="round" stroke-width="15" points="3983 576 4581 1385" clip-path="url(#cp70)"/><polyline stroke="#505050" stroke-miterlimit="8" stroke-width="15" points="4536 1172 4570 1371 4391 1279"/><defs><clipPath id="cp71"><path d="M -3621,-35 H 6337 V 3145 H -3621 z M -3577,1383 -3457,1106 -3307,1368 -3435,1043 -3486,1046z" clip-rule="evenodd"/></clipPath></defs><polyline stroke="#000" stroke-linejoin="round" stroke-width="45" points="-3368 2717 -3459 1070" clip-path="url(#cp71)"/><polyline stroke="#000" stroke-miterlimit="8" stroke-width="30" points="-3577 1383 -3457 1106 -3307 1368"/><polyline stroke="#9f9f9f" stroke-linejoin="round" stroke-width="15" points="4256 821 4263 954"/><defs><clipPath id="cp72"><path d="M -3621,-35 H 6337 V 3145 H -3621 z M 4200,1361 4227,1560 4051,1462 4234,1590 4252,1578z" clip-rule="evenodd"/></clipPath></defs><polyline stroke="#505050" stroke-linejoin="round" stroke-width="15" points="3671 743 4237 1575" clip-path="url(#cp72)"/><polyline stroke="#505050" stroke-miterlimit="8" stroke-width="15" points="4200 1361 4227 1560 4051 1462"/><defs><clipPath id="cp73"><path d="M -3621,-35 H 6337 V 3145 H -3621 z M 1968,2752 2071,3036 1782,2948 2098,3085 2122,3059z" clip-rule="evenodd"/></clipPath></defs><polyline stroke="#000" stroke-linejoin="round" stroke-width="30" points="95 1163 2097 3060" clip-path="url(#cp73)"/><polyline stroke="#000" stroke-miterlimit="8" stroke-width="30" points="1968 2752 2071 3036 1782 2948"/><defs><clipPath id="cp74"><path d="M -3621,-35 H 6337 V 3145 H -3621 z M 4021,659 3985,461 4165,551 3976,432 3959,445z" clip-rule="evenodd"/></clipPath></defs><polyline stroke="#505050" stroke-linejoin="round" stroke-width="15" points="4577 1248 3974 447" clip-path="url(#cp74)"/><polyline stroke="#505050" stroke-miterlimit="8" stroke-width="15" points="4021 659 3985 461 4165 551"/><polyline stroke="#9f9f9f" stroke-linejoin="round" stroke-width="15" points="1122 2137 1248 2042"/><defs><clipPath id="cp75"><path d="M -3621,-35 H 6337 V 3145 H -3621 z M 4381,2654 4300,2838 4201,2663 4291,2867 4312,2866z" clip-rule="evenodd"/></clipPath></defs><polyline stroke="#505050" stroke-linejoin="round" stroke-width="15" points="4237 1575 4301 2856" clip-path="url(#cp75)"/><polyline stroke="#505050" stroke-miterlimit="8" stroke-width="15" points="4381 2654 4300 2838 4201 2663"/><polyline stroke="#9f9f9f" stroke-linejoin="round" stroke-width="15" points="4431 2356 4271 2249"/><defs><clipPath id="cp76"><path d="M -3621,-35 H 6337 V 3145 H -3621 z M 2348,1414 2446,1238 2528,1422 2458,1210 2437,1209z" clip-rule="evenodd"/></clipPath></defs><polyline stroke="#505050" stroke-linejoin="round" stroke-width="15" points="2370 2929 2447 1220" clip-path="url(#cp76)"/><polyline stroke="#505050" stroke-miterlimit="8" stroke-width="15" points="2348 1414 2446 1238 2528 1422"/><defs><clipPath id="cp77"><path d="M -3621,-35 H 6337 V 3145 H -3621 z M 298,1261 230,1071 422,1130 217,1044 202,1059z" clip-rule="evenodd"/></clipPath></defs><polyline stroke="#505050" stroke-linejoin="round" stroke-width="15" points="2224 2975 217 1059" clip-path="url(#cp77)"/><polyline stroke="#505050" stroke-miterlimit="8" stroke-width="15" points="298 1261 230 1071 422 1130"/><defs><clipPath id="cp78"><path d="M -3621,-35 H 6337 V 3145 H -3621 z M -1328,1370 -1230,1195 -1148,1379 -1218,1167 -1239,1166z" clip-rule="evenodd"/></clipPath></defs><polyline stroke="#505050" stroke-linejoin="round" stroke-width="15" points="-1305 2839 -1229 1177" clip-path="url(#cp78)"/><polyline stroke="#505050" stroke-miterlimit="8" stroke-width="15" points="-1328 1370 -1230 1195 -1148 1379"/><defs><clipPath id="cp79"><path d="M -3621,-35 H 6337 V 3145 H -3621 z M 4324,1885 4408,1702 4504,1878 4417,1673 4396,1674z" clip-rule="evenodd"/></clipPath></defs><polyline stroke="#505050" stroke-linejoin="round" stroke-width="15" points="4454 2961 4407 1684" clip-path="url(#cp79)"/><polyline stroke="#505050" stroke-miterlimit="8" stroke-width="15" points="4324 1885 4408 1702 4504 1878"/><polyline stroke="#9f9f9f" stroke-linejoin="round" stroke-width="15" points="2408 2107 2256 2143"/><polyline stroke="#9f9f9f" stroke-linejoin="round" stroke-width="15" points="-1268 2040 -1479 2121"/><defs><clipPath id="cp80"><path d="M -3621,-35 H 6337 V 3145 H -3621 z M -1411,2732 -1507,2908 -1591,2725 -1519,2936 -1498,2937z" clip-rule="evenodd"/></clipPath></defs><polyline stroke="#505050" stroke-linejoin="round" stroke-width="15" points="-1448 1252 -1508 2926" clip-path="url(#cp80)"/><polyline stroke="#505050" stroke-miterlimit="8" stroke-width="15" points="-1411 2732 -1507 2908 -1591 2725"/><defs><clipPath id="cp81"><path d="M -3621,-35 H 6337 V 3145 H -3621 z M 2322,2781 2225,2957 2142,2774 2213,2985 2234,2986z" clip-rule="evenodd"/></clipPath></defs><polyline stroke="#505050" stroke-linejoin="round" stroke-width="15" points="2292 1246 2224 2975" clip-path="url(#cp81)"/><polyline stroke="#505050" stroke-miterlimit="8" stroke-width="15" points="2322 2781 2225 2957 2142 2774"/><defs><clipPath id="cp82"><path d="M -3621,-35 H 6337 V 3145 H -3621 z M 4791,1286 4594,1244 4746,1112 4564,1240 4569,1261z" clip-rule="evenodd"/></clipPath></defs><polyline stroke="#505050" stroke-linejoin="round" stroke-width="15" points="6119 855 4577 1248" clip-path="url(#cp82)"/><polyline stroke="#505050" stroke-miterlimit="8" stroke-width="15" points="4791 1286 4594 1244 4746 1112"/><polyline stroke="#9f9f9f" stroke-linejoin="round" stroke-width="15" points="5491 1207 5371 1045"/><defs><clipPath id="cp83"><path d="M -3621,-35 H 6337 V 3145 H -3621 z M 6025,974 6222,1016 6070,1148 6252,1018 6246,998z" clip-rule="evenodd"/></clipPath></defs><polyline stroke="#505050" stroke-linejoin="round" stroke-width="15" points="4697 1415 6239 1011" clip-path="url(#cp83)"/><polyline stroke="#505050" stroke-miterlimit="8" stroke-width="15" points="6025 974 6222 1016 6070 1148"/><defs><clipPath id="cp84"><path d="M -3621,-35 H 6337 V 3145 H -3621 z M 388,951 217,846 404,772 189,833 188,854z" clip-rule="evenodd"/></clipPath></defs><polyline stroke="#505050" stroke-linejoin="round" stroke-width="15" points="2254 1025 199 844" clip-path="url(#cp84)"/><polyline stroke="#505050" stroke-miterlimit="8" stroke-width="15" points="388 951 217 846 404 772"/><defs><clipPath id="cp85"><path d="M -3621,-35 H 6337 V 3145 H -3621 z M -3227,918 -3398,813 -3211,739 -3426,800 -3427,821z" clip-rule="evenodd"/></clipPath></defs><polyline stroke="#505050" stroke-linejoin="round" stroke-width="15" points="-1417 987 -3416 811" clip-path="url(#cp85)"/><polyline stroke="#505050" stroke-miterlimit="8" stroke-width="15" points="-3227 918 -3398 813 -3211 739"/><polyline stroke="#9f9f9f" stroke-linejoin="round" stroke-width="15" points="1242 1151 1214 934"/><polyline stroke="#9f9f9f" stroke-linejoin="round" stroke-width="15" points="-2466 1159 -2429 898"/><defs><clipPath id="cp86"><path d="M -3621,-35 H 6337 V 3145 H -3621 z M -1637,1145 -1466,1250 -1653,1324 -1438,1263 -1437,1242z" clip-rule="evenodd"/></clipPath></defs><polyline stroke="#505050" stroke-linejoin="round" stroke-width="15" points="-3459 1070 -1448 1252" clip-path="url(#cp86)"/><polyline stroke="#505050" stroke-miterlimit="8" stroke-width="15" points="-1637 1145 -1466 1250 -1653 1324"/><defs><clipPath id="cp87"><path d="M -3621,-35 H 6337 V 3145 H -3621 z M 2103,1139 2274,1244 2087,1318 2302,1257 2303,1236z" clip-rule="evenodd"/></clipPath></defs><polyline stroke="#505050" stroke-linejoin="round" stroke-width="15" points="217 1059 2292 1246" clip-path="url(#cp87)"/><polyline stroke="#505050" stroke-miterlimit="8" stroke-width="15" points="2103 1139 2274 1244 2087 1318"/><polyline stroke="#000" stroke-width="8" points="-3403 1783 -3330 1706"/><polyline stroke="#000" stroke-width="8" points="-2867 716 -2807 656"/><polyline stroke="#000" stroke-width="15" points="4869 2064 4953 1875"/><text x="-2838" y="641" fill="#000" font-family="Times" font-size="216" font-style="normal" font-weight="normal" text-anchor="start" xml:space="preserve">d2</text><text x="-3375" y="1620" fill="#000" font-family="Times" font-size="216" font-style="normal" font-weight="normal" text-anchor="start" xml:space="preserve">d1</text><text x="4672" y="2326" fill="#000" font-family="Times" font-size="216" font-style="normal" font-weight="normal" text-anchor="start" xml:space="preserve">d3</text></g></svg>