<svg xmlns="http://www.w3.org/2000/svg" xmlns:xlink="http://www.w3.org/1999/xlink" width="880" height="328pt" viewBox="-5213 -17 10470 5196"><g fill="none"><polyline fill="#fff" stroke="#000" stroke-linejoin="round" stroke-width="15" points="4937 5157 5101 3692 3218 1961 2530 3042 4937 5157"/><polyline fill="#fff" stroke="#000" stroke-linejoin="round" stroke-width="15" points="3218 1961 1342 2326 197 3455 2530 3042 3218 1961"/><polyline fill="gray" stroke="#000" stroke-linejoin="round" stroke-width="15" points="3090 1747 3047 5 2185 648 2358 2783 3090 1747"/><polyline fill="#ddd" stroke="#000" stroke-linejoin="round" stroke-width="15" points="5235 3591 3341 1839 3328 109 5235 3591"/><polyline fill="#ddd" stroke="#000" stroke-linejoin="round" stroke-width="15" points="3328 109 5235 3591 5103 5046 2557 785 3328 109"/><polyline fill="#fff" stroke="#000" stroke-linejoin="round" stroke-width="15" points="4937 5157 197 3455 2530 3042 4937 5157"/><polyline fill="gray" stroke="#000" stroke-linejoin="round" stroke-width="15" points="2185 648 2358 2783 5 3213 2185 648"/><polyline fill="gray" stroke="#000" stroke-linejoin="round" stroke-width="8" points="-3015 1011 -2935 2200 -4955 2593 -4733 904 -3015 1015"/><polyline fill="#ddd" stroke="#000" stroke-linejoin="round" stroke-width="8" points="-2904 2461 -4780 2811 -2403 3692 -2900 2453"/><polyline fill="#fff" stroke="#000" stroke-linejoin="round" stroke-width="8" points="-2134 3592 -1266 2421 -1832 1093 -2806 1029 -2638 2271 -2134 3598"/><polyline fill="#ddd" stroke="#000" stroke-linejoin="round" stroke-width="15" points="5103 5046 5235 3591 5103 5046"/><polyline fill="#ddd" stroke="#000" stroke-linejoin="round" stroke-width="15" points="2679 2900 2557 785 5103 5046 2679 2900"/><circle cx="-2800" cy="2318" r="130" fill="#000" stroke="#000" stroke-width="8"/><circle cx="-2197" cy="3849" r="130" fill="#000" stroke="#000" stroke-width="8"/><circle cx="-1091" cy="2370" r="130" fill="#000" stroke="#000" stroke-width="8"/><circle cx="-1709" cy="978" r="130" fill="#000" stroke="#000" stroke-width="8"/><circle cx="-2914" cy="884" r="130" fill="#000" stroke="#000" stroke-width="8"/><circle cx="-4852" cy="777" r="130" fill="#000" stroke="#000" stroke-width="8"/><circle cx="-5075" cy="2743" r="130" fill="#000" stroke="#000" stroke-width="8"/><polyline stroke="#000" stroke-width="60" points="-2800 2137 -2908 1085"/><polyline stroke="#000" stroke-width="60" points="-2275 3643 -2720 2480"/><polyline stroke="#000" stroke-width="60" points="-4856 2699 -2981 2342"/><polyline stroke="#000" stroke-width="60" points="-4656 783 -3132 879"/><polyline stroke="#000" stroke-width="60" points="-2754 921 -1871 982"/><polyline stroke="#000" stroke-width="60" points="-1632 1134 -1185 2223"/><polyline stroke="#000" stroke-width="60" points="-1157 2549 -2028 3719"/><polyline stroke="#000" stroke-width="60" points="-4874 958 -5094 2521"/><polyline stroke="#000" stroke-width="60" points="-4932 2884 -2400 3843"/><polyline stroke="#000" stroke-width="8" points="-2862 1502 -2722 1497"/><polyline stroke="#000" stroke-width="8" points="-2536 2876 -2382 2839"/><polyline stroke="#000" stroke-width="8" points="-2676 2294 -2518 2261"/><polyline stroke="#000" stroke-width="8" points="-3831 2508 -3803 2713"/><circle cx="2442" cy="3009" r="151" fill="#000" stroke="#000" stroke-width="8"/><polyline stroke="#000" stroke-width="60" points="2432 2932 2667 2588"/><polyline stroke="#000" stroke-dasharray="20 20" stroke-width="60" points="2448 2910 3145 1889"/><defs><clipPath id="cp0"><path d="M -5213,-17 H 5257 V 5179 H -5213 z M 3928,1471 3833,1504 3864,1408 3817,1510 3827,1520z" clip-rule="evenodd"/></clipPath></defs><polyline stroke="#5a5a5a" stroke-dasharray="10 10" stroke-width="8" points="4352 977 3827 1510" clip-path="url(#cp0)"/><polyline stroke="#5a5a5a" stroke-miterlimit="8" stroke-width="8" points="3928 1471 3833 1504 3864 1408"/><defs><clipPath id="cp1"><path d="M -5213,-17 H 5257 V 5179 H -5213 z M 3009,380 2912,355 2990,292 2895,352 2898,365z" clip-rule="evenodd"/></clipPath></defs><polyline stroke="#5a5a5a" stroke-dasharray="10 10" stroke-width="8" points="3696 181 2903 357" clip-path="url(#cp1)"/><polyline stroke="#5a5a5a" stroke-miterlimit="8" stroke-width="8" points="3009 380 2912 355 2990 292"/><text x="-4027" y="1646" fill="#000" font-family="Times" font-size="228" font-style="normal" font-weight="bold" text-anchor="start" xml:space="preserve">f1</text><text x="-2695" y="1565" fill="#000" font-family="Times" font-size="228" font-style="normal" font-weight="bold" text-anchor="start" xml:space="preserve">e1</text><text x="-2374" y="2868" fill="#000" font-family="Times" font-size="228" font-style="normal" font-weight="bold" text-anchor="start" xml:space="preserve">e3</text><text x="-3356" y="3039" fill="#000" font-family="Times" font-size="228" font-style="normal" font-weight="bold" text-anchor="start" xml:space="preserve">f3</text><text x="-3918" y="2897" fill="#000" font-family="Times" font-size="228" font-style="normal" font-weight="bold" text-anchor="start" xml:space="preserve">e2</text><text x="-2555" y="2235" fill="#000" font-family="Times" font-size="228" font-style="normal" font-weight="bold" text-anchor="start" xml:space="preserve">v1</text><text x="-2066" y="2099" fill="#000" font-family="Times" font-size="228" font-style="normal" font-weight="bold" text-anchor="start" xml:space="preserve">f2</text><text x="3870" y="2708" fill="#000" font-family="Times" font-size="264" font-style="normal" font-weight="bold" text-anchor="start" xml:space="preserve">vol2</text><text x="2863" y="2610" fill="#000" font-family="Times" font-size="264" font-style="normal" font-weight="bold" text-anchor="start" xml:space="preserve">e4</text><text x="1308" y="2444" fill="#000" font-family="Times" font-size="264" font-style="normal" font-weight="bold" text-anchor="start" xml:space="preserve">vol1</text><text x="2258" y="3968" fill="#000" font-family="Times" font-size="264" font-style="normal" font-weight="bold" text-anchor="start" xml:space="preserve">vol3</text><text x="2220" y="3450" fill="#000" font-family="Times" font-size="264" font-style="normal" font-weight="bold" text-anchor="start" xml:space="preserve">v2</text><text x="4381" y="953" fill="#000" font-family="Times" font-size="264" font-style="normal" font-weight="bold" text-anchor="start" xml:space="preserve">f5</text><text x="3755" y="251" fill="#000" font-family="Times" font-size="264" font-style="normal" font-weight="bold" text-anchor="start" xml:space="preserve">f4</text></g></svg>