<svg xmlns="http://www.w3.org/2000/svg" xmlns:xlink="http://www.w3.org/1999/xlink" width="794pt" height="311pt" viewBox="-406 -308 12589 4925"><g fill="none"><defs><clipPath id="cp0"><path d="M -406,-308 H 12183 V 4617 H -406 z M 2227,1830 2331,1914 2201,1948 2345,1924 2348,1911z" clip-rule="evenodd"/></clipPath></defs><polyline stroke="#000" stroke-linejoin="round" stroke-width="8" points="821 1591 2340 1916" clip-path="url(#cp0)"/><polyline stroke="#000" stroke-miterlimit="8" stroke-width="8" points="2227 1830 2331 1914 2201 1948"/><defs><clipPath id="cp1"><path d="M -406,-308 H 12183 V 4617 H -406 z M 6883,2091 6827,2213 6763,2095 6820,2229 6834,2229z" clip-rule="evenodd"/></clipPath></defs><polyline stroke="#000" stroke-linejoin="round" stroke-width="8" points="6773 649 6827 2222" clip-path="url(#cp1)"/><polyline stroke="#000" stroke-miterlimit="8" stroke-width="8" points="6883 2091 6827 2213 6763 2095"/><defs><clipPath id="cp2"><path d="M -406,-308 H 12183 V 4617 H -406 z M 901,1798 797,1714 927,1681 783,1704 780,1717z" clip-rule="evenodd"/></clipPath></defs><polyline stroke="#000" stroke-linejoin="round" stroke-width="8" points="2308 2043 788 1712" clip-path="url(#cp2)"/><polyline stroke="#000" stroke-miterlimit="8" stroke-width="8" points="901 1798 797 1714 927 1681"/><defs><clipPath id="cp3"><path d="M -406,-308 H 12183 V 4617 H -406 z M 6590,786 6645,664 6710,782 6651,648 6638,649z" clip-rule="evenodd"/></clipPath></defs><polyline stroke="#000" stroke-linejoin="round" stroke-width="8" points="6705 2232 6645 655" clip-path="url(#cp3)"/><polyline stroke="#000" stroke-miterlimit="8" stroke-width="8" points="6590 786 6645 664 6710 782"/><defs><clipPath id="cp4"><path d="M -406,-308 H 12183 V 4617 H -406 z M 8105,2385 8213,2464 8085,2503 8227,2474 8230,2461z" clip-rule="evenodd"/></clipPath></defs><polyline stroke="#000" stroke-linejoin="round" stroke-width="8" points="6827 2222 8222 2466" clip-path="url(#cp4)"/><polyline stroke="#000" stroke-miterlimit="8" stroke-width="8" points="8105 2385 8213 2464 8085 2503"/><defs><clipPath id="cp5"><path d="M -406,-308 H 12183 V 4617 H -406 z M 6896,2410 6789,2330 6918,2292 6775,2320 6772,2333z" clip-rule="evenodd"/></clipPath></defs><polyline stroke="#000" stroke-linejoin="round" stroke-width="8" points="8178 2581 6780 2328" clip-path="url(#cp5)"/><polyline stroke="#000" stroke-miterlimit="8" stroke-width="8" points="6896 2410 6789 2330 6918 2292"/><defs><clipPath id="cp6"><path d="M -406,-308 H 12183 V 4617 H -406 z M 870,1457 820,1582 750,1468 815,1598 828,1597z" clip-rule="evenodd"/></clipPath></defs><polyline stroke="#000" stroke-linejoin="round" stroke-width="8" points="691 99 821 1591" clip-path="url(#cp6)"/><polyline stroke="#000" stroke-miterlimit="8" stroke-width="8" points="870 1457 820 1582 750 1468"/><defs><clipPath id="cp7"><path d="M -406,-308 H 12183 V 4617 H -406 z M 510,258 558,133 629,247 563,117 550,118z" clip-rule="evenodd"/></clipPath></defs><polyline stroke="#000" stroke-linejoin="round" stroke-width="8" points="700 1620 557 124" clip-path="url(#cp7)"/><polyline stroke="#000" stroke-miterlimit="8" stroke-width="8" points="510 258 558 133 629 247"/><defs><clipPath id="cp8"><path d="M -406,-308 H 12183 V 4617 H -406 z M 6563,2231 6697,2236 6613,2340 6714,2235 6708,2223z" clip-rule="evenodd"/></clipPath></defs><polyline stroke="#000" stroke-linejoin="round" stroke-width="8" points="5671 2704 6705 2232" clip-path="url(#cp8)"/><polyline stroke="#000" stroke-miterlimit="8" stroke-width="8" points="6563 2231 6697 2236 6613 2340"/><defs><clipPath id="cp9"><path d="M -406,-308 H 12183 V 4617 H -406 z M 103,2609 -20,2661 12,2531 -36,2669 -25,2678z" clip-rule="evenodd"/></clipPath></defs><polyline stroke="#000" stroke-linejoin="round" stroke-width="8" points="788 1712 -26 2668" clip-path="url(#cp9)"/><polyline stroke="#000" stroke-miterlimit="8" stroke-width="8" points="103 2609 -20 2661 12 2531"/><defs><clipPath id="cp10"><path d="M -406,-308 H 12183 V 4617 H -406 z M 5898,2813 5764,2810 5847,2705 5747,2811 5753,2823z" clip-rule="evenodd"/></clipPath></defs><polyline stroke="#000" stroke-linejoin="round" stroke-width="8" points="6780 2328 5756 2814" clip-path="url(#cp10)"/><polyline stroke="#000" stroke-miterlimit="8" stroke-width="8" points="5898 2813 5764 2810 5847 2705"/><defs><clipPath id="cp11"><path d="M -406,-308 H 12183 V 4617 H -406 z M 570,1678 694,1627 660,1757 710,1619 699,1610z" clip-rule="evenodd"/></clipPath></defs><polyline stroke="#000" stroke-linejoin="round" stroke-width="8" points="-128 2567 700 1620" clip-path="url(#cp11)"/><polyline stroke="#000" stroke-miterlimit="8" stroke-width="8" points="570 1678 694 1627 660 1757"/><defs><clipPath id="cp12"><path d="M -406,-308 H 12183 V 4617 H -406 z M 4311,2277 4415,2361 4285,2395 4429,2371 4432,2358z" clip-rule="evenodd"/></clipPath></defs><polyline stroke="#000" stroke-linejoin="round" stroke-width="8" points="2717 1997 4424 2363" clip-path="url(#cp12)"/><polyline stroke="#000" stroke-miterlimit="8" stroke-width="8" points="4311 2277 4415 2361 4285 2395"/><defs><clipPath id="cp13"><path d="M -406,-308 H 12183 V 4617 H -406 z M 2798,2212 2694,2128 2824,2095 2680,2118 2677,2131z" clip-rule="evenodd"/></clipPath></defs><polyline stroke="#000" stroke-linejoin="round" stroke-width="8" points="4393 2498 2685 2126" clip-path="url(#cp13)"/><polyline stroke="#000" stroke-miterlimit="8" stroke-width="8" points="2798 2212 2694 2128 2824 2095"/><defs><clipPath id="cp14"><path d="M -406,-308 H 12183 V 4617 H -406 z M 6896,720 6782,650 6907,601 6767,642 6766,655z" clip-rule="evenodd"/></clipPath></defs><polyline stroke="#000" stroke-linejoin="round" stroke-width="8" points="8246 781 6773 649" clip-path="url(#cp14)"/><polyline stroke="#000" stroke-miterlimit="8" stroke-width="8" points="6896 720 6782 650 6907 601"/><defs><clipPath id="cp15"><path d="M -406,-308 H 12183 V 4617 H -406 z M 8184,909 8246,790 8304,911 8253,774 8239,774z" clip-rule="evenodd"/></clipPath></defs><polyline stroke="#000" stroke-linejoin="round" stroke-width="8" points="8222 2466 8246 781" clip-path="url(#cp15)"/><polyline stroke="#000" stroke-miterlimit="8" stroke-width="8" points="8184 909 8246 790 8304 911"/><defs><clipPath id="cp16"><path d="M -406,-308 H 12183 V 4617 H -406 z M 8079,624 8193,694 8068,744 8208,702 8209,689z" clip-rule="evenodd"/></clipPath></defs><polyline stroke="#000" stroke-linejoin="round" stroke-width="8" points="6717 569 8202 695" clip-path="url(#cp16)"/><polyline stroke="#000" stroke-miterlimit="8" stroke-width="8" points="8079 624 8193 694 8068 744"/><defs><clipPath id="cp17"><path d="M -406,-308 H 12183 V 4617 H -406 z M 8354,2361 8292,2480 8234,2359 8281,2499 8302,2500z" clip-rule="evenodd"/></clipPath></defs><polyline stroke="#5050ff" stroke-linejoin="round" stroke-width="15" points="8320 793 8292 2489" clip-path="url(#cp17)"/><polyline stroke="#5050ff" stroke-miterlimit="8" stroke-width="8" points="8354 2361 8292 2480 8234 2359"/><defs><clipPath id="cp18"><path d="M -406,-308 H 12183 V 4617 H -406 z M 2310,511 2373,392 2430,513 2380,376 2366,376z" clip-rule="evenodd"/></clipPath></defs><polyline stroke="#000" stroke-linejoin="round" stroke-width="8" points="2340 1916 2373 383" clip-path="url(#cp18)"/><polyline stroke="#000" stroke-miterlimit="8" stroke-width="8" points="2310 511 2373 392 2430 513"/><defs><clipPath id="cp19"><path d="M -406,-308 H 12183 V 4617 H -406 z M 8446,937 8509,819 8566,940 8520,800 8499,799z" clip-rule="evenodd"/></clipPath></defs><polyline stroke="#5050ff" stroke-linejoin="round" stroke-width="15" points="8470 2520 8509 810" clip-path="url(#cp19)"/><polyline stroke="#5050ff" stroke-miterlimit="8" stroke-width="8" points="8446 937 8509 819 8566 940"/><defs><clipPath id="cp20"><path d="M -406,-308 H 12183 V 4617 H -406 z M 8633,2399 8570,2517 8513,2396 8563,2533 8577,2533z" clip-rule="evenodd"/></clipPath></defs><polyline stroke="#000" stroke-linejoin="round" stroke-width="8" points="8615 814 8570 2526" clip-path="url(#cp20)"/><polyline stroke="#000" stroke-miterlimit="8" stroke-width="8" points="8633 2399 8570 2517 8513 2396"/><defs><clipPath id="cp21"><path d="M -406,-308 H 12183 V 4617 H -406 z M 2461,1859 2398,1977 2341,1856 2372,2011 2423,2012z" clip-rule="evenodd"/></clipPath></defs><polyline stroke="#ff5050" stroke-linejoin="round" stroke-width="45" points="2438 444 2398 1986" clip-path="url(#cp21)"/><polyline stroke="#ff5050" stroke-miterlimit="8" stroke-width="8" points="2461 1859 2398 1977 2341 1856"/><defs><clipPath id="cp22"><path d="M -406,-308 H 12183 V 4617 H -406 z M 2783,1871 2717,1988 2663,1865 2710,2003 2723,2004z" clip-rule="evenodd"/></clipPath></defs><polyline stroke="#000" stroke-linejoin="round" stroke-width="8" points="2793 454 2717 1997" clip-path="url(#cp22)"/><polyline stroke="#000" stroke-miterlimit="8" stroke-width="8" points="2783 1871 2717 1988 2663 1865"/><defs><clipPath id="cp23"><path d="M -406,-308 H 12183 V 4617 H -406 z M 2190,2122 2303,2051 2292,2184 2317,2041 2306,2034z" clip-rule="evenodd"/></clipPath></defs><polyline stroke="#000" stroke-linejoin="round" stroke-width="8" points="1667 3099 2308 2043" clip-path="url(#cp23)"/><polyline stroke="#000" stroke-miterlimit="8" stroke-width="8" points="2190 2122 2303 2051 2292 2184"/><defs><clipPath id="cp24"><path d="M -406,-308 H 12183 V 4617 H -406 z M 2596,608 2661,491 2716,613 2672,472 2651,471z" clip-rule="evenodd"/></clipPath></defs><polyline stroke="#5050ff" stroke-linejoin="round" stroke-width="15" points="2598 2029 2661 482" clip-path="url(#cp24)"/><polyline stroke="#5050ff" stroke-miterlimit="8" stroke-width="8" points="2596 608 2661 491 2716 613"/><defs><clipPath id="cp25"><path d="M -406,-308 H 12183 V 4617 H -406 z M 5676,940 5546,908 5649,823 5529,905 5532,918z" clip-rule="evenodd"/></clipPath></defs><polyline stroke="#000" stroke-linejoin="round" stroke-width="8" points="6645 655 5537 910" clip-path="url(#cp25)"/><polyline stroke="#000" stroke-miterlimit="8" stroke-width="8" points="5676 940 5546 908 5649 823"/><defs><clipPath id="cp26"><path d="M -406,-308 H 12183 V 4617 H -406 z M 10138,2740 10246,2819 10118,2858 10260,2829 10263,2816z" clip-rule="evenodd"/></clipPath></defs><polyline stroke="#000" stroke-linejoin="round" stroke-width="8" points="8570 2526 10255 2821" clip-path="url(#cp26)"/><polyline stroke="#000" stroke-miterlimit="8" stroke-width="8" points="10138 2740 10246 2819 10118 2858"/><defs><clipPath id="cp27"><path d="M -406,-308 H 12183 V 4617 H -406 z M 7909,2009 7894,1875 8009,1943 7892,1853 7874,1865z" clip-rule="evenodd"/></clipPath></defs><polyline stroke="#5050ff" stroke-linejoin="round" stroke-width="15" points="8292 2489 7889 1868" clip-path="url(#cp27)"/><polyline stroke="#5050ff" stroke-miterlimit="8" stroke-width="8" points="7909 2009 7894 1875 8009 1943"/><defs><clipPath id="cp28"><path d="M -406,-308 H 12183 V 4617 H -406 z M 8242,2425 8258,2559 8142,2492 8260,2581 8278,2569z" clip-rule="evenodd"/></clipPath></defs><polyline stroke="#5050ff" stroke-linejoin="round" stroke-width="15" points="7855 1952 8263 2566" clip-path="url(#cp28)"/><polyline stroke="#5050ff" stroke-miterlimit="8" stroke-width="8" points="8242 2425 8258 2559 8142 2492"/><defs><clipPath id="cp29"><path d="M -406,-308 H 12183 V 4617 H -406 z M 8643,2726 8536,2646 8665,2608 8522,2636 8519,2649z" clip-rule="evenodd"/></clipPath></defs><polyline stroke="#000" stroke-linejoin="round" stroke-width="8" points="10217 2950 8527 2644" clip-path="url(#cp29)"/><polyline stroke="#000" stroke-miterlimit="8" stroke-width="8" points="8643 2726 8536 2646 8665 2608"/><defs><clipPath id="cp30"><path d="M -406,-308 H 12183 V 4617 H -406 z M 1883,2963 1770,3035 1780,2902 1751,3047 1769,3057z" clip-rule="evenodd"/></clipPath></defs><polyline stroke="#5050ff" stroke-linejoin="round" stroke-width="15" points="2398 1986 1765 3043" clip-path="url(#cp30)"/><polyline stroke="#5050ff" stroke-miterlimit="8" stroke-width="8" points="1883 2963 1770 3035 1780 2902"/><defs><clipPath id="cp31"><path d="M -406,-308 H 12183 V 4617 H -406 z M 6578,538 6708,571 6604,655 6725,574 6722,561z" clip-rule="evenodd"/></clipPath></defs><polyline stroke="#000" stroke-linejoin="round" stroke-width="8" points="5611 812 6717 569" clip-path="url(#cp31)"/><polyline stroke="#000" stroke-miterlimit="8" stroke-width="8" points="6578 538 6708 571 6604 655"/><defs><clipPath id="cp32"><path d="M -406,-308 H 12183 V 4617 H -406 z M 808,180 700,100 828,61 685,91 683,105z" clip-rule="evenodd"/></clipPath></defs><polyline stroke="#000" stroke-linejoin="round" stroke-width="8" points="2373 383 691 99" clip-path="url(#cp32)"/><polyline stroke="#000" stroke-miterlimit="8" stroke-width="8" points="808 180 700 100 828 61"/><defs><clipPath id="cp33"><path d="M -406,-308 H 12183 V 4617 H -406 z M 2206,3122 2095,3198 2101,3064 2082,3209 2094,3215z" clip-rule="evenodd"/></clipPath></defs><polyline stroke="#000" stroke-linejoin="round" stroke-width="8" points="2685 2126 2091 3206" clip-path="url(#cp33)"/><polyline stroke="#000" stroke-miterlimit="8" stroke-width="8" points="2206 3122 2095 3198 2101 3064"/><defs><clipPath id="cp34"><path d="M -406,-308 H 12183 V 4617 H -406 z M 8453,2379 8465,2512 8351,2442 8467,2534 8484,2523z" clip-rule="evenodd"/></clipPath></defs><polyline stroke="#5050ff" stroke-linejoin="round" stroke-width="15" points="8082 1896 8470 2520" clip-path="url(#cp34)"/><polyline stroke="#5050ff" stroke-miterlimit="8" stroke-width="8" points="8453 2379 8465 2512 8351 2442"/><defs><clipPath id="cp35"><path d="M -406,-308 H 12183 V 4617 H -406 z M 2482,2111 2594,2037 2586,2171 2612,2025 2594,2015z" clip-rule="evenodd"/></clipPath></defs><polyline stroke="#5050ff" stroke-linejoin="round" stroke-width="15" points="1989 3100 2598 2029" clip-path="url(#cp35)"/><polyline stroke="#5050ff" stroke-miterlimit="8" stroke-width="8" points="2482 2111 2594 2037 2586 2171"/><defs><clipPath id="cp36"><path d="M -406,-308 H 12183 V 4617 H -406 z M 8067,2122 8054,1989 8169,2058 8052,1967 8035,1978z" clip-rule="evenodd"/></clipPath></defs><polyline stroke="#5050ff" stroke-linejoin="round" stroke-width="15" points="8441 2598 8049 1981" clip-path="url(#cp36)"/><polyline stroke="#5050ff" stroke-miterlimit="8" stroke-width="8" points="8067 2122 8054 1989 8169 2058"/><defs><clipPath id="cp37"><path d="M -406,-308 H 12183 V 4617 H -406 z M 8037,2600 8171,2586 8102,2701 8187,2583 8180,2572z" clip-rule="evenodd"/></clipPath></defs><polyline stroke="#000" stroke-linejoin="round" stroke-width="8" points="7287 3151 8178 2581" clip-path="url(#cp37)"/><polyline stroke="#000" stroke-miterlimit="8" stroke-width="8" points="8037 2600 8171 2586 8102 2701"/><defs><clipPath id="cp38"><path d="M -406,-308 H 12183 V 4617 H -406 z M 2224,252 2332,331 2204,370 2347,340 2349,326z" clip-rule="evenodd"/></clipPath></defs><polyline stroke="#000" stroke-linejoin="round" stroke-width="8" points="638 47 2341 332" clip-path="url(#cp38)"/><polyline stroke="#000" stroke-miterlimit="8" stroke-width="8" points="2224 252 2332 331 2204 370"/><defs><clipPath id="cp39"><path d="M -406,-308 H 12183 V 4617 H -406 z M 8216,890 8317,801 8328,935 8353,779 8306,760z" clip-rule="evenodd"/></clipPath></defs><polyline stroke="#ff5050" stroke-linejoin="round" stroke-width="45" points="7889 1868 8320 793" clip-path="url(#cp39)"/><polyline stroke="#ff5050" stroke-miterlimit="8" stroke-width="8" points="8216 890 8317 801 8328 935"/><defs><clipPath id="cp40"><path d="M -406,-308 H 12183 V 4617 H -406 z M 7520,3117 7386,3132 7455,3017 7364,3134 7376,3152z" clip-rule="evenodd"/></clipPath></defs><polyline stroke="#5050ff" stroke-linejoin="round" stroke-width="15" points="8263 2566 7379 3137" clip-path="url(#cp40)"/><polyline stroke="#5050ff" stroke-miterlimit="8" stroke-width="8" points="7520 3117 7386 3132 7455 3017"/><defs><clipPath id="cp41"><path d="M -406,-308 H 12183 V 4617 H -406 z M 7937,1701 7837,1791 7826,1657 7820,1805 7840,1813z" clip-rule="evenodd"/></clipPath></defs><polyline stroke="#5050ff" stroke-linejoin="round" stroke-width="15" points="8253 745 7834 1799" clip-path="url(#cp41)"/><polyline stroke="#5050ff" stroke-miterlimit="8" stroke-width="8" points="7937 1701 7837 1791 7826 1657"/><defs><clipPath id="cp42"><path d="M -406,-308 H 12183 V 4617 H -406 z M 8185,1798 8085,1888 8073,1754 8068,1902 8088,1910z" clip-rule="evenodd"/></clipPath></defs><polyline stroke="#5050ff" stroke-linejoin="round" stroke-width="15" points="8509 810 8082 1896" clip-path="url(#cp42)"/><polyline stroke="#5050ff" stroke-miterlimit="8" stroke-width="8" points="8185 1798 8085 1888 8073 1754"/><defs><clipPath id="cp43"><path d="M -406,-308 H 12183 V 4617 H -406 z M 8301,2620 8434,2603 8368,2720 8456,2601 8444,2583z" clip-rule="evenodd"/></clipPath></defs><polyline stroke="#5050ff" stroke-linejoin="round" stroke-width="15" points="7578 3181 8441 2598" clip-path="url(#cp43)"/><polyline stroke="#5050ff" stroke-miterlimit="8" stroke-width="8" points="8301 2620 8434 2603 8368 2720"/><defs><clipPath id="cp44"><path d="M -406,-308 H 12183 V 4617 H -406 z M 5721,2571 5670,2695 5602,2580 5665,2711 5678,2710z" clip-rule="evenodd"/></clipPath></defs><polyline stroke="#000" stroke-linejoin="round" stroke-width="8" points="5537 910 5671 2704" clip-path="url(#cp44)"/><polyline stroke="#000" stroke-miterlimit="8" stroke-width="8" points="5721 2571 5670 2695 5602 2580"/><defs><clipPath id="cp45"><path d="M -406,-308 H 12183 V 4617 H -406 z M 1557,3009 1658,3097 1527,3125 1672,3107 1675,3094z" clip-rule="evenodd"/></clipPath></defs><polyline stroke="#000" stroke-linejoin="round" stroke-width="8" points="-26 2668 1667 3099" clip-path="url(#cp45)"/><polyline stroke="#000" stroke-miterlimit="8" stroke-width="8" points="1557 3009 1658 3097 1527 3125"/><defs><clipPath id="cp46"><path d="M -406,-308 H 12183 V 4617 H -406 z M 7814,3212 7681,3231 7746,3113 7665,3234 7672,3245z" clip-rule="evenodd"/></clipPath></defs><polyline stroke="#000" stroke-linejoin="round" stroke-width="8" points="8527 2644 7674 3236" clip-path="url(#cp46)"/><polyline stroke="#000" stroke-miterlimit="8" stroke-width="8" points="7814 3212 7681 3231 7746 3113"/><defs><clipPath id="cp47"><path d="M -406,-308 H 12183 V 4617 H -406 z M 8379,851 8479,761 8490,895 8496,747 8476,739z" clip-rule="evenodd"/></clipPath></defs><polyline stroke="#5050ff" stroke-linejoin="round" stroke-width="15" points="8050 1845 8482 753" clip-path="url(#cp47)"/><polyline stroke="#5050ff" stroke-miterlimit="8" stroke-width="8" points="8379 851 8479 761 8490 895"/><defs><clipPath id="cp48"><path d="M -406,-308 H 12183 V 4617 H -406 z M 4626,893 4706,786 4744,914 4716,772 4703,769z" clip-rule="evenodd"/></clipPath></defs><polyline stroke="#000" stroke-linejoin="round" stroke-width="8" points="4424 2363 4708 777" clip-path="url(#cp48)"/><polyline stroke="#000" stroke-miterlimit="8" stroke-width="8" points="4626 893 4706 786 4744 914"/><defs><clipPath id="cp49"><path d="M -406,-308 H 12183 V 4617 H -406 z M 5497,1069 5548,945 5616,1060 5553,929 5540,930z" clip-rule="evenodd"/></clipPath></defs><polyline stroke="#000" stroke-linejoin="round" stroke-width="8" points="5683 2751 5547 936" clip-path="url(#cp49)"/><polyline stroke="#000" stroke-miterlimit="8" stroke-width="8" points="5497 1069 5548 945 5616 1060"/><defs><clipPath id="cp50"><path d="M -406,-308 H 12183 V 4617 H -406 z M 7174,3065 7278,3149 7148,3182 7292,3159 7295,3146z" clip-rule="evenodd"/></clipPath></defs><polyline stroke="#000" stroke-linejoin="round" stroke-width="8" points="5756 2814 7287 3151" clip-path="url(#cp50)"/><polyline stroke="#000" stroke-miterlimit="8" stroke-width="8" points="7174 3065 7278 3149 7148 3182"/><defs><clipPath id="cp51"><path d="M -406,-308 H 12183 V 4617 H -406 z M 19,2740 -82,2652 49,2624 -96,2642 -99,2655z" clip-rule="evenodd"/></clipPath></defs><polyline stroke="#000" stroke-linejoin="round" stroke-width="8" points="1623 3085 -91 2650" clip-path="url(#cp51)"/><polyline stroke="#000" stroke-miterlimit="8" stroke-width="8" points="19 2740 -82 2652 49 2624"/><defs><clipPath id="cp52"><path d="M -406,-308 H 12183 V 4617 H -406 z M 4590,2326 4509,2433 4472,2304 4495,2450 4515,2454z" clip-rule="evenodd"/></clipPath></defs><polyline stroke="#5050ff" stroke-linejoin="round" stroke-width="15" points="4804 847 4507 2442" clip-path="url(#cp52)"/><polyline stroke="#5050ff" stroke-miterlimit="8" stroke-width="8" points="4590 2326 4509 2433 4472 2304"/><defs><clipPath id="cp53"><path d="M -406,-308 H 12183 V 4617 H -406 z M 8738,885 8624,815 8749,766 8609,807 8608,820z" clip-rule="evenodd"/></clipPath></defs><polyline stroke="#000" stroke-linejoin="round" stroke-width="8" points="10413 974 8615 814" clip-path="url(#cp53)"/><polyline stroke="#000" stroke-miterlimit="8" stroke-width="8" points="8738 885 8624 815 8749 766"/><defs><clipPath id="cp54"><path d="M -406,-308 H 12183 V 4617 H -406 z M 5796,2837 5692,2753 5822,2720 5678,2743 5675,2756z" clip-rule="evenodd"/></clipPath></defs><polyline stroke="#000" stroke-linejoin="round" stroke-width="8" points="7227 3086 5683 2751" clip-path="url(#cp54)"/><polyline stroke="#000" stroke-miterlimit="8" stroke-width="8" points="5796 2837 5692 2753 5822 2720"/><defs><clipPath id="cp55"><path d="M -406,-308 H 12183 V 4617 H -406 z M -258,919 -387,953 -337,829 -404,958 -395,969z" clip-rule="evenodd"/></clipPath></defs><polyline stroke="#000" stroke-linejoin="round" stroke-width="8" points="557 124 -394 959" clip-path="url(#cp55)"/><polyline stroke="#000" stroke-miterlimit="8" stroke-width="8" points="-258 919 -387 953 -337 829"/><defs><clipPath id="cp56"><path d="M -406,-308 H 12183 V 4617 H -406 z M 4298,2604 4390,2507 4413,2639 4401,2494 4389,2490z" clip-rule="evenodd"/></clipPath></defs><polyline stroke="#000" stroke-linejoin="round" stroke-width="8" points="4025 3698 4393 2498" clip-path="url(#cp56)"/><polyline stroke="#000" stroke-miterlimit="8" stroke-width="8" points="4298 2604 4390 2507 4413 2639"/><defs><clipPath id="cp57"><path d="M -406,-308 H 12183 V 4617 H -406 z M 10342,1097 10412,983 10462,1108 10420,968 10407,967z" clip-rule="evenodd"/></clipPath></defs><polyline stroke="#000" stroke-linejoin="round" stroke-width="8" points="10255 2821 10413 974" clip-path="url(#cp57)"/><polyline stroke="#000" stroke-miterlimit="8" stroke-width="8" points="10342 1097 10412 983 10462 1108"/><defs><clipPath id="cp58"><path d="M -406,-308 H 12183 V 4617 H -406 z M 10270,810 10384,880 10259,930 10399,888 10400,875z" clip-rule="evenodd"/></clipPath></defs><polyline stroke="#000" stroke-linejoin="round" stroke-width="8" points="8575 726 10393 881" clip-path="url(#cp58)"/><polyline stroke="#000" stroke-miterlimit="8" stroke-width="8" points="10270 810 10384 880 10259 930"/><defs><clipPath id="cp59"><path d="M -406,-308 H 12183 V 4617 H -406 z M 502,87 631,53 581,177 648,48 639,37z" clip-rule="evenodd"/></clipPath></defs><polyline stroke="#000" stroke-linejoin="round" stroke-width="8" points="-311 878 638 47" clip-path="url(#cp59)"/><polyline stroke="#000" stroke-miterlimit="8" stroke-width="8" points="502 87 631 53 581 177"/><defs><clipPath id="cp60"><path d="M -406,-308 H 12183 V 4617 H -406 z M 7751,2049 7852,1960 7863,2094 7869,1946 7849,1938z" clip-rule="evenodd"/></clipPath></defs><polyline stroke="#5050ff" stroke-linejoin="round" stroke-width="15" points="7379 3137 7855 1952" clip-path="url(#cp60)"/><polyline stroke="#5050ff" stroke-miterlimit="8" stroke-width="8" points="7751 2049 7852 1960 7863 2094"/><defs><clipPath id="cp61"><path d="M -406,-308 H 12183 V 4617 H -406 z M 4248,3537 4157,3635 4133,3503 4141,3651 4161,3657z" clip-rule="evenodd"/></clipPath></defs><polyline stroke="#5050ff" stroke-linejoin="round" stroke-width="15" points="4507 2442 4154 3644" clip-path="url(#cp61)"/><polyline stroke="#5050ff" stroke-miterlimit="8" stroke-width="8" points="4248 3537 4157 3635 4133 3503"/><defs><clipPath id="cp62"><path d="M -406,-308 H 12183 V 4617 H -406 z M -90,2430 -129,2558 -208,2450 -134,2575 -120,2573z" clip-rule="evenodd"/></clipPath></defs><polyline stroke="#000" stroke-linejoin="round" stroke-width="8" points="-394 959 -128 2567" clip-path="url(#cp62)"/><polyline stroke="#000" stroke-miterlimit="8" stroke-width="8" points="-90 2430 -129 2558 -208 2450"/><defs><clipPath id="cp63"><path d="M -406,-308 H 12183 V 4617 H -406 z M 10418,2726 10348,2840 10299,2715 10336,2859 10357,2860z" clip-rule="evenodd"/></clipPath></defs><polyline stroke="#5050ff" stroke-linejoin="round" stroke-width="15" points="10513 990 10347 2849" clip-path="url(#cp63)"/><polyline stroke="#5050ff" stroke-miterlimit="8" stroke-width="8" points="10418 2726 10348 2840 10299 2715"/><defs><clipPath id="cp64"><path d="M -406,-308 H 12183 V 4617 H -406 z M 2910,535 2802,455 2930,416 2787,446 2785,460z" clip-rule="evenodd"/></clipPath></defs><polyline stroke="#000" stroke-linejoin="round" stroke-width="8" points="4708 777 2793 454" clip-path="url(#cp64)"/><polyline stroke="#000" stroke-miterlimit="8" stroke-width="8" points="2910 535 2802 455 2930 416"/><defs><clipPath id="cp65"><path d="M -406,-308 H 12183 V 4617 H -406 z M 7444,2997 7343,3086 7333,2952 7326,3100 7346,3108z" clip-rule="evenodd"/></clipPath></defs><polyline stroke="#5050ff" stroke-linejoin="round" stroke-width="15" points="7821 1901 7340 3094" clip-path="url(#cp65)"/><polyline stroke="#5050ff" stroke-miterlimit="8" stroke-width="8" points="7444 2997 7343 3086 7333 2952"/><defs><clipPath id="cp66"><path d="M -406,-308 H 12183 V 4617 H -406 z M 7681,3083 7581,3173 7569,3039 7564,3187 7584,3195z" clip-rule="evenodd"/></clipPath></defs><polyline stroke="#5050ff" stroke-linejoin="round" stroke-width="15" points="8049 1981 7578 3181" clip-path="url(#cp66)"/><polyline stroke="#5050ff" stroke-miterlimit="8" stroke-width="8" points="7681 3083 7581 3173 7569 3039"/><defs><clipPath id="cp67"><path d="M -406,-308 H 12183 V 4617 H -406 z M -394,1171 -355,1043 -276,1151 -350,1026 -364,1028z" clip-rule="evenodd"/></clipPath></defs><polyline stroke="#000" stroke-linejoin="round" stroke-width="8" points="-91 2650 -356 1034" clip-path="url(#cp67)"/><polyline stroke="#000" stroke-miterlimit="8" stroke-width="8" points="-394 1171 -355 1043 -276 1151"/><defs><clipPath id="cp68"><path d="M -406,-308 H 12183 V 4617 H -406 z M 7387,1004 7255,981 7352,889 7238,979 7241,992z" clip-rule="evenodd"/></clipPath></defs><polyline stroke="#000" stroke-linejoin="round" stroke-width="8" points="8202 695 7246 984" clip-path="url(#cp68)"/><polyline stroke="#000" stroke-miterlimit="8" stroke-width="8" points="7387 1004 7255 981 7352 889"/><defs><clipPath id="cp69"><path d="M -406,-308 H 12183 V 4617 H -406 z M 4591,648 4699,727 4571,766 4714,736 4716,722z" clip-rule="evenodd"/></clipPath></defs><polyline stroke="#000" stroke-linejoin="round" stroke-width="8" points="2767 403 4708 728" clip-path="url(#cp69)"/><polyline stroke="#000" stroke-miterlimit="8" stroke-width="8" points="4591 648 4699 727 4571 766"/><defs><clipPath id="cp70"><path d="M -406,-308 H 12183 V 4617 H -406 z M 7914,2028 8014,1938 8025,2072 8031,1924 8011,1916z" clip-rule="evenodd"/></clipPath></defs><polyline stroke="#5050ff" stroke-linejoin="round" stroke-width="15" points="7540 3137 8017 1930" clip-path="url(#cp70)"/><polyline stroke="#5050ff" stroke-miterlimit="8" stroke-width="8" points="7914 2028 8014 1938 8025 2072"/><defs><clipPath id="cp71"><path d="M -406,-308 H 12183 V 4617 H -406 z M 8104,733 8237,755 8140,848 8258,759 8252,739z" clip-rule="evenodd"/></clipPath></defs><polyline stroke="#5050ff" stroke-linejoin="round" stroke-width="15" points="7347 1033 8245 752" clip-path="url(#cp71)"/><polyline stroke="#5050ff" stroke-miterlimit="8" stroke-width="8" points="8104 733 8237 755 8140 848"/><defs><clipPath id="cp72"><path d="M -406,-308 H 12183 V 4617 H -406 z M 10125,2340 10147,2207 10240,2304 10151,2186 10131,2192z" clip-rule="evenodd"/></clipPath></defs><polyline stroke="#5050ff" stroke-linejoin="round" stroke-width="15" points="10347 2849 10144 2199" clip-path="url(#cp72)"/><polyline stroke="#5050ff" stroke-miterlimit="8" stroke-width="8" points="10125 2340 10147 2207 10240 2304"/><defs><clipPath id="cp73"><path d="M -406,-308 H 12183 V 4617 H -406 z M 7701,1073 7568,1053 7664,959 7547,1049 7553,1069z" clip-rule="evenodd"/></clipPath></defs><polyline stroke="#5050ff" stroke-linejoin="round" stroke-width="15" points="8482 753 7560 1056" clip-path="url(#cp73)"/><polyline stroke="#5050ff" stroke-miterlimit="8" stroke-width="8" points="7701 1073 7568 1053 7664 959"/><defs><clipPath id="cp74"><path d="M -406,-308 H 12183 V 4617 H -406 z M 10341,2795 10319,2928 10226,2831 10315,2949 10335,2943z" clip-rule="evenodd"/></clipPath></defs><polyline stroke="#5050ff" stroke-linejoin="round" stroke-width="15" points="10140 2352 10322 2936" clip-path="url(#cp74)"/><polyline stroke="#5050ff" stroke-miterlimit="8" stroke-width="8" points="10341 2795 10319 2928 10226 2831"/><defs><clipPath id="cp75"><path d="M -406,-308 H 12183 V 4617 H -406 z M 3915,3608 4016,3696 3885,3724 4030,3706 4033,3693z" clip-rule="evenodd"/></clipPath></defs><polyline stroke="#000" stroke-linejoin="round" stroke-width="8" points="2091 3206 4025 3698" clip-path="url(#cp75)"/><polyline stroke="#000" stroke-miterlimit="8" stroke-width="8" points="3915 3608 4016 3696 3885 3724"/><defs><clipPath id="cp76"><path d="M -406,-308 H 12183 V 4617 H -406 z M 8434,709 8567,729 8471,823 8584,730 8579,717z" clip-rule="evenodd"/></clipPath></defs><polyline stroke="#000" stroke-linejoin="round" stroke-width="8" points="7663 1027 8575 726" clip-path="url(#cp76)"/><polyline stroke="#000" stroke-miterlimit="8" stroke-width="8" points="8434 709 8567 729 8471 823"/><defs><clipPath id="cp77"><path d="M -406,-308 H 12183 V 4617 H -406 z M 7367,1174 7352,1040 7468,1108 7350,1018 7332,1030z" clip-rule="evenodd"/></clipPath></defs><polyline stroke="#5050ff" stroke-linejoin="round" stroke-width="15" points="7845 1795 7347 1033" clip-path="url(#cp77)"/><polyline stroke="#5050ff" stroke-miterlimit="8" stroke-width="8" points="7367 1174 7352 1040 7468 1108"/><defs><clipPath id="cp78"><path d="M -406,-308 H 12183 V 4617 H -406 z M 7800,1760 7816,1894 7700,1827 7818,1916 7836,1904z" clip-rule="evenodd"/></clipPath></defs><polyline stroke="#5050ff" stroke-linejoin="round" stroke-width="15" points="7307 1124 7821 1901" clip-path="url(#cp78)"/><polyline stroke="#5050ff" stroke-miterlimit="8" stroke-width="8" points="7800 1760 7816 1894 7700 1827"/><defs><clipPath id="cp79"><path d="M -406,-308 H 12183 V 4617 H -406 z M 5733,885 5620,813 5745,766 5605,805 5604,818z" clip-rule="evenodd"/></clipPath></defs><polyline stroke="#000" stroke-linejoin="round" stroke-width="8" points="7246 984 5611 812" clip-path="url(#cp79)"/><polyline stroke="#000" stroke-miterlimit="8" stroke-width="8" points="5733 885 5620 813 5745 766"/><defs><clipPath id="cp80"><path d="M -406,-308 H 12183 V 4617 H -406 z M 8033,1704 8045,1837 7931,1767 8047,1859 8064,1848z" clip-rule="evenodd"/></clipPath></defs><polyline stroke="#5050ff" stroke-linejoin="round" stroke-width="15" points="7560 1056 8050 1845" clip-path="url(#cp80)"/><polyline stroke="#5050ff" stroke-miterlimit="8" stroke-width="8" points="8033 1704 8045 1837 7931 1767"/><defs><clipPath id="cp81"><path d="M -406,-308 H 12183 V 4617 H -406 z M 2163,3284 2062,3196 2193,3168 2048,3186 2045,3199z" clip-rule="evenodd"/></clipPath></defs><polyline stroke="#000" stroke-linejoin="round" stroke-width="8" points="4015 3693 2053 3194" clip-path="url(#cp81)"/><polyline stroke="#000" stroke-miterlimit="8" stroke-width="8" points="2163 3284 2062 3196 2193 3168"/><defs><clipPath id="cp82"><path d="M -406,-308 H 12183 V 4617 H -406 z M 7065,1046 7177,1119 7051,1165 7192,1127 7193,1114z" clip-rule="evenodd"/></clipPath></defs><polyline stroke="#000" stroke-linejoin="round" stroke-width="8" points="5547 936 7186 1120" clip-path="url(#cp82)"/><polyline stroke="#000" stroke-miterlimit="8" stroke-width="8" points="7065 1046 7177 1119 7051 1165"/><defs><clipPath id="cp83"><path d="M -406,-308 H 12183 V 4617 H -406 z M 10086,3006 10211,2957 10175,3086 10227,2949 10216,2940z" clip-rule="evenodd"/></clipPath></defs><polyline stroke="#000" stroke-linejoin="round" stroke-width="8" points="9583 3655 10217 2950" clip-path="url(#cp83)"/><polyline stroke="#000" stroke-miterlimit="8" stroke-width="8" points="10086 3006 10211 2957 10175 3086"/><defs><clipPath id="cp84"><path d="M -406,-308 H 12183 V 4617 H -406 z M 7538,1289 7525,1156 7640,1225 7523,1134 7506,1145z" clip-rule="evenodd"/></clipPath></defs><polyline stroke="#5050ff" stroke-linejoin="round" stroke-width="15" points="8017 1930 7520 1148" clip-path="url(#cp84)"/><polyline stroke="#5050ff" stroke-miterlimit="8" stroke-width="8" points="7538 1289 7525 1156 7640 1225"/><defs><clipPath id="cp85"><path d="M -406,-308 H 12183 V 4617 H -406 z M 2313,511 2433,451 2409,583 2453,442 2436,429z" clip-rule="evenodd"/></clipPath></defs><polyline stroke="#5050ff" stroke-linejoin="round" stroke-width="15" points="1728 1389 2438 444" clip-path="url(#cp85)"/><polyline stroke="#5050ff" stroke-miterlimit="8" stroke-width="8" points="2313 511 2433 451 2409 583"/><defs><clipPath id="cp86"><path d="M -406,-308 H 12183 V 4617 H -406 z M 10418,1096 10510,999 10533,1131 10526,983 10506,977z" clip-rule="evenodd"/></clipPath></defs><polyline stroke="#5050ff" stroke-linejoin="round" stroke-width="15" points="10144 2199 10513 990" clip-path="url(#cp86)"/><polyline stroke="#5050ff" stroke-miterlimit="8" stroke-width="8" points="10418 1096 10510 999 10533 1131"/><defs><clipPath id="cp87"><path d="M -406,-308 H 12183 V 4617 H -406 z M 1739,1197 1617,1254 1644,1123 1603,1262 1613,1270z" clip-rule="evenodd"/></clipPath></defs><polyline stroke="#000" stroke-linejoin="round" stroke-width="8" points="2341 332 1612 1261" clip-path="url(#cp87)"/><polyline stroke="#000" stroke-miterlimit="8" stroke-width="8" points="1739 1197 1617 1254 1644 1123"/><defs><clipPath id="cp88"><path d="M -406,-308 H 12183 V 4617 H -406 z M 9884,3540 9761,3592 9793,3462 9740,3600 9756,3614z" clip-rule="evenodd"/></clipPath></defs><polyline stroke="#5050ff" stroke-linejoin="round" stroke-width="15" points="10322 2936 9755 3599" clip-path="url(#cp88)"/><polyline stroke="#5050ff" stroke-miterlimit="8" stroke-width="8" points="9884 3540 9761 3592 9793 3462"/><defs><clipPath id="cp89"><path d="M -406,-308 H 12183 V 4617 H -406 z M 2105,1370 1987,1433 2008,1300 1967,1442 1984,1455z" clip-rule="evenodd"/></clipPath></defs><polyline stroke="#5050ff" stroke-linejoin="round" stroke-width="15" points="2661 482 1982 1440" clip-path="url(#cp89)"/><polyline stroke="#5050ff" stroke-miterlimit="8" stroke-width="8" points="2105 1370 1987 1433 2008 1300"/><defs><clipPath id="cp90"><path d="M -406,-308 H 12183 V 4617 H -406 z M 7284,2956 7227,3077 7164,2958 7220,3093 7234,3093z" clip-rule="evenodd"/></clipPath></defs><polyline stroke="#000" stroke-linejoin="round" stroke-width="8" points="7186 1120 7227 3086" clip-path="url(#cp90)"/><polyline stroke="#000" stroke-miterlimit="8" stroke-width="8" points="7284 2956 7227 3077 7164 2958"/><defs><clipPath id="cp91"><path d="M -406,-308 H 12183 V 4617 H -406 z M 7249,1254 7307,1133 7369,1252 7317,1113 7296,1114z" clip-rule="evenodd"/></clipPath></defs><polyline stroke="#5050ff" stroke-linejoin="round" stroke-width="15" points="7340 3094 7307 1124" clip-path="url(#cp91)"/><polyline stroke="#5050ff" stroke-miterlimit="8" stroke-width="8" points="7249 1254 7307 1133 7369 1252"/><defs><clipPath id="cp92"><path d="M -406,-308 H 12183 V 4617 H -406 z M 10221,2039 10129,2137 10107,2004 10113,2152 10133,2158z" clip-rule="evenodd"/></clipPath></defs><polyline stroke="#5050ff" stroke-linejoin="round" stroke-width="15" points="10500 928 10126 2145" clip-path="url(#cp92)"/><polyline stroke="#5050ff" stroke-miterlimit="8" stroke-width="8" points="10221 2039 10129 2137 10107 2004"/><defs><clipPath id="cp93"><path d="M -406,-308 H 12183 V 4617 H -406 z M 1671,1519 1728,1398 1791,1517 1738,1378 1717,1379z" clip-rule="evenodd"/></clipPath></defs><polyline stroke="#5050ff" stroke-linejoin="round" stroke-width="15" points="1765 3043 1728 1389" clip-path="url(#cp93)"/><polyline stroke="#5050ff" stroke-miterlimit="8" stroke-width="8" points="1671 1519 1728 1398 1791 1517"/><defs><clipPath id="cp94"><path d="M -406,-308 H 12183 V 4617 H -406 z M 2644,474 2762,410 2742,543 2776,401 2765,394z" clip-rule="evenodd"/></clipPath></defs><polyline stroke="#000" stroke-linejoin="round" stroke-width="8" points="2098 1358 2767 403" clip-path="url(#cp94)"/><polyline stroke="#000" stroke-miterlimit="8" stroke-width="8" points="2644 474 2762 410 2742 543"/><defs><clipPath id="cp95"><path d="M -406,-308 H 12183 V 4617 H -406 z M 1679,2954 1623,3076 1559,2958 1616,3092 1630,3092z" clip-rule="evenodd"/></clipPath></defs><polyline stroke="#000" stroke-linejoin="round" stroke-width="8" points="1568 1427 1623 3085" clip-path="url(#cp95)"/><polyline stroke="#000" stroke-miterlimit="8" stroke-width="8" points="1679 2954 1623 3076 1559 2958"/><defs><clipPath id="cp96"><path d="M -406,-308 H 12183 V 4617 H -406 z M 7599,3008 7540,3128 7479,3009 7530,3148 7551,3147z" clip-rule="evenodd"/></clipPath></defs><polyline stroke="#5050ff" stroke-linejoin="round" stroke-width="15" points="7520 1148 7540 3137" clip-path="url(#cp96)"/><polyline stroke="#5050ff" stroke-miterlimit="8" stroke-width="8" points="7599 3008 7540 3128 7479 3009"/><defs><clipPath id="cp97"><path d="M -406,-308 H 12183 V 4617 H -406 z M 2048,2971 1989,3091 1928,2971 1979,3111 2000,3110z" clip-rule="evenodd"/></clipPath></defs><polyline stroke="#5050ff" stroke-linejoin="round" stroke-width="15" points="1982 1440 1989 3100" clip-path="url(#cp97)"/><polyline stroke="#5050ff" stroke-miterlimit="8" stroke-width="8" points="2048 2971 1989 3091 1928 2971"/><defs><clipPath id="cp98"><path d="M -406,-308 H 12183 V 4617 H -406 z M 7545,1296 7604,1176 7665,1295 7611,1160 7597,1160z" clip-rule="evenodd"/></clipPath></defs><polyline stroke="#000" stroke-linejoin="round" stroke-width="8" points="7618 3171 7604 1167" clip-path="url(#cp98)"/><polyline stroke="#000" stroke-miterlimit="8" stroke-width="8" points="7545 1296 7604 1176 7665 1295"/><defs><clipPath id="cp99"><path d="M -406,-308 H 12183 V 4617 H -406 z M 9470,3569 9574,3653 9444,3686 9588,3663 9591,3650z" clip-rule="evenodd"/></clipPath></defs><polyline stroke="#000" stroke-linejoin="round" stroke-width="8" points="7674 3236 9583 3655" clip-path="url(#cp99)"/><polyline stroke="#000" stroke-miterlimit="8" stroke-width="8" points="9470 3569 9574 3653 9444 3686"/><defs><clipPath id="cp100"><path d="M -406,-308 H 12183 V 4617 H -406 z M 1994,1655 2054,1535 2114,1655 2061,1519 2047,1519z" clip-rule="evenodd"/></clipPath></defs><polyline stroke="#000" stroke-linejoin="round" stroke-width="8" points="2053 3194 2054 1526" clip-path="url(#cp100)"/><polyline stroke="#000" stroke-miterlimit="8" stroke-width="8" points="1994 1655 2054 1535 2114 1655"/><defs><clipPath id="cp101"><path d="M -406,-308 H 12183 V 4617 H -406 z M 7731,3257 7627,3173 7757,3140 7613,3163 7610,3176z" clip-rule="evenodd"/></clipPath></defs><polyline stroke="#000" stroke-linejoin="round" stroke-width="8" points="9548 3590 7618 3171" clip-path="url(#cp101)"/><polyline stroke="#000" stroke-miterlimit="8" stroke-width="8" points="7731 3257 7627 3173 7757 3140"/><defs><clipPath id="cp102"><path d="M -406,-308 H 12183 V 4617 H -406 z M -196,962 -302,880 -173,844 -316,870 -319,883z" clip-rule="evenodd"/></clipPath></defs><polyline stroke="#000" stroke-linejoin="round" stroke-width="8" points="1612 1261 -311 878" clip-path="url(#cp102)"/><polyline stroke="#000" stroke-miterlimit="8" stroke-width="8" points="-196 962 -302 880 -173 844"/><defs><clipPath id="cp103"><path d="M -406,-308 H 12183 V 4617 H -406 z M 1454,1342 1559,1425 1430,1460 1573,1435 1576,1422z" clip-rule="evenodd"/></clipPath></defs><polyline stroke="#000" stroke-linejoin="round" stroke-width="8" points="-356 1034 1568 1427" clip-path="url(#cp103)"/><polyline stroke="#000" stroke-miterlimit="8" stroke-width="8" points="1454 1342 1559 1425 1430 1460"/><defs><clipPath id="cp104"><path d="M -406,-308 H 12183 V 4617 H -406 z M 10043,2450 10135,2353 10158,2485 10151,2337 10131,2331z" clip-rule="evenodd"/></clipPath></defs><polyline stroke="#5050ff" stroke-linejoin="round" stroke-width="15" points="9753 3601 10138 2344" clip-path="url(#cp104)"/><polyline stroke="#5050ff" stroke-miterlimit="8" stroke-width="8" points="10043 2450 10135 2353 10158 2485"/><defs><clipPath id="cp105"><path d="M -406,-308 H 12183 V 4617 H -406 z M 9775,3494 9683,3591 9660,3459 9648,3617 9697,3632z" clip-rule="evenodd"/></clipPath></defs><polyline stroke="#ff5050" stroke-linejoin="round" stroke-width="45" points="10097 2240 9680 3600" clip-path="url(#cp105)"/><polyline stroke="#ff5050" stroke-miterlimit="8" stroke-width="8" points="9775 3494 9683 3591 9660 3459"/><defs><clipPath id="cp106"><path d="M -406,-308 H 12183 V 4617 H -406 z M 9879,1235 9745,1241 9821,1130 9728,1242 9734,1254z" clip-rule="evenodd"/></clipPath></defs><polyline stroke="#000" stroke-linejoin="round" stroke-width="8" points="10393 881 9737 1245" clip-path="url(#cp106)"/><polyline stroke="#000" stroke-miterlimit="8" stroke-width="8" points="9879 1235 9745 1241 9821 1130"/><defs><clipPath id="cp107"><path d="M -406,-308 H 12183 V 4617 H -406 z M 4707,951 4801,855 4822,988 4817,840 4797,834z" clip-rule="evenodd"/></clipPath></defs><polyline stroke="#5050ff" stroke-linejoin="round" stroke-width="15" points="4453 1940 4804 847" clip-path="url(#cp107)"/><polyline stroke="#5050ff" stroke-miterlimit="8" stroke-width="8" points="4707 951 4801 855 4822 988"/><defs><clipPath id="cp108"><path d="M -406,-308 H 12183 V 4617 H -406 z M 10358,941 10492,932 10419,1045 10514,932 10504,914z" clip-rule="evenodd"/></clipPath></defs><polyline stroke="#5050ff" stroke-linejoin="round" stroke-width="15" points="9862 1302 10500 928" clip-path="url(#cp108)"/><polyline stroke="#5050ff" stroke-miterlimit="8" stroke-width="8" points="10358 941 10492 932 10419 1045"/><defs><clipPath id="cp109"><path d="M -406,-308 H 12183 V 4617 H -406 z M 4438,1702 4342,1796 4324,1663 4330,1808 4343,1813z" clip-rule="evenodd"/></clipPath></defs><polyline stroke="#000" stroke-linejoin="round" stroke-width="8" points="4708 728 4339 1804" clip-path="url(#cp109)"/><polyline stroke="#000" stroke-miterlimit="8" stroke-width="8" points="4438 1702 4342 1796 4324 1663"/><defs><clipPath id="cp110"><path d="M -406,-308 H 12183 V 4617 H -406 z M 4372,2057 4451,1949 4490,2077 4483,1919 4432,1910z" clip-rule="evenodd"/></clipPath></defs><polyline stroke="#ff5050" stroke-linejoin="round" stroke-width="45" points="4154 3644 4453 1940" clip-path="url(#cp110)"/><polyline stroke="#ff5050" stroke-miterlimit="8" stroke-width="8" points="4372 2057 4451 1949 4490 2077"/><defs><clipPath id="cp111"><path d="M -406,-308 H 12183 V 4617 H -406 z M 4095,3576 4016,3684 3977,3556 4007,3699 4021,3701z" clip-rule="evenodd"/></clipPath></defs><polyline stroke="#000" stroke-linejoin="round" stroke-width="8" points="4296 1985 4015 3693" clip-path="url(#cp111)"/><polyline stroke="#000" stroke-miterlimit="8" stroke-width="8" points="4095 3576 4016 3684 3977 3556"/><defs><clipPath id="cp112"><path d="M -406,-308 H 12183 V 4617 H -406 z M 9843,1443 9865,1310 9958,1407 9869,1289 9849,1295z" clip-rule="evenodd"/></clipPath></defs><polyline stroke="#5050ff" stroke-linejoin="round" stroke-width="15" points="10126 2145 9862 1302" clip-path="url(#cp112)"/><polyline stroke="#5050ff" stroke-miterlimit="8" stroke-width="8" points="9843 1443 9865 1310 9958 1407"/><defs><clipPath id="cp113"><path d="M -406,-308 H 12183 V 4617 H -406 z M 10114,2099 10094,2232 10000,2136 10090,2253 10110,2247z" clip-rule="evenodd"/></clipPath></defs><polyline stroke="#5050ff" stroke-linejoin="round" stroke-width="15" points="9828 1407 10097 2240" clip-path="url(#cp113)"/><polyline stroke="#5050ff" stroke-miterlimit="8" stroke-width="8" points="10114 2099 10094 2232 10000 2136"/><defs><clipPath id="cp114"><path d="M -406,-308 H 12183 V 4617 H -406 z M 7785,1100 7672,1028 7797,981 7657,1020 7656,1033z" clip-rule="evenodd"/></clipPath></defs><polyline stroke="#000" stroke-linejoin="round" stroke-width="8" points="9737 1245 7663 1027" clip-path="url(#cp114)"/><polyline stroke="#000" stroke-miterlimit="8" stroke-width="8" points="7785 1100 7672 1028 7797 981"/><defs><clipPath id="cp115"><path d="M -406,-308 H 12183 V 4617 H -406 z M 9564,1327 9676,1400 9550,1446 9691,1408 9692,1395z" clip-rule="evenodd"/></clipPath></defs><polyline stroke="#000" stroke-linejoin="round" stroke-width="8" points="7604 1167 9685 1401" clip-path="url(#cp115)"/><polyline stroke="#000" stroke-miterlimit="8" stroke-width="8" points="9564 1327 9676 1400 9550 1446"/><defs><clipPath id="cp116"><path d="M -406,-308 H 12183 V 4617 H -406 z M 9616,3465 9549,3581 9496,3458 9541,3596 9554,3597z" clip-rule="evenodd"/></clipPath></defs><polyline stroke="#000" stroke-linejoin="round" stroke-width="8" points="9685 1401 9548 3590" clip-path="url(#cp116)"/><polyline stroke="#000" stroke-miterlimit="8" stroke-width="8" points="9616 3465 9549 3581 9496 3458"/><defs><clipPath id="cp117"><path d="M -406,-308 H 12183 V 4617 H -406 z M 9759,1532 9827,1416 9879,1540 9839,1397 9818,1396z" clip-rule="evenodd"/></clipPath></defs><polyline stroke="#5050ff" stroke-linejoin="round" stroke-width="15" points="9680 3600 9828 1407" clip-path="url(#cp117)"/><polyline stroke="#5050ff" stroke-miterlimit="8" stroke-width="8" points="9759 1532 9827 1416 9879 1540"/><defs><clipPath id="cp118"><path d="M -406,-308 H 12183 V 4617 H -406 z M 2213,1442 2107,1360 2236,1324 2093,1350 2090,1363z" clip-rule="evenodd"/></clipPath></defs><polyline stroke="#000" stroke-linejoin="round" stroke-width="8" points="4339 1804 2098 1358" clip-path="url(#cp118)"/><polyline stroke="#000" stroke-miterlimit="8" stroke-width="8" points="2213 1442 2107 1360 2236 1324"/><defs><clipPath id="cp119"><path d="M -406,-308 H 12183 V 4617 H -406 z M 4182,1900 4287,1983 4158,2018 4301,1993 4304,1980z" clip-rule="evenodd"/></clipPath></defs><polyline stroke="#000" stroke-linejoin="round" stroke-width="8" points="2054 1526 4296 1985" clip-path="url(#cp119)"/><polyline stroke="#000" stroke-miterlimit="8" stroke-width="8" points="4182 1900 4287 1983 4158 2018"/><defs><clipPath id="cp120"><path d="M -406,-308 H 12183 V 4617 H -406 z M 7042,351 7063,466 6984,552 7287,550 7297,516z" clip-rule="evenodd"/></clipPath></defs><path stroke="#000" stroke-width="30" d="M 3872,484 A 5946 5946 0 0 1 7275 528" clip-path="url(#cp120)"/><polygon stroke="#000" stroke-miterlimit="8" stroke-width="8" points="6984 552 7265 525 7042 351 7063 466 6984 552"/><defs><clipPath id="cp121"><path d="M -406,-308 H 12183 V 4617 H -406 z M 4576,3697 4545,3584 4617,3491 4315,3520 4308,3555z" clip-rule="evenodd"/></clipPath></defs><path stroke="#000" stroke-width="30" d="M 7505,3338 A 5837 5837 0 0 1 4329 3541" clip-path="url(#cp121)"/><polygon stroke="#000" stroke-miterlimit="8" stroke-width="8" points="4617 3491 4339 3543 4576 3697 4545 3584 4617 3491"/><text x="4247" y="3944" fill="#000" font-family="Times" font-size="216" font-style="normal" font-weight="normal" text-anchor="start" xml:space="preserve">Vector&lt;Dart_descriptor&gt;v1 = {Dart_of_cell_range&lt;0,2&gt;(d3)}</text><text x="4353" y="4232" fill="#000" font-family="Times" font-size="216" font-style="normal" font-weight="normal" text-anchor="start" xml:space="preserve">Vector&lt;Dart_descriptor&gt;v2 = {Dart_of_cell_range&lt;0,2&gt;(d4)}</text><text x="4565" y="4540" fill="#000" font-family="Times,Symbol" font-size="252" font-style="normal" font-weight="normal" text-anchor="start" xml:space="preserve">∀</text><text x="4161" y="175" fill="#000" font-family="Times" font-size="216" font-style="normal" font-weight="normal" text-anchor="start" xml:space="preserve">d4=cm.insert_cell_0_in_cell_2(d2)</text><text x="3828" y="-89" fill="#000" font-family="Times" font-size="216" font-style="normal" font-weight="normal" text-anchor="start" xml:space="preserve">d3=cm.insert_cell_0_in_cell_2(d1)</text><text x="2430" y="360" fill="#000" font-family="Times" font-size="240" font-style="normal" font-weight="normal" text-anchor="start" xml:space="preserve">d1</text><text x="4312" y="3380" fill="#000" font-family="Times" font-size="240" font-style="normal" font-weight="normal" text-anchor="start" xml:space="preserve">d2</text><text x="8262" y="664" fill="#000" font-family="Times" font-size="240" font-style="normal" font-weight="normal" text-anchor="start" xml:space="preserve">d3</text><text x="4790" y="4526" fill="#000" font-family="Times" font-size="216" font-style="italic" font-weight="normal" text-anchor="start" xml:space="preserve">a in v1 U v2: cm.remove_cell&lt;1&gt;(a)</text><text x="9675" y="2565" fill="#000" font-family="Times" font-size="240" font-style="normal" font-weight="normal" text-anchor="start" xml:space="preserve">d4</text></g></svg>