<svg xmlns="http://www.w3.org/2000/svg" xmlns:xlink="http://www.w3.org/1999/xlink" width="988" height="239pt" viewBox="4 -321 11752 3787"><g fill="none"><defs><clipPath id="cp0"><path d="M 4,-321 H 11756 V 3466 H 4 z M 2497,1796 2653,1923 2457,1972 2678,1940 2683,1919z" clip-rule="evenodd"/></clipPath></defs><polyline stroke="#000" stroke-linejoin="round" stroke-width="15" points="1203 1598 2670 1927" clip-path="url(#cp0)"/><polyline stroke="#000" stroke-miterlimit="8" stroke-width="15" points="2497 1796 2653 1923 2457 1972"/><defs><clipPath id="cp1"><path d="M 4,-321 H 11756 V 3466 H 4 z M 9523,1930 9679,2057 9483,2106 9704,2074 9709,2053z" clip-rule="evenodd"/></clipPath></defs><polyline stroke="#000" stroke-linejoin="round" stroke-width="15" points="8127 1709 9696 2061" clip-path="url(#cp1)"/><polyline stroke="#000" stroke-miterlimit="8" stroke-width="15" points="9523 1930 9679 2057 9483 2106"/><defs><clipPath id="cp2"><path d="M 4,-321 H 11756 V 3466 H 4 z M 1290,1399 1203,1580 1110,1401 1193,1609 1214,1608z" clip-rule="evenodd"/></clipPath></defs><polyline stroke="#000" stroke-linejoin="round" stroke-width="15" points="1183 116 1203 1598" clip-path="url(#cp2)"/><polyline stroke="#000" stroke-miterlimit="8" stroke-width="15" points="1290 1399 1203 1580 1110 1401"/><defs><clipPath id="cp3"><path d="M 4,-321 H 11756 V 3466 H 4 z M 8214,1510 8127,1691 8034,1512 8117,1720 8138,1719z" clip-rule="evenodd"/></clipPath></defs><polyline stroke="#000" stroke-linejoin="round" stroke-width="15" points="8105 124 8127 1709" clip-path="url(#cp3)"/><polyline stroke="#000" stroke-miterlimit="8" stroke-width="15" points="8214 1510 8127 1691 8034 1512"/><defs><clipPath id="cp4"><path d="M 4,-321 H 11756 V 3466 H 4 z M 1314,1909 1159,1780 1355,1733 1134,1763 1129,1784z" clip-rule="evenodd"/></clipPath></defs><polyline stroke="#000" stroke-linejoin="round" stroke-width="15" points="2613 2120 1142 1776" clip-path="url(#cp4)"/><polyline stroke="#000" stroke-miterlimit="8" stroke-width="15" points="1314 1909 1159 1780 1355 1733"/><defs><clipPath id="cp5"><path d="M 4,-321 H 11756 V 3466 H 4 z M 8233,2033 8078,1904 8274,1857 8053,1887 8048,1908z" clip-rule="evenodd"/></clipPath></defs><polyline stroke="#000" stroke-linejoin="round" stroke-width="15" points="9634 2267 8061 1900" clip-path="url(#cp5)"/><polyline stroke="#000" stroke-miterlimit="8" stroke-width="15" points="8233 2033 8078 1904 8274 1857"/><defs><clipPath id="cp6"><path d="M 4,-321 H 11756 V 3466 H 4 z M 897,338 982,156 1077,334 992,127 971,128z" clip-rule="evenodd"/></clipPath></defs><polyline stroke="#000" stroke-linejoin="round" stroke-width="15" points="1018 1626 982 138" clip-path="url(#cp6)"/><polyline stroke="#000" stroke-miterlimit="8" stroke-width="15" points="897 338 982 156 1077 334"/><defs><clipPath id="cp7"><path d="M 4,-321 H 11756 V 3466 H 4 z M 7806,347 7891,165 7986,343 7901,136 7880,137z" clip-rule="evenodd"/></clipPath></defs><polyline stroke="#000" stroke-linejoin="round" stroke-width="15" points="7929 1739 7891 147" clip-path="url(#cp7)"/><polyline stroke="#000" stroke-miterlimit="8" stroke-width="15" points="7806 347 7891 165 7986 343"/><defs><clipPath id="cp8"><path d="M 4,-321 H 11756 V 3466 H 4 z M 516,2466 322,2520 395,2332 294,2531 308,2547z" clip-rule="evenodd"/></clipPath></defs><polyline stroke="#000" stroke-linejoin="round" stroke-width="15" points="1142 1776 309 2532" clip-path="url(#cp8)"/><polyline stroke="#000" stroke-miterlimit="8" stroke-width="15" points="516 2466 322 2520 395 2332"/><defs><clipPath id="cp9"><path d="M 4,-321 H 11756 V 3466 H 4 z M 7377,2642 7183,2696 7256,2508 7155,2707 7169,2723z" clip-rule="evenodd"/></clipPath></defs><polyline stroke="#000" stroke-linejoin="round" stroke-width="15" points="8061 1900 7170 2708" clip-path="url(#cp9)"/><polyline stroke="#000" stroke-miterlimit="8" stroke-width="15" points="7377 2642 7183 2696 7256 2508"/><defs><clipPath id="cp10"><path d="M 4,-321 H 11756 V 3466 H 4 z M 809,1687 1005,1638 927,1823 1033,1627 1019,1611z" clip-rule="evenodd"/></clipPath></defs><polyline stroke="#000" stroke-linejoin="round" stroke-width="15" points="166 2361 1018 1626" clip-path="url(#cp10)"/><polyline stroke="#000" stroke-miterlimit="8" stroke-width="15" points="809 1687 1005 1638 927 1823"/><defs><clipPath id="cp11"><path d="M 4,-321 H 11756 V 3466 H 4 z M 7720,1800 7916,1751 7838,1936 7944,1740 7930,1724z" clip-rule="evenodd"/></clipPath></defs><polyline stroke="#000" stroke-linejoin="round" stroke-width="15" points="7017 2525 7929 1739" clip-path="url(#cp11)"/><polyline stroke="#000" stroke-miterlimit="8" stroke-width="15" points="7720 1800 7916 1751 7838 1936"/><defs><clipPath id="cp12"><path d="M 4,-321 H 11756 V 3466 H 4 z M 2661,558 2761,384 2840,569 2773,356 2752,355z" clip-rule="evenodd"/></clipPath></defs><polyline stroke="#000" stroke-linejoin="round" stroke-width="15" points="2670 1927 2762 366" clip-path="url(#cp12)"/><polyline stroke="#000" stroke-miterlimit="8" stroke-width="15" points="2661 558 2761 384 2840 569"/><defs><clipPath id="cp13"><path d="M 4,-321 H 11756 V 3466 H 4 z M 9693,584 9793,410 9872,595 9805,382 9784,381z" clip-rule="evenodd"/></clipPath></defs><polyline stroke="#000" stroke-linejoin="round" stroke-width="15" points="9696 2061 9794 392" clip-path="url(#cp13)"/><polyline stroke="#000" stroke-miterlimit="8" stroke-width="15" points="9693 584 9793 410 9872 595"/><defs><clipPath id="cp14"><path d="M 4,-321 H 11756 V 3466 H 4 z M 1364,236 1201,119 1392,58 1174,104 1171,125z" clip-rule="evenodd"/></clipPath></defs><polyline stroke="#000" stroke-linejoin="round" stroke-width="15" points="2762 366 1183 116" clip-path="url(#cp14)"/><polyline stroke="#000" stroke-miterlimit="8" stroke-width="15" points="1364 236 1201 119 1392 58"/><defs><clipPath id="cp15"><path d="M 4,-321 H 11756 V 3466 H 4 z M 8286,244 8123,127 8314,66 8096,112 8093,133z" clip-rule="evenodd"/></clipPath></defs><polyline stroke="#000" stroke-linejoin="round" stroke-width="15" points="9794 392 8105 124" clip-path="url(#cp15)"/><polyline stroke="#000" stroke-miterlimit="8" stroke-width="15" points="8286 244 8123 127 8314 66"/><defs><clipPath id="cp16"><path d="M 4,-321 H 11756 V 3466 H 4 z M 2913,1727 2761,1988 2644,1710 2740,2040 2776,2042z" clip-rule="evenodd"/></clipPath></defs><polyline stroke="#000" stroke-linejoin="round" stroke-width="30" points="2859 441 2759 2023" clip-path="url(#cp16)"/><polyline stroke="#000" stroke-miterlimit="8" stroke-width="30" points="2913 1727 2761 1988 2644 1710"/><defs><clipPath id="cp17"><path d="M 4,-321 H 11756 V 3466 H 4 z M 9945,1868 9793,2129 9676,1851 9772,2181 9808,2183z" clip-rule="evenodd"/></clipPath></defs><polyline stroke="#000" stroke-linejoin="round" stroke-width="30" points="9898 471 9791 2164" clip-path="url(#cp17)"/><polyline stroke="#000" stroke-miterlimit="8" stroke-width="30" points="9945 1868 9793 2129 9676 1851"/><defs><clipPath id="cp18"><path d="M 4,-321 H 11756 V 3466 H 4 z M 2535,146 2699,262 2508,324 2726,277 2729,256z" clip-rule="evenodd"/></clipPath></defs><polyline stroke="#000" stroke-linejoin="round" stroke-width="15" points="1111 15 2717 265" clip-path="url(#cp18)"/><polyline stroke="#000" stroke-miterlimit="8" stroke-width="15" points="2535 146 2699 262 2508 324"/><defs><clipPath id="cp19"><path d="M 4,-321 H 11756 V 3466 H 4 z M 9563,164 9727,280 9536,342 9754,295 9757,274z" clip-rule="evenodd"/></clipPath></defs><polyline stroke="#000" stroke-linejoin="round" stroke-width="15" points="8028 16 9745 283" clip-path="url(#cp19)"/><polyline stroke="#000" stroke-miterlimit="8" stroke-width="15" points="9563 164 9727 280 9536 342"/><defs><clipPath id="cp20"><path d="M 4,-321 H 11756 V 3466 H 4 z M 3878,1968 3773,2140 3698,1954 3761,2168 3782,2169z" clip-rule="evenodd"/></clipPath></defs><polyline stroke="#000" stroke-linejoin="round" stroke-width="15" points="3900 571 3772 2158" clip-path="url(#cp20)"/><polyline stroke="#000" stroke-miterlimit="8" stroke-width="15" points="3878 1968 3773 2140 3698 1954"/><defs><clipPath id="cp21"><path d="M 4,-321 H 11756 V 3466 H 4 z M 10302,2035 10197,2207 10122,2021 10185,2235 10206,2236z" clip-rule="evenodd"/></clipPath></defs><polyline stroke="#000" stroke-linejoin="round" stroke-width="15" points="10333 528 10196 2225" clip-path="url(#cp21)"/><polyline stroke="#000" stroke-miterlimit="8" stroke-width="15" points="10302 2035 10197 2207 10122 2021"/><defs><clipPath id="cp22"><path d="M 4,-321 H 11756 V 3466 H 4 z M 3563,873 3718,613 3833,893 3740,561 3704,559z" clip-rule="evenodd"/></clipPath></defs><polyline stroke="#000" stroke-linejoin="round" stroke-width="30" points="3601 2174 3721 578" clip-path="url(#cp22)"/><polyline stroke="#000" stroke-miterlimit="8" stroke-width="30" points="3563 873 3718 613 3833 893"/><defs><clipPath id="cp23"><path d="M 4,-321 H 11756 V 3466 H 4 z M 9984,831 10138,571 10253,851 10160,519 10124,517z" clip-rule="evenodd"/></clipPath></defs><polyline stroke="#000" stroke-linejoin="round" stroke-width="30" points="10014 2242 10141 536" clip-path="url(#cp23)"/><polyline stroke="#000" stroke-miterlimit="8" stroke-width="30" points="9984 831 10138 571 10253 851"/><defs><clipPath id="cp24"><path d="M 4,-321 H 11756 V 3466 H 4 z M 2421,2221 2602,2134 2563,2332 2628,2118 2611,2105z" clip-rule="evenodd"/></clipPath></defs><polyline stroke="#000" stroke-linejoin="round" stroke-width="15" points="1943 2986 2613 2120" clip-path="url(#cp24)"/><polyline stroke="#000" stroke-miterlimit="8" stroke-width="15" points="2421 2221 2602 2134 2563 2332"/><defs><clipPath id="cp25"><path d="M 4,-321 H 11756 V 3466 H 4 z M 9442,2368 9623,2281 9584,2479 9649,2265 9632,2252z" clip-rule="evenodd"/></clipPath></defs><polyline stroke="#000" stroke-linejoin="round" stroke-width="15" points="8918 3193 9634 2267" clip-path="url(#cp25)"/><polyline stroke="#000" stroke-miterlimit="8" stroke-width="15" points="9442 2368 9623 2281 9584 2479"/><defs><clipPath id="cp26"><path d="M 4,-321 H 11756 V 3466 H 4 z M 269,675 68,692 176,522 39,697 49,715z" clip-rule="evenodd"/></clipPath></defs><polyline stroke="#000" stroke-linejoin="round" stroke-width="15" points="982 138 53 701" clip-path="url(#cp26)"/><polyline stroke="#000" stroke-miterlimit="8" stroke-width="15" points="269 675 68 692 176 522"/><defs><clipPath id="cp27"><path d="M 4,-321 H 11756 V 3466 H 4 z M 7112,724 6911,740 7019,570 6882,745 6892,763z" clip-rule="evenodd"/></clipPath></defs><polyline stroke="#000" stroke-linejoin="round" stroke-width="15" points="7891 147 6896 749" clip-path="url(#cp27)"/><polyline stroke="#000" stroke-miterlimit="8" stroke-width="15" points="7112 724 6911 740 7019 570"/><defs><clipPath id="cp28"><path d="M 4,-321 H 11756 V 3466 H 4 z M 2395,2725 2125,2859 2180,2562 2078,2890 2106,2912z" clip-rule="evenodd"/></clipPath></defs><polyline stroke="#000" stroke-linejoin="round" stroke-width="30" points="2759 2023 2103 2887" clip-path="url(#cp28)"/><polyline stroke="#000" stroke-miterlimit="8" stroke-width="30" points="2395 2725 2125 2859 2180 2562"/><defs><clipPath id="cp29"><path d="M 4,-321 H 11756 V 3466 H 4 z M 9382,2925 9112,3059 9167,2762 9065,3090 9093,3112z" clip-rule="evenodd"/></clipPath></defs><polyline stroke="#000" stroke-linejoin="round" stroke-width="30" points="9791 2164 9090 3087" clip-path="url(#cp29)"/><polyline stroke="#000" stroke-miterlimit="8" stroke-width="30" points="9382 2925 9112 3059 9167 2762"/><defs><clipPath id="cp30"><path d="M 4,-321 H 11756 V 3466 H 4 z M 3360,3119 3184,3216 3212,3017 3159,3234 3177,3246z" clip-rule="evenodd"/></clipPath></defs><polyline stroke="#000" stroke-linejoin="round" stroke-width="15" points="3789 2336 3174 3231" clip-path="url(#cp30)"/><polyline stroke="#000" stroke-miterlimit="8" stroke-width="15" points="3360 3119 3184 3216 3212 3017"/><defs><clipPath id="cp31"><path d="M 4,-321 H 11756 V 3466 H 4 z M 895,39 1096,24 988,194 1125,19 1115,1z" clip-rule="evenodd"/></clipPath></defs><polyline stroke="#000" stroke-linejoin="round" stroke-width="15" points="188 568 1111 15" clip-path="url(#cp31)"/><polyline stroke="#000" stroke-miterlimit="8" stroke-width="15" points="895 39 1096 24 988 194"/><defs><clipPath id="cp32"><path d="M 4,-321 H 11756 V 3466 H 4 z M 9743,3261 9567,3358 9595,3159 9542,3376 9560,3388z" clip-rule="evenodd"/></clipPath></defs><polyline stroke="#000" stroke-linejoin="round" stroke-width="15" points="10214 2415 9557 3373" clip-path="url(#cp32)"/><polyline stroke="#000" stroke-miterlimit="8" stroke-width="15" points="9743 3261 9567 3358 9595 3159"/><defs><clipPath id="cp33"><path d="M 4,-321 H 11756 V 3466 H 4 z M 7812,41 8013,25 7905,195 8042,20 8032,2z" clip-rule="evenodd"/></clipPath></defs><polyline stroke="#000" stroke-linejoin="round" stroke-width="15" points="7041 608 8028 16" clip-path="url(#cp33)"/><polyline stroke="#000" stroke-miterlimit="8" stroke-width="15" points="7812 41 8013 25 7905 195"/><defs><clipPath id="cp34"><path d="M 4,-321 H 11756 V 3466 H 4 z M 3314,2345 3580,2203 3534,2501 3626,2170 3597,2149z" clip-rule="evenodd"/></clipPath></defs><polyline stroke="#000" stroke-linejoin="round" stroke-width="30" points="2974 3054 3601 2174" clip-path="url(#cp34)"/><polyline stroke="#000" stroke-miterlimit="8" stroke-width="30" points="3314 2345 3580 2203 3534 2501"/><defs><clipPath id="cp35"><path d="M 4,-321 H 11756 V 3466 H 4 z M 9727,2413 9993,2271 9947,2569 10039,2238 10010,2217z" clip-rule="evenodd"/></clipPath></defs><polyline stroke="#000" stroke-linejoin="round" stroke-width="30" points="9343 3184 10014 2242" clip-path="url(#cp35)"/><polyline stroke="#000" stroke-miterlimit="8" stroke-width="30" points="9727 2413 9993 2271 9947 2569"/><defs><clipPath id="cp36"><path d="M 4,-321 H 11756 V 3466 H 4 z M 1777,2846 1926,2981 1728,3020 1950,2999 1956,2979z" clip-rule="evenodd"/></clipPath></defs><polyline stroke="#000" stroke-linejoin="round" stroke-width="15" points="309 2532 1943 2986" clip-path="url(#cp36)"/><polyline stroke="#000" stroke-miterlimit="8" stroke-width="15" points="1777 2846 1926 2981 1728 3020"/><defs><clipPath id="cp37"><path d="M 4,-321 H 11756 V 3466 H 4 z M 8751,3053 8901,3188 8703,3227 8925,3206 8931,3186z" clip-rule="evenodd"/></clipPath></defs><polyline stroke="#000" stroke-linejoin="round" stroke-width="15" points="7170 2708 8918 3193" clip-path="url(#cp37)"/><polyline stroke="#000" stroke-miterlimit="8" stroke-width="15" points="8751 3053 8901 3188 8703 3227"/><defs><clipPath id="cp38"><path d="M 4,-321 H 11756 V 3466 H 4 z M 4974,2020 5157,2103 4981,2200 5186,2112 5185,2091z" clip-rule="evenodd"/></clipPath></defs><polyline stroke="#000" stroke-linejoin="round" stroke-width="15" points="3772 2158 5175 2102" clip-path="url(#cp38)"/><polyline stroke="#000" stroke-miterlimit="8" stroke-width="15" points="4974 2020 5157 2103 4981 2200"/><defs><clipPath id="cp39"><path d="M 4,-321 H 11756 V 3466 H 4 z M 11496,2083 11679,2166 11503,2263 11708,2175 11707,2154z" clip-rule="evenodd"/></clipPath></defs><polyline stroke="#000" stroke-linejoin="round" stroke-width="15" points="10196 2225 11697 2165" clip-path="url(#cp39)"/><polyline stroke="#000" stroke-miterlimit="8" stroke-width="15" points="11496 2083 11679 2166 11503 2263"/><defs><clipPath id="cp40"><path d="M 4,-321 H 11756 V 3466 H 4 z M 3989,2421 3807,2336 3985,2241 3778,2326 3779,2347z" clip-rule="evenodd"/></clipPath></defs><polyline stroke="#000" stroke-linejoin="round" stroke-width="15" points="5192 2303 3789 2336" clip-path="url(#cp40)"/><polyline stroke="#000" stroke-miterlimit="8" stroke-width="15" points="3989 2421 3807 2336 3985 2241"/><defs><clipPath id="cp41"><path d="M 4,-321 H 11756 V 3466 H 4 z M 10414,2500 10232,2415 10410,2321 10203,2405 10204,2426z" clip-rule="evenodd"/></clipPath></defs><polyline stroke="#000" stroke-linejoin="round" stroke-width="15" points="11714 2381 10214 2415" clip-path="url(#cp41)"/><polyline stroke="#000" stroke-miterlimit="8" stroke-width="15" points="10414 2500 10232 2415 10410 2321"/><defs><clipPath id="cp42"><path d="M 4,-321 H 11756 V 3466 H 4 z M 242,2158 165,2343 63,2170 156,2372 177,2371z" clip-rule="evenodd"/></clipPath></defs><polyline stroke="#000" stroke-linejoin="round" stroke-width="15" points="53 701 166 2361" clip-path="url(#cp42)"/><polyline stroke="#000" stroke-miterlimit="8" stroke-width="15" points="242 2158 165 2343 63 2170"/><defs><clipPath id="cp43"><path d="M 4,-321 H 11756 V 3466 H 4 z M 7093,2322 7016,2507 6914,2334 7007,2536 7028,2535z" clip-rule="evenodd"/></clipPath></defs><polyline stroke="#000" stroke-linejoin="round" stroke-width="15" points="6896 749 7017 2525" clip-path="url(#cp43)"/><polyline stroke="#000" stroke-miterlimit="8" stroke-width="15" points="7093 2322 7016 2507 6914 2334"/><defs><clipPath id="cp44"><path d="M 4,-321 H 11756 V 3466 H 4 z M 380,2612 230,2478 428,2439 206,2460 200,2480z" clip-rule="evenodd"/></clipPath></defs><polyline stroke="#000" stroke-linejoin="round" stroke-width="15" points="1877 2932 213 2473" clip-path="url(#cp44)"/><polyline stroke="#000" stroke-miterlimit="8" stroke-width="15" points="380 2612 230 2478 428 2439"/><defs><clipPath id="cp45"><path d="M 4,-321 H 11756 V 3466 H 4 z M 7235,2784 7085,2650 7283,2611 7061,2632 7055,2652z" clip-rule="evenodd"/></clipPath></defs><polyline stroke="#000" stroke-linejoin="round" stroke-width="15" points="8848 3135 7068 2645" clip-path="url(#cp45)"/><polyline stroke="#000" stroke-miterlimit="8" stroke-width="15" points="7235 2784 7085 2650 7283 2611"/><defs><clipPath id="cp46"><path d="M 4,-321 H 11756 V 3466 H 4 z M 26,991 104,806 206,980 113,777 92,778z" clip-rule="evenodd"/></clipPath></defs><polyline stroke="#000" stroke-linejoin="round" stroke-width="15" points="213 2473 103 788" clip-path="url(#cp46)"/><polyline stroke="#000" stroke-miterlimit="8" stroke-width="15" points="26 991 104 806 206 980"/><defs><clipPath id="cp47"><path d="M 4,-321 H 11756 V 3466 H 4 z M 6873,1046 6951,861 7053,1034 6960,832 6939,833z" clip-rule="evenodd"/></clipPath></defs><polyline stroke="#000" stroke-linejoin="round" stroke-width="15" points="7068 2645 6950 843" clip-path="url(#cp47)"/><polyline stroke="#000" stroke-miterlimit="8" stroke-width="15" points="6873 1046 6951 861 7053 1034"/><defs><clipPath id="cp48"><path d="M 4,-321 H 11756 V 3466 H 4 z M 3957,781 3911,585 4096,665 3901,556 3885,570z" clip-rule="evenodd"/></clipPath></defs><polyline stroke="#000" stroke-linejoin="round" stroke-width="15" points="5175 2102 3900 571" clip-path="url(#cp48)"/><polyline stroke="#000" stroke-miterlimit="8" stroke-width="15" points="3957 781 3911 585 4096 665"/><defs><clipPath id="cp49"><path d="M 4,-321 H 11756 V 3466 H 4 z M 10390,738 10344,542 10529,622 10334,513 10318,527z" clip-rule="evenodd"/></clipPath></defs><polyline stroke="#000" stroke-linejoin="round" stroke-width="15" points="11697 2165 10333 528" clip-path="url(#cp49)"/><polyline stroke="#000" stroke-miterlimit="8" stroke-width="15" points="10390 738 10344 542 10529 622"/><defs><clipPath id="cp50"><path d="M 4,-321 H 11756 V 3466 H 4 z M 5152,1826 5199,2022 5014,1942 5209,2051 5225,2037z" clip-rule="evenodd"/></clipPath></defs><polyline stroke="#000" stroke-linejoin="round" stroke-width="15" points="3918 488 5210 2036" clip-path="url(#cp50)"/><polyline stroke="#000" stroke-miterlimit="8" stroke-width="15" points="5152 1826 5199 2022 5014 1942"/><defs><clipPath id="cp51"><path d="M 4,-321 H 11756 V 3466 H 4 z M 11676,1885 11723,2081 11538,2001 11733,2110 11749,2096z" clip-rule="evenodd"/></clipPath></defs><polyline stroke="#000" stroke-linejoin="round" stroke-width="15" points="10352 440 11734 2095" clip-path="url(#cp51)"/><polyline stroke="#000" stroke-miterlimit="8" stroke-width="15" points="11676 1885 11723 2081 11538 2001"/><defs><clipPath id="cp52"><path d="M 4,-321 H 11756 V 3466 H 4 z M 2545,555 2833,466 2732,750 2884,442 2860,416z" clip-rule="evenodd"/></clipPath></defs><polyline stroke="#000" stroke-linejoin="round" stroke-width="30" points="2160 1112 2859 441" clip-path="url(#cp52)"/><polyline stroke="#000" stroke-miterlimit="8" stroke-width="30" points="2545 555 2833 466 2732 750"/><defs><clipPath id="cp53"><path d="M 4,-321 H 11756 V 3466 H 4 z M 9584,585 9872,496 9771,780 9923,472 9899,446z" clip-rule="evenodd"/></clipPath></defs><polyline stroke="#000" stroke-linejoin="round" stroke-width="30" points="9150 1189 9898 471" clip-path="url(#cp53)"/><polyline stroke="#000" stroke-miterlimit="8" stroke-width="30" points="9584 585 9872 496 9771 780"/><defs><clipPath id="cp54"><path d="M 4,-321 H 11756 V 3466 H 4 z M 2200,843 2005,895 2080,708 1977,906 1991,922z" clip-rule="evenodd"/></clipPath></defs><polyline stroke="#000" stroke-linejoin="round" stroke-width="15" points="2717 265 1992 907" clip-path="url(#cp54)"/><polyline stroke="#000" stroke-miterlimit="8" stroke-width="15" points="2200 843 2005 895 2080 708"/><defs><clipPath id="cp55"><path d="M 4,-321 H 11756 V 3466 H 4 z M 9178,906 8983,958 9058,771 8955,969 8969,985z" clip-rule="evenodd"/></clipPath></defs><polyline stroke="#000" stroke-linejoin="round" stroke-width="15" points="9745 283 8970 970" clip-path="url(#cp55)"/><polyline stroke="#000" stroke-miterlimit="8" stroke-width="15" points="9178 906 8983 958 9058 771"/><defs><clipPath id="cp56"><path d="M 4,-321 H 11756 V 3466 H 4 z M 3365,1140 3080,1239 3171,952 3030,1265 3055,1290z" clip-rule="evenodd"/></clipPath></defs><polyline stroke="#000" stroke-linejoin="round" stroke-width="30" points="3721 578 3055 1265" clip-path="url(#cp56)"/><polyline stroke="#000" stroke-miterlimit="8" stroke-width="30" points="3365 1140 3080 1239 3171 952"/><defs><clipPath id="cp57"><path d="M 4,-321 H 11756 V 3466 H 4 z M 9739,1145 9454,1244 9545,957 9404,1270 9429,1295z" clip-rule="evenodd"/></clipPath></defs><polyline stroke="#000" stroke-linejoin="round" stroke-width="30" points="10141 536 9429 1270" clip-path="url(#cp57)"/><polyline stroke="#000" stroke-miterlimit="8" stroke-width="30" points="9739 1145 9454 1244 9545 957"/><defs><clipPath id="cp58"><path d="M 4,-321 H 11756 V 3466 H 4 z M 4975,2304 5176,2310 5050,2467 5206,2308 5197,2289z" clip-rule="evenodd"/></clipPath></defs><polyline stroke="#000" stroke-linejoin="round" stroke-width="15" points="3174 3231 5192 2303" clip-path="url(#cp58)"/><polyline stroke="#000" stroke-miterlimit="8" stroke-width="15" points="4975 2304 5176 2310 5050 2467"/><defs><clipPath id="cp59"><path d="M 4,-321 H 11756 V 3466 H 4 z M 11497,2382 11698,2388 11572,2545 11728,2386 11719,2367z" clip-rule="evenodd"/></clipPath></defs><polyline stroke="#000" stroke-linejoin="round" stroke-width="15" points="9557 3373 11714 2381" clip-path="url(#cp59)"/><polyline stroke="#000" stroke-miterlimit="8" stroke-width="15" points="11497 2382 11698 2388 11572 2545"/><defs><clipPath id="cp60"><path d="M 4,-321 H 11756 V 3466 H 4 z M 3716,568 3906,501 3845,693 3933,488 3918,473z" clip-rule="evenodd"/></clipPath></defs><polyline stroke="#000" stroke-linejoin="round" stroke-width="15" points="3262 1166 3918 488" clip-path="url(#cp60)"/><polyline stroke="#000" stroke-miterlimit="8" stroke-width="15" points="3716 568 3906 501 3845 693"/><defs><clipPath id="cp61"><path d="M 4,-321 H 11756 V 3466 H 4 z M 10150,519 10340,453 10279,645 10367,440 10352,425z" clip-rule="evenodd"/></clipPath></defs><polyline stroke="#000" stroke-linejoin="round" stroke-width="15" points="9651 1164 10352 440" clip-path="url(#cp61)"/><polyline stroke="#000" stroke-miterlimit="8" stroke-width="15" points="10150 519 10340 453 10279 645"/><defs><clipPath id="cp62"><path d="M 4,-321 H 11756 V 3466 H 4 z M 3310,3164 3109,3158 3235,3000 3079,3160 3088,3179z" clip-rule="evenodd"/></clipPath></defs><polyline stroke="#000" stroke-linejoin="round" stroke-width="15" points="5139 2221 3093 3165" clip-path="url(#cp62)"/><polyline stroke="#000" stroke-miterlimit="8" stroke-width="15" points="3310 3164 3109 3158 3235 3000"/><defs><clipPath id="cp63"><path d="M 4,-321 H 11756 V 3466 H 4 z M 9687,3301 9486,3295 9612,3137 9456,3297 9465,3316z" clip-rule="evenodd"/></clipPath></defs><polyline stroke="#000" stroke-linejoin="round" stroke-width="15" points="11658 2293 9470 3302" clip-path="url(#cp63)"/><polyline stroke="#000" stroke-miterlimit="8" stroke-width="15" points="9687 3301 9486 3295 9612 3137"/><defs><clipPath id="cp64"><path d="M 4,-321 H 11756 V 3466 H 4 z M 2015,1413 2159,1148 2285,1422 2179,1095 2143,1093z" clip-rule="evenodd"/></clipPath></defs><polyline stroke="#000" stroke-linejoin="round" stroke-width="30" points="2103 2887 2160 1112" clip-path="url(#cp64)"/><polyline stroke="#000" stroke-miterlimit="8" stroke-width="30" points="2015 1413 2159 1148 2285 1422"/><defs><clipPath id="cp65"><path d="M 4,-321 H 11756 V 3466 H 4 z M 9005,1490 9149,1225 9275,1499 9169,1172 9133,1170z" clip-rule="evenodd"/></clipPath></defs><polyline stroke="#000" stroke-linejoin="round" stroke-width="30" points="9090 3087 9150 1189" clip-path="url(#cp65)"/><polyline stroke="#000" stroke-miterlimit="8" stroke-width="30" points="9005 1490 9149 1225 9275 1499"/><defs><clipPath id="cp66"><path d="M 4,-321 H 11756 V 3466 H 4 z M 366,693 205,571 399,516 180,556 176,576z" clip-rule="evenodd"/></clipPath></defs><polyline stroke="#000" stroke-linejoin="round" stroke-width="15" points="1992 907 188 568" clip-path="url(#cp66)"/><polyline stroke="#000" stroke-miterlimit="8" stroke-width="15" points="366 693 205 571 399 516"/><defs><clipPath id="cp67"><path d="M 4,-321 H 11756 V 3466 H 4 z M 7219,733 7058,611 7252,556 7033,596 7029,616z" clip-rule="evenodd"/></clipPath></defs><polyline stroke="#000" stroke-linejoin="round" stroke-width="15" points="8970 970 7041 608" clip-path="url(#cp67)"/><polyline stroke="#000" stroke-miterlimit="8" stroke-width="15" points="7219 733 7058 611 7252 556"/><defs><clipPath id="cp68"><path d="M 4,-321 H 11756 V 3466 H 4 z M 1971,2736 1877,2914 1791,2732 1866,2942 1887,2943z" clip-rule="evenodd"/></clipPath></defs><polyline stroke="#000" stroke-linejoin="round" stroke-width="15" points="1912 1148 1877 2932" clip-path="url(#cp68)"/><polyline stroke="#000" stroke-miterlimit="8" stroke-width="15" points="1971 2736 1877 2914 1791 2732"/><defs><clipPath id="cp69"><path d="M 4,-321 H 11756 V 3466 H 4 z M 8942,2939 8848,3117 8762,2936 8837,3145 8858,3146z" clip-rule="evenodd"/></clipPath></defs><polyline stroke="#000" stroke-linejoin="round" stroke-width="15" points="8885 1228 8848 3135" clip-path="url(#cp69)"/><polyline stroke="#000" stroke-miterlimit="8" stroke-width="15" points="8942 2939 8848 3117 8762 2936"/><defs><clipPath id="cp70"><path d="M 4,-321 H 11756 V 3466 H 4 z M 3123,2755 2976,3018 2853,2743 2955,3071 2991,3073z" clip-rule="evenodd"/></clipPath></defs><polyline stroke="#000" stroke-linejoin="round" stroke-width="30" points="3055 1265 2974 3054" clip-path="url(#cp70)"/><polyline stroke="#000" stroke-miterlimit="8" stroke-width="30" points="3123 2755 2976 3018 2853 2743"/><defs><clipPath id="cp71"><path d="M 4,-321 H 11756 V 3466 H 4 z M 9492,2885 9345,3148 9222,2873 9324,3201 9360,3203z" clip-rule="evenodd"/></clipPath></defs><polyline stroke="#000" stroke-linejoin="round" stroke-width="30" points="9429 1270 9343 3184" clip-path="url(#cp71)"/><polyline stroke="#000" stroke-miterlimit="8" stroke-width="30" points="9492 2885 9345 3148 9222 2873"/><defs><clipPath id="cp72"><path d="M 4,-321 H 11756 V 3466 H 4 z M 1736,1021 1895,1145 1700,1198 1920,1160 1924,1140z" clip-rule="evenodd"/></clipPath></defs><polyline stroke="#000" stroke-linejoin="round" stroke-width="15" points="103 788 1912 1148" clip-path="url(#cp72)"/><polyline stroke="#000" stroke-miterlimit="8" stroke-width="15" points="1736 1021 1895 1145 1700 1198"/><defs><clipPath id="cp73"><path d="M 4,-321 H 11756 V 3466 H 4 z M 8709,1101 8868,1225 8673,1278 8893,1240 8897,1220z" clip-rule="evenodd"/></clipPath></defs><polyline stroke="#000" stroke-linejoin="round" stroke-width="15" points="6950 843 8885 1228" clip-path="url(#cp73)"/><polyline stroke="#000" stroke-miterlimit="8" stroke-width="15" points="8709 1101 8868 1225 8673 1278"/><defs><clipPath id="cp74"><path d="M 4,-321 H 11756 V 3466 H 4 z M 3081,1550 3179,1375 3260,1559 3191,1347 3170,1346z" clip-rule="evenodd"/></clipPath></defs><polyline stroke="#000" stroke-linejoin="round" stroke-width="15" points="3093 3165 3180 1357" clip-path="url(#cp74)"/><polyline stroke="#000" stroke-miterlimit="8" stroke-width="15" points="3081 1550 3179 1375 3260 1559"/><defs><clipPath id="cp75"><path d="M 4,-321 H 11756 V 3466 H 4 z M 9464,1562 9562,1387 9643,1571 9574,1359 9553,1358z" clip-rule="evenodd"/></clipPath></defs><polyline stroke="#000" stroke-linejoin="round" stroke-width="15" points="9470 3302 9563 1369" clip-path="url(#cp75)"/><polyline stroke="#000" stroke-miterlimit="8" stroke-width="15" points="9464 1562 9562 1387 9643 1571"/><defs><clipPath id="cp76"><path d="M 4,-321 H 11756 V 3466 H 4 z M 3406,1329 3278,1173 3479,1164 3257,1152 3248,1171z" clip-rule="evenodd"/></clipPath></defs><polyline stroke="#000" stroke-linejoin="round" stroke-width="15" points="5210 2036 3262 1166" clip-path="url(#cp76)"/><polyline stroke="#000" stroke-miterlimit="8" stroke-width="15" points="3406 1329 3278 1173 3479 1164"/><defs><clipPath id="cp77"><path d="M 4,-321 H 11756 V 3466 H 4 z M 9795,1327 9667,1171 9868,1163 9646,1150 9637,1169z" clip-rule="evenodd"/></clipPath></defs><polyline stroke="#000" stroke-linejoin="round" stroke-width="15" points="11734 2095 9651 1164" clip-path="url(#cp77)"/><polyline stroke="#000" stroke-miterlimit="8" stroke-width="15" points="9795 1327 9667 1171 9868 1163"/><defs><clipPath id="cp78"><path d="M 4,-321 H 11756 V 3466 H 4 z M 4994,2059 5123,2214 4922,2224 5144,2235 5153,2216z" clip-rule="evenodd"/></clipPath></defs><polyline stroke="#000" stroke-linejoin="round" stroke-width="15" points="3180 1357 5139 2221" clip-path="url(#cp78)"/><polyline stroke="#000" stroke-miterlimit="8" stroke-width="15" points="4994 2059 5123 2214 4922 2224"/><defs><clipPath id="cp79"><path d="M 4,-321 H 11756 V 3466 H 4 z M 11513,2131 11642,2286 11441,2296 11663,2307 11672,2288z" clip-rule="evenodd"/></clipPath></defs><polyline stroke="#000" stroke-linejoin="round" stroke-width="15" points="9563 1369 11658 2293" clip-path="url(#cp79)"/><polyline stroke="#000" stroke-miterlimit="8" stroke-width="15" points="11513 2131 11642 2286 11441 2296"/><polyline stroke="red" stroke-width="8" points="1749 112 1557 384"/><polyline stroke="red" stroke-width="8" points="1372 794 1472 581"/><polyline stroke="red" stroke-width="8" points="1882 486 2359 576"/><polyline stroke="red" stroke-width="8" points="2130 1869 2298 1607"/><polyline stroke="red" stroke-width="8" points="2471 2409 2462 1605"/><polyline stroke="red" stroke-width="8" points="2624 1442 2814 1294"/><polyline stroke="red" stroke-width="8" points="2458 1402 2520 780"/><polyline stroke="red" stroke-width="8" points="3339 2549 3387 1855"/><polyline stroke="red" stroke-width="8" points="3420 1640 3388 923"/><polyline stroke="red" stroke-width="8" points="3504 1641 3648 1478"/><polyline stroke="red" stroke-width="8" points="4225 1213 4373 1028"/><polyline stroke="red" stroke-width="8" points="4177 1575 4216 1406"/><polyline stroke="red" stroke-width="8" points="1290 465 757 225"/><polyline stroke="red" stroke-width="8" points="3567 839 4053 1215"/><polyline stroke="red" stroke-width="8" points="3021 1978 3126 1821"/><polyline stroke="red" stroke-width="8" points="8732 120 8541 404"/><polyline stroke="red" stroke-width="8" points="8329 850 8439 612"/><polyline stroke="red" stroke-width="8" points="8831 520 9385 616"/><polyline stroke="red" stroke-width="8" points="8212 488 7672 241"/><polyline stroke="red" stroke-width="8" points="9664 1588 9572 1138"/><polyline stroke="red" stroke-width="8" points="10048 752 10478 1155"/><polyline stroke="red" stroke-width="8" points="10625 1603 10573 1368"/><polyline stroke="red" stroke-width="8" points="10705 1160 10775 942"/><polyline stroke="red" stroke-width="8" points="9663 2344 9656 1808"/><polyline stroke="red" stroke-width="8" points="9987 1803 10044 1960"/><polyline stroke="red" stroke-width="8" points="9839 1416 9758 1595"/><polyline stroke="red" stroke-width="8" points="9517 1596 9223 1127"/><polyline stroke="red" stroke-width="8" points="9127 1882 9510 1685"/><polyline stroke="red" stroke-width="8" points="9873 2440 9876 1805"/><polyline stroke="red" stroke-width="8" points="9404 1930 9516 1799"/><defs><clipPath id="cp80"><path d="M 4,-321 H 11756 V 3466 H 4 z M 6712,41 6730,207 6607,321 7026,328 7033,309z" clip-rule="evenodd"/></clipPath></defs><path stroke="#000" stroke-width="15" d="M 3960,270 A 4154 4154 0 0 1 7020 315" clip-path="url(#cp80)"/><polygon stroke="#000" stroke-miterlimit="8" stroke-width="8" points="6607 321 7010 311 6712 41 6730 207 6607 321"/><defs><clipPath id="cp81"><path d="M 4,-321 H 11756 V 3466 H 4 z M 4777,3050 4777,2883 4911,2783 4495,2731 4486,2750z" clip-rule="evenodd"/></clipPath></defs><path stroke="#000" stroke-width="15" d="M 7155,2790 A 2767 2767 0 0 1 4500 2745" clip-path="url(#cp81)"/><polygon stroke="#000" stroke-miterlimit="8" stroke-width="8" points="4911 2783 4509 2750 4777 3050 4777 2883 4911 2783"/><text x="3263" y="2882" fill="#000" font-family="Times" font-size="192" font-style="normal" font-weight="normal" text-anchor="start" xml:space="preserve">7</text><text x="3702" y="1260" fill="#000" font-family="Times" font-size="192" font-style="normal" font-weight="normal" text-anchor="start" xml:space="preserve">8</text><text x="3252" y="931" fill="#000" font-family="Times" font-size="192" font-style="normal" font-weight="normal" text-anchor="start" xml:space="preserve">5</text><text x="2861" y="2081" fill="#000" font-family="Times" font-size="192" font-style="normal" font-weight="normal" text-anchor="start" xml:space="preserve">6</text><text x="2286" y="850" fill="#000" font-family="Times" font-size="192" font-style="normal" font-weight="normal" text-anchor="start" xml:space="preserve">1</text><text x="2875" y="885" fill="#000" font-family="Times" font-size="192" font-style="normal" font-weight="normal" text-anchor="start" xml:space="preserve">2</text><text x="2664" y="2354" fill="#000" font-family="Times" font-size="192" font-style="normal" font-weight="normal" text-anchor="start" xml:space="preserve">3</text><text x="1964" y="2265" fill="#000" font-family="Times" font-size="192" font-style="normal" font-weight="normal" text-anchor="start" xml:space="preserve">4</text><text x="10121" y="1256" fill="#000" font-family="Times" font-size="192" font-style="normal" font-weight="normal" text-anchor="start" xml:space="preserve">8</text><text x="9248" y="1720" fill="#000" font-family="Times" font-size="192" font-style="normal" font-weight="normal" text-anchor="start" xml:space="preserve">6</text><text x="9793" y="2774" fill="#000" font-family="Times" font-size="192" font-style="normal" font-weight="normal" text-anchor="start" xml:space="preserve">7</text><text x="9920" y="629" fill="#000" font-family="Times" font-size="192" font-style="normal" font-weight="normal" text-anchor="start" xml:space="preserve">5</text><text x="8985" y="1809" fill="#000" font-family="Times" font-size="192" font-style="normal" font-weight="normal" text-anchor="start" xml:space="preserve">4</text><text x="9319" y="911" fill="#000" font-family="Times" font-size="192" font-style="normal" font-weight="normal" text-anchor="start" xml:space="preserve">1</text><text x="9890" y="1167" fill="#000" font-family="Times" font-size="192" font-style="normal" font-weight="normal" text-anchor="start" xml:space="preserve">2</text><text x="9530" y="2699" fill="#000" font-family="Times" font-size="168" font-style="normal" font-weight="normal" text-anchor="start" xml:space="preserve">3</text><text x="4770" y="-90" fill="#000" font-family="Times" font-size="216" font-style="normal" font-weight="normal" text-anchor="start" xml:space="preserve">cm.sew&lt;3&gt;(1,5)</text><text x="5175" y="3375" fill="#000" font-family="Times" font-size="216" font-style="normal" font-weight="normal" text-anchor="start" xml:space="preserve">cm.unsew&lt;3&gt;(1)</text><polyline stroke="#9f9f9f" stroke-width="8" points="4420 2090 4427 2346"/><polyline stroke="#9f9f9f" stroke-width="8" points="4067 2670 4163 2829"/><polyline stroke="#9f9f9f" stroke-width="8" points="3001 2058 3153 2109"/><polyline stroke="#9f9f9f" stroke-width="8" points="4109 1521 3990 1758"/><polyline stroke="#9f9f9f" stroke-width="8" points="4442 1274 4554 1202"/><polyline stroke="#9f9f9f" stroke-width="8" points="3622 1427 3858 1474"/><polyline stroke="#9f9f9f" stroke-width="8" points="3253 2594 3577 2704"/><polyline stroke="#9f9f9f" stroke-width="8" points="3387 898 3529 891"/><polyline stroke="#9f9f9f" stroke-width="8" points="1304 766 1164 1048"/><polyline stroke="#9f9f9f" stroke-width="8" points="558 1968 804 2129"/><polyline stroke="#9f9f9f" stroke-width="8" points="1839 1701 1782 1968"/><polyline stroke="#9f9f9f" stroke-width="8" points="2240 2544 2373 2544"/><polyline stroke="#9f9f9f" stroke-width="8" points="1170 2706 1008 2748"/><polyline stroke="#9f9f9f" stroke-width="8" points="1810 103 1887 265"/><polyline stroke="#9f9f9f" stroke-width="8" points="2380 532 2578 778"/><polyline stroke="#9f9f9f" stroke-width="8" points="733 229 733 265 733 299"/><polyline stroke="#9f9f9f" stroke-width="8" points="72 1503 107 1517 129 1553 163 1567"/><polyline stroke="#9f9f9f" stroke-width="8" points="972 843 1183 785"/><polyline stroke="#9f9f9f" stroke-width="8" points="1872 1902 2183 1911"/><polyline stroke="#9f9f9f" stroke-width="8" points="3556 2608"/><polyline stroke="#9f9f9f" stroke-width="8" points="2661 1229 2838 1249"/><polyline stroke="#9f9f9f" stroke-width="8" points="10889 2153 10896 2426"/><polyline stroke="#9f9f9f" stroke-width="8" points="10511 2773 10614 2943"/><polyline stroke="#9f9f9f" stroke-width="8" points="9371 2118 9534 2173"/><polyline stroke="#9f9f9f" stroke-width="8" points="10557 1544 10429 1798"/><polyline stroke="#9f9f9f" stroke-width="8" points="10036 1443 10289 1494"/><polyline stroke="#9f9f9f" stroke-width="8" points="9641 2691 9987 2810"/><polyline stroke="#9f9f9f" stroke-width="8" points="9784 878 9937 870"/><polyline stroke="#9f9f9f" stroke-width="15" points="10913 1280 11032 1203"/><polyline stroke="#9f9f9f" stroke-width="8" points="8234 819 8084 1120"/><polyline stroke="#9f9f9f" stroke-width="8" points="7437 2105 7699 2276"/><polyline stroke="#9f9f9f" stroke-width="8" points="8806 1819 8746 2105"/><polyline stroke="#9f9f9f" stroke-width="8" points="9235 2720 9378 2720"/><polyline stroke="#9f9f9f" stroke-width="8" points="8091 2894 7918 2939"/><polyline stroke="#9f9f9f" stroke-width="8" points="8776 110 8859 283"/><polyline stroke="#9f9f9f" stroke-width="8" points="9385 569 9597 832"/><polyline stroke="#9f9f9f" stroke-width="8" points="7624 245 7624 283 7624 320"/><polyline stroke="#9f9f9f" stroke-width="8" points="6917 1607 6954 1622 6978 1661 7015 1676"/><polyline stroke="#9f9f9f" stroke-width="8" points="7880 902 8105 840"/><polyline stroke="#9f9f9f" stroke-width="8" points="8842 2034 9175 2044"/><polyline stroke="#9f9f9f" stroke-width="8" points="10643 2789"/><polyline stroke="#9f9f9f" stroke-width="8" points="9686 1314 9875 1336"/><rect width="658" height="199" x="1272" y="360" fill="#fff" stroke="#000" stroke-width="15"/><rect width="670" height="200" x="1998" y="1402" fill="#fff" stroke="#000" stroke-width="15"/><rect width="674" height="186" x="4040" y="1215" fill="#fff" stroke="#000" stroke-width="15"/><rect width="658" height="198" x="3093" y="1645" fill="#fff" stroke="#000" stroke-width="15"/><rect width="726" height="228" x="10320" y="1156" fill="#fff" stroke="#000" stroke-width="15"/><rect width="710" height="213" x="9431" y="1593" fill="#fff" stroke="#000" stroke-width="15"/><rect width="664" height="213" x="8171" y="407" fill="#fff" stroke="#000" stroke-width="15"/><text x="1299" y="525" fill="#000" font-family="Times" font-size="144" font-style="normal" font-weight="bold" text-anchor="start" xml:space="preserve">#ff0000</text><text x="2024" y="1571" fill="#000" font-family="Times" font-size="144" font-style="normal" font-weight="bold" text-anchor="start" xml:space="preserve">#00ff00</text><text x="4056" y="1381" fill="#000" font-family="Times" font-size="144" font-style="normal" font-weight="bold" text-anchor="start" xml:space="preserve">#82a0ff</text><text x="3117" y="1811" fill="#000" font-family="Times" font-size="144" font-style="normal" font-weight="bold" text-anchor="start" xml:space="preserve">#ff0000</text><text x="10343" y="1340" fill="#000" font-family="Times" font-size="144" font-style="normal" font-weight="bold" text-anchor="start" xml:space="preserve">#82a0ff</text><text x="9461" y="1769" fill="#000" font-family="Times" font-size="144" font-style="normal" font-weight="bold" text-anchor="start" xml:space="preserve">#00ff00</text><text x="8193" y="584" fill="#000" font-family="Times" font-size="144" font-style="normal" font-weight="bold" text-anchor="start" xml:space="preserve">#ff0000</text><polyline stroke="#00f" stroke-width="30" points="9532 808 9795 898"/><polyline stroke="#00f" stroke-width="30" points="9132 2117 9398 2138"/><polyline stroke="#00f" stroke-width="30" points="9545 2473 9766 2591"/><polyline stroke="#00f" stroke-width="30" points="9853 1405 10077 1442"/></g></svg>