<svg xmlns="http://www.w3.org/2000/svg" xmlns:xlink="http://www.w3.org/1999/xlink" id="Layer_1" width="373.7" height="139.1" x="0" style="enable-background:new 0 0 373.7 139.1" y="0" version="1.1" viewBox="0 0 373.7 139.1" xml:space="preserve"><style type="text/css">.st0,.st1{display:none;fill:#afaeae}.st1{stroke:#000;stroke-miterlimit:10}.st1,.st2,.st3{stroke-width:.5}.st2{fill:#afaeae;stroke:#000;stroke-miterlimit:10}.st3{stroke-dasharray:4}.st3,.st4,.st5{fill:none;stroke:#000;stroke-miterlimit:10}.st5{stroke-width:1.5}</style><polygon points="16.9 36.3 23 155.8 136 98.5" class="st0"/><polygon points="16.9 36.3 20 96 58.7 96.9 76.5 67.4" class="st1"/><g><polygon points="19.9 19.2 11.4 71.7 67.6 80.8 73.8 22.5" class="st2"/><g><polyline points="21.9 19.3 19.9 19.2 19.6 21.2" class="st3"/><line x1="19" x2="12" y1="24.9" y2="67.9" class="st3"/><polyline points="11.7 69.7 11.4 71.7 13.4 72" class="st3"/><line x1="17.4" x2="63.6" y1="72.7" y2="80.1" class="st3"/><polyline points="65.6 80.5 67.6 80.8 67.8 78.8" class="st3"/><line x1="68.2" x2="73.4" y1="74.6" y2="26.6" class="st3"/><polyline points="73.6 24.5 73.8 22.5 71.8 22.4" class="st3"/><line x1="68" x2="23.8" y1="22.1" y2="19.4" class="st3"/></g></g><circle cx="2.9" cy="124.2" r="2.5"/><circle cx="122.7" cy="25.8" r="2.5"/><circle cx="19.9" cy="19.2" r="2.5"/><polyline points="19.9 19.2 2.9 124.2 122.7 25.8 19.9 19.2" class="st4"/><polygon points="259.9 19.1 251.4 71.6 303 74.8 313.8 22.4" class="st2"/><circle cx="242.9" cy="124.1" r="2.5"/><circle cx="362.7" cy="25.7" r="2.5"/><circle cx="259.9" cy="19.1" r="2.5"/><polyline points="259.9 19.1 242.9 124.1 362.7 25.7 259.9 19.1" class="st4"/><g><g><line x1="167.9" x2="192.2" y1="71.7" y2="71.7" class="st5"/><g><polygon points="189.7 75 191.1 71.7 189.7 68.4 197.6 71.7"/></g></g></g><g><g><path d="M17.3,8c0.9,0,1.5-0.4,2.4-1.5L19.9,7c-0.8,1.4-1.7,2-2.9,2c-2.2,0-3.7-1.8-3.7-4.4c0-2.7,1.6-4.6,3.8-4.6 c1,0,2,0.4,2.9,1.8l-0.2,0.5c-1-1-1.8-1.3-2.4-1.3c-1.4,0-2.5,1.1-2.5,3.6C14.8,6.9,15.8,8,17.3,8z M20.4,12.1l2,0.4v0.6h-4.6 v-0.6l2.2-0.4H20.4z M20.9,13.1h-1.5c0-1.3,0.1-2.6,0.1-3.8V7.5l-0.1-0.3V1.3L20.6,0l0.3,0.2l-0.1,2.4v6.7 C20.9,10.5,20.9,11.8,20.9,13.1z"/></g></g><g><g><path d="M257.3,8c0.9,0,1.5-0.4,2.4-1.5l0.2,0.5c-0.8,1.4-1.7,2-2.9,2c-2.2,0-3.7-1.8-3.7-4.4c0-2.7,1.6-4.6,3.8-4.6 c1,0,2,0.4,2.9,1.8l-0.2,0.5c-1-1-1.8-1.3-2.4-1.3c-1.4,0-2.5,1.1-2.5,3.6C254.8,6.9,255.8,8,257.3,8z M260.4,12.1l2,0.4v0.6h-4.6 v-0.6l2.2-0.4H260.4z M260.9,13.1h-1.5c0-1.3,0.1-2.6,0.1-3.8V7.5l-0.1-0.3V1.3l1.2-1.3l0.3,0.2l-0.1,2.4v6.7 C260.9,10.5,260.9,11.8,260.9,13.1z"/></g></g><g><g><path d="M128.9,43.3v0.6h-4.6v-0.6l2-0.4h0.4L128.9,43.3z M125.8,35c0-1,0-1.5-0.1-2.3l-1.4-0.2v-0.6l2.4-1.1L127,31l0.1,1.5h0.1 v5.6l-0.1,0.1V40c0,1.3,0,2.6,0.1,3.8h-1.5c0-1.3,0.1-2.5,0.1-3.8V35z M129.5,31.8c-0.7,0-1.6,0.3-2.9,1.6l-0.2-0.3 c1-1.6,2.2-2.3,3.4-2.3c1.9,0,3.4,1.7,3.4,4.5s-1.6,4.5-3.7,4.5c-1.1,0-2.2-0.5-3.2-2.4l0.2-0.3c0.9,1.2,1.8,1.7,2.7,1.7 c1.4,0,2.5-1.1,2.5-3.4C131.8,33.1,130.8,31.8,129.5,31.8z"/></g></g><g><g><path d="M369.4,43.3v0.6h-4.6v-0.6l2-0.4h0.4L369.4,43.3z M366.3,35c0-1,0-1.5-0.1-2.3l-1.4-0.2v-0.6l2.4-1.1l0.3,0.2l0.1,1.5h0.1 v5.6l-0.1,0.1V40c0,1.3,0,2.6,0.1,3.8h-1.5c0-1.3,0.1-2.5,0.1-3.8V35z M370,31.8c-0.7,0-1.6,0.3-2.9,1.6l-0.2-0.3 c1-1.6,2.2-2.3,3.4-2.3c1.9,0,3.4,1.7,3.4,4.5s-1.6,4.5-3.7,4.5c-1.1,0-2.2-0.5-3.2-2.4l0.2-0.3c0.9,1.2,1.8,1.7,2.7,1.7 c1.4,0,2.5-1.1,2.5-3.4C372.3,33.2,371.3,31.8,370,31.8z"/></g></g><g><g><path d="M1.5,135.2v-0.8c0-1,0-1.5-0.1-2.3L0,131.9v-0.6l2.4-1.1l0.3,0.2l0.2,2.3v2.6c0,1.1,0,3,0.1,3.8H1.5 C1.5,138.2,1.5,136.3,1.5,135.2z M0.2,138.3l2-0.4h0.4l2,0.4v0.6H0.2V138.3z M2.2,132.7h1l-0.5,0.1c0.6-1.7,1.7-2.7,2.7-2.7 c0.5,0,1.1,0.3,1.3,0.6c0,0.8-0.3,1.3-1,1.3c-0.4,0-0.8-0.2-1.1-0.4l-0.5-0.4L5,131c-1.1,0.6-1.8,1.5-2.2,2.9H2.2V132.7z"/></g></g><g><g><path d="M241.5,135.2v-0.8c0-1,0-1.5-0.1-2.3l-1.4-0.2v-0.6l2.4-1.1l0.3,0.2l0.2,2.3v2.6c0,1.1,0,3,0.1,3.8h-1.5 C241.5,138.2,241.5,136.3,241.5,135.2z M240.2,138.3l2-0.4h0.4l2,0.4v0.6h-4.3L240.2,138.3L240.2,138.3z M242.2,132.7h1l-0.5,0.1 c0.6-1.7,1.7-2.7,2.7-2.7c0.5,0,1.1,0.3,1.3,0.6c0,0.8-0.3,1.3-1,1.3c-0.4,0-0.8-0.2-1.1-0.4l-0.5-0.4l0.9-0.2 c-1.1,0.6-1.8,1.5-2.2,2.9h-0.7v-1.2H242.2z"/></g></g></svg>