<svg xmlns="http://www.w3.org/2000/svg" xmlns:svg="http://www.w3.org/2000/svg" id="Layer_1" width="501.2" height="161" x="0" y="0" version="1.1" viewBox="0 0 501.2 161" xml:space="preserve" style="enable-background:new 0 0 501.2 161"><style id="style2" type="text/css">.st0{fill:none;stroke:#000;stroke-miterlimit:10}.st1{display:none}.st2{display:inline}</style><circle id="circle4" cx="3.7" cy="86.7" r="2.5"/><circle id="circle6" cx="96.2" cy="139.6" r="2.5"/><circle id="circle8" cx="209.3" cy="82.4" r="2.5"/><circle id="circle10" cx="90.2" cy="20.1" r="2.5"/><polyline id="polyline12" points="90.2 20.1 3.7 86.7 96.2 139.6 90.2 20.1" class="st0"/><polyline id="polyline14" points="96.2 139.6 209.3 82.3 90.2 20.1" class="st0"/><g id="g24" class="st1"><g id="g22" class="st2"><path id="path16" d="M67.6,118.4c5.9-8.7,15.6-14.6,26.8-15.2" class="st0"/><g id="g20"><polygon id="polygon18" points="70.9 118.1 68.1 117.7 66.4 115.4 65.5 122"/></g></g></g><g id="g34" class="st1"><g id="g32" class="st2"><path id="path26" d="M98.5,107c10,2.3,18.8,9.2,23.3,19.2" class="st0"/><g id="g30"><polygon id="polygon28" points="100 109.9 99.4 107.2 100.9 104.8 94.4 106.3"/></g></g></g><g id="g44" class="st1"><g id="g42" class="st2"><path id="path36" d="M172.4,95.8c-3.6-9.9-2.6-21.3,3.5-30.6" class="st0"/><g id="g40"><polygon id="polygon38" points="174.1 93 172.1 95 169.3 95 174.1 99.6"/></g></g></g><g id="g54" class="st1"><g id="g52" class="st2"><path id="path46" d="M29.7,72.1c5.6,8.9,7.1,20.2,3.1,30.7" class="st0"/><g id="g50"><polygon id="polygon48" points="28.6 75.2 30.1 72.8 32.9 72.2 27.2 68.7"/></g></g></g><g id="g64" class="st1"><g id="g62" class="st2"><path id="path56" d="M116.3,38.5C111.8,48,103,55.3,92.1,57.6" class="st0"/><g id="g60"><polygon id="polygon58" points="113.1 39.3 115.9 39.2 117.9 41.2 117.9 34.6"/></g></g></g><g id="g74" class="st1"><g id="g72" class="st2"><path id="path66" d="M87.5,54c-10,0.9-20.2-2.8-27.3-10.7" class="st0"/><g id="g70"><polygon id="polygon68" points="85.2 51.6 86.6 54 85.9 56.8 91.6 53.3"/></g></g></g><g id="g80"><g id="g78" class="st1"><path id="path76" d="M84.2,120.7v1.5c-0.4-2-1.1-3.9-1.8-5.7c-0.5-1.5-0.8-2-1.4-2c-0.2,0-0.4,0-0.6,0.1l-0.2-0.5 c0.4-0.4,0.8-0.7,1.4-0.7c0.7,0,1.3,0.3,2,2.4c0.4,1.1,0.9,2.8,1.4,5.4l0.1,0.1l0.1,3.9l-1.4,0.3l-0.2-0.2L84.2,120.7z M84.7,121.3c1.2-2.1,1.7-3.5,2.5-5.5l-0.2,1.4c-0.2-1.7-0.3-2.3-0.3-2.7c0-0.8,0.4-1.2,0.9-1.2c0.3,0,0.5,0.1,0.6,0.2 c0.1,0.2,0.1,0.4,0.1,0.8c0,1.9-1.8,5.3-3.3,7.8L84.7,121.3z" class="st2"/></g></g><g id="g86"><g id="g84" class="st1"><path id="path82" d="M100.3,127v-8.8c0-2.6,1.6-4.3,3.8-4.3c1.8,0,3.2,1.1,3.2,3c0,1.4-1,3.3-3.6,3.5l-0.1-0.2 c3-0.1,4.7,1,4.7,3.4c0,2.5-1.9,3.8-3.7,3.8c-1.3,0-2.6-0.6-3.3-2.2l0.2-0.2c0.8,0.7,1.7,1.2,2.8,1.2c1.7,0,2.6-1.1,2.6-2.7 c0-1.5-0.8-2.9-3.5-2.8l-0.2-1c1.7-0.3,2.7-1.3,2.7-2.9c0-1.4-0.7-2.3-1.9-2.3c-1.3,0-2.2,1.2-2.2,3.2v7.7l-0.1,0.3l0.3,4.5 l-1.4,0.3l-0.2-0.2L100.3,127z" class="st2"/></g></g><g id="g92"><g id="g90" class="st1"><path id="path88" d="M83.1,78.4v-0.8c0-1,0-1.5-0.1-2.3l-1.4-0.2v-0.6l2.4-1.1l0.3,0.2l0.2,2.3v2.6c0,1.1,0,3,0.1,3.8h-1.5 C83.1,81.4,83.1,79.6,83.1,78.4z M81.8,81.6l2-0.4h0.4l2,0.4v0.6h-4.3L81.8,81.6L81.8,81.6z M83.9,76h1l-0.5,0.1 c0.6-1.7,1.7-2.7,2.7-2.7c0.5,0,1.1,0.3,1.3,0.6c0,0.8-0.3,1.3-1,1.3c-0.4,0-0.8-0.2-1.1-0.4l-0.5-0.4l0.9-0.2 c-1.1,0.6-1.8,1.5-2.2,2.9h-0.7L83.9,76L83.9,76z" class="st2"/></g></g><g id="g98"><g id="g96" class="st1"><path id="path94" d="M21.1,89v-8.8c0-2.6,1.6-4.3,3.8-4.3c1.8,0,3.2,1.1,3.2,3c0,1.4-1,3.3-3.6,3.5l-0.1-0.2c3-0.1,4.7,1,4.7,3.4 c0,2.5-1.9,3.8-3.7,3.8c-1.3,0-2.6-0.6-3.3-2.2l0.2-0.2c0.8,0.7,1.7,1.2,2.8,1.2c1.7,0,2.6-1.1,2.6-2.7c0-1.5-0.8-2.9-3.5-2.8 l-0.2-1c1.7-0.3,2.7-1.3,2.7-2.9c0-1.4-0.7-2.3-1.9-2.3c-1.3,0-2.2,1.2-2.2,3.2v7.7l-0.1,0.3l0.3,4.5l-1.4,0.3l-0.2-0.2L21.1,89z" class="st2"/></g></g><g id="g104"><g id="g102" class="st1"><path id="path100" d="M181.9,83.9v1.5c-0.4-2-1.1-3.9-1.8-5.7c-0.5-1.5-0.8-2-1.4-2c-0.2,0-0.4,0-0.6,0.1l-0.2-0.5 c0.4-0.4,0.8-0.7,1.4-0.7c0.7,0,1.3,0.3,2,2.4c0.4,1.1,0.9,2.8,1.4,5.4l0.1,0.1l0.1,3.9l-1.4,0.3l-0.2-0.2L181.9,83.9z M182.4,84.5c1.2-2.1,1.7-3.5,2.5-5.5l-0.2,1.4c-0.2-1.7-0.3-2.3-0.3-2.7c0-0.8,0.4-1.2,0.9-1.2c0.3,0,0.5,0.1,0.6,0.2 c0.1,0.2,0.1,0.4,0.1,0.8c0,1.9-1.8,5.3-3.3,7.8L182.4,84.5z" class="st2"/></g></g><g id="g112"><g id="g110" class="st1"><path id="path106" d="M32.9,41.8V41c0-1,0-1.5-0.1-2.3l-1.4-0.2v-0.6l2.4-1.1l0.3,0.2l0.2,2.3v2.6c0,1.1,0,3,0.1,3.8h-1.5 C32.8,44.7,32.9,42.9,32.9,41.8z M31.5,44.9l2-0.4h0.4l2,0.4v0.6h-4.3v-0.6H31.5z M33.6,39.3h1l-0.5,0.1c0.6-1.7,1.7-2.7,2.7-2.7 c0.5,0,1.1,0.3,1.3,0.6c0,0.8-0.3,1.3-1,1.3c-0.4,0-0.8-0.2-1.1-0.4l-0.5-0.4l0.9-0.2c-1.1,0.6-1.8,1.5-2.2,2.9h-0.6 C33.6,40.5,33.6,39.3,33.6,39.3z" class="st2"/><path id="path108" d="M39.7,45.5c0-0.5,0-1.8,0-2.5v-0.6c0-0.7,0-1,0-1.5l-1-0.1v-0.4l1.6-0.7l0.2,0.1l0.1,1.4V43c0,0.7,0,2,0,2.5 C40.6,45.5,39.7,45.5,39.7,45.5z M41.5,45.1v0.4h-2.8v-0.4l1.3-0.2h0.2L41.5,45.1z M44.3,41.9V43c0,0.8,0,2,0,2.5h-1 c0-0.5,0-1.8,0-2.5v-1c0-1.1-0.3-1.5-1-1.5c-0.6,0-1.1,0.2-1.7,0.8h-0.3v-0.5h0.6L40.4,41c0.6-0.8,1.5-1.3,2.3-1.3 C43.8,39.7,44.3,40.3,44.3,41.9z M43.9,44.9l1.2,0.2v0.4h-2.8v-0.4l1.3-0.2H43.9z M47.9,41.8V43c0,0.8,0,2,0,2.5h-1 c0-0.5,0-1.8,0-2.5v-1c0-1.1-0.3-1.5-1-1.5c-0.5,0-1,0.2-1.7,0.8h-0.3v-0.4h0.6L43.9,41c0.6-0.9,1.5-1.3,2.4-1.3 C47.3,39.7,47.9,40.3,47.9,41.8z M47.5,44.9l1.2,0.2v0.4h-2.8v-0.4l1.3-0.2H47.5z" class="st2"/></g></g><g id="g120"><g id="g118" class="st1"><path id="path114" d="M151.9,41.8V41c0-1,0-1.5-0.1-2.3l-1.4-0.2v-0.6l2.4-1.1l0.3,0.2l0.2,2.2v2.6c0,1.1,0,3,0.1,3.8h-1.5 C151.8,44.7,151.9,42.9,151.9,41.8z M150.5,44.9l2-0.4h0.4l2,0.4v0.6h-4.3L150.5,44.9L150.5,44.9z M152.6,39.3h1l-0.5,0.1 c0.6-1.7,1.7-2.7,2.7-2.7c0.5,0,1.1,0.3,1.3,0.6c0,0.8-0.3,1.3-1,1.3c-0.4,0-0.8-0.2-1.1-0.4l-0.5-0.4l0.9-0.2 c-1.1,0.6-1.8,1.5-2.2,2.9h-0.6L152.6,39.3L152.6,39.3z" class="st2"/><path id="path116" d="M160.8,48v0.4h-3.1V48l1.4-0.2h0.2L160.8,48z M158.7,42.5c0-0.7,0-1,0-1.5l-1-0.1v-0.4l1.6-0.7l0.2,0.1l0.1,1 l0,0v3.7v0.1v1.2c0,0.8,0,1.7,0,2.5h-1c0-0.8,0-1.7,0-2.5L158.7,42.5L158.7,42.5z M161.2,40.4c-0.4,0-1,0.2-1.9,1.1l-0.1-0.2 c0.7-1.1,1.5-1.5,2.3-1.5c1.3,0,2.3,1.1,2.3,3c0,1.8-1.1,3-2.5,3c-0.7,0-1.5-0.3-2.1-1.6l0.1-0.2c0.6,0.8,1.2,1.1,1.8,1.1 c0.9,0,1.7-0.7,1.7-2.3S162.1,40.4,161.2,40.4z" class="st2"/></g></g><circle id="circle122" cx="283.4" cy="87.3" r="2.5"/><circle id="circle124" cx="375.9" cy="140.2" r="2.5"/><circle id="circle126" cx="488.9" cy="83" r="2.5"/><circle id="circle128" cx="369.8" cy="20.6" r="2.5"/><line id="line130" x1="369.8" x2="283.4" y1="20.6" y2="87.3" class="st0"/><line id="line132" x1="488.9" x2="369.8" y1="82.9" y2="20.6" class="st0"/><polygon id="polygon134" points="375.9 140.2 283.4 87.3 488.9 82.9" class="st0"/><g id="g140"><g id="g138" class="st1"><path id="path136" d="M367.1,53.4v-0.7h2.5v1h-0.2L367.1,53.4z M369.6,63.8v1h-2.5V64l2.3-0.3L369.6,63.8L369.6,63.8z M368.8,58.3 c0-1.9,0-3.7-0.1-5.6h1.7c-0.1,1.8-0.1,3.7-0.1,5.6v0.6c0,2.1,0,4,0.1,5.9h-1.7c0.1-1.8,0.1-3.7,0.1-5.6V58.3z M369.6,58.1h1.8 c2.2,0,3.2-0.7,3.2-2.4s-1-2.2-2.8-2.2h-2.2v-0.8h2.7c2.5,0,3.9,1.2,3.9,3c0,1.4-1,2.6-3.4,2.9v-0.2c2.8,0.2,4,1.5,4,3 c0,1.6-1.4,3.3-4.8,3.3h-2.4v-0.8h2c2.3,0,3.5-0.9,3.5-2.5c0-1.7-1.1-2.5-3.6-2.5h-1.9L369.6,58.1L369.6,58.1z" class="st2"/></g></g><g id="g146"><g id="g144"><path id="path142" d="M380,112.1v1l-1.1,0.3l0.5-2.7h1.1l-0.1,2.6c-1.1,0.6-2.4,0.9-3.6,0.9c-3.6,0-6.1-2.6-6.1-6.3c0-3.6,2.6-6.3,6.1-6.3 c1,0,2.3,0.2,3.5,0.9l0.1,2.6h-1.1l-0.5-2.7l1.1,0.3v1.1c-1-1-2-1.3-2.9-1.3c-2.4,0-4.4,1.9-4.4,5.4s1.8,5.4,4.3,5.4 C377.8,113.2,379,112.9,380,112.1z"/></g></g><g id="g152"><g id="g150"><path id="path148" d="M86.5,8c0.9,0,1.5-0.4,2.4-1.5L89.1,7c-0.8,1.4-1.7,2-2.9,2c-2.2,0-3.7-1.8-3.7-4.4c0-2.7,1.6-4.6,3.8-4.6 c1,0,2,0.4,2.9,1.8L89,2.3c-1-1-1.8-1.3-2.4-1.3c-1.4,0-2.5,1.1-2.5,3.6C84,6.9,85,8,86.5,8z M89.6,12.1l2,0.4v0.6H87v-0.6 l2.2-0.4H89.6z M90.1,13.1h-1.5c0-1.3,0.1-2.6,0.1-3.8V7.5l-0.1-0.3V1.3L89.8,0l0.3,0.2L90,2.6v6.7C90.1,10.5,90.1,11.8,90.1,13.1 z"/></g></g><g id="g158"><g id="g156"><path id="path154" d="M366.2,8c0.9,0,1.5-0.4,2.4-1.5l0.2,0.5c-0.8,1.4-1.7,2-2.9,2c-2.2,0-3.7-1.8-3.7-4.4c0-2.7,1.6-4.6,3.8-4.6 c1,0,2,0.4,2.9,1.8l-0.2,0.5c-1-1-1.8-1.3-2.4-1.3c-1.3,0-2.5,1.1-2.5,3.6C363.7,6.9,364.7,8,366.2,8z M369.3,12.1l2,0.4v0.6h-4.6 v-0.6l2.2-0.4H369.3z M369.8,13.1h-1.5c0-1.3,0.1-2.6,0.1-3.8V7.5l-0.1-0.3V1.3l1.2-1.3l0.3,0.2l-0.1,2.4v6.7 C369.8,10.5,369.8,11.8,369.8,13.1z"/></g></g><g id="g166"><g id="g164"><path id="path160" d="M55.3,84.2l1.8-0.3h0.4l2,0.3v0.7h-4.1L55.3,84.2L55.3,84.2z M60.7,72.8h1.1L65.9,85h-1.7l-3.6-10.8H61L57.3,85h-0.8 L60.7,72.8z M58.6,80.2h4.9l0.3,0.8h-5.4L58.6,80.2z M62.1,84.2l2.3-0.3h0.4l2.2,0.3v0.7h-4.9C62.1,84.9,62.1,84.2,62.1,84.2z"/></g></g><g id="g174"><g id="g172"><path id="path168" d="M123.1,84.8l1.8-0.3h0.4l2,0.3v0.7h-4.1v-0.7H123.1z M128.5,73.4h1.1l4.1,12.2H132l-3.6-10.9h0.4l-3.7,10.8h-0.8 L128.5,73.4z M126.3,80.8h4.9l0.3,0.8h-5.4L126.3,80.8z M129.9,84.8l2.3-0.3h0.4l2.2,0.3v0.7h-4.9V84.8z"/><path id="path170" d="M135.9,84.6l1.7-1.6c1.1-1,1.6-1.9,1.6-2.8s-0.5-1.4-1.4-1.4c-0.3,0-0.7,0.1-1.1,0.2l0.7-0.5l-0.3,1 c-0.2,0.7-0.4,0.9-0.7,0.9s-0.5-0.2-0.6-0.4c0.1-1.2,1.2-1.8,2.5-1.8c1.6,0,2.2,0.9,2.2,1.9s-0.7,1.8-2.3,3.3l-1.7,1.6l0.3-0.7h4 v1.2H136L135.9,84.6L135.9,84.6z"/></g></g><g id="g182"><g id="g180"><path id="path176" d="M4.6,108.9v0.6H0v-0.6l2-0.4h0.4L4.6,108.9z M1.5,100.6c0-1,0-1.5-0.1-2.3L0,98.1v-0.6l2.4-1.1l0.3,0.2l0.1,1.5h0.1v5.6 l-0.1,0.1v1.8c0,1.3,0,2.6,0.1,3.8H1.5c0-1.3,0.1-2.5,0.1-3.8L1.5,100.6L1.5,100.6z M5.2,97.4c-0.7,0-1.6,0.3-2.9,1.6l-0.2-0.3 c1-1.6,2.2-2.3,3.4-2.3c1.9,0,3.4,1.7,3.4,4.5s-1.6,4.5-3.7,4.5c-1.1,0-2.2-0.5-3.2-2.4l0.2-0.3c0.9,1.2,1.8,1.7,2.7,1.7 c1.4,0,2.5-1.1,2.5-3.4C7.5,98.7,6.5,97.4,5.2,97.4z"/><path id="path178" d="M15.7,105.5c0,2.6-1.2,3.7-2.5,3.7c-1.3,0-2.5-1.1-2.5-3.7s1.2-3.7,2.5-3.7C14.5,101.7,15.7,102.8,15.7,105.5z M13.2,108.6c0.6,0,1.2-0.6,1.2-3.1c0-2.6-0.6-3.1-1.2-3.1c-0.6,0-1.2,0.5-1.2,3.1C12,108,12.6,108.6,13.2,108.6z"/></g></g><g id="g190"><g id="g188"><path id="path184" d="M96.9,160.4v0.6h-4.6v-0.6l2-0.4h0.4L96.9,160.4z M93.8,152.1c0-1,0-1.5-0.1-2.3l-1.4-0.2V149l2.4-1.1l0.3,0.2l0.1,1.5 h0.1v5.6l-0.1,0.1v1.8c0,1.3,0,2.6,0.1,3.8h-1.5c0-1.3,0.1-2.5,0.1-3.8V152.1z M97.5,148.9c-0.7,0-1.6,0.3-2.9,1.6l-0.2-0.3 c1-1.6,2.2-2.3,3.4-2.3c1.9,0,3.4,1.7,3.4,4.5s-1.6,4.5-3.7,4.5c-1.1,0-2.2-0.5-3.2-2.4l0.2-0.3c0.9,1.2,1.8,1.7,2.7,1.7 c1.4,0,2.5-1.1,2.5-3.4C99.8,150.2,98.8,148.9,97.5,148.9z"/><path id="path186" d="M107.8,160v0.5h-4.5V160l1.7-0.3h1.1L107.8,160z M106.1,153.3l0.2,0.1v7.1h-1.2v-6.1l-1.4,0.1v-0.6L106.1,153.3z"/></g></g><g id="g198"><g id="g196"><path id="path192" d="M211,104.3v0.6h-4.6v-0.6l2-0.4h0.4L211,104.3z M207.9,96c0-1,0-1.5-0.1-2.3l-1.4-0.2v-0.6l2.4-1.1l0.3,0.2l0.1,1.5h0.1 v5.6l-0.1,0.1v1.8c0,1.3,0,2.6,0.1,3.8h-1.5c0-1.3,0.1-2.5,0.1-3.8L207.9,96L207.9,96z M211.6,92.8c-0.7,0-1.6,0.3-2.9,1.6 l-0.2-0.3c1-1.6,2.2-2.3,3.4-2.3c1.9,0,3.4,1.7,3.4,4.5s-1.6,4.5-3.7,4.5c-1.1,0-2.2-0.5-3.2-2.4l0.2-0.3c0.9,1.2,1.8,1.7,2.7,1.7 c1.4,0,2.5-1.1,2.5-3.4C213.9,94.1,212.9,92.8,211.6,92.8z"/><path id="path194" d="M217.2,103.5l1.7-1.6c1.1-1,1.6-1.9,1.6-2.8s-0.5-1.4-1.4-1.4c-0.3,0-0.7,0.1-1.1,0.2l0.7-0.5l-0.3,1 c-0.2,0.7-0.4,0.9-0.7,0.9s-0.5-0.2-0.6-0.4c0.1-1.2,1.2-1.8,2.5-1.8c1.6,0,2.2,0.9,2.2,1.9s-0.7,1.8-2.3,3.3l-1.7,1.6l0.3-0.7h4 v1.2h-4.8L217.2,103.5L217.2,103.5z"/></g></g><g id="g206"><g id="g204"><path id="path200" d="M284.7,108.9v0.6h-4.6v-0.6l2-0.4h0.4L284.7,108.9z M281.6,100.6c0-1,0-1.5-0.1-2.3l-1.4-0.2v-0.6l2.4-1.1l0.3,0.2 l0.1,1.5h0.1v5.6l-0.1,0.1v1.8c0,1.3,0,2.6,0.1,3.8h-1.5c0-1.3,0.1-2.5,0.1-3.8V100.6z M285.3,97.4c-0.7,0-1.6,0.3-2.9,1.6 l-0.2-0.3c1-1.6,2.2-2.3,3.4-2.3c1.9,0,3.4,1.7,3.4,4.5s-1.6,4.5-3.7,4.5c-1.1,0-2.2-0.5-3.2-2.4l0.2-0.3c0.9,1.2,1.8,1.7,2.7,1.7 c1.4,0,2.5-1.1,2.5-3.4C287.6,98.7,286.6,97.4,285.3,97.4z"/><path id="path202" d="M295.8,105.5c0,2.6-1.2,3.7-2.5,3.7s-2.5-1.1-2.5-3.7s1.2-3.7,2.5-3.7C294.5,101.7,295.8,102.8,295.8,105.5z M293.3,108.6 c0.6,0,1.2-0.6,1.2-3.1c0-2.6-0.6-3.1-1.2-3.1s-1.2,0.5-1.2,3.1C292,108,292.6,108.6,293.3,108.6z"/></g></g><g id="g214"><g id="g212"><path id="path208" d="M377.2,160.4v0.6h-4.6v-0.6l2-0.4h0.4L377.2,160.4z M374.1,152.1c0-1,0-1.5-0.1-2.3l-1.4-0.2V149l2.4-1.1l0.3,0.2l0.1,1.5 h0.1v5.6l-0.1,0.1v1.8c0,1.3,0,2.6,0.1,3.8H374c0-1.3,0.1-2.5,0.1-3.8V152.1z M377.8,148.9c-0.7,0-1.6,0.3-2.9,1.6l-0.2-0.3 c1-1.6,2.2-2.3,3.4-2.3c1.9,0,3.4,1.7,3.4,4.5s-1.6,4.5-3.7,4.5c-1.1,0-2.2-0.5-3.2-2.4l0.2-0.3c0.9,1.2,1.8,1.7,2.7,1.7 c1.4,0,2.5-1.1,2.5-3.4C380.1,150.2,379.1,148.9,377.8,148.9z"/><path id="path210" d="M388.1,160v0.5h-4.5V160l1.7-0.3h1.1L388.1,160z M386.4,153.3l0.2,0.1v7.1h-1.2v-6.1l-1.4,0.1v-0.6L386.4,153.3z"/></g></g><g id="g222"><g id="g220"><path id="path216" d="M490.1,104.3v0.6h-4.6v-0.6l2-0.4h0.4L490.1,104.3z M487,96c0-1,0-1.5-0.1-2.3l-1.4-0.2v-0.6l2.4-1.1l0.3,0.2l0.1,1.5h0.1 v5.6l-0.1,0.1v1.8c0,1.3,0,2.6,0.1,3.8h-1.5c0-1.3,0.1-2.5,0.1-3.8V96z M490.7,92.8c-0.7,0-1.6,0.3-2.9,1.6l-0.2-0.3 c1-1.6,2.2-2.3,3.4-2.3c1.9,0,3.4,1.7,3.4,4.5s-1.6,4.5-3.7,4.5c-1.1,0-2.2-0.5-3.2-2.4l0.2-0.3c0.9,1.2,1.8,1.7,2.7,1.7 c1.4,0,2.5-1.1,2.5-3.4C493,94.1,492,92.8,490.7,92.8z"/><path id="path218" d="M496.3,103.5l1.7-1.6c1.1-1,1.6-1.9,1.6-2.8s-0.5-1.4-1.4-1.4c-0.3,0-0.7,0.1-1.1,0.2l0.7-0.5l-0.3,1 c-0.2,0.7-0.4,0.9-0.7,0.9c-0.3,0-0.5-0.2-0.6-0.4c0.1-1.2,1.2-1.8,2.5-1.8c1.6,0,2.2,0.9,2.2,1.9s-0.7,1.8-2.3,3.3l-1.7,1.6 l0.3-0.7h4v1.2h-4.8v-0.9H496.3z"/></g></g><path id="path178-6" d="m 73.601453,81.294142 c 0,2.6 -1.2,3.7 -2.5,3.7 -1.3,0 -2.5,-1.1 -2.5,-3.7 0,-2.6 1.2,-3.7 2.5,-3.7 1.3,-0.1 2.5,1 2.5,3.7 z m -2.5,3.1 c 0.6,0 1.2,-0.6 1.2,-3.1 0,-2.6 -0.6,-3.1 -1.2,-3.1 -0.6,0 -1.2,0.5 -1.2,3.1 0,2.5 0.6,3.1 1.2,3.1 z"/></svg>