<svg xmlns="http://www.w3.org/2000/svg" xmlns:xlink="http://www.w3.org/1999/xlink" width="644pt" height="416" viewBox="68 -281 10208 4942"><g fill="none"><polyline stroke="#535353" stroke-linejoin="round" stroke-width="8" points="1006 2315 2902 2498"/><polyline stroke="#9f9f9f" stroke-linejoin="round" stroke-width="8" points="1972 2612 1943 2405"/><polyline stroke="#535353" stroke-linejoin="round" stroke-width="8" points="2936 2707 1027 2519"/><polyline stroke="#535353" stroke-linejoin="round" stroke-width="8" points="6355 2865 8346 2326"/><polyline stroke="#9f9f9f" stroke-linejoin="round" stroke-width="8" points="7520 2795 7375 2589"/><polyline stroke="#535353" stroke-linejoin="round" stroke-width="8" points="8493 2525 6502 3079"/><polyline stroke="#535353" stroke-linejoin="round" stroke-width="8" points="952 569 1006 2315"/><polyline stroke="#9f9f9f" stroke-linejoin="round" stroke-width="8" points="811 1492 979 1471"/><polyline stroke="#535353" stroke-linejoin="round" stroke-width="8" points="8727 1999 8779 113"/><polyline stroke="#9f9f9f" stroke-linejoin="round" stroke-width="8" points="8969 1226 8752 1097"/><polyline stroke="#535353" stroke-linejoin="round" stroke-width="8" points="9005 242 8935 2126"/><polyline stroke="#535353" stroke-linejoin="round" stroke-width="8" points="2902 2498 952 569"/><polyline stroke="#535353" stroke-linejoin="round" stroke-width="8" points="843 2344 777 580"/><polyline stroke="#9f9f9f" stroke-linejoin="round" stroke-width="8" points="2074 1455 1950 1557"/><polyline stroke="#535353" stroke-linejoin="round" stroke-width="8" points="9525 3809 8493 2525"/><polyline stroke="#9f9f9f" stroke-linejoin="round" stroke-width="8" points="8981 3131 8987 2965"/><polyline stroke="#000" stroke-linejoin="round" stroke-width="30" points="1074 460 3029 2405"/><polyline stroke="#9f9f9f" stroke-linejoin="round" stroke-width="8" points="9445 2718 9255 2772"/><polyline stroke="#535353" stroke-linejoin="round" stroke-width="8" points="8935 2126 10012 3376"/><polyline stroke="#000" stroke-linejoin="round" stroke-width="15" points="8495 2362 9538 3639"/><polyline stroke="#000" stroke-linejoin="round" stroke-width="15" points="9815 3437 8754 2176"/><polyline stroke="#535353" stroke-linejoin="round" stroke-width="8" points="8346 2326 6196 966"/><polyline stroke="#9f9f9f" stroke-linejoin="round" stroke-width="8" points="7493 1725 7346 1693"/><polyline stroke="#535353" stroke-linejoin="round" stroke-width="8" points="3029 2405 3117 619"/><polyline stroke="#9f9f9f" stroke-linejoin="round" stroke-width="8" points="7740 1342 7761 1526"/><polyline stroke="#535353" stroke-linejoin="round" stroke-width="8" points="6604 587 8727 1999"/><polyline stroke="#9f9f9f" stroke-linejoin="round" stroke-width="8" points="3072 1541 3176 1700"/><polyline stroke="#9f9f9f" stroke-linejoin="round" stroke-width="8" points="795 3045 600 2863"/><polyline stroke="#535353" stroke-linejoin="round" stroke-width="8" points="1027 2519 535 3634"/><polyline stroke="#000" stroke-linejoin="round" stroke-width="15" points="6339 993 8495 2362"/><polyline stroke="#000" stroke-linejoin="round" stroke-width="15" points="8754 2176 6613 777"/><polyline stroke="#535353" stroke-linejoin="round" stroke-width="8" points="326 3446 843 2344"/><polyline stroke="#535353" stroke-linejoin="round" stroke-width="8" points="3226 773 3131 2568"/><polyline stroke="#535353" stroke-linejoin="round" stroke-width="8" points="6196 966 6355 2865"/><polyline stroke="#9f9f9f" stroke-linejoin="round" stroke-width="8" points="6205 2049 6280 1959"/><polyline stroke="#535353" stroke-linejoin="round" stroke-width="8" points="3117 619 1074 460"/><polyline stroke="#535353" stroke-linejoin="round" stroke-width="8" points="2673 3874 2936 2707"/><polyline stroke="#9f9f9f" stroke-linejoin="round" stroke-width="8" points="2813 3258 3017 3113"/><polyline stroke="#9f9f9f" stroke-linejoin="round" stroke-width="8" points="2083 537 1986 492"/><polyline stroke="#535353" stroke-linejoin="round" stroke-width="8" points="6502 3079 7348 4502"/><polyline stroke="#535353" stroke-linejoin="round" stroke-width="8" points="6287 2967 6119 1043"/><polyline stroke="#9f9f9f" stroke-linejoin="round" stroke-width="8" points="6899 3750 6679 3641"/><polyline stroke="#535353" stroke-linejoin="round" stroke-width="8" points="8779 113 6604 587"/><polyline stroke="#000" stroke-linejoin="round" stroke-width="30" points="3131 2568 2890 3729"/><polyline stroke="#535353" stroke-linejoin="round" stroke-width="8" points="961 415 3033 571"/><polyline stroke="#535353" stroke-linejoin="round" stroke-width="8" points="7119 4398 6287 2967"/><polyline stroke="#9f9f9f" stroke-linejoin="round" stroke-width="8" points="7738 324 7720 344"/><polyline stroke="#535353" stroke-linejoin="round" stroke-width="8" points="6600 573 8815 90"/><polyline stroke="#535353" stroke-linejoin="round" stroke-width="8" points="7348 4502 9525 3809"/><polyline stroke="#9f9f9f" stroke-linejoin="round" stroke-width="8" points="8500 4201 8466 4146"/><polyline stroke="#535353" stroke-linejoin="round" stroke-width="8" points="10203 1378 9005 242"/><polyline stroke="#535353" stroke-linejoin="round" stroke-width="8" points="9579 3854 7362 4564"/><polyline stroke="#9f9f9f" stroke-linejoin="round" stroke-width="8" points="9373 621 9568 775"/><polyline stroke="#535353" stroke-linejoin="round" stroke-width="8" points="535 3634 2673 3874"/><polyline stroke="#535353" stroke-linejoin="round" stroke-width="8" points="10012 3376 10203 1378"/><polyline stroke="#535353" stroke-linejoin="round" stroke-width="8" points="8815 90 10003 1222"/><polyline stroke="#9f9f9f" stroke-linejoin="round" stroke-width="8" points="1480 3756 1591 3754"/><polyline stroke="#535353" stroke-linejoin="round" stroke-width="8" points="777 580 213 1532"/><polyline stroke="#9f9f9f" stroke-linejoin="round" stroke-width="8" points="707 854 512 1027"/><polyline stroke="#9f9f9f" stroke-linejoin="round" stroke-width="8" points="10094 2532 10103 2426"/><polyline stroke="#535353" stroke-linejoin="round" stroke-width="8" points="2580 3879 410 3636"/><polyline stroke="#000" stroke-linejoin="round" stroke-width="30" points="417 1353 961 415"/><polyline stroke="#535353" stroke-linejoin="round" stroke-width="8" points="10194 1469 10001 3493"/><polyline stroke="#535353" stroke-linejoin="round" stroke-width="8" points="213 1532 326 3446"/><polyline stroke="#9f9f9f" stroke-linejoin="round" stroke-width="8" points="8525 3249 8491 3022"/><polyline stroke="#000" stroke-linejoin="round" stroke-width="15" points="9538 3639 7264 2299"/><polyline stroke="#9f9f9f" stroke-linejoin="round" stroke-width="8" points="3110 1244 2906 1034"/><polyline stroke="#9f9f9f" stroke-linejoin="round" stroke-width="8" points="356 2714 272 2525"/><polyline stroke="#000" stroke-linejoin="round" stroke-width="15" points="7563 2063 9815 3437"/><polyline stroke="#9f9f9f" stroke-linejoin="round" stroke-width="8" points="8965 2859 8779 2806"/><polyline stroke="#535353" stroke-linejoin="round" stroke-width="8" points="2979 1782 3226 773"/><polyline stroke="#535353" stroke-linejoin="round" stroke-width="8" points="3033 571 2759 1560"/><polyline stroke="#535353" stroke-linejoin="round" stroke-width="8" points="7287 2537 9579 3854"/><polyline stroke="#535353" stroke-linejoin="round" stroke-width="8" points="410 3636 299 1716"/><polyline stroke="#9f9f9f" stroke-linejoin="round" stroke-width="8" points="6772 1603 6539 1662"/><polyline stroke="#000" stroke-linejoin="round" stroke-width="45" points="6753 1576 7260 2292"/><polyline stroke="#000" stroke-linejoin="round" stroke-width="15" points="7264 2299 6339 993"/><polyline stroke="#535353" stroke-linejoin="round" stroke-width="8" points="10001 3493 7747 2110"/><polyline stroke="#000" stroke-linejoin="round" stroke-width="15" points="6613 777 7563 2063"/><polyline stroke="#9f9f9f" stroke-linejoin="round" stroke-width="8" points="7047 1167 7058 1378"/><polyline stroke="#535353" stroke-linejoin="round" stroke-width="8" points="6119 1043 7017 2364"/><polyline stroke="#535353" stroke-linejoin="round" stroke-width="8" points="299 1716 2580 3879"/><polyline stroke="#535353" stroke-linejoin="round" stroke-width="8" points="7557 1845 6600 573"/><polyline stroke="#9f9f9f" stroke-linejoin="round" stroke-width="8" points="1469 2827 1612 2718"/><polyline stroke="#9f9f9f" stroke-linejoin="round" stroke-width="8" points="7325 3605 7071 3434"/><polyline stroke="#535353" stroke-linejoin="round" stroke-width="8" points="7017 2364 7119 4398"/><polyline stroke="#535353" stroke-linejoin="round" stroke-width="8" points="2890 3729 2979 1782"/><polyline stroke="#000" stroke-linejoin="round" stroke-width="30" points="2725 3781 437 1598"/><polyline stroke="#535353" stroke-linejoin="round" stroke-width="8" points="7362 4564 7287 2537"/><polyline stroke="#9f9f9f" stroke-linejoin="round" stroke-width="8" points="2934 2793 2761 2834"/><polyline stroke="#535353" stroke-linejoin="round" stroke-width="8" points="2802 1811 2725 3781"/><polyline stroke="#535353" stroke-linejoin="round" stroke-width="8" points="10003 1222 7557 1845"/><polyline stroke="#9f9f9f" stroke-linejoin="round" stroke-width="8" points="9008 1779 8817 1523"/><polyline stroke="#535353" stroke-linejoin="round" stroke-width="8" points="7747 2110 10194 1469"/><polyline stroke="#535353" stroke-linejoin="round" stroke-width="8" points="2759 1560 417 1353"/><polyline stroke="#9f9f9f" stroke-linejoin="round" stroke-width="8" points="1605 1702 1573 1455"/><polyline stroke="#535353" stroke-linejoin="round" stroke-width="8" points="437 1598 2802 1811"/><defs><clipPath id="cp0"><path d="M 68,-281 H 10276 V 4661 H 68 z M 3418,3942 3405,3790 3518,3689 3136,3672 3128,3692z" clip-rule="evenodd"/></clipPath></defs><path stroke="#000" stroke-width="15" d="M 6607,3765 A 4602 4602 0 0 1 3142 3686" clip-path="url(#cp0)"/><polygon stroke="#000" stroke-miterlimit="8" stroke-width="8" points="3518 3689 3152 3690 3418 3942 3405 3790 3518 3689"/><defs><clipPath id="cp1"><path d="M 68,-281 H 10276 V 4661 H 68 z M 5803,517 5812,669 5696,767 6078,794 6086,774z" clip-rule="evenodd"/></clipPath></defs><path stroke="#000" stroke-width="15" d="M 3441,732 A 3162 3162 0 0 1 6072 780" clip-path="url(#cp1)"/><polygon stroke="#000" stroke-miterlimit="8" stroke-width="8" points="5696 767 6062 776 5803 517 5812 669 5696 767"/><text x="2113" y="-50" fill="#000" font-family="Times" font-size="216" font-style="normal" font-weight="normal" text-anchor="start" xml:space="preserve">dh9=gm.insert_cell_2_in_cell_3</text><text x="3468" y="4305" fill="#000" font-family="Times" font-size="216" font-style="normal" font-weight="normal" text-anchor="start" xml:space="preserve">gm.remove_cell&lt;2&gt;(dh9)</text><text x="2005" y="3054" fill="#000" font-family="Times" font-size="216" font-style="normal" font-weight="normal" text-anchor="start" xml:space="preserve">dh1</text><text x="1055" y="2134" fill="#000" font-family="Times" font-size="216" font-style="normal" font-weight="normal" text-anchor="start" xml:space="preserve">dh2</text><text x="83" y="1157" fill="#000" font-family="Times" font-size="216" font-style="normal" font-weight="normal" text-anchor="start" xml:space="preserve">dh3</text><text x="191" y="808" fill="#000" font-family="Times" font-size="216" font-style="normal" font-weight="normal" text-anchor="start" xml:space="preserve">dh4</text><text x="1511" y="887" fill="#000" font-family="Times" font-size="216" font-style="normal" font-weight="normal" text-anchor="start" xml:space="preserve">dh5</text><text x="2391" y="1728" fill="#000" font-family="Times" font-size="216" font-style="normal" font-weight="normal" text-anchor="start" xml:space="preserve">dh6</text><text x="3110" y="2978" fill="#000" font-family="Times" font-size="216" font-style="normal" font-weight="normal" text-anchor="start" xml:space="preserve">dh7</text><text x="3003" y="3493" fill="#000" font-family="Times" font-size="216" font-style="normal" font-weight="normal" text-anchor="start" xml:space="preserve">dh8</text><text x="6544" y="2153" fill="#000" font-family="Times" font-size="216" font-style="normal" font-weight="normal" text-anchor="start" xml:space="preserve">dh9</text><text x="3750" y="281" fill="#000" font-family="Times" font-size="216" font-style="normal" font-weight="normal" text-anchor="start" xml:space="preserve">(std::vector{dh1,dh3,dh5,dh7})</text><circle cx="745" cy="583" r="64" fill="#5d5d5d"/><circle cx="944" cy="415" r="64" fill="#5d5d5d"/><circle cx="975" cy="591" r="64" fill="#5d5d5d"/><circle cx="1120" cy="499" r="64" fill="#5d5d5d"/><circle cx="3003" cy="537" r="64" fill="#5d5d5d"/><circle cx="3140" cy="621" r="64" fill="#5d5d5d"/><circle cx="3232" cy="797" r="64" fill="#5d5d5d"/><circle cx="3041" cy="2382" r="64" fill="#5d5d5d"/><circle cx="2880" cy="2489" r="64" fill="#5d5d5d"/><circle cx="2872" cy="2726" r="64" fill="#5d5d5d"/><circle cx="3117" cy="2596" r="64" fill="#5d5d5d"/><circle cx="2903" cy="3728" r="64" fill="#5d5d5d"/><circle cx="2750" cy="3751" r="64" fill="#5d5d5d"/><circle cx="2681" cy="3897" r="64" fill="#5d5d5d"/><circle cx="2528" cy="3866" r="64" fill="#5d5d5d"/><circle cx="401" cy="3652" r="64" fill="#5d5d5d"/><circle cx="569" cy="3660" r="64" fill="#5d5d5d"/><circle cx="309" cy="3430" r="64" fill="#5d5d5d"/><circle cx="217" cy="1517" r="64" fill="#5d5d5d"/><circle cx="316" cy="1762" r="64" fill="#5d5d5d"/><circle cx="469" cy="1593" r="64" fill="#5d5d5d"/><circle cx="446" cy="1341" r="64" fill="#5d5d5d"/><circle cx="6110" cy="1088" r="64" fill="#5d5d5d"/><circle cx="6186" cy="958" r="64" fill="#5d5d5d"/><circle cx="6362" cy="1004" r="64" fill="#5d5d5d"/><circle cx="6622" cy="805" r="64" fill="#5d5d5d"/><circle cx="6645" cy="637" r="64" fill="#5d5d5d"/><circle cx="6638" cy="552" r="64" fill="#5d5d5d"/><circle cx="8745" cy="175" r="64" fill="#5d5d5d"/><circle cx="8827" cy="86" r="64" fill="#5d5d5d"/><circle cx="8990" cy="253" r="64" fill="#5d5d5d"/><circle cx="9967" cy="1226" r="64" fill="#5d5d5d"/><circle cx="10212" cy="1379" r="64" fill="#5d5d5d"/><circle cx="10166" cy="1494" r="64" fill="#5d5d5d"/><circle cx="10009" cy="3318" r="64" fill="#5d5d5d"/><circle cx="10013" cy="3499" r="64" fill="#5d5d5d"/><circle cx="9783" cy="3453" r="64" fill="#5d5d5d"/><circle cx="9515" cy="3598" r="64" fill="#5d5d5d"/><circle cx="9500" cy="3774" r="64" fill="#5d5d5d"/><circle cx="9592" cy="3866" r="64" fill="#5d5d5d"/><circle cx="7400" cy="4598" r="64" fill="#5d5d5d"/><circle cx="7319" cy="4471" r="64" fill="#5d5d5d"/><circle cx="7128" cy="4394" r="64" fill="#5d5d5d"/><circle cx="6278" cy="2978" r="64" fill="#5d5d5d"/><circle cx="6370" cy="2841" r="64" fill="#5d5d5d"/><circle cx="6500" cy="3086" r="64" fill="#5d5d5d"/><circle cx="7020" cy="2351" r="64" fill="#5d5d5d"/><circle cx="7242" cy="2282" r="64" fill="#5d5d5d"/><circle cx="7265" cy="2550" r="64" fill="#5d5d5d"/><circle cx="8505" cy="2519" r="64" fill="#5d5d5d"/><circle cx="8314" cy="2343" r="64" fill="#5d5d5d"/><circle cx="8497" cy="2359" r="64" fill="#5d5d5d"/><circle cx="8750" cy="2190" r="64" fill="#5d5d5d"/><circle cx="8719" cy="1991" r="64" fill="#5d5d5d"/><circle cx="8949" cy="2121" r="64" fill="#5d5d5d"/><circle cx="7533" cy="2083" r="64" fill="#5d5d5d"/><circle cx="7571" cy="1831" r="64" fill="#5d5d5d"/><circle cx="7801" cy="2091" r="64" fill="#5d5d5d"/></g></svg>